G04 #@! TF.GenerationSoftware,KiCad,Pcbnew,5.0-dev-unknown-28f1209~61~ubuntu16.04.1*
G04 #@! TF.CreationDate,2018-02-18T17:05:59+01:00*
G04 #@! TF.ProjectId,roboy_crazyfly,726F626F795F6372617A79666C792E6B,rev?*
G04 #@! TF.SameCoordinates,Original*
G04 #@! TF.FileFunction,Copper,L2,Inr,Signal*
G04 #@! TF.FilePolarity,Positive*
%FSLAX46Y46*%
G04 Gerber Fmt 4.6, Leading zero omitted, Abs format (unit mm)*
G04 Created by KiCad (PCBNEW 5.0-dev-unknown-28f1209~61~ubuntu16.04.1) date Sun Feb 18 17:05:59 2018*
%MOMM*%
%LPD*%
G01*
G04 APERTURE LIST*
%ADD10C,1.727200*%
%ADD11C,0.100000*%
%ADD12C,1.727200*%
%ADD13R,2.032000X2.032000*%
%ADD14O,2.032000X2.032000*%
%ADD15C,0.500000*%
%ADD16C,0.150000*%
%ADD17C,0.152400*%
G04 APERTURE END LIST*
D10*
X127600000Y-99600000D03*
D11*
G36*
X128929078Y-99492237D02*
X127492237Y-100929078D01*
X126270922Y-99707763D01*
X127707763Y-98270922D01*
X128929078Y-99492237D01*
X128929078Y-99492237D01*
G37*
D10*
X125803949Y-97803949D03*
D12*
X125696186Y-97911712D02*
X125911712Y-97696186D01*
D10*
X124007898Y-96007898D03*
D12*
X123900135Y-96115661D02*
X124115661Y-95900135D01*
D10*
X122211846Y-94211846D03*
D12*
X122104083Y-94319609D02*
X122319609Y-94104083D01*
D10*
X120415795Y-92415795D03*
D12*
X120308032Y-92523558D02*
X120523558Y-92308032D01*
D10*
X118619744Y-90619744D03*
D12*
X118511981Y-90727507D02*
X118727507Y-90511981D01*
D13*
X141000000Y-101000000D03*
D14*
X138460000Y-101000000D03*
D10*
X135600000Y-66200000D03*
D11*
G36*
X135492237Y-64870922D02*
X136929078Y-66307763D01*
X135707763Y-67529078D01*
X134270922Y-66092237D01*
X135492237Y-64870922D01*
X135492237Y-64870922D01*
G37*
D10*
X133803949Y-67996051D03*
D12*
X133911712Y-68103814D02*
X133696186Y-67888288D01*
D10*
X132007898Y-69792102D03*
D12*
X132115661Y-69899865D02*
X131900135Y-69684339D01*
D10*
X130211846Y-71588154D03*
D12*
X130319609Y-71695917D02*
X130104083Y-71480391D01*
D10*
X161900000Y-91000000D03*
D11*
G36*
X161792237Y-89670922D02*
X163229078Y-91107763D01*
X162007763Y-92329078D01*
X160570922Y-90892237D01*
X161792237Y-89670922D01*
X161792237Y-89670922D01*
G37*
D10*
X160103949Y-92796051D03*
D12*
X160211712Y-92903814D02*
X159996186Y-92688288D01*
D10*
X158307898Y-94592102D03*
D12*
X158415661Y-94699865D02*
X158200135Y-94484339D01*
D10*
X156511846Y-96388154D03*
D12*
X156619609Y-96495917D02*
X156404083Y-96280391D01*
D10*
X154715795Y-98184205D03*
D12*
X154823558Y-98291968D02*
X154608032Y-98076442D01*
D10*
X152919744Y-99980256D03*
D12*
X153027507Y-100088019D02*
X152811981Y-99872493D01*
D10*
X151123693Y-101776307D03*
D12*
X151231456Y-101884070D02*
X151015930Y-101668544D01*
D10*
X149327641Y-103572359D03*
D12*
X149435404Y-103680122D02*
X149219878Y-103464596D01*
D10*
X147531590Y-105368410D03*
D12*
X147639353Y-105476173D02*
X147423827Y-105260647D01*
D10*
X145735539Y-107164461D03*
D12*
X145843302Y-107272224D02*
X145627776Y-107056698D01*
D10*
X117800000Y-79500000D03*
D11*
G36*
X117907763Y-80829078D02*
X116470922Y-79392237D01*
X117692237Y-78170922D01*
X119129078Y-79607763D01*
X117907763Y-80829078D01*
X117907763Y-80829078D01*
G37*
D10*
X119596051Y-77703949D03*
D12*
X119488288Y-77596186D02*
X119703814Y-77811712D01*
D10*
X121392102Y-75907898D03*
D12*
X121284339Y-75800135D02*
X121499865Y-76015661D01*
D10*
X123188154Y-74111846D03*
D12*
X123080391Y-74004083D02*
X123295917Y-74219609D01*
D10*
X124984205Y-72315795D03*
D12*
X124876442Y-72208032D02*
X125091968Y-72423558D01*
D10*
X126780256Y-70519744D03*
D12*
X126672493Y-70411981D02*
X126888019Y-70627507D01*
D10*
X128576307Y-68723693D03*
D12*
X128468544Y-68615930D02*
X128684070Y-68831456D01*
D10*
X130372359Y-66927641D03*
D12*
X130264596Y-66819878D02*
X130480122Y-67035404D01*
D10*
X132168410Y-65131590D03*
D12*
X132060647Y-65023827D02*
X132276173Y-65239353D01*
D10*
X133964461Y-63335539D03*
D12*
X133856698Y-63227776D02*
X134072224Y-63443302D01*
D15*
X145230000Y-73570000D03*
X135699500Y-82486500D03*
X151100000Y-88400000D03*
X136620000Y-91620000D03*
X143130000Y-75400000D03*
X142270000Y-80830000D03*
X129950000Y-88500000D03*
X130040000Y-89820000D03*
X138300000Y-81770000D03*
X153130000Y-94040000D03*
X136400000Y-104830000D03*
X128480000Y-89790000D03*
X129620000Y-91610000D03*
X132280000Y-82690000D03*
X123400000Y-82190000D03*
X139400000Y-77710000D03*
X135100000Y-78660000D03*
X144250000Y-64300000D03*
X142825000Y-88225000D03*
X137100000Y-88925000D03*
X158550000Y-86850000D03*
X150700000Y-97800000D03*
X164300000Y-81200000D03*
X136000000Y-60600000D03*
X115900000Y-81000000D03*
X135400000Y-109300000D03*
X145620000Y-77950000D03*
X135970000Y-80920000D03*
X136860000Y-78070000D03*
X133830000Y-75810000D03*
X132850000Y-83000000D03*
X135430000Y-91670000D03*
X150930000Y-89550000D03*
X127400000Y-81350000D03*
X122070000Y-87310000D03*
X134170000Y-105200000D03*
X132480000Y-86260000D03*
X149470000Y-71250000D03*
X147300000Y-72000000D03*
X153200000Y-95000000D03*
X128940000Y-89370000D03*
X133130000Y-88750000D03*
X145810000Y-98330000D03*
X133810000Y-96850000D03*
X133400000Y-92240000D03*
X140470000Y-98560000D03*
X140670000Y-88310000D03*
X141080000Y-96350000D03*
X156000000Y-81500000D03*
X153400000Y-89800000D03*
X151560000Y-87190000D03*
X142340000Y-87250000D03*
X128590000Y-79100000D03*
X139375000Y-89600000D03*
X151100000Y-86600000D03*
X150300000Y-83000000D03*
X150910000Y-85400000D03*
X147320000Y-82420000D03*
X158530000Y-85430000D03*
X143110521Y-98949479D03*
X138500000Y-65400000D03*
X121500000Y-85400000D03*
X147036979Y-86471979D03*
X148940000Y-86230000D03*
X145040000Y-74580000D03*
X145520000Y-78900000D03*
X126475000Y-90375000D03*
X143725000Y-88350000D03*
X143575000Y-89375000D03*
X146700000Y-79900000D03*
X143000000Y-70300000D03*
X143400000Y-71000000D03*
X147300000Y-79600000D03*
X156270000Y-88110000D03*
X141880000Y-88380000D03*
X135470000Y-80450000D03*
X138100000Y-87770000D03*
X145760000Y-99200000D03*
X144230000Y-98490000D03*
X137650000Y-75475000D03*
X138025000Y-80450000D03*
X139075000Y-87875000D03*
X139475000Y-91625000D03*
X144080000Y-100520000D03*
X140100000Y-91650000D03*
X144775000Y-102275000D03*
X140014479Y-105475521D03*
X118430000Y-85040000D03*
X140010000Y-64900000D03*
X160800000Y-85780000D03*
X136750000Y-87900000D03*
X131990000Y-87140000D03*
X143000000Y-81050000D03*
X127090000Y-86840000D03*
X129020000Y-85630000D03*
X141370000Y-109740000D03*
X128350000Y-93210000D03*
X137075000Y-86125000D03*
X135250000Y-77675000D03*
X147300000Y-85225000D03*
X138400000Y-86625000D03*
X125490000Y-84220000D03*
X114590000Y-86300000D03*
X139400000Y-84600000D03*
X133900000Y-74050000D03*
X146700000Y-85175000D03*
X137775000Y-85775000D03*
X142525000Y-60400000D03*
X135775000Y-83350000D03*
X165360000Y-86620000D03*
X137690000Y-83460000D03*
X134260000Y-80130000D03*
X135460000Y-88670000D03*
X133110000Y-89550000D03*
X141110000Y-94010000D03*
X142340000Y-95590000D03*
X155200000Y-93425000D03*
X147100000Y-96575000D03*
X135400000Y-92750000D03*
X134860000Y-96490000D03*
X135850000Y-94325000D03*
X140650000Y-92275000D03*
X151600000Y-96100000D03*
X148300000Y-100900000D03*
X140400000Y-84750000D03*
X129770000Y-85150000D03*
X133090000Y-86750000D03*
X137675000Y-84750000D03*
X135350000Y-85375000D03*
X155800000Y-83200000D03*
X152900000Y-89350000D03*
X154300000Y-81900000D03*
X152100000Y-88500000D03*
D16*
X128480000Y-89790000D02*
X128200000Y-89510000D01*
X132280000Y-83550000D02*
X132280000Y-82690000D01*
X128200000Y-87630000D02*
X132280000Y-83550000D01*
X128200000Y-89510000D02*
X128200000Y-87630000D01*
X126950000Y-78660000D02*
X135100000Y-78660000D01*
X123420000Y-82190000D02*
X126950000Y-78660000D01*
X123400000Y-82190000D02*
X123420000Y-82190000D01*
X135110000Y-78660000D02*
X135060000Y-78660000D01*
X135100000Y-78660000D02*
X135110000Y-78660000D01*
X156475000Y-88925000D02*
X137100000Y-88925000D01*
X158550000Y-86850000D02*
X156475000Y-88925000D01*
X135420000Y-91660000D02*
X135420000Y-91650000D01*
X135430000Y-91670000D02*
X135420000Y-91660000D01*
X127400000Y-81400000D02*
X127400000Y-81300000D01*
X127400000Y-81300000D02*
X127400000Y-81350000D01*
X122060000Y-87300000D02*
X122000000Y-87300000D01*
X122070000Y-87310000D02*
X122060000Y-87300000D01*
X132480000Y-86260000D02*
X132520000Y-87730000D01*
X132520000Y-87730000D02*
X125378949Y-95571051D01*
X125378949Y-95571051D02*
X125378949Y-98328949D01*
X147300000Y-72000000D02*
X147980000Y-72000000D01*
X147980000Y-72000000D02*
X148730000Y-71250000D01*
X148730000Y-71250000D02*
X149470000Y-71250000D01*
X142400000Y-87190000D02*
X151560000Y-87190000D01*
X142340000Y-87250000D02*
X142400000Y-87190000D01*
X148940000Y-86230000D02*
X147278958Y-86230000D01*
X147278958Y-86230000D02*
X147036979Y-86471979D01*
X123582898Y-93267102D02*
X123582898Y-96532898D01*
X126475000Y-90375000D02*
X123582898Y-93267102D01*
X142974999Y-74615997D02*
X146700000Y-78340998D01*
X142974999Y-70678554D02*
X142974999Y-74615997D01*
X143000000Y-70653553D02*
X142974999Y-70678554D01*
X143000000Y-70300000D02*
X143000000Y-70653553D01*
X146700000Y-78340998D02*
X146700000Y-79900000D01*
X147300000Y-79600000D02*
X147300000Y-74900000D01*
X147300000Y-74900000D02*
X143400000Y-71000000D01*
X155870000Y-87710000D02*
X156270000Y-88110000D01*
X142550000Y-87710000D02*
X155870000Y-87710000D01*
X141880000Y-88380000D02*
X142550000Y-87710000D01*
X137650000Y-80075000D02*
X137650000Y-75475000D01*
X138025000Y-80450000D02*
X137650000Y-80075000D01*
X127090000Y-86840000D02*
X128300000Y-85630000D01*
X128300000Y-85630000D02*
X129020000Y-85630000D01*
X141370000Y-109740000D02*
X141370000Y-106230000D01*
X141370000Y-106230000D02*
X128350000Y-93210000D01*
X145800000Y-86725000D02*
X147300000Y-85225000D01*
X138500000Y-86725000D02*
X145800000Y-86725000D01*
X138400000Y-86625000D02*
X138500000Y-86725000D01*
X125490000Y-84220000D02*
X123410000Y-86300000D01*
X123410000Y-86300000D02*
X114590000Y-86300000D01*
X139475000Y-84675000D02*
X139475000Y-85650000D01*
X139400000Y-84600000D02*
X139475000Y-84675000D01*
X146225000Y-85650000D02*
X146700000Y-85175000D01*
X137900000Y-85650000D02*
X139475000Y-85650000D01*
X139475000Y-85650000D02*
X146225000Y-85650000D01*
X137775000Y-85775000D02*
X137900000Y-85650000D01*
X142525000Y-76600000D02*
X142525000Y-60400000D01*
X135775000Y-83350000D02*
X142525000Y-76600000D01*
X164990000Y-86250000D02*
X165360000Y-86620000D01*
X153290000Y-86250000D02*
X164990000Y-86250000D01*
X151070000Y-84030000D02*
X153290000Y-86250000D01*
X146030000Y-84030000D02*
X151070000Y-84030000D01*
X145210000Y-83210000D02*
X146030000Y-84030000D01*
X137940000Y-83210000D02*
X145210000Y-83210000D01*
X137690000Y-83460000D02*
X137940000Y-83210000D01*
X134260000Y-87470000D02*
X134260000Y-80130000D01*
X135460000Y-88670000D02*
X134260000Y-87470000D01*
X147100000Y-96575000D02*
X143325000Y-96575000D01*
X134180000Y-90620000D02*
X133110000Y-89550000D01*
X139910000Y-90620000D02*
X134180000Y-90620000D01*
X141370000Y-92080000D02*
X139910000Y-90620000D01*
X141370000Y-93750000D02*
X141370000Y-92080000D01*
X141110000Y-94010000D02*
X141370000Y-93750000D01*
X143325000Y-96575000D02*
X142340000Y-95590000D01*
X155025000Y-93600000D02*
X155200000Y-93425000D01*
X150075000Y-93600000D02*
X155025000Y-93600000D01*
X147100000Y-96575000D02*
X150075000Y-93600000D01*
X138600000Y-94325000D02*
X135850000Y-94325000D01*
X140650000Y-92275000D02*
X138600000Y-94325000D01*
X151600000Y-96100000D02*
X151600000Y-97600000D01*
X148300000Y-100900000D02*
X151600000Y-97600000D01*
X135975000Y-84750000D02*
X137675000Y-84750000D01*
X135350000Y-85375000D02*
X135975000Y-84750000D01*
D17*
G36*
X142119263Y-60128895D02*
X142046400Y-60304801D01*
X142046400Y-60495199D01*
X142119263Y-60671105D01*
X142221401Y-60773243D01*
X142221400Y-76474244D01*
X138455930Y-80239715D01*
X138430737Y-80178895D01*
X138296105Y-80044263D01*
X138120199Y-79971400D01*
X137975754Y-79971400D01*
X137953600Y-79949246D01*
X137953600Y-77614801D01*
X138921400Y-77614801D01*
X138921400Y-77805199D01*
X138994263Y-77981105D01*
X139128895Y-78115737D01*
X139304801Y-78188600D01*
X139495199Y-78188600D01*
X139671105Y-78115737D01*
X139805737Y-77981105D01*
X139878600Y-77805199D01*
X139878600Y-77614801D01*
X139805737Y-77438895D01*
X139671105Y-77304263D01*
X139495199Y-77231400D01*
X139304801Y-77231400D01*
X139128895Y-77304263D01*
X138994263Y-77438895D01*
X138921400Y-77614801D01*
X137953600Y-77614801D01*
X137953600Y-75848242D01*
X138055737Y-75746105D01*
X138128600Y-75570199D01*
X138128600Y-75379801D01*
X138055737Y-75203895D01*
X137921105Y-75069263D01*
X137745199Y-74996400D01*
X137554801Y-74996400D01*
X137378895Y-75069263D01*
X137244263Y-75203895D01*
X137171400Y-75379801D01*
X137171400Y-75570199D01*
X137244263Y-75746105D01*
X137346401Y-75848243D01*
X137346400Y-80045103D01*
X137340453Y-80075000D01*
X137346400Y-80104897D01*
X137364016Y-80193458D01*
X137431117Y-80293883D01*
X137456468Y-80310822D01*
X137546400Y-80400754D01*
X137546400Y-80545199D01*
X137619263Y-80721105D01*
X137753895Y-80855737D01*
X137814716Y-80880930D01*
X136178100Y-82517546D01*
X136178100Y-82391301D01*
X136105237Y-82215395D01*
X135970605Y-82080763D01*
X135794699Y-82007900D01*
X135604301Y-82007900D01*
X135428395Y-82080763D01*
X135293763Y-82215395D01*
X135220900Y-82391301D01*
X135220900Y-82581699D01*
X135293763Y-82757605D01*
X135428395Y-82892237D01*
X135528946Y-82933887D01*
X135503895Y-82944263D01*
X135369263Y-83078895D01*
X135296400Y-83254801D01*
X135296400Y-83445199D01*
X135369263Y-83621105D01*
X135503895Y-83755737D01*
X135679801Y-83828600D01*
X135870199Y-83828600D01*
X136046105Y-83755737D01*
X136180737Y-83621105D01*
X136253600Y-83445199D01*
X136253600Y-83300754D01*
X137229553Y-82324801D01*
X146841400Y-82324801D01*
X146841400Y-82515199D01*
X146914263Y-82691105D01*
X147048895Y-82825737D01*
X147224801Y-82898600D01*
X147415199Y-82898600D01*
X147591105Y-82825737D01*
X147725737Y-82691105D01*
X147798600Y-82515199D01*
X147798600Y-82324801D01*
X147725737Y-82148895D01*
X147591105Y-82014263D01*
X147415199Y-81941400D01*
X147224801Y-81941400D01*
X147048895Y-82014263D01*
X146914263Y-82148895D01*
X146841400Y-82324801D01*
X137229553Y-82324801D01*
X137821400Y-81732955D01*
X137821400Y-81865199D01*
X137894263Y-82041105D01*
X138028895Y-82175737D01*
X138204801Y-82248600D01*
X138395199Y-82248600D01*
X138571105Y-82175737D01*
X138705737Y-82041105D01*
X138778600Y-81865199D01*
X138778600Y-81804801D01*
X153821400Y-81804801D01*
X153821400Y-81995199D01*
X153894263Y-82171105D01*
X154028895Y-82305737D01*
X154204801Y-82378600D01*
X154395199Y-82378600D01*
X154571105Y-82305737D01*
X154705737Y-82171105D01*
X154778600Y-81995199D01*
X154778600Y-81804801D01*
X154705737Y-81628895D01*
X154571105Y-81494263D01*
X154395199Y-81421400D01*
X154204801Y-81421400D01*
X154028895Y-81494263D01*
X153894263Y-81628895D01*
X153821400Y-81804801D01*
X138778600Y-81804801D01*
X138778600Y-81674801D01*
X138705737Y-81498895D01*
X138571105Y-81364263D01*
X138395199Y-81291400D01*
X138262955Y-81291400D01*
X138819554Y-80734801D01*
X141791400Y-80734801D01*
X141791400Y-80925199D01*
X141864263Y-81101105D01*
X141998895Y-81235737D01*
X142174801Y-81308600D01*
X142365199Y-81308600D01*
X142541105Y-81235737D01*
X142553690Y-81223152D01*
X142594263Y-81321105D01*
X142728895Y-81455737D01*
X142904801Y-81528600D01*
X143095199Y-81528600D01*
X143271105Y-81455737D01*
X143322041Y-81404801D01*
X155521400Y-81404801D01*
X155521400Y-81595199D01*
X155594263Y-81771105D01*
X155728895Y-81905737D01*
X155904801Y-81978600D01*
X156095199Y-81978600D01*
X156271105Y-81905737D01*
X156405737Y-81771105D01*
X156478600Y-81595199D01*
X156478600Y-81404801D01*
X156405737Y-81228895D01*
X156271105Y-81094263D01*
X156095199Y-81021400D01*
X155904801Y-81021400D01*
X155728895Y-81094263D01*
X155594263Y-81228895D01*
X155521400Y-81404801D01*
X143322041Y-81404801D01*
X143405737Y-81321105D01*
X143478600Y-81145199D01*
X143478600Y-80954801D01*
X143405737Y-80778895D01*
X143271105Y-80644263D01*
X143095199Y-80571400D01*
X142904801Y-80571400D01*
X142728895Y-80644263D01*
X142716310Y-80656848D01*
X142675737Y-80558895D01*
X142541105Y-80424263D01*
X142365199Y-80351400D01*
X142174801Y-80351400D01*
X141998895Y-80424263D01*
X141864263Y-80558895D01*
X141791400Y-80734801D01*
X138819554Y-80734801D01*
X140749554Y-78804801D01*
X145041400Y-78804801D01*
X145041400Y-78995199D01*
X145114263Y-79171105D01*
X145248895Y-79305737D01*
X145424801Y-79378600D01*
X145615199Y-79378600D01*
X145791105Y-79305737D01*
X145925737Y-79171105D01*
X145998600Y-78995199D01*
X145998600Y-78804801D01*
X145925737Y-78628895D01*
X145791105Y-78494263D01*
X145615199Y-78421400D01*
X145424801Y-78421400D01*
X145248895Y-78494263D01*
X145114263Y-78628895D01*
X145041400Y-78804801D01*
X140749554Y-78804801D01*
X142718539Y-76835817D01*
X142743883Y-76818883D01*
X142810984Y-76718459D01*
X142828600Y-76629898D01*
X142828600Y-76629897D01*
X142834547Y-76600000D01*
X142828600Y-76570103D01*
X142828600Y-75775442D01*
X142858895Y-75805737D01*
X143034801Y-75878600D01*
X143225199Y-75878600D01*
X143401105Y-75805737D01*
X143535737Y-75671105D01*
X143554780Y-75625132D01*
X146396400Y-78466753D01*
X146396401Y-79526757D01*
X146294263Y-79628895D01*
X146221400Y-79804801D01*
X146221400Y-79995199D01*
X146294263Y-80171105D01*
X146428895Y-80305737D01*
X146604801Y-80378600D01*
X146795199Y-80378600D01*
X146971105Y-80305737D01*
X147105737Y-80171105D01*
X147152950Y-80057123D01*
X147204801Y-80078600D01*
X147395199Y-80078600D01*
X147571105Y-80005737D01*
X147705737Y-79871105D01*
X147778600Y-79695199D01*
X147778600Y-79504801D01*
X147705737Y-79328895D01*
X147603600Y-79226758D01*
X147603600Y-74929897D01*
X147609547Y-74900000D01*
X147585984Y-74781542D01*
X147585984Y-74781541D01*
X147518883Y-74681117D01*
X147493535Y-74664180D01*
X144734156Y-71904801D01*
X146821400Y-71904801D01*
X146821400Y-72095199D01*
X146894263Y-72271105D01*
X147028895Y-72405737D01*
X147204801Y-72478600D01*
X147395199Y-72478600D01*
X147571105Y-72405737D01*
X147673242Y-72303600D01*
X147950103Y-72303600D01*
X147980000Y-72309547D01*
X148009897Y-72303600D01*
X148009898Y-72303600D01*
X148098459Y-72285984D01*
X148198883Y-72218883D01*
X148215822Y-72193532D01*
X148855755Y-71553600D01*
X149096758Y-71553600D01*
X149198895Y-71655737D01*
X149374801Y-71728600D01*
X149565199Y-71728600D01*
X149741105Y-71655737D01*
X149875737Y-71521105D01*
X149948600Y-71345199D01*
X149948600Y-71154801D01*
X149875737Y-70978895D01*
X149741105Y-70844263D01*
X149565199Y-70771400D01*
X149374801Y-70771400D01*
X149198895Y-70844263D01*
X149096758Y-70946400D01*
X148759896Y-70946400D01*
X148729999Y-70940453D01*
X148700102Y-70946400D01*
X148611541Y-70964016D01*
X148511117Y-71031117D01*
X148494180Y-71056465D01*
X147854246Y-71696400D01*
X147673242Y-71696400D01*
X147571105Y-71594263D01*
X147395199Y-71521400D01*
X147204801Y-71521400D01*
X147028895Y-71594263D01*
X146894263Y-71728895D01*
X146821400Y-71904801D01*
X144734156Y-71904801D01*
X143878600Y-71049246D01*
X143878600Y-70904801D01*
X143805737Y-70728895D01*
X143671105Y-70594263D01*
X143495199Y-70521400D01*
X143426326Y-70521400D01*
X143478600Y-70395199D01*
X143478600Y-70204801D01*
X143405737Y-70028895D01*
X143389002Y-70012160D01*
X148395523Y-70012160D01*
X148395523Y-70281956D01*
X148498770Y-70531216D01*
X148689545Y-70721991D01*
X148938805Y-70825238D01*
X149208601Y-70825238D01*
X149457861Y-70721991D01*
X149648636Y-70531216D01*
X149751883Y-70281956D01*
X149751883Y-70012160D01*
X149648636Y-69762900D01*
X149457861Y-69572125D01*
X149208601Y-69468878D01*
X148938805Y-69468878D01*
X148689545Y-69572125D01*
X148498770Y-69762900D01*
X148395523Y-70012160D01*
X143389002Y-70012160D01*
X143271105Y-69894263D01*
X143095199Y-69821400D01*
X142904801Y-69821400D01*
X142828600Y-69852964D01*
X142828600Y-66901399D01*
X145284762Y-66901399D01*
X145284762Y-67171195D01*
X145388009Y-67420455D01*
X145578784Y-67611230D01*
X145828044Y-67714477D01*
X146097840Y-67714477D01*
X146347100Y-67611230D01*
X146537875Y-67420455D01*
X146641122Y-67171195D01*
X146641122Y-66901399D01*
X146537875Y-66652139D01*
X146347100Y-66461364D01*
X146097840Y-66358117D01*
X145828044Y-66358117D01*
X145578784Y-66461364D01*
X145388009Y-66652139D01*
X145284762Y-66901399D01*
X142828600Y-66901399D01*
X142828600Y-64204801D01*
X143771400Y-64204801D01*
X143771400Y-64395199D01*
X143844263Y-64571105D01*
X143978895Y-64705737D01*
X144154801Y-64778600D01*
X144345199Y-64778600D01*
X144521105Y-64705737D01*
X144655737Y-64571105D01*
X144728600Y-64395199D01*
X144728600Y-64204801D01*
X144655737Y-64028895D01*
X144521105Y-63894263D01*
X144345199Y-63821400D01*
X144154801Y-63821400D01*
X143978895Y-63894263D01*
X143844263Y-64028895D01*
X143771400Y-64204801D01*
X142828600Y-64204801D01*
X142828600Y-60773242D01*
X142930737Y-60671105D01*
X143003600Y-60495199D01*
X143003600Y-60304801D01*
X142930737Y-60128895D01*
X142878042Y-60076200D01*
X144932352Y-60076200D01*
X144950445Y-60079799D01*
X150666650Y-65796005D01*
X150717225Y-65876180D01*
X150863279Y-66030125D01*
X150890920Y-66049665D01*
X150914856Y-66073600D01*
X151068493Y-66176257D01*
X158028435Y-73136199D01*
X158131092Y-73289836D01*
X158214855Y-73373599D01*
X158265028Y-73394382D01*
X164920201Y-80049556D01*
X164922006Y-80058632D01*
X164745373Y-85946400D01*
X161249107Y-85946400D01*
X161278600Y-85875199D01*
X161278600Y-85684801D01*
X161205737Y-85508895D01*
X161071105Y-85374263D01*
X160895199Y-85301400D01*
X160704801Y-85301400D01*
X160528895Y-85374263D01*
X160394263Y-85508895D01*
X160321400Y-85684801D01*
X160321400Y-85875199D01*
X160350893Y-85946400D01*
X153415755Y-85946400D01*
X152804156Y-85334801D01*
X158051400Y-85334801D01*
X158051400Y-85525199D01*
X158124263Y-85701105D01*
X158258895Y-85835737D01*
X158434801Y-85908600D01*
X158625199Y-85908600D01*
X158801105Y-85835737D01*
X158935737Y-85701105D01*
X159008600Y-85525199D01*
X159008600Y-85334801D01*
X158935737Y-85158895D01*
X158801105Y-85024263D01*
X158625199Y-84951400D01*
X158434801Y-84951400D01*
X158258895Y-85024263D01*
X158124263Y-85158895D01*
X158051400Y-85334801D01*
X152804156Y-85334801D01*
X151305822Y-83836468D01*
X151288883Y-83811117D01*
X151188459Y-83744016D01*
X151099898Y-83726400D01*
X151099897Y-83726400D01*
X151070000Y-83720453D01*
X151040103Y-83726400D01*
X146155755Y-83726400D01*
X145445822Y-83016468D01*
X145428883Y-82991117D01*
X145328459Y-82924016D01*
X145239898Y-82906400D01*
X145239897Y-82906400D01*
X145231859Y-82904801D01*
X149821400Y-82904801D01*
X149821400Y-83095199D01*
X149894263Y-83271105D01*
X150028895Y-83405737D01*
X150204801Y-83478600D01*
X150395199Y-83478600D01*
X150571105Y-83405737D01*
X150705737Y-83271105D01*
X150774622Y-83104801D01*
X155321400Y-83104801D01*
X155321400Y-83295199D01*
X155394263Y-83471105D01*
X155528895Y-83605737D01*
X155704801Y-83678600D01*
X155895199Y-83678600D01*
X156071105Y-83605737D01*
X156205737Y-83471105D01*
X156278600Y-83295199D01*
X156278600Y-83104801D01*
X156205737Y-82928895D01*
X156071105Y-82794263D01*
X155895199Y-82721400D01*
X155704801Y-82721400D01*
X155528895Y-82794263D01*
X155394263Y-82928895D01*
X155321400Y-83104801D01*
X150774622Y-83104801D01*
X150778600Y-83095199D01*
X150778600Y-82904801D01*
X150705737Y-82728895D01*
X150571105Y-82594263D01*
X150395199Y-82521400D01*
X150204801Y-82521400D01*
X150028895Y-82594263D01*
X149894263Y-82728895D01*
X149821400Y-82904801D01*
X145231859Y-82904801D01*
X145210000Y-82900453D01*
X145180103Y-82906400D01*
X137969896Y-82906400D01*
X137939999Y-82900453D01*
X137910102Y-82906400D01*
X137821541Y-82924016D01*
X137735660Y-82981400D01*
X137594801Y-82981400D01*
X137418895Y-83054263D01*
X137284263Y-83188895D01*
X137211400Y-83364801D01*
X137211400Y-83555199D01*
X137284263Y-83731105D01*
X137418895Y-83865737D01*
X137594801Y-83938600D01*
X137785199Y-83938600D01*
X137961105Y-83865737D01*
X138095737Y-83731105D01*
X138168600Y-83555199D01*
X138168600Y-83513600D01*
X145084246Y-83513600D01*
X145794180Y-84223535D01*
X145811117Y-84248883D01*
X145908596Y-84314016D01*
X145911541Y-84315984D01*
X146029999Y-84339547D01*
X146059896Y-84333600D01*
X150944246Y-84333600D01*
X153054180Y-86443535D01*
X153071117Y-86468883D01*
X153163688Y-86530737D01*
X153171541Y-86535984D01*
X153289999Y-86559547D01*
X153319896Y-86553600D01*
X158169558Y-86553600D01*
X158144263Y-86578895D01*
X158071400Y-86754801D01*
X158071400Y-86899245D01*
X156736687Y-88233958D01*
X156748600Y-88205199D01*
X156748600Y-88014801D01*
X156675737Y-87838895D01*
X156541105Y-87704263D01*
X156365199Y-87631400D01*
X156220754Y-87631400D01*
X156105822Y-87516468D01*
X156088883Y-87491117D01*
X155988459Y-87424016D01*
X155899898Y-87406400D01*
X155899897Y-87406400D01*
X155870000Y-87400453D01*
X155840103Y-87406400D01*
X151988397Y-87406400D01*
X152038600Y-87285199D01*
X152038600Y-87094801D01*
X151965737Y-86918895D01*
X151831105Y-86784263D01*
X151655199Y-86711400D01*
X151571889Y-86711400D01*
X151578600Y-86695199D01*
X151578600Y-86504801D01*
X151505737Y-86328895D01*
X151371105Y-86194263D01*
X151195199Y-86121400D01*
X151004801Y-86121400D01*
X150828895Y-86194263D01*
X150694263Y-86328895D01*
X150621400Y-86504801D01*
X150621400Y-86695199D01*
X150694263Y-86871105D01*
X150709558Y-86886400D01*
X147287119Y-86886400D01*
X147308084Y-86877716D01*
X147442716Y-86743084D01*
X147515579Y-86567178D01*
X147515579Y-86533600D01*
X148566758Y-86533600D01*
X148668895Y-86635737D01*
X148844801Y-86708600D01*
X149035199Y-86708600D01*
X149211105Y-86635737D01*
X149345737Y-86501105D01*
X149418600Y-86325199D01*
X149418600Y-86134801D01*
X149345737Y-85958895D01*
X149211105Y-85824263D01*
X149035199Y-85751400D01*
X148844801Y-85751400D01*
X148668895Y-85824263D01*
X148566758Y-85926400D01*
X147308855Y-85926400D01*
X147278958Y-85920453D01*
X147249060Y-85926400D01*
X147160499Y-85944016D01*
X147086622Y-85993379D01*
X146960976Y-85993379D01*
X147250755Y-85703600D01*
X147395199Y-85703600D01*
X147571105Y-85630737D01*
X147705737Y-85496105D01*
X147778600Y-85320199D01*
X147778600Y-85304801D01*
X150431400Y-85304801D01*
X150431400Y-85495199D01*
X150504263Y-85671105D01*
X150638895Y-85805737D01*
X150814801Y-85878600D01*
X151005199Y-85878600D01*
X151181105Y-85805737D01*
X151315737Y-85671105D01*
X151388600Y-85495199D01*
X151388600Y-85304801D01*
X151315737Y-85128895D01*
X151181105Y-84994263D01*
X151005199Y-84921400D01*
X150814801Y-84921400D01*
X150638895Y-84994263D01*
X150504263Y-85128895D01*
X150431400Y-85304801D01*
X147778600Y-85304801D01*
X147778600Y-85129801D01*
X147705737Y-84953895D01*
X147571105Y-84819263D01*
X147395199Y-84746400D01*
X147204801Y-84746400D01*
X147028895Y-84819263D01*
X147025000Y-84823158D01*
X146971105Y-84769263D01*
X146795199Y-84696400D01*
X146604801Y-84696400D01*
X146428895Y-84769263D01*
X146294263Y-84903895D01*
X146221400Y-85079801D01*
X146221400Y-85224246D01*
X146099246Y-85346400D01*
X139778600Y-85346400D01*
X139778600Y-84898242D01*
X139805737Y-84871105D01*
X139878600Y-84695199D01*
X139878600Y-84654801D01*
X139921400Y-84654801D01*
X139921400Y-84845199D01*
X139994263Y-85021105D01*
X140128895Y-85155737D01*
X140304801Y-85228600D01*
X140495199Y-85228600D01*
X140671105Y-85155737D01*
X140805737Y-85021105D01*
X140878600Y-84845199D01*
X140878600Y-84654801D01*
X140805737Y-84478895D01*
X140671105Y-84344263D01*
X140495199Y-84271400D01*
X140304801Y-84271400D01*
X140128895Y-84344263D01*
X139994263Y-84478895D01*
X139921400Y-84654801D01*
X139878600Y-84654801D01*
X139878600Y-84504801D01*
X139805737Y-84328895D01*
X139671105Y-84194263D01*
X139495199Y-84121400D01*
X139304801Y-84121400D01*
X139128895Y-84194263D01*
X138994263Y-84328895D01*
X138921400Y-84504801D01*
X138921400Y-84695199D01*
X138994263Y-84871105D01*
X139128895Y-85005737D01*
X139171400Y-85023343D01*
X139171401Y-85346400D01*
X137990909Y-85346400D01*
X137870199Y-85296400D01*
X137679801Y-85296400D01*
X137503895Y-85369263D01*
X137369263Y-85503895D01*
X137296400Y-85679801D01*
X137296400Y-85698674D01*
X137170199Y-85646400D01*
X136979801Y-85646400D01*
X136803895Y-85719263D01*
X136669263Y-85853895D01*
X136596400Y-86029801D01*
X136596400Y-86220199D01*
X136669263Y-86396105D01*
X136803895Y-86530737D01*
X136979801Y-86603600D01*
X137170199Y-86603600D01*
X137346105Y-86530737D01*
X137480737Y-86396105D01*
X137553600Y-86220199D01*
X137553600Y-86201326D01*
X137679801Y-86253600D01*
X137870199Y-86253600D01*
X138046105Y-86180737D01*
X138180737Y-86046105D01*
X138219054Y-85953600D01*
X139445103Y-85953600D01*
X139475000Y-85959547D01*
X139504898Y-85953600D01*
X146142046Y-85953600D01*
X145674246Y-86421400D01*
X138833699Y-86421400D01*
X138805737Y-86353895D01*
X138671105Y-86219263D01*
X138495199Y-86146400D01*
X138304801Y-86146400D01*
X138128895Y-86219263D01*
X137994263Y-86353895D01*
X137921400Y-86529801D01*
X137921400Y-86720199D01*
X137994263Y-86896105D01*
X138128895Y-87030737D01*
X138304801Y-87103600D01*
X138495199Y-87103600D01*
X138671105Y-87030737D01*
X138673242Y-87028600D01*
X141913674Y-87028600D01*
X141861400Y-87154801D01*
X141861400Y-87345199D01*
X141934263Y-87521105D01*
X142068895Y-87655737D01*
X142143858Y-87686788D01*
X141929246Y-87901400D01*
X141784801Y-87901400D01*
X141608895Y-87974263D01*
X141474263Y-88108895D01*
X141401400Y-88284801D01*
X141401400Y-88475199D01*
X141461959Y-88621400D01*
X141035442Y-88621400D01*
X141075737Y-88581105D01*
X141148600Y-88405199D01*
X141148600Y-88214801D01*
X141075737Y-88038895D01*
X140941105Y-87904263D01*
X140765199Y-87831400D01*
X140574801Y-87831400D01*
X140398895Y-87904263D01*
X140264263Y-88038895D01*
X140191400Y-88214801D01*
X140191400Y-88405199D01*
X140264263Y-88581105D01*
X140304558Y-88621400D01*
X137473242Y-88621400D01*
X137371105Y-88519263D01*
X137195199Y-88446400D01*
X137004801Y-88446400D01*
X136828895Y-88519263D01*
X136694263Y-88653895D01*
X136621400Y-88829801D01*
X136621400Y-89020199D01*
X136694263Y-89196105D01*
X136828895Y-89330737D01*
X137004801Y-89403600D01*
X137195199Y-89403600D01*
X137371105Y-89330737D01*
X137473242Y-89228600D01*
X139069558Y-89228600D01*
X138969263Y-89328895D01*
X138896400Y-89504801D01*
X138896400Y-89695199D01*
X138969263Y-89871105D01*
X139103895Y-90005737D01*
X139279801Y-90078600D01*
X139470199Y-90078600D01*
X139646105Y-90005737D01*
X139780737Y-89871105D01*
X139853600Y-89695199D01*
X139853600Y-89504801D01*
X139780737Y-89328895D01*
X139680442Y-89228600D01*
X143117608Y-89228600D01*
X143096400Y-89279801D01*
X143096400Y-89470199D01*
X143169263Y-89646105D01*
X143303895Y-89780737D01*
X143479801Y-89853600D01*
X143670199Y-89853600D01*
X143846105Y-89780737D01*
X143980737Y-89646105D01*
X144053600Y-89470199D01*
X144053600Y-89279801D01*
X144032392Y-89228600D01*
X152432253Y-89228600D01*
X152421400Y-89254801D01*
X152421400Y-89445199D01*
X152494263Y-89621105D01*
X152628895Y-89755737D01*
X152804801Y-89828600D01*
X152921400Y-89828600D01*
X152921400Y-89895199D01*
X152994263Y-90071105D01*
X153128895Y-90205737D01*
X153304801Y-90278600D01*
X153495199Y-90278600D01*
X153671105Y-90205737D01*
X153805737Y-90071105D01*
X153843167Y-89980741D01*
X161087287Y-89980741D01*
X161087287Y-90079524D01*
X161900000Y-90892237D01*
X162604950Y-90187287D01*
X162604950Y-90088504D01*
X161950504Y-89434058D01*
X161847813Y-89391522D01*
X161736660Y-89391522D01*
X161633969Y-89434058D01*
X161087287Y-89980741D01*
X153843167Y-89980741D01*
X153878600Y-89895199D01*
X153878600Y-89704801D01*
X153805737Y-89528895D01*
X153671105Y-89394263D01*
X153495199Y-89321400D01*
X153378600Y-89321400D01*
X153378600Y-89254801D01*
X153367747Y-89228600D01*
X156445103Y-89228600D01*
X156475000Y-89234547D01*
X156504897Y-89228600D01*
X156504898Y-89228600D01*
X156593459Y-89210984D01*
X156693883Y-89143883D01*
X156710822Y-89118532D01*
X158500755Y-87328600D01*
X158645199Y-87328600D01*
X158821105Y-87255737D01*
X158955737Y-87121105D01*
X159028600Y-86945199D01*
X159028600Y-86754801D01*
X158955737Y-86578895D01*
X158930442Y-86553600D01*
X164727157Y-86553600D01*
X164624702Y-89968773D01*
X163508478Y-91151970D01*
X163508478Y-91052187D01*
X163465942Y-90949496D01*
X162811496Y-90295050D01*
X162712713Y-90295050D01*
X162007763Y-91000000D01*
X162021906Y-91014143D01*
X161914143Y-91121906D01*
X161900000Y-91107763D01*
X161195050Y-91812713D01*
X161195050Y-91911496D01*
X161849496Y-92565942D01*
X161952187Y-92608478D01*
X162063340Y-92608478D01*
X162166031Y-92565942D01*
X162316408Y-92415564D01*
X160005202Y-94865444D01*
X144950445Y-109920201D01*
X144932352Y-109923800D01*
X141811900Y-109923800D01*
X141848600Y-109835199D01*
X141848600Y-109644801D01*
X141775737Y-109468895D01*
X141673600Y-109366758D01*
X141673600Y-107056698D01*
X144514179Y-107056698D01*
X144598947Y-107482852D01*
X144779412Y-107752937D01*
X145147063Y-108120588D01*
X145417148Y-108301053D01*
X145843302Y-108385821D01*
X146269457Y-108301053D01*
X146630734Y-108059656D01*
X146872131Y-107698379D01*
X146956899Y-107272224D01*
X146872131Y-106846070D01*
X146691666Y-106575985D01*
X146324015Y-106208334D01*
X146053930Y-106027869D01*
X145627776Y-105943101D01*
X145201622Y-106027869D01*
X144840345Y-106269267D01*
X144598947Y-106630544D01*
X144514179Y-107056698D01*
X141673600Y-107056698D01*
X141673600Y-106259897D01*
X141679547Y-106230000D01*
X141655984Y-106111542D01*
X141655984Y-106111541D01*
X141588883Y-106011117D01*
X141563535Y-105994180D01*
X140830002Y-105260647D01*
X146310230Y-105260647D01*
X146394998Y-105686801D01*
X146575463Y-105956886D01*
X146943114Y-106324537D01*
X147213199Y-106505002D01*
X147639353Y-106589770D01*
X148065508Y-106505002D01*
X148426785Y-106263605D01*
X148668182Y-105902328D01*
X148752950Y-105476173D01*
X148668182Y-105050019D01*
X148487717Y-104779934D01*
X148120066Y-104412283D01*
X147849981Y-104231818D01*
X147423827Y-104147050D01*
X146997673Y-104231818D01*
X146636396Y-104473216D01*
X146394998Y-104834493D01*
X146310230Y-105260647D01*
X140830002Y-105260647D01*
X139033951Y-103464596D01*
X148106281Y-103464596D01*
X148191049Y-103890750D01*
X148371514Y-104160835D01*
X148739165Y-104528486D01*
X149009250Y-104708951D01*
X149435404Y-104793719D01*
X149861559Y-104708951D01*
X150222836Y-104467554D01*
X150464233Y-104106277D01*
X150549001Y-103680122D01*
X150464233Y-103253968D01*
X150283768Y-102983883D01*
X149916117Y-102616232D01*
X149646032Y-102435767D01*
X149219878Y-102350999D01*
X148793724Y-102435767D01*
X148432447Y-102677165D01*
X148191049Y-103038442D01*
X148106281Y-103464596D01*
X139033951Y-103464596D01*
X136569355Y-101000000D01*
X137191017Y-101000000D01*
X137287613Y-101485619D01*
X137562694Y-101897306D01*
X137974381Y-102172387D01*
X138337419Y-102244600D01*
X138582581Y-102244600D01*
X138945619Y-102172387D01*
X139357306Y-101897306D01*
X139632387Y-101485619D01*
X139728983Y-101000000D01*
X139632387Y-100514381D01*
X139357306Y-100102694D01*
X139179669Y-99984000D01*
X139750922Y-99984000D01*
X139750922Y-102016000D01*
X139768664Y-102105195D01*
X139819189Y-102180811D01*
X139894805Y-102231336D01*
X139984000Y-102249078D01*
X142016000Y-102249078D01*
X142105195Y-102231336D01*
X142180811Y-102180811D01*
X142181485Y-102179801D01*
X144296400Y-102179801D01*
X144296400Y-102370199D01*
X144369263Y-102546105D01*
X144503895Y-102680737D01*
X144679801Y-102753600D01*
X144870199Y-102753600D01*
X145046105Y-102680737D01*
X145180737Y-102546105D01*
X145253600Y-102370199D01*
X145253600Y-102179801D01*
X145180737Y-102003895D01*
X145046105Y-101869263D01*
X144870199Y-101796400D01*
X144679801Y-101796400D01*
X144503895Y-101869263D01*
X144369263Y-102003895D01*
X144296400Y-102179801D01*
X142181485Y-102179801D01*
X142231336Y-102105195D01*
X142249078Y-102016000D01*
X142249078Y-101668544D01*
X149902333Y-101668544D01*
X149987101Y-102094698D01*
X150167566Y-102364783D01*
X150535217Y-102732434D01*
X150805302Y-102912899D01*
X151231456Y-102997667D01*
X151657611Y-102912899D01*
X152018888Y-102671502D01*
X152260285Y-102310225D01*
X152345053Y-101884070D01*
X152260285Y-101457916D01*
X152079820Y-101187831D01*
X151712169Y-100820180D01*
X151442084Y-100639715D01*
X151015930Y-100554947D01*
X150589776Y-100639715D01*
X150228499Y-100881113D01*
X149987101Y-101242390D01*
X149902333Y-101668544D01*
X142249078Y-101668544D01*
X142249078Y-100424801D01*
X143601400Y-100424801D01*
X143601400Y-100615199D01*
X143674263Y-100791105D01*
X143808895Y-100925737D01*
X143984801Y-100998600D01*
X144175199Y-100998600D01*
X144351105Y-100925737D01*
X144472041Y-100804801D01*
X147821400Y-100804801D01*
X147821400Y-100995199D01*
X147894263Y-101171105D01*
X148028895Y-101305737D01*
X148204801Y-101378600D01*
X148395199Y-101378600D01*
X148571105Y-101305737D01*
X148705737Y-101171105D01*
X148778600Y-100995199D01*
X148778600Y-100850754D01*
X149756861Y-99872493D01*
X151698384Y-99872493D01*
X151783152Y-100298647D01*
X151963617Y-100568732D01*
X152331268Y-100936383D01*
X152601353Y-101116848D01*
X153027507Y-101201616D01*
X153453662Y-101116848D01*
X153814939Y-100875451D01*
X154056336Y-100514174D01*
X154141104Y-100088019D01*
X154056336Y-99661865D01*
X153875871Y-99391780D01*
X153508220Y-99024129D01*
X153238135Y-98843664D01*
X152811981Y-98758896D01*
X152385827Y-98843664D01*
X152024550Y-99085062D01*
X151783152Y-99446339D01*
X151698384Y-99872493D01*
X149756861Y-99872493D01*
X151552912Y-98076442D01*
X153494435Y-98076442D01*
X153579203Y-98502596D01*
X153759668Y-98772681D01*
X154127319Y-99140332D01*
X154397404Y-99320797D01*
X154823558Y-99405565D01*
X155249713Y-99320797D01*
X155610990Y-99079400D01*
X155852387Y-98718123D01*
X155937155Y-98291968D01*
X155852387Y-97865814D01*
X155671922Y-97595729D01*
X155304271Y-97228078D01*
X155034186Y-97047613D01*
X154608032Y-96962845D01*
X154181878Y-97047613D01*
X153820601Y-97289011D01*
X153579203Y-97650288D01*
X153494435Y-98076442D01*
X151552912Y-98076442D01*
X151793535Y-97835820D01*
X151818883Y-97818883D01*
X151885984Y-97718459D01*
X151903600Y-97629898D01*
X151903600Y-97629897D01*
X151909547Y-97600000D01*
X151903600Y-97570103D01*
X151903600Y-96473242D01*
X152005737Y-96371105D01*
X152043312Y-96280391D01*
X155290486Y-96280391D01*
X155375254Y-96706545D01*
X155555719Y-96976630D01*
X155923370Y-97344281D01*
X156193455Y-97524746D01*
X156619609Y-97609514D01*
X157045764Y-97524746D01*
X157407041Y-97283349D01*
X157648438Y-96922072D01*
X157733206Y-96495917D01*
X157648438Y-96069763D01*
X157467973Y-95799678D01*
X157100322Y-95432027D01*
X156830237Y-95251562D01*
X156404083Y-95166794D01*
X155977929Y-95251562D01*
X155616652Y-95492960D01*
X155375254Y-95854237D01*
X155290486Y-96280391D01*
X152043312Y-96280391D01*
X152078600Y-96195199D01*
X152078600Y-96004801D01*
X152005737Y-95828895D01*
X151871105Y-95694263D01*
X151695199Y-95621400D01*
X151504801Y-95621400D01*
X151328895Y-95694263D01*
X151194263Y-95828895D01*
X151121400Y-96004801D01*
X151121400Y-96195199D01*
X151194263Y-96371105D01*
X151296400Y-96473242D01*
X151296401Y-97474244D01*
X148349246Y-100421400D01*
X148204801Y-100421400D01*
X148028895Y-100494263D01*
X147894263Y-100628895D01*
X147821400Y-100804801D01*
X144472041Y-100804801D01*
X144485737Y-100791105D01*
X144558600Y-100615199D01*
X144558600Y-100424801D01*
X144485737Y-100248895D01*
X144351105Y-100114263D01*
X144175199Y-100041400D01*
X143984801Y-100041400D01*
X143808895Y-100114263D01*
X143674263Y-100248895D01*
X143601400Y-100424801D01*
X142249078Y-100424801D01*
X142249078Y-99984000D01*
X142231336Y-99894805D01*
X142180811Y-99819189D01*
X142105195Y-99768664D01*
X142016000Y-99750922D01*
X139984000Y-99750922D01*
X139894805Y-99768664D01*
X139819189Y-99819189D01*
X139768664Y-99894805D01*
X139750922Y-99984000D01*
X139179669Y-99984000D01*
X138945619Y-99827613D01*
X138582581Y-99755400D01*
X138337419Y-99755400D01*
X137974381Y-99827613D01*
X137562694Y-100102694D01*
X137287613Y-100514381D01*
X137191017Y-101000000D01*
X136569355Y-101000000D01*
X134034156Y-98464801D01*
X139991400Y-98464801D01*
X139991400Y-98655199D01*
X140064263Y-98831105D01*
X140198895Y-98965737D01*
X140374801Y-99038600D01*
X140565199Y-99038600D01*
X140741105Y-98965737D01*
X140852562Y-98854280D01*
X142631921Y-98854280D01*
X142631921Y-99044678D01*
X142704784Y-99220584D01*
X142839416Y-99355216D01*
X143015322Y-99428079D01*
X143205720Y-99428079D01*
X143381626Y-99355216D01*
X143516258Y-99220584D01*
X143564217Y-99104801D01*
X145281400Y-99104801D01*
X145281400Y-99295199D01*
X145354263Y-99471105D01*
X145488895Y-99605737D01*
X145664801Y-99678600D01*
X145855199Y-99678600D01*
X146031105Y-99605737D01*
X146165737Y-99471105D01*
X146238600Y-99295199D01*
X146238600Y-99104801D01*
X146165737Y-98928895D01*
X146031105Y-98794263D01*
X145985458Y-98775355D01*
X146081105Y-98735737D01*
X146215737Y-98601105D01*
X146288600Y-98425199D01*
X146288600Y-98234801D01*
X146215737Y-98058895D01*
X146081105Y-97924263D01*
X145905199Y-97851400D01*
X145714801Y-97851400D01*
X145538895Y-97924263D01*
X145404263Y-98058895D01*
X145331400Y-98234801D01*
X145331400Y-98425199D01*
X145404263Y-98601105D01*
X145538895Y-98735737D01*
X145584542Y-98754645D01*
X145488895Y-98794263D01*
X145354263Y-98928895D01*
X145281400Y-99104801D01*
X143564217Y-99104801D01*
X143589121Y-99044678D01*
X143589121Y-98854280D01*
X143516258Y-98678374D01*
X143381626Y-98543742D01*
X143205720Y-98470879D01*
X143015322Y-98470879D01*
X142839416Y-98543742D01*
X142704784Y-98678374D01*
X142631921Y-98854280D01*
X140852562Y-98854280D01*
X140875737Y-98831105D01*
X140948600Y-98655199D01*
X140948600Y-98464801D01*
X140919605Y-98394801D01*
X143751400Y-98394801D01*
X143751400Y-98585199D01*
X143824263Y-98761105D01*
X143958895Y-98895737D01*
X144134801Y-98968600D01*
X144325199Y-98968600D01*
X144501105Y-98895737D01*
X144635737Y-98761105D01*
X144708600Y-98585199D01*
X144708600Y-98394801D01*
X144635737Y-98218895D01*
X144501105Y-98084263D01*
X144325199Y-98011400D01*
X144134801Y-98011400D01*
X143958895Y-98084263D01*
X143824263Y-98218895D01*
X143751400Y-98394801D01*
X140919605Y-98394801D01*
X140875737Y-98288895D01*
X140741105Y-98154263D01*
X140565199Y-98081400D01*
X140374801Y-98081400D01*
X140198895Y-98154263D01*
X140064263Y-98288895D01*
X139991400Y-98464801D01*
X134034156Y-98464801D01*
X132324156Y-96754801D01*
X133331400Y-96754801D01*
X133331400Y-96945199D01*
X133404263Y-97121105D01*
X133538895Y-97255737D01*
X133714801Y-97328600D01*
X133905199Y-97328600D01*
X134081105Y-97255737D01*
X134215737Y-97121105D01*
X134288600Y-96945199D01*
X134288600Y-96754801D01*
X134215737Y-96578895D01*
X134081105Y-96444263D01*
X133961694Y-96394801D01*
X134381400Y-96394801D01*
X134381400Y-96585199D01*
X134454263Y-96761105D01*
X134588895Y-96895737D01*
X134764801Y-96968600D01*
X134955199Y-96968600D01*
X135131105Y-96895737D01*
X135265737Y-96761105D01*
X135338600Y-96585199D01*
X135338600Y-96394801D01*
X135280610Y-96254801D01*
X140601400Y-96254801D01*
X140601400Y-96445199D01*
X140674263Y-96621105D01*
X140808895Y-96755737D01*
X140984801Y-96828600D01*
X141175199Y-96828600D01*
X141351105Y-96755737D01*
X141485737Y-96621105D01*
X141558600Y-96445199D01*
X141558600Y-96254801D01*
X141485737Y-96078895D01*
X141351105Y-95944263D01*
X141175199Y-95871400D01*
X140984801Y-95871400D01*
X140808895Y-95944263D01*
X140674263Y-96078895D01*
X140601400Y-96254801D01*
X135280610Y-96254801D01*
X135265737Y-96218895D01*
X135131105Y-96084263D01*
X134955199Y-96011400D01*
X134764801Y-96011400D01*
X134588895Y-96084263D01*
X134454263Y-96218895D01*
X134381400Y-96394801D01*
X133961694Y-96394801D01*
X133905199Y-96371400D01*
X133714801Y-96371400D01*
X133538895Y-96444263D01*
X133404263Y-96578895D01*
X133331400Y-96754801D01*
X132324156Y-96754801D01*
X131064156Y-95494801D01*
X141861400Y-95494801D01*
X141861400Y-95685199D01*
X141934263Y-95861105D01*
X142068895Y-95995737D01*
X142244801Y-96068600D01*
X142389246Y-96068600D01*
X143089180Y-96768535D01*
X143106117Y-96793883D01*
X143184273Y-96846105D01*
X143206541Y-96860984D01*
X143324999Y-96884547D01*
X143354896Y-96878600D01*
X146726758Y-96878600D01*
X146828895Y-96980737D01*
X147004801Y-97053600D01*
X147195199Y-97053600D01*
X147371105Y-96980737D01*
X147505737Y-96846105D01*
X147578600Y-96670199D01*
X147578600Y-96525754D01*
X149199553Y-94904801D01*
X152721400Y-94904801D01*
X152721400Y-95095199D01*
X152794263Y-95271105D01*
X152928895Y-95405737D01*
X153104801Y-95478600D01*
X153295199Y-95478600D01*
X153471105Y-95405737D01*
X153605737Y-95271105D01*
X153678600Y-95095199D01*
X153678600Y-94904801D01*
X153605737Y-94728895D01*
X153471105Y-94594263D01*
X153295199Y-94521400D01*
X153104801Y-94521400D01*
X152928895Y-94594263D01*
X152794263Y-94728895D01*
X152721400Y-94904801D01*
X149199553Y-94904801D01*
X150200755Y-93903600D01*
X152668466Y-93903600D01*
X152651400Y-93944801D01*
X152651400Y-94135199D01*
X152724263Y-94311105D01*
X152858895Y-94445737D01*
X153034801Y-94518600D01*
X153225199Y-94518600D01*
X153307911Y-94484339D01*
X157086538Y-94484339D01*
X157171306Y-94910493D01*
X157351771Y-95180578D01*
X157719422Y-95548229D01*
X157989507Y-95728694D01*
X158415661Y-95813462D01*
X158841816Y-95728694D01*
X159203093Y-95487297D01*
X159444490Y-95126020D01*
X159529258Y-94699865D01*
X159444490Y-94273711D01*
X159264025Y-94003626D01*
X158896374Y-93635975D01*
X158626289Y-93455510D01*
X158200135Y-93370742D01*
X157773981Y-93455510D01*
X157412704Y-93696908D01*
X157171306Y-94058185D01*
X157086538Y-94484339D01*
X153307911Y-94484339D01*
X153401105Y-94445737D01*
X153535737Y-94311105D01*
X153608600Y-94135199D01*
X153608600Y-93944801D01*
X153591534Y-93903600D01*
X154995103Y-93903600D01*
X155025000Y-93909547D01*
X155054897Y-93903600D01*
X155054898Y-93903600D01*
X155088611Y-93896894D01*
X155104801Y-93903600D01*
X155295199Y-93903600D01*
X155471105Y-93830737D01*
X155605737Y-93696105D01*
X155678600Y-93520199D01*
X155678600Y-93329801D01*
X155605737Y-93153895D01*
X155471105Y-93019263D01*
X155295199Y-92946400D01*
X155104801Y-92946400D01*
X154928895Y-93019263D01*
X154794263Y-93153895D01*
X154735235Y-93296400D01*
X150104896Y-93296400D01*
X150074999Y-93290453D01*
X150045102Y-93296400D01*
X149956541Y-93314016D01*
X149856117Y-93381117D01*
X149839181Y-93406464D01*
X147149246Y-96096400D01*
X147004801Y-96096400D01*
X146828895Y-96169263D01*
X146726758Y-96271400D01*
X143450755Y-96271400D01*
X142818600Y-95639246D01*
X142818600Y-95494801D01*
X142745737Y-95318895D01*
X142611105Y-95184263D01*
X142435199Y-95111400D01*
X142244801Y-95111400D01*
X142068895Y-95184263D01*
X141934263Y-95318895D01*
X141861400Y-95494801D01*
X131064156Y-95494801D01*
X128828600Y-93259246D01*
X128828600Y-93114801D01*
X128755737Y-92938895D01*
X128621105Y-92804263D01*
X128445199Y-92731400D01*
X128375731Y-92731400D01*
X128909962Y-92144801D01*
X132921400Y-92144801D01*
X132921400Y-92335199D01*
X132994263Y-92511105D01*
X133128895Y-92645737D01*
X133304801Y-92718600D01*
X133495199Y-92718600D01*
X133649222Y-92654801D01*
X134921400Y-92654801D01*
X134921400Y-92845199D01*
X134994263Y-93021105D01*
X135128895Y-93155737D01*
X135304801Y-93228600D01*
X135495199Y-93228600D01*
X135671105Y-93155737D01*
X135805737Y-93021105D01*
X135878600Y-92845199D01*
X135878600Y-92654801D01*
X135805737Y-92478895D01*
X135671105Y-92344263D01*
X135495199Y-92271400D01*
X135304801Y-92271400D01*
X135128895Y-92344263D01*
X134994263Y-92478895D01*
X134921400Y-92654801D01*
X133649222Y-92654801D01*
X133671105Y-92645737D01*
X133805737Y-92511105D01*
X133878600Y-92335199D01*
X133878600Y-92144801D01*
X133805737Y-91968895D01*
X133671105Y-91834263D01*
X133495199Y-91761400D01*
X133304801Y-91761400D01*
X133128895Y-91834263D01*
X132994263Y-91968895D01*
X132921400Y-92144801D01*
X128909962Y-92144801D01*
X129194209Y-91832691D01*
X129214263Y-91881105D01*
X129348895Y-92015737D01*
X129524801Y-92088600D01*
X129715199Y-92088600D01*
X129891105Y-92015737D01*
X130025737Y-91881105D01*
X130098600Y-91705199D01*
X130098600Y-91524801D01*
X136141400Y-91524801D01*
X136141400Y-91715199D01*
X136214263Y-91891105D01*
X136348895Y-92025737D01*
X136524801Y-92098600D01*
X136715199Y-92098600D01*
X136891105Y-92025737D01*
X137025737Y-91891105D01*
X137098600Y-91715199D01*
X137098600Y-91524801D01*
X137025737Y-91348895D01*
X136891105Y-91214263D01*
X136715199Y-91141400D01*
X136524801Y-91141400D01*
X136348895Y-91214263D01*
X136214263Y-91348895D01*
X136141400Y-91524801D01*
X130098600Y-91524801D01*
X130098600Y-91514801D01*
X130025737Y-91338895D01*
X129891105Y-91204263D01*
X129800656Y-91166797D01*
X131359815Y-89454801D01*
X132631400Y-89454801D01*
X132631400Y-89645199D01*
X132704263Y-89821105D01*
X132838895Y-89955737D01*
X133014801Y-90028600D01*
X133159245Y-90028600D01*
X133944182Y-90813538D01*
X133961117Y-90838883D01*
X133986462Y-90855818D01*
X133986463Y-90855819D01*
X134014023Y-90874234D01*
X134061541Y-90905984D01*
X134150102Y-90923600D01*
X134150103Y-90923600D01*
X134180000Y-90929547D01*
X134209897Y-90923600D01*
X139784246Y-90923600D01*
X140032046Y-91171400D01*
X140004801Y-91171400D01*
X139828895Y-91244263D01*
X139800000Y-91273158D01*
X139746105Y-91219263D01*
X139570199Y-91146400D01*
X139379801Y-91146400D01*
X139203895Y-91219263D01*
X139069263Y-91353895D01*
X138996400Y-91529801D01*
X138996400Y-91720199D01*
X139069263Y-91896105D01*
X139203895Y-92030737D01*
X139379801Y-92103600D01*
X139570199Y-92103600D01*
X139746105Y-92030737D01*
X139775000Y-92001842D01*
X139828895Y-92055737D01*
X140004801Y-92128600D01*
X140192608Y-92128600D01*
X140171400Y-92179801D01*
X140171400Y-92324245D01*
X138474246Y-94021400D01*
X136223242Y-94021400D01*
X136121105Y-93919263D01*
X135945199Y-93846400D01*
X135754801Y-93846400D01*
X135578895Y-93919263D01*
X135444263Y-94053895D01*
X135371400Y-94229801D01*
X135371400Y-94420199D01*
X135444263Y-94596105D01*
X135578895Y-94730737D01*
X135754801Y-94803600D01*
X135945199Y-94803600D01*
X136121105Y-94730737D01*
X136223242Y-94628600D01*
X138570103Y-94628600D01*
X138600000Y-94634547D01*
X138629897Y-94628600D01*
X138629898Y-94628600D01*
X138718459Y-94610984D01*
X138818883Y-94543883D01*
X138835822Y-94518532D01*
X140600755Y-92753600D01*
X140745199Y-92753600D01*
X140921105Y-92680737D01*
X141055737Y-92546105D01*
X141066401Y-92520361D01*
X141066400Y-93531400D01*
X141014801Y-93531400D01*
X140838895Y-93604263D01*
X140704263Y-93738895D01*
X140631400Y-93914801D01*
X140631400Y-94105199D01*
X140704263Y-94281105D01*
X140838895Y-94415737D01*
X141014801Y-94488600D01*
X141205199Y-94488600D01*
X141381105Y-94415737D01*
X141515737Y-94281105D01*
X141588600Y-94105199D01*
X141588600Y-93969072D01*
X141588883Y-93968883D01*
X141655984Y-93868459D01*
X141673600Y-93779898D01*
X141673600Y-93779897D01*
X141679547Y-93750000D01*
X141673600Y-93720103D01*
X141673600Y-92688288D01*
X158882589Y-92688288D01*
X158967357Y-93114442D01*
X159147822Y-93384527D01*
X159515473Y-93752178D01*
X159785558Y-93932643D01*
X160211712Y-94017411D01*
X160637867Y-93932643D01*
X160999144Y-93691246D01*
X161240541Y-93329969D01*
X161325309Y-92903814D01*
X161240541Y-92477660D01*
X161060076Y-92207575D01*
X160692425Y-91839924D01*
X160422340Y-91659459D01*
X159996186Y-91574691D01*
X159570032Y-91659459D01*
X159208755Y-91900857D01*
X158967357Y-92262134D01*
X158882589Y-92688288D01*
X141673600Y-92688288D01*
X141673600Y-92109897D01*
X141679547Y-92080000D01*
X141655984Y-91961542D01*
X141655984Y-91961541D01*
X141588883Y-91861117D01*
X141563535Y-91844180D01*
X140556015Y-90836660D01*
X160291522Y-90836660D01*
X160291522Y-90947813D01*
X160334058Y-91050504D01*
X160988504Y-91704950D01*
X161087287Y-91704950D01*
X161792237Y-91000000D01*
X160979524Y-90187287D01*
X160880741Y-90187287D01*
X160334058Y-90733969D01*
X160291522Y-90836660D01*
X140556015Y-90836660D01*
X140145822Y-90426468D01*
X140128883Y-90401117D01*
X140028459Y-90334016D01*
X139939898Y-90316400D01*
X139939897Y-90316400D01*
X139910000Y-90310453D01*
X139880103Y-90316400D01*
X134305756Y-90316400D01*
X133588600Y-89599245D01*
X133588600Y-89454801D01*
X133515737Y-89278895D01*
X133395076Y-89158234D01*
X133401105Y-89155737D01*
X133535737Y-89021105D01*
X133608600Y-88845199D01*
X133608600Y-88654801D01*
X133535737Y-88478895D01*
X133401105Y-88344263D01*
X133225199Y-88271400D01*
X133034801Y-88271400D01*
X132858895Y-88344263D01*
X132724263Y-88478895D01*
X132651400Y-88654801D01*
X132651400Y-88845199D01*
X132724263Y-89021105D01*
X132844924Y-89141766D01*
X132838895Y-89144263D01*
X132704263Y-89278895D01*
X132631400Y-89454801D01*
X131359815Y-89454801D01*
X132722320Y-87958738D01*
X132744755Y-87942848D01*
X132762583Y-87914528D01*
X132764594Y-87912320D01*
X132778511Y-87889226D01*
X132809100Y-87840636D01*
X132809617Y-87837611D01*
X132811201Y-87834982D01*
X132819771Y-87778148D01*
X132824300Y-87751628D01*
X132824219Y-87748651D01*
X132829210Y-87715553D01*
X132822592Y-87688862D01*
X132807783Y-87144625D01*
X132818895Y-87155737D01*
X132994801Y-87228600D01*
X133185199Y-87228600D01*
X133361105Y-87155737D01*
X133495737Y-87021105D01*
X133568600Y-86845199D01*
X133568600Y-86654801D01*
X133495737Y-86478895D01*
X133361105Y-86344263D01*
X133185199Y-86271400D01*
X132994801Y-86271400D01*
X132958600Y-86286395D01*
X132958600Y-86164801D01*
X132885737Y-85988895D01*
X132751105Y-85854263D01*
X132575199Y-85781400D01*
X132384801Y-85781400D01*
X132208895Y-85854263D01*
X132074263Y-85988895D01*
X132001400Y-86164801D01*
X132001400Y-86355199D01*
X132074263Y-86531105D01*
X132186726Y-86643568D01*
X132188374Y-86704137D01*
X132085199Y-86661400D01*
X131894801Y-86661400D01*
X131718895Y-86734263D01*
X131584263Y-86868895D01*
X131511400Y-87044801D01*
X131511400Y-87235199D01*
X131584263Y-87411105D01*
X131718895Y-87545737D01*
X131894801Y-87618600D01*
X132085199Y-87618600D01*
X132211830Y-87566148D01*
X132213186Y-87615999D01*
X130447960Y-89554261D01*
X130445737Y-89548895D01*
X130311105Y-89414263D01*
X130135199Y-89341400D01*
X129944801Y-89341400D01*
X129768895Y-89414263D01*
X129634263Y-89548895D01*
X129561400Y-89724801D01*
X129561400Y-89915199D01*
X129634263Y-90091105D01*
X129768895Y-90225737D01*
X129817931Y-90246049D01*
X125179451Y-95339215D01*
X125160066Y-95352168D01*
X125139161Y-95383455D01*
X125134355Y-95388732D01*
X125122583Y-95408265D01*
X125111582Y-95424730D01*
X124903093Y-95112703D01*
X124541816Y-94871306D01*
X124115661Y-94786538D01*
X123886498Y-94832122D01*
X123886498Y-93392856D01*
X126425755Y-90853600D01*
X126570199Y-90853600D01*
X126746105Y-90780737D01*
X126880737Y-90646105D01*
X126953600Y-90470199D01*
X126953600Y-90279801D01*
X126880737Y-90103895D01*
X126746105Y-89969263D01*
X126570199Y-89896400D01*
X126379801Y-89896400D01*
X126203895Y-89969263D01*
X126069263Y-90103895D01*
X125996400Y-90279801D01*
X125996400Y-90424245D01*
X123389366Y-93031280D01*
X123364015Y-93048219D01*
X123303347Y-93139016D01*
X123296914Y-93148644D01*
X123273351Y-93267102D01*
X123279298Y-93296999D01*
X123279298Y-93574453D01*
X123107041Y-93316651D01*
X122745764Y-93075254D01*
X122319609Y-92990486D01*
X121893455Y-93075254D01*
X121623370Y-93255719D01*
X121255719Y-93623370D01*
X121075254Y-93893455D01*
X120990486Y-94319609D01*
X121075254Y-94745763D01*
X121316652Y-95107040D01*
X121677929Y-95348438D01*
X122104083Y-95433206D01*
X122530237Y-95348438D01*
X122800322Y-95167973D01*
X123167973Y-94800322D01*
X123279298Y-94633712D01*
X123279299Y-95191894D01*
X123051771Y-95419422D01*
X122871306Y-95689507D01*
X122786538Y-96115661D01*
X122871306Y-96541815D01*
X123112704Y-96903092D01*
X123473981Y-97144490D01*
X123900135Y-97229258D01*
X124326289Y-97144490D01*
X124596374Y-96964025D01*
X124964025Y-96596374D01*
X125075349Y-96429765D01*
X125075350Y-96987945D01*
X124847822Y-97215473D01*
X124667357Y-97485558D01*
X124582589Y-97911712D01*
X124667357Y-98337866D01*
X124908755Y-98699143D01*
X125270032Y-98940541D01*
X125696186Y-99025309D01*
X126122340Y-98940541D01*
X126392425Y-98760076D01*
X126760076Y-98392425D01*
X126940541Y-98122340D01*
X127025309Y-97696186D01*
X126940541Y-97270031D01*
X126699144Y-96908754D01*
X126337867Y-96667357D01*
X125911712Y-96582589D01*
X125682549Y-96628173D01*
X125682549Y-95688580D01*
X127871400Y-93285168D01*
X127871400Y-93305199D01*
X127944263Y-93481105D01*
X128078895Y-93615737D01*
X128254801Y-93688600D01*
X128399246Y-93688600D01*
X139769576Y-105058931D01*
X139743374Y-105069784D01*
X139608742Y-105204416D01*
X139535879Y-105380322D01*
X139535879Y-105570720D01*
X139608742Y-105746626D01*
X139743374Y-105881258D01*
X139919280Y-105954121D01*
X140109678Y-105954121D01*
X140285584Y-105881258D01*
X140420216Y-105746626D01*
X140431069Y-105720424D01*
X141066401Y-106355756D01*
X141066400Y-109366758D01*
X140964263Y-109468895D01*
X140891400Y-109644801D01*
X140891400Y-109835199D01*
X140928100Y-109923800D01*
X135067649Y-109923800D01*
X135049556Y-109920201D01*
X129864156Y-104734801D01*
X135921400Y-104734801D01*
X135921400Y-104925199D01*
X135994263Y-105101105D01*
X136128895Y-105235737D01*
X136304801Y-105308600D01*
X136495199Y-105308600D01*
X136671105Y-105235737D01*
X136805737Y-105101105D01*
X136878600Y-104925199D01*
X136878600Y-104734801D01*
X136805737Y-104558895D01*
X136671105Y-104424263D01*
X136495199Y-104351400D01*
X136304801Y-104351400D01*
X136128895Y-104424263D01*
X135994263Y-104558895D01*
X135921400Y-104734801D01*
X129864156Y-104734801D01*
X124837118Y-99707763D01*
X126037844Y-99707763D01*
X126055586Y-99796958D01*
X126106111Y-99872574D01*
X127327426Y-101093889D01*
X127403042Y-101144414D01*
X127492237Y-101162156D01*
X127581432Y-101144414D01*
X127657048Y-101093889D01*
X129093889Y-99657048D01*
X129144414Y-99581432D01*
X129162156Y-99492237D01*
X129144414Y-99403042D01*
X129093889Y-99327426D01*
X127872574Y-98106111D01*
X127796958Y-98055586D01*
X127707763Y-98037844D01*
X127618568Y-98055586D01*
X127542952Y-98106111D01*
X126106111Y-99542952D01*
X126055586Y-99618568D01*
X126037844Y-99707763D01*
X124837118Y-99707763D01*
X117652913Y-92523558D01*
X119194435Y-92523558D01*
X119279203Y-92949712D01*
X119520601Y-93310989D01*
X119881878Y-93552387D01*
X120308032Y-93637155D01*
X120734186Y-93552387D01*
X121004271Y-93371922D01*
X121371922Y-93004271D01*
X121552387Y-92734186D01*
X121637155Y-92308032D01*
X121552387Y-91881877D01*
X121310990Y-91520600D01*
X120949713Y-91279203D01*
X120523558Y-91194435D01*
X120097404Y-91279203D01*
X119827319Y-91459668D01*
X119459668Y-91827319D01*
X119279203Y-92097404D01*
X119194435Y-92523558D01*
X117652913Y-92523558D01*
X116667660Y-91538305D01*
X117808946Y-91538305D01*
X117903284Y-91694946D01*
X118004174Y-91754341D01*
X118435781Y-91870508D01*
X118878988Y-91812662D01*
X119266322Y-91589612D01*
X119374086Y-91481849D01*
X118619744Y-90727507D01*
X117808946Y-91538305D01*
X116667660Y-91538305D01*
X115933062Y-90803707D01*
X117368980Y-90803707D01*
X117485147Y-91235314D01*
X117544542Y-91336204D01*
X117701183Y-91430542D01*
X118511981Y-90619744D01*
X118727507Y-90619744D01*
X119481849Y-91374086D01*
X119589612Y-91266322D01*
X119812662Y-90878988D01*
X119870508Y-90435781D01*
X119754341Y-90004174D01*
X119694946Y-89903284D01*
X119538305Y-89808946D01*
X118727507Y-90619744D01*
X118511981Y-90619744D01*
X117757639Y-89865402D01*
X117649876Y-89973166D01*
X117426826Y-90360500D01*
X117368980Y-90803707D01*
X115933062Y-90803707D01*
X115079799Y-89950445D01*
X115076200Y-89932352D01*
X115076200Y-89757639D01*
X117865402Y-89757639D01*
X118619744Y-90511981D01*
X119430542Y-89701183D01*
X119336204Y-89544542D01*
X119235314Y-89485147D01*
X118803707Y-89368980D01*
X118360500Y-89426826D01*
X117973166Y-89649876D01*
X117865402Y-89757639D01*
X115076200Y-89757639D01*
X115076200Y-86744801D01*
X126611400Y-86744801D01*
X126611400Y-86935199D01*
X126684263Y-87111105D01*
X126818895Y-87245737D01*
X126994801Y-87318600D01*
X127185199Y-87318600D01*
X127361105Y-87245737D01*
X127495737Y-87111105D01*
X127568600Y-86935199D01*
X127568600Y-86790754D01*
X128425755Y-85933600D01*
X128646758Y-85933600D01*
X128748895Y-86035737D01*
X128924801Y-86108600D01*
X129115199Y-86108600D01*
X129291105Y-86035737D01*
X129425737Y-85901105D01*
X129498600Y-85725199D01*
X129498600Y-85555442D01*
X129498895Y-85555737D01*
X129674801Y-85628600D01*
X129772046Y-85628600D01*
X128006466Y-87394180D01*
X127981118Y-87411117D01*
X127947717Y-87461105D01*
X127914016Y-87511542D01*
X127890453Y-87630000D01*
X127896401Y-87659902D01*
X127896400Y-89480103D01*
X127890453Y-89510000D01*
X127896400Y-89539897D01*
X127914016Y-89628458D01*
X127981117Y-89728883D01*
X128001400Y-89742436D01*
X128001400Y-89885199D01*
X128074263Y-90061105D01*
X128208895Y-90195737D01*
X128384801Y-90268600D01*
X128575199Y-90268600D01*
X128751105Y-90195737D01*
X128885737Y-90061105D01*
X128958600Y-89885199D01*
X128958600Y-89848600D01*
X129035199Y-89848600D01*
X129211105Y-89775737D01*
X129345737Y-89641105D01*
X129418600Y-89465199D01*
X129418600Y-89274801D01*
X129345737Y-89098895D01*
X129211105Y-88964263D01*
X129035199Y-88891400D01*
X128844801Y-88891400D01*
X128668895Y-88964263D01*
X128534263Y-89098895D01*
X128503600Y-89172922D01*
X128503600Y-88404801D01*
X129471400Y-88404801D01*
X129471400Y-88595199D01*
X129544263Y-88771105D01*
X129678895Y-88905737D01*
X129854801Y-88978600D01*
X130045199Y-88978600D01*
X130221105Y-88905737D01*
X130355737Y-88771105D01*
X130428600Y-88595199D01*
X130428600Y-88404801D01*
X130355737Y-88228895D01*
X130221105Y-88094263D01*
X130045199Y-88021400D01*
X129854801Y-88021400D01*
X129678895Y-88094263D01*
X129544263Y-88228895D01*
X129471400Y-88404801D01*
X128503600Y-88404801D01*
X128503600Y-87755754D01*
X132473536Y-83785819D01*
X132498883Y-83768883D01*
X132565984Y-83668459D01*
X132583600Y-83579898D01*
X132583600Y-83579897D01*
X132589547Y-83550001D01*
X132583600Y-83520104D01*
X132583600Y-83063242D01*
X132685737Y-82961105D01*
X132758600Y-82785199D01*
X132758600Y-82594801D01*
X132685737Y-82418895D01*
X132551105Y-82284263D01*
X132375199Y-82211400D01*
X132184801Y-82211400D01*
X132008895Y-82284263D01*
X131874263Y-82418895D01*
X131801400Y-82594801D01*
X131801400Y-82785199D01*
X131874263Y-82961105D01*
X131976401Y-83063243D01*
X131976400Y-83424245D01*
X130248600Y-85152045D01*
X130248600Y-85054801D01*
X130175737Y-84878895D01*
X130041105Y-84744263D01*
X129865199Y-84671400D01*
X129674801Y-84671400D01*
X129498895Y-84744263D01*
X129364263Y-84878895D01*
X129291400Y-85054801D01*
X129291400Y-85224558D01*
X129291105Y-85224263D01*
X129115199Y-85151400D01*
X128924801Y-85151400D01*
X128748895Y-85224263D01*
X128646758Y-85326400D01*
X128329896Y-85326400D01*
X128299999Y-85320453D01*
X128199453Y-85340453D01*
X128181541Y-85344016D01*
X128081117Y-85411117D01*
X128064180Y-85436465D01*
X127139246Y-86361400D01*
X126994801Y-86361400D01*
X126818895Y-86434263D01*
X126684263Y-86568895D01*
X126611400Y-86744801D01*
X115076200Y-86744801D01*
X115076200Y-86603600D01*
X123380103Y-86603600D01*
X123410000Y-86609547D01*
X123439897Y-86603600D01*
X123439898Y-86603600D01*
X123528459Y-86585984D01*
X123628883Y-86518883D01*
X123645822Y-86493532D01*
X125440755Y-84698600D01*
X125585199Y-84698600D01*
X125761105Y-84625737D01*
X125895737Y-84491105D01*
X125968600Y-84315199D01*
X125968600Y-84124801D01*
X125895737Y-83948895D01*
X125761105Y-83814263D01*
X125585199Y-83741400D01*
X125394801Y-83741400D01*
X125218895Y-83814263D01*
X125084263Y-83948895D01*
X125011400Y-84124801D01*
X125011400Y-84269245D01*
X123284246Y-85996400D01*
X115076200Y-85996400D01*
X115076200Y-84944801D01*
X117951400Y-84944801D01*
X117951400Y-85135199D01*
X118024263Y-85311105D01*
X118158895Y-85445737D01*
X118334801Y-85518600D01*
X118525199Y-85518600D01*
X118701105Y-85445737D01*
X118835737Y-85311105D01*
X118838348Y-85304801D01*
X121021400Y-85304801D01*
X121021400Y-85495199D01*
X121094263Y-85671105D01*
X121228895Y-85805737D01*
X121404801Y-85878600D01*
X121595199Y-85878600D01*
X121771105Y-85805737D01*
X121905737Y-85671105D01*
X121978600Y-85495199D01*
X121978600Y-85304801D01*
X121905737Y-85128895D01*
X121771105Y-84994263D01*
X121595199Y-84921400D01*
X121404801Y-84921400D01*
X121228895Y-84994263D01*
X121094263Y-85128895D01*
X121021400Y-85304801D01*
X118838348Y-85304801D01*
X118908600Y-85135199D01*
X118908600Y-84944801D01*
X118835737Y-84768895D01*
X118701105Y-84634263D01*
X118525199Y-84561400D01*
X118334801Y-84561400D01*
X118158895Y-84634263D01*
X118024263Y-84768895D01*
X117951400Y-84944801D01*
X115076200Y-84944801D01*
X115076200Y-82094801D01*
X122921400Y-82094801D01*
X122921400Y-82285199D01*
X122994263Y-82461105D01*
X123128895Y-82595737D01*
X123304801Y-82668600D01*
X123495199Y-82668600D01*
X123671105Y-82595737D01*
X123805737Y-82461105D01*
X123878600Y-82285199D01*
X123878600Y-82160754D01*
X126004553Y-80034801D01*
X133781400Y-80034801D01*
X133781400Y-80225199D01*
X133854263Y-80401105D01*
X133956401Y-80503243D01*
X133956400Y-87440103D01*
X133950453Y-87470000D01*
X133956400Y-87499897D01*
X133974016Y-87588458D01*
X134041117Y-87688883D01*
X134066468Y-87705822D01*
X134981400Y-88620755D01*
X134981400Y-88765199D01*
X135054263Y-88941105D01*
X135188895Y-89075737D01*
X135364801Y-89148600D01*
X135555199Y-89148600D01*
X135731105Y-89075737D01*
X135865737Y-88941105D01*
X135938600Y-88765199D01*
X135938600Y-88574801D01*
X135865737Y-88398895D01*
X135731105Y-88264263D01*
X135555199Y-88191400D01*
X135410755Y-88191400D01*
X135024156Y-87804801D01*
X136271400Y-87804801D01*
X136271400Y-87995199D01*
X136344263Y-88171105D01*
X136478895Y-88305737D01*
X136654801Y-88378600D01*
X136845199Y-88378600D01*
X137021105Y-88305737D01*
X137155737Y-88171105D01*
X137228600Y-87995199D01*
X137228600Y-87804801D01*
X137174752Y-87674801D01*
X137621400Y-87674801D01*
X137621400Y-87865199D01*
X137694263Y-88041105D01*
X137828895Y-88175737D01*
X138004801Y-88248600D01*
X138195199Y-88248600D01*
X138371105Y-88175737D01*
X138505737Y-88041105D01*
X138578600Y-87865199D01*
X138578600Y-87779801D01*
X138596400Y-87779801D01*
X138596400Y-87970199D01*
X138669263Y-88146105D01*
X138803895Y-88280737D01*
X138979801Y-88353600D01*
X139170199Y-88353600D01*
X139346105Y-88280737D01*
X139480737Y-88146105D01*
X139553600Y-87970199D01*
X139553600Y-87779801D01*
X139480737Y-87603895D01*
X139346105Y-87469263D01*
X139170199Y-87396400D01*
X138979801Y-87396400D01*
X138803895Y-87469263D01*
X138669263Y-87603895D01*
X138596400Y-87779801D01*
X138578600Y-87779801D01*
X138578600Y-87674801D01*
X138505737Y-87498895D01*
X138371105Y-87364263D01*
X138195199Y-87291400D01*
X138004801Y-87291400D01*
X137828895Y-87364263D01*
X137694263Y-87498895D01*
X137621400Y-87674801D01*
X137174752Y-87674801D01*
X137155737Y-87628895D01*
X137021105Y-87494263D01*
X136845199Y-87421400D01*
X136654801Y-87421400D01*
X136478895Y-87494263D01*
X136344263Y-87628895D01*
X136271400Y-87804801D01*
X135024156Y-87804801D01*
X134563600Y-87344246D01*
X134563600Y-85279801D01*
X134871400Y-85279801D01*
X134871400Y-85470199D01*
X134944263Y-85646105D01*
X135078895Y-85780737D01*
X135254801Y-85853600D01*
X135445199Y-85853600D01*
X135621105Y-85780737D01*
X135755737Y-85646105D01*
X135828600Y-85470199D01*
X135828600Y-85325754D01*
X136100755Y-85053600D01*
X137301758Y-85053600D01*
X137403895Y-85155737D01*
X137579801Y-85228600D01*
X137770199Y-85228600D01*
X137946105Y-85155737D01*
X138080737Y-85021105D01*
X138153600Y-84845199D01*
X138153600Y-84654801D01*
X138080737Y-84478895D01*
X137946105Y-84344263D01*
X137770199Y-84271400D01*
X137579801Y-84271400D01*
X137403895Y-84344263D01*
X137301758Y-84446400D01*
X136004893Y-84446400D01*
X135974999Y-84440454D01*
X135945105Y-84446400D01*
X135945102Y-84446400D01*
X135856541Y-84464016D01*
X135756117Y-84531117D01*
X135739180Y-84556465D01*
X135399246Y-84896400D01*
X135254801Y-84896400D01*
X135078895Y-84969263D01*
X134944263Y-85103895D01*
X134871400Y-85279801D01*
X134563600Y-85279801D01*
X134563600Y-80503242D01*
X134665737Y-80401105D01*
X134684916Y-80354801D01*
X134991400Y-80354801D01*
X134991400Y-80545199D01*
X135064263Y-80721105D01*
X135198895Y-80855737D01*
X135374801Y-80928600D01*
X135565199Y-80928600D01*
X135741105Y-80855737D01*
X135875737Y-80721105D01*
X135948600Y-80545199D01*
X135948600Y-80354801D01*
X135875737Y-80178895D01*
X135741105Y-80044263D01*
X135565199Y-79971400D01*
X135374801Y-79971400D01*
X135198895Y-80044263D01*
X135064263Y-80178895D01*
X134991400Y-80354801D01*
X134684916Y-80354801D01*
X134738600Y-80225199D01*
X134738600Y-80034801D01*
X134665737Y-79858895D01*
X134531105Y-79724263D01*
X134355199Y-79651400D01*
X134164801Y-79651400D01*
X133988895Y-79724263D01*
X133854263Y-79858895D01*
X133781400Y-80034801D01*
X126004553Y-80034801D01*
X127075755Y-78963600D01*
X128128466Y-78963600D01*
X128111400Y-79004801D01*
X128111400Y-79195199D01*
X128184263Y-79371105D01*
X128318895Y-79505737D01*
X128494801Y-79578600D01*
X128685199Y-79578600D01*
X128861105Y-79505737D01*
X128995737Y-79371105D01*
X129068600Y-79195199D01*
X129068600Y-79004801D01*
X129051534Y-78963600D01*
X134726758Y-78963600D01*
X134828895Y-79065737D01*
X135004801Y-79138600D01*
X135195199Y-79138600D01*
X135371105Y-79065737D01*
X135505737Y-78931105D01*
X135578600Y-78755199D01*
X135578600Y-78564801D01*
X135505737Y-78388895D01*
X135371105Y-78254263D01*
X135195199Y-78181400D01*
X135004801Y-78181400D01*
X134828895Y-78254263D01*
X134726758Y-78356400D01*
X126979897Y-78356400D01*
X126950000Y-78350453D01*
X126920103Y-78356400D01*
X126920102Y-78356400D01*
X126831541Y-78374016D01*
X126731117Y-78441117D01*
X126714180Y-78466465D01*
X123469246Y-81711400D01*
X123304801Y-81711400D01*
X123128895Y-81784263D01*
X122994263Y-81918895D01*
X122921400Y-82094801D01*
X115076200Y-82094801D01*
X115076200Y-80067648D01*
X115079799Y-80049555D01*
X115737117Y-79392237D01*
X116237844Y-79392237D01*
X116255586Y-79481432D01*
X116306111Y-79557048D01*
X117742952Y-80993889D01*
X117818568Y-81044414D01*
X117907763Y-81062156D01*
X117996958Y-81044414D01*
X118072574Y-80993889D01*
X119293889Y-79772574D01*
X119344414Y-79696958D01*
X119362156Y-79607763D01*
X119344414Y-79518568D01*
X119293889Y-79442952D01*
X117857048Y-78006111D01*
X117781432Y-77955586D01*
X117692237Y-77937844D01*
X117603042Y-77955586D01*
X117527426Y-78006111D01*
X116306111Y-79227426D01*
X116255586Y-79303042D01*
X116237844Y-79392237D01*
X115737117Y-79392237D01*
X117533168Y-77596186D01*
X118374691Y-77596186D01*
X118459459Y-78022340D01*
X118639924Y-78292425D01*
X119007575Y-78660076D01*
X119277660Y-78840541D01*
X119703814Y-78925309D01*
X120129969Y-78840541D01*
X120491246Y-78599144D01*
X120732643Y-78237867D01*
X120817411Y-77811712D01*
X120771281Y-77579801D01*
X134771400Y-77579801D01*
X134771400Y-77770199D01*
X134844263Y-77946105D01*
X134978895Y-78080737D01*
X135154801Y-78153600D01*
X135345199Y-78153600D01*
X135521105Y-78080737D01*
X135655737Y-77946105D01*
X135728600Y-77770199D01*
X135728600Y-77579801D01*
X135655737Y-77403895D01*
X135521105Y-77269263D01*
X135345199Y-77196400D01*
X135154801Y-77196400D01*
X134978895Y-77269263D01*
X134844263Y-77403895D01*
X134771400Y-77579801D01*
X120771281Y-77579801D01*
X120732643Y-77385558D01*
X120552178Y-77115473D01*
X120184527Y-76747822D01*
X119914442Y-76567357D01*
X119488288Y-76482589D01*
X119062134Y-76567357D01*
X118700857Y-76808755D01*
X118459459Y-77170032D01*
X118374691Y-77596186D01*
X117533168Y-77596186D01*
X119329219Y-75800135D01*
X120170742Y-75800135D01*
X120255510Y-76226289D01*
X120435975Y-76496374D01*
X120803626Y-76864025D01*
X121073711Y-77044490D01*
X121499865Y-77129258D01*
X121926020Y-77044490D01*
X122287297Y-76803093D01*
X122528694Y-76441816D01*
X122613462Y-76015661D01*
X122528694Y-75589507D01*
X122348229Y-75319422D01*
X121980578Y-74951771D01*
X121710493Y-74771306D01*
X121284339Y-74686538D01*
X120858185Y-74771306D01*
X120496908Y-75012704D01*
X120255510Y-75373981D01*
X120170742Y-75800135D01*
X119329219Y-75800135D01*
X121125271Y-74004083D01*
X121966794Y-74004083D01*
X122051562Y-74430237D01*
X122232027Y-74700322D01*
X122599678Y-75067973D01*
X122869763Y-75248438D01*
X123295917Y-75333206D01*
X123722072Y-75248438D01*
X124083349Y-75007041D01*
X124324746Y-74645764D01*
X124409514Y-74219609D01*
X124356840Y-73954801D01*
X133421400Y-73954801D01*
X133421400Y-74145199D01*
X133494263Y-74321105D01*
X133628895Y-74455737D01*
X133804801Y-74528600D01*
X133995199Y-74528600D01*
X134171105Y-74455737D01*
X134305737Y-74321105D01*
X134378600Y-74145199D01*
X134378600Y-73954801D01*
X134305737Y-73778895D01*
X134171105Y-73644263D01*
X133995199Y-73571400D01*
X133804801Y-73571400D01*
X133628895Y-73644263D01*
X133494263Y-73778895D01*
X133421400Y-73954801D01*
X124356840Y-73954801D01*
X124324746Y-73793455D01*
X124144281Y-73523370D01*
X123776630Y-73155719D01*
X123506545Y-72975254D01*
X123080391Y-72890486D01*
X122654237Y-72975254D01*
X122292960Y-73216652D01*
X122051562Y-73577929D01*
X121966794Y-74004083D01*
X121125271Y-74004083D01*
X122921322Y-72208032D01*
X123762845Y-72208032D01*
X123847613Y-72634186D01*
X124028078Y-72904271D01*
X124395729Y-73271922D01*
X124665814Y-73452387D01*
X125091968Y-73537155D01*
X125518123Y-73452387D01*
X125879400Y-73210990D01*
X126120797Y-72849713D01*
X126205565Y-72423558D01*
X126120797Y-71997404D01*
X125940332Y-71727319D01*
X125572681Y-71359668D01*
X125302596Y-71179203D01*
X124876442Y-71094435D01*
X124450288Y-71179203D01*
X124089011Y-71420601D01*
X123847613Y-71781878D01*
X123762845Y-72208032D01*
X122921322Y-72208032D01*
X124717373Y-70411981D01*
X125558896Y-70411981D01*
X125643664Y-70838135D01*
X125824129Y-71108220D01*
X126191780Y-71475871D01*
X126461865Y-71656336D01*
X126888019Y-71741104D01*
X127314174Y-71656336D01*
X127577494Y-71480391D01*
X128990486Y-71480391D01*
X129075254Y-71906545D01*
X129255719Y-72176630D01*
X129623370Y-72544281D01*
X129893455Y-72724746D01*
X130319609Y-72809514D01*
X130745764Y-72724746D01*
X131107041Y-72483349D01*
X131348438Y-72122072D01*
X131433206Y-71695917D01*
X131348438Y-71269763D01*
X131167973Y-70999678D01*
X130800322Y-70632027D01*
X130530237Y-70451562D01*
X130104083Y-70366794D01*
X129677929Y-70451562D01*
X129316652Y-70692960D01*
X129075254Y-71054237D01*
X128990486Y-71480391D01*
X127577494Y-71480391D01*
X127675451Y-71414939D01*
X127916848Y-71053662D01*
X128001616Y-70627507D01*
X127916848Y-70201353D01*
X127736383Y-69931268D01*
X127368732Y-69563617D01*
X127098647Y-69383152D01*
X126672493Y-69298384D01*
X126246339Y-69383152D01*
X125885062Y-69624550D01*
X125643664Y-69985827D01*
X125558896Y-70411981D01*
X124717373Y-70411981D01*
X126513424Y-68615930D01*
X127354947Y-68615930D01*
X127439715Y-69042084D01*
X127620180Y-69312169D01*
X127987831Y-69679820D01*
X128257916Y-69860285D01*
X128684070Y-69945053D01*
X129110225Y-69860285D01*
X129373547Y-69684339D01*
X130786538Y-69684339D01*
X130871306Y-70110493D01*
X131051771Y-70380578D01*
X131419422Y-70748229D01*
X131689507Y-70928694D01*
X132115661Y-71013462D01*
X132541816Y-70928694D01*
X132903093Y-70687297D01*
X133144490Y-70326020D01*
X133229258Y-69899865D01*
X133144490Y-69473711D01*
X132964025Y-69203626D01*
X132596374Y-68835975D01*
X132326289Y-68655510D01*
X131900135Y-68570742D01*
X131473981Y-68655510D01*
X131112704Y-68896908D01*
X130871306Y-69258185D01*
X130786538Y-69684339D01*
X129373547Y-69684339D01*
X129471502Y-69618888D01*
X129712899Y-69257611D01*
X129797667Y-68831456D01*
X129712899Y-68405302D01*
X129532434Y-68135217D01*
X129164783Y-67767566D01*
X128894698Y-67587101D01*
X128468544Y-67502333D01*
X128042390Y-67587101D01*
X127681113Y-67828499D01*
X127439715Y-68189776D01*
X127354947Y-68615930D01*
X126513424Y-68615930D01*
X128309476Y-66819878D01*
X129150999Y-66819878D01*
X129235767Y-67246032D01*
X129416232Y-67516117D01*
X129783883Y-67883768D01*
X130053968Y-68064233D01*
X130480122Y-68149001D01*
X130906277Y-68064233D01*
X131169597Y-67888288D01*
X132582589Y-67888288D01*
X132667357Y-68314442D01*
X132847822Y-68584527D01*
X133215473Y-68952178D01*
X133485558Y-69132643D01*
X133911712Y-69217411D01*
X134337867Y-69132643D01*
X134699144Y-68891246D01*
X134940541Y-68529969D01*
X135025309Y-68103814D01*
X134940541Y-67677660D01*
X134760076Y-67407575D01*
X134392425Y-67039924D01*
X134122340Y-66859459D01*
X133696186Y-66774691D01*
X133270032Y-66859459D01*
X132908755Y-67100857D01*
X132667357Y-67462134D01*
X132582589Y-67888288D01*
X131169597Y-67888288D01*
X131267554Y-67822836D01*
X131508951Y-67461559D01*
X131593719Y-67035404D01*
X131508951Y-66609250D01*
X131328486Y-66339165D01*
X130960835Y-65971514D01*
X130690750Y-65791049D01*
X130264596Y-65706281D01*
X129838442Y-65791049D01*
X129477165Y-66032447D01*
X129235767Y-66393724D01*
X129150999Y-66819878D01*
X128309476Y-66819878D01*
X130105527Y-65023827D01*
X130947050Y-65023827D01*
X131031818Y-65449981D01*
X131212283Y-65720066D01*
X131579934Y-66087717D01*
X131850019Y-66268182D01*
X132276173Y-66352950D01*
X132702328Y-66268182D01*
X132965648Y-66092237D01*
X134037844Y-66092237D01*
X134055586Y-66181432D01*
X134106111Y-66257048D01*
X135542952Y-67693889D01*
X135618568Y-67744414D01*
X135707763Y-67762156D01*
X135796958Y-67744414D01*
X135872574Y-67693889D01*
X137093889Y-66472574D01*
X137144414Y-66396958D01*
X137162156Y-66307763D01*
X137144414Y-66218568D01*
X137093889Y-66142952D01*
X136255738Y-65304801D01*
X138021400Y-65304801D01*
X138021400Y-65495199D01*
X138094263Y-65671105D01*
X138228895Y-65805737D01*
X138404801Y-65878600D01*
X138595199Y-65878600D01*
X138771105Y-65805737D01*
X138905737Y-65671105D01*
X138978600Y-65495199D01*
X138978600Y-65304801D01*
X138905737Y-65128895D01*
X138771105Y-64994263D01*
X138595199Y-64921400D01*
X138404801Y-64921400D01*
X138228895Y-64994263D01*
X138094263Y-65128895D01*
X138021400Y-65304801D01*
X136255738Y-65304801D01*
X135755738Y-64804801D01*
X139531400Y-64804801D01*
X139531400Y-64995199D01*
X139604263Y-65171105D01*
X139738895Y-65305737D01*
X139914801Y-65378600D01*
X140105199Y-65378600D01*
X140281105Y-65305737D01*
X140415737Y-65171105D01*
X140488600Y-64995199D01*
X140488600Y-64804801D01*
X140415737Y-64628895D01*
X140281105Y-64494263D01*
X140105199Y-64421400D01*
X139914801Y-64421400D01*
X139738895Y-64494263D01*
X139604263Y-64628895D01*
X139531400Y-64804801D01*
X135755738Y-64804801D01*
X135657048Y-64706111D01*
X135581432Y-64655586D01*
X135492237Y-64637844D01*
X135403042Y-64655586D01*
X135327426Y-64706111D01*
X134106111Y-65927426D01*
X134055586Y-66003042D01*
X134037844Y-66092237D01*
X132965648Y-66092237D01*
X133063605Y-66026785D01*
X133305002Y-65665508D01*
X133389770Y-65239353D01*
X133305002Y-64813199D01*
X133124537Y-64543114D01*
X132756886Y-64175463D01*
X132486801Y-63994998D01*
X132060647Y-63910230D01*
X131634493Y-63994998D01*
X131273216Y-64236396D01*
X131031818Y-64597673D01*
X130947050Y-65023827D01*
X130105527Y-65023827D01*
X131901578Y-63227776D01*
X132743101Y-63227776D01*
X132827869Y-63653930D01*
X133008334Y-63924015D01*
X133375985Y-64291666D01*
X133646070Y-64472131D01*
X134072224Y-64556899D01*
X134498379Y-64472131D01*
X134859656Y-64230734D01*
X135101053Y-63869457D01*
X135185821Y-63443302D01*
X135101053Y-63017148D01*
X134920588Y-62747063D01*
X134552937Y-62379412D01*
X134282852Y-62198947D01*
X133856698Y-62114179D01*
X133430544Y-62198947D01*
X133069267Y-62440345D01*
X132827869Y-62801622D01*
X132743101Y-63227776D01*
X131901578Y-63227776D01*
X135049556Y-60079799D01*
X135067649Y-60076200D01*
X142171958Y-60076200D01*
X142119263Y-60128895D01*
X142119263Y-60128895D01*
G37*
X142119263Y-60128895D02*
X142046400Y-60304801D01*
X142046400Y-60495199D01*
X142119263Y-60671105D01*
X142221401Y-60773243D01*
X142221400Y-76474244D01*
X138455930Y-80239715D01*
X138430737Y-80178895D01*
X138296105Y-80044263D01*
X138120199Y-79971400D01*
X137975754Y-79971400D01*
X137953600Y-79949246D01*
X137953600Y-77614801D01*
X138921400Y-77614801D01*
X138921400Y-77805199D01*
X138994263Y-77981105D01*
X139128895Y-78115737D01*
X139304801Y-78188600D01*
X139495199Y-78188600D01*
X139671105Y-78115737D01*
X139805737Y-77981105D01*
X139878600Y-77805199D01*
X139878600Y-77614801D01*
X139805737Y-77438895D01*
X139671105Y-77304263D01*
X139495199Y-77231400D01*
X139304801Y-77231400D01*
X139128895Y-77304263D01*
X138994263Y-77438895D01*
X138921400Y-77614801D01*
X137953600Y-77614801D01*
X137953600Y-75848242D01*
X138055737Y-75746105D01*
X138128600Y-75570199D01*
X138128600Y-75379801D01*
X138055737Y-75203895D01*
X137921105Y-75069263D01*
X137745199Y-74996400D01*
X137554801Y-74996400D01*
X137378895Y-75069263D01*
X137244263Y-75203895D01*
X137171400Y-75379801D01*
X137171400Y-75570199D01*
X137244263Y-75746105D01*
X137346401Y-75848243D01*
X137346400Y-80045103D01*
X137340453Y-80075000D01*
X137346400Y-80104897D01*
X137364016Y-80193458D01*
X137431117Y-80293883D01*
X137456468Y-80310822D01*
X137546400Y-80400754D01*
X137546400Y-80545199D01*
X137619263Y-80721105D01*
X137753895Y-80855737D01*
X137814716Y-80880930D01*
X136178100Y-82517546D01*
X136178100Y-82391301D01*
X136105237Y-82215395D01*
X135970605Y-82080763D01*
X135794699Y-82007900D01*
X135604301Y-82007900D01*
X135428395Y-82080763D01*
X135293763Y-82215395D01*
X135220900Y-82391301D01*
X135220900Y-82581699D01*
X135293763Y-82757605D01*
X135428395Y-82892237D01*
X135528946Y-82933887D01*
X135503895Y-82944263D01*
X135369263Y-83078895D01*
X135296400Y-83254801D01*
X135296400Y-83445199D01*
X135369263Y-83621105D01*
X135503895Y-83755737D01*
X135679801Y-83828600D01*
X135870199Y-83828600D01*
X136046105Y-83755737D01*
X136180737Y-83621105D01*
X136253600Y-83445199D01*
X136253600Y-83300754D01*
X137229553Y-82324801D01*
X146841400Y-82324801D01*
X146841400Y-82515199D01*
X146914263Y-82691105D01*
X147048895Y-82825737D01*
X147224801Y-82898600D01*
X147415199Y-82898600D01*
X147591105Y-82825737D01*
X147725737Y-82691105D01*
X147798600Y-82515199D01*
X147798600Y-82324801D01*
X147725737Y-82148895D01*
X147591105Y-82014263D01*
X147415199Y-81941400D01*
X147224801Y-81941400D01*
X147048895Y-82014263D01*
X146914263Y-82148895D01*
X146841400Y-82324801D01*
X137229553Y-82324801D01*
X137821400Y-81732955D01*
X137821400Y-81865199D01*
X137894263Y-82041105D01*
X138028895Y-82175737D01*
X138204801Y-82248600D01*
X138395199Y-82248600D01*
X138571105Y-82175737D01*
X138705737Y-82041105D01*
X138778600Y-81865199D01*
X138778600Y-81804801D01*
X153821400Y-81804801D01*
X153821400Y-81995199D01*
X153894263Y-82171105D01*
X154028895Y-82305737D01*
X154204801Y-82378600D01*
X154395199Y-82378600D01*
X154571105Y-82305737D01*
X154705737Y-82171105D01*
X154778600Y-81995199D01*
X154778600Y-81804801D01*
X154705737Y-81628895D01*
X154571105Y-81494263D01*
X154395199Y-81421400D01*
X154204801Y-81421400D01*
X154028895Y-81494263D01*
X153894263Y-81628895D01*
X153821400Y-81804801D01*
X138778600Y-81804801D01*
X138778600Y-81674801D01*
X138705737Y-81498895D01*
X138571105Y-81364263D01*
X138395199Y-81291400D01*
X138262955Y-81291400D01*
X138819554Y-80734801D01*
X141791400Y-80734801D01*
X141791400Y-80925199D01*
X141864263Y-81101105D01*
X141998895Y-81235737D01*
X142174801Y-81308600D01*
X142365199Y-81308600D01*
X142541105Y-81235737D01*
X142553690Y-81223152D01*
X142594263Y-81321105D01*
X142728895Y-81455737D01*
X142904801Y-81528600D01*
X143095199Y-81528600D01*
X143271105Y-81455737D01*
X143322041Y-81404801D01*
X155521400Y-81404801D01*
X155521400Y-81595199D01*
X155594263Y-81771105D01*
X155728895Y-81905737D01*
X155904801Y-81978600D01*
X156095199Y-81978600D01*
X156271105Y-81905737D01*
X156405737Y-81771105D01*
X156478600Y-81595199D01*
X156478600Y-81404801D01*
X156405737Y-81228895D01*
X156271105Y-81094263D01*
X156095199Y-81021400D01*
X155904801Y-81021400D01*
X155728895Y-81094263D01*
X155594263Y-81228895D01*
X155521400Y-81404801D01*
X143322041Y-81404801D01*
X143405737Y-81321105D01*
X143478600Y-81145199D01*
X143478600Y-80954801D01*
X143405737Y-80778895D01*
X143271105Y-80644263D01*
X143095199Y-80571400D01*
X142904801Y-80571400D01*
X142728895Y-80644263D01*
X142716310Y-80656848D01*
X142675737Y-80558895D01*
X142541105Y-80424263D01*
X142365199Y-80351400D01*
X142174801Y-80351400D01*
X141998895Y-80424263D01*
X141864263Y-80558895D01*
X141791400Y-80734801D01*
X138819554Y-80734801D01*
X140749554Y-78804801D01*
X145041400Y-78804801D01*
X145041400Y-78995199D01*
X145114263Y-79171105D01*
X145248895Y-79305737D01*
X145424801Y-79378600D01*
X145615199Y-79378600D01*
X145791105Y-79305737D01*
X145925737Y-79171105D01*
X145998600Y-78995199D01*
X145998600Y-78804801D01*
X145925737Y-78628895D01*
X145791105Y-78494263D01*
X145615199Y-78421400D01*
X145424801Y-78421400D01*
X145248895Y-78494263D01*
X145114263Y-78628895D01*
X145041400Y-78804801D01*
X140749554Y-78804801D01*
X142718539Y-76835817D01*
X142743883Y-76818883D01*
X142810984Y-76718459D01*
X142828600Y-76629898D01*
X142828600Y-76629897D01*
X142834547Y-76600000D01*
X142828600Y-76570103D01*
X142828600Y-75775442D01*
X142858895Y-75805737D01*
X143034801Y-75878600D01*
X143225199Y-75878600D01*
X143401105Y-75805737D01*
X143535737Y-75671105D01*
X143554780Y-75625132D01*
X146396400Y-78466753D01*
X146396401Y-79526757D01*
X146294263Y-79628895D01*
X146221400Y-79804801D01*
X146221400Y-79995199D01*
X146294263Y-80171105D01*
X146428895Y-80305737D01*
X146604801Y-80378600D01*
X146795199Y-80378600D01*
X146971105Y-80305737D01*
X147105737Y-80171105D01*
X147152950Y-80057123D01*
X147204801Y-80078600D01*
X147395199Y-80078600D01*
X147571105Y-80005737D01*
X147705737Y-79871105D01*
X147778600Y-79695199D01*
X147778600Y-79504801D01*
X147705737Y-79328895D01*
X147603600Y-79226758D01*
X147603600Y-74929897D01*
X147609547Y-74900000D01*
X147585984Y-74781542D01*
X147585984Y-74781541D01*
X147518883Y-74681117D01*
X147493535Y-74664180D01*
X144734156Y-71904801D01*
X146821400Y-71904801D01*
X146821400Y-72095199D01*
X146894263Y-72271105D01*
X147028895Y-72405737D01*
X147204801Y-72478600D01*
X147395199Y-72478600D01*
X147571105Y-72405737D01*
X147673242Y-72303600D01*
X147950103Y-72303600D01*
X147980000Y-72309547D01*
X148009897Y-72303600D01*
X148009898Y-72303600D01*
X148098459Y-72285984D01*
X148198883Y-72218883D01*
X148215822Y-72193532D01*
X148855755Y-71553600D01*
X149096758Y-71553600D01*
X149198895Y-71655737D01*
X149374801Y-71728600D01*
X149565199Y-71728600D01*
X149741105Y-71655737D01*
X149875737Y-71521105D01*
X149948600Y-71345199D01*
X149948600Y-71154801D01*
X149875737Y-70978895D01*
X149741105Y-70844263D01*
X149565199Y-70771400D01*
X149374801Y-70771400D01*
X149198895Y-70844263D01*
X149096758Y-70946400D01*
X148759896Y-70946400D01*
X148729999Y-70940453D01*
X148700102Y-70946400D01*
X148611541Y-70964016D01*
X148511117Y-71031117D01*
X148494180Y-71056465D01*
X147854246Y-71696400D01*
X147673242Y-71696400D01*
X147571105Y-71594263D01*
X147395199Y-71521400D01*
X147204801Y-71521400D01*
X147028895Y-71594263D01*
X146894263Y-71728895D01*
X146821400Y-71904801D01*
X144734156Y-71904801D01*
X143878600Y-71049246D01*
X143878600Y-70904801D01*
X143805737Y-70728895D01*
X143671105Y-70594263D01*
X143495199Y-70521400D01*
X143426326Y-70521400D01*
X143478600Y-70395199D01*
X143478600Y-70204801D01*
X143405737Y-70028895D01*
X143389002Y-70012160D01*
X148395523Y-70012160D01*
X148395523Y-70281956D01*
X148498770Y-70531216D01*
X148689545Y-70721991D01*
X148938805Y-70825238D01*
X149208601Y-70825238D01*
X149457861Y-70721991D01*
X149648636Y-70531216D01*
X149751883Y-70281956D01*
X149751883Y-70012160D01*
X149648636Y-69762900D01*
X149457861Y-69572125D01*
X149208601Y-69468878D01*
X148938805Y-69468878D01*
X148689545Y-69572125D01*
X148498770Y-69762900D01*
X148395523Y-70012160D01*
X143389002Y-70012160D01*
X143271105Y-69894263D01*
X143095199Y-69821400D01*
X142904801Y-69821400D01*
X142828600Y-69852964D01*
X142828600Y-66901399D01*
X145284762Y-66901399D01*
X145284762Y-67171195D01*
X145388009Y-67420455D01*
X145578784Y-67611230D01*
X145828044Y-67714477D01*
X146097840Y-67714477D01*
X146347100Y-67611230D01*
X146537875Y-67420455D01*
X146641122Y-67171195D01*
X146641122Y-66901399D01*
X146537875Y-66652139D01*
X146347100Y-66461364D01*
X146097840Y-66358117D01*
X145828044Y-66358117D01*
X145578784Y-66461364D01*
X145388009Y-66652139D01*
X145284762Y-66901399D01*
X142828600Y-66901399D01*
X142828600Y-64204801D01*
X143771400Y-64204801D01*
X143771400Y-64395199D01*
X143844263Y-64571105D01*
X143978895Y-64705737D01*
X144154801Y-64778600D01*
X144345199Y-64778600D01*
X144521105Y-64705737D01*
X144655737Y-64571105D01*
X144728600Y-64395199D01*
X144728600Y-64204801D01*
X144655737Y-64028895D01*
X144521105Y-63894263D01*
X144345199Y-63821400D01*
X144154801Y-63821400D01*
X143978895Y-63894263D01*
X143844263Y-64028895D01*
X143771400Y-64204801D01*
X142828600Y-64204801D01*
X142828600Y-60773242D01*
X142930737Y-60671105D01*
X143003600Y-60495199D01*
X143003600Y-60304801D01*
X142930737Y-60128895D01*
X142878042Y-60076200D01*
X144932352Y-60076200D01*
X144950445Y-60079799D01*
X150666650Y-65796005D01*
X150717225Y-65876180D01*
X150863279Y-66030125D01*
X150890920Y-66049665D01*
X150914856Y-66073600D01*
X151068493Y-66176257D01*
X158028435Y-73136199D01*
X158131092Y-73289836D01*
X158214855Y-73373599D01*
X158265028Y-73394382D01*
X164920201Y-80049556D01*
X164922006Y-80058632D01*
X164745373Y-85946400D01*
X161249107Y-85946400D01*
X161278600Y-85875199D01*
X161278600Y-85684801D01*
X161205737Y-85508895D01*
X161071105Y-85374263D01*
X160895199Y-85301400D01*
X160704801Y-85301400D01*
X160528895Y-85374263D01*
X160394263Y-85508895D01*
X160321400Y-85684801D01*
X160321400Y-85875199D01*
X160350893Y-85946400D01*
X153415755Y-85946400D01*
X152804156Y-85334801D01*
X158051400Y-85334801D01*
X158051400Y-85525199D01*
X158124263Y-85701105D01*
X158258895Y-85835737D01*
X158434801Y-85908600D01*
X158625199Y-85908600D01*
X158801105Y-85835737D01*
X158935737Y-85701105D01*
X159008600Y-85525199D01*
X159008600Y-85334801D01*
X158935737Y-85158895D01*
X158801105Y-85024263D01*
X158625199Y-84951400D01*
X158434801Y-84951400D01*
X158258895Y-85024263D01*
X158124263Y-85158895D01*
X158051400Y-85334801D01*
X152804156Y-85334801D01*
X151305822Y-83836468D01*
X151288883Y-83811117D01*
X151188459Y-83744016D01*
X151099898Y-83726400D01*
X151099897Y-83726400D01*
X151070000Y-83720453D01*
X151040103Y-83726400D01*
X146155755Y-83726400D01*
X145445822Y-83016468D01*
X145428883Y-82991117D01*
X145328459Y-82924016D01*
X145239898Y-82906400D01*
X145239897Y-82906400D01*
X145231859Y-82904801D01*
X149821400Y-82904801D01*
X149821400Y-83095199D01*
X149894263Y-83271105D01*
X150028895Y-83405737D01*
X150204801Y-83478600D01*
X150395199Y-83478600D01*
X150571105Y-83405737D01*
X150705737Y-83271105D01*
X150774622Y-83104801D01*
X155321400Y-83104801D01*
X155321400Y-83295199D01*
X155394263Y-83471105D01*
X155528895Y-83605737D01*
X155704801Y-83678600D01*
X155895199Y-83678600D01*
X156071105Y-83605737D01*
X156205737Y-83471105D01*
X156278600Y-83295199D01*
X156278600Y-83104801D01*
X156205737Y-82928895D01*
X156071105Y-82794263D01*
X155895199Y-82721400D01*
X155704801Y-82721400D01*
X155528895Y-82794263D01*
X155394263Y-82928895D01*
X155321400Y-83104801D01*
X150774622Y-83104801D01*
X150778600Y-83095199D01*
X150778600Y-82904801D01*
X150705737Y-82728895D01*
X150571105Y-82594263D01*
X150395199Y-82521400D01*
X150204801Y-82521400D01*
X150028895Y-82594263D01*
X149894263Y-82728895D01*
X149821400Y-82904801D01*
X145231859Y-82904801D01*
X145210000Y-82900453D01*
X145180103Y-82906400D01*
X137969896Y-82906400D01*
X137939999Y-82900453D01*
X137910102Y-82906400D01*
X137821541Y-82924016D01*
X137735660Y-82981400D01*
X137594801Y-82981400D01*
X137418895Y-83054263D01*
X137284263Y-83188895D01*
X137211400Y-83364801D01*
X137211400Y-83555199D01*
X137284263Y-83731105D01*
X137418895Y-83865737D01*
X137594801Y-83938600D01*
X137785199Y-83938600D01*
X137961105Y-83865737D01*
X138095737Y-83731105D01*
X138168600Y-83555199D01*
X138168600Y-83513600D01*
X145084246Y-83513600D01*
X145794180Y-84223535D01*
X145811117Y-84248883D01*
X145908596Y-84314016D01*
X145911541Y-84315984D01*
X146029999Y-84339547D01*
X146059896Y-84333600D01*
X150944246Y-84333600D01*
X153054180Y-86443535D01*
X153071117Y-86468883D01*
X153163688Y-86530737D01*
X153171541Y-86535984D01*
X153289999Y-86559547D01*
X153319896Y-86553600D01*
X158169558Y-86553600D01*
X158144263Y-86578895D01*
X158071400Y-86754801D01*
X158071400Y-86899245D01*
X156736687Y-88233958D01*
X156748600Y-88205199D01*
X156748600Y-88014801D01*
X156675737Y-87838895D01*
X156541105Y-87704263D01*
X156365199Y-87631400D01*
X156220754Y-87631400D01*
X156105822Y-87516468D01*
X156088883Y-87491117D01*
X155988459Y-87424016D01*
X155899898Y-87406400D01*
X155899897Y-87406400D01*
X155870000Y-87400453D01*
X155840103Y-87406400D01*
X151988397Y-87406400D01*
X152038600Y-87285199D01*
X152038600Y-87094801D01*
X151965737Y-86918895D01*
X151831105Y-86784263D01*
X151655199Y-86711400D01*
X151571889Y-86711400D01*
X151578600Y-86695199D01*
X151578600Y-86504801D01*
X151505737Y-86328895D01*
X151371105Y-86194263D01*
X151195199Y-86121400D01*
X151004801Y-86121400D01*
X150828895Y-86194263D01*
X150694263Y-86328895D01*
X150621400Y-86504801D01*
X150621400Y-86695199D01*
X150694263Y-86871105D01*
X150709558Y-86886400D01*
X147287119Y-86886400D01*
X147308084Y-86877716D01*
X147442716Y-86743084D01*
X147515579Y-86567178D01*
X147515579Y-86533600D01*
X148566758Y-86533600D01*
X148668895Y-86635737D01*
X148844801Y-86708600D01*
X149035199Y-86708600D01*
X149211105Y-86635737D01*
X149345737Y-86501105D01*
X149418600Y-86325199D01*
X149418600Y-86134801D01*
X149345737Y-85958895D01*
X149211105Y-85824263D01*
X149035199Y-85751400D01*
X148844801Y-85751400D01*
X148668895Y-85824263D01*
X148566758Y-85926400D01*
X147308855Y-85926400D01*
X147278958Y-85920453D01*
X147249060Y-85926400D01*
X147160499Y-85944016D01*
X147086622Y-85993379D01*
X146960976Y-85993379D01*
X147250755Y-85703600D01*
X147395199Y-85703600D01*
X147571105Y-85630737D01*
X147705737Y-85496105D01*
X147778600Y-85320199D01*
X147778600Y-85304801D01*
X150431400Y-85304801D01*
X150431400Y-85495199D01*
X150504263Y-85671105D01*
X150638895Y-85805737D01*
X150814801Y-85878600D01*
X151005199Y-85878600D01*
X151181105Y-85805737D01*
X151315737Y-85671105D01*
X151388600Y-85495199D01*
X151388600Y-85304801D01*
X151315737Y-85128895D01*
X151181105Y-84994263D01*
X151005199Y-84921400D01*
X150814801Y-84921400D01*
X150638895Y-84994263D01*
X150504263Y-85128895D01*
X150431400Y-85304801D01*
X147778600Y-85304801D01*
X147778600Y-85129801D01*
X147705737Y-84953895D01*
X147571105Y-84819263D01*
X147395199Y-84746400D01*
X147204801Y-84746400D01*
X147028895Y-84819263D01*
X147025000Y-84823158D01*
X146971105Y-84769263D01*
X146795199Y-84696400D01*
X146604801Y-84696400D01*
X146428895Y-84769263D01*
X146294263Y-84903895D01*
X146221400Y-85079801D01*
X146221400Y-85224246D01*
X146099246Y-85346400D01*
X139778600Y-85346400D01*
X139778600Y-84898242D01*
X139805737Y-84871105D01*
X139878600Y-84695199D01*
X139878600Y-84654801D01*
X139921400Y-84654801D01*
X139921400Y-84845199D01*
X139994263Y-85021105D01*
X140128895Y-85155737D01*
X140304801Y-85228600D01*
X140495199Y-85228600D01*
X140671105Y-85155737D01*
X140805737Y-85021105D01*
X140878600Y-84845199D01*
X140878600Y-84654801D01*
X140805737Y-84478895D01*
X140671105Y-84344263D01*
X140495199Y-84271400D01*
X140304801Y-84271400D01*
X140128895Y-84344263D01*
X139994263Y-84478895D01*
X139921400Y-84654801D01*
X139878600Y-84654801D01*
X139878600Y-84504801D01*
X139805737Y-84328895D01*
X139671105Y-84194263D01*
X139495199Y-84121400D01*
X139304801Y-84121400D01*
X139128895Y-84194263D01*
X138994263Y-84328895D01*
X138921400Y-84504801D01*
X138921400Y-84695199D01*
X138994263Y-84871105D01*
X139128895Y-85005737D01*
X139171400Y-85023343D01*
X139171401Y-85346400D01*
X137990909Y-85346400D01*
X137870199Y-85296400D01*
X137679801Y-85296400D01*
X137503895Y-85369263D01*
X137369263Y-85503895D01*
X137296400Y-85679801D01*
X137296400Y-85698674D01*
X137170199Y-85646400D01*
X136979801Y-85646400D01*
X136803895Y-85719263D01*
X136669263Y-85853895D01*
X136596400Y-86029801D01*
X136596400Y-86220199D01*
X136669263Y-86396105D01*
X136803895Y-86530737D01*
X136979801Y-86603600D01*
X137170199Y-86603600D01*
X137346105Y-86530737D01*
X137480737Y-86396105D01*
X137553600Y-86220199D01*
X137553600Y-86201326D01*
X137679801Y-86253600D01*
X137870199Y-86253600D01*
X138046105Y-86180737D01*
X138180737Y-86046105D01*
X138219054Y-85953600D01*
X139445103Y-85953600D01*
X139475000Y-85959547D01*
X139504898Y-85953600D01*
X146142046Y-85953600D01*
X145674246Y-86421400D01*
X138833699Y-86421400D01*
X138805737Y-86353895D01*
X138671105Y-86219263D01*
X138495199Y-86146400D01*
X138304801Y-86146400D01*
X138128895Y-86219263D01*
X137994263Y-86353895D01*
X137921400Y-86529801D01*
X137921400Y-86720199D01*
X137994263Y-86896105D01*
X138128895Y-87030737D01*
X138304801Y-87103600D01*
X138495199Y-87103600D01*
X138671105Y-87030737D01*
X138673242Y-87028600D01*
X141913674Y-87028600D01*
X141861400Y-87154801D01*
X141861400Y-87345199D01*
X141934263Y-87521105D01*
X142068895Y-87655737D01*
X142143858Y-87686788D01*
X141929246Y-87901400D01*
X141784801Y-87901400D01*
X141608895Y-87974263D01*
X141474263Y-88108895D01*
X141401400Y-88284801D01*
X141401400Y-88475199D01*
X141461959Y-88621400D01*
X141035442Y-88621400D01*
X141075737Y-88581105D01*
X141148600Y-88405199D01*
X141148600Y-88214801D01*
X141075737Y-88038895D01*
X140941105Y-87904263D01*
X140765199Y-87831400D01*
X140574801Y-87831400D01*
X140398895Y-87904263D01*
X140264263Y-88038895D01*
X140191400Y-88214801D01*
X140191400Y-88405199D01*
X140264263Y-88581105D01*
X140304558Y-88621400D01*
X137473242Y-88621400D01*
X137371105Y-88519263D01*
X137195199Y-88446400D01*
X137004801Y-88446400D01*
X136828895Y-88519263D01*
X136694263Y-88653895D01*
X136621400Y-88829801D01*
X136621400Y-89020199D01*
X136694263Y-89196105D01*
X136828895Y-89330737D01*
X137004801Y-89403600D01*
X137195199Y-89403600D01*
X137371105Y-89330737D01*
X137473242Y-89228600D01*
X139069558Y-89228600D01*
X138969263Y-89328895D01*
X138896400Y-89504801D01*
X138896400Y-89695199D01*
X138969263Y-89871105D01*
X139103895Y-90005737D01*
X139279801Y-90078600D01*
X139470199Y-90078600D01*
X139646105Y-90005737D01*
X139780737Y-89871105D01*
X139853600Y-89695199D01*
X139853600Y-89504801D01*
X139780737Y-89328895D01*
X139680442Y-89228600D01*
X143117608Y-89228600D01*
X143096400Y-89279801D01*
X143096400Y-89470199D01*
X143169263Y-89646105D01*
X143303895Y-89780737D01*
X143479801Y-89853600D01*
X143670199Y-89853600D01*
X143846105Y-89780737D01*
X143980737Y-89646105D01*
X144053600Y-89470199D01*
X144053600Y-89279801D01*
X144032392Y-89228600D01*
X152432253Y-89228600D01*
X152421400Y-89254801D01*
X152421400Y-89445199D01*
X152494263Y-89621105D01*
X152628895Y-89755737D01*
X152804801Y-89828600D01*
X152921400Y-89828600D01*
X152921400Y-89895199D01*
X152994263Y-90071105D01*
X153128895Y-90205737D01*
X153304801Y-90278600D01*
X153495199Y-90278600D01*
X153671105Y-90205737D01*
X153805737Y-90071105D01*
X153843167Y-89980741D01*
X161087287Y-89980741D01*
X161087287Y-90079524D01*
X161900000Y-90892237D01*
X162604950Y-90187287D01*
X162604950Y-90088504D01*
X161950504Y-89434058D01*
X161847813Y-89391522D01*
X161736660Y-89391522D01*
X161633969Y-89434058D01*
X161087287Y-89980741D01*
X153843167Y-89980741D01*
X153878600Y-89895199D01*
X153878600Y-89704801D01*
X153805737Y-89528895D01*
X153671105Y-89394263D01*
X153495199Y-89321400D01*
X153378600Y-89321400D01*
X153378600Y-89254801D01*
X153367747Y-89228600D01*
X156445103Y-89228600D01*
X156475000Y-89234547D01*
X156504897Y-89228600D01*
X156504898Y-89228600D01*
X156593459Y-89210984D01*
X156693883Y-89143883D01*
X156710822Y-89118532D01*
X158500755Y-87328600D01*
X158645199Y-87328600D01*
X158821105Y-87255737D01*
X158955737Y-87121105D01*
X159028600Y-86945199D01*
X159028600Y-86754801D01*
X158955737Y-86578895D01*
X158930442Y-86553600D01*
X164727157Y-86553600D01*
X164624702Y-89968773D01*
X163508478Y-91151970D01*
X163508478Y-91052187D01*
X163465942Y-90949496D01*
X162811496Y-90295050D01*
X162712713Y-90295050D01*
X162007763Y-91000000D01*
X162021906Y-91014143D01*
X161914143Y-91121906D01*
X161900000Y-91107763D01*
X161195050Y-91812713D01*
X161195050Y-91911496D01*
X161849496Y-92565942D01*
X161952187Y-92608478D01*
X162063340Y-92608478D01*
X162166031Y-92565942D01*
X162316408Y-92415564D01*
X160005202Y-94865444D01*
X144950445Y-109920201D01*
X144932352Y-109923800D01*
X141811900Y-109923800D01*
X141848600Y-109835199D01*
X141848600Y-109644801D01*
X141775737Y-109468895D01*
X141673600Y-109366758D01*
X141673600Y-107056698D01*
X144514179Y-107056698D01*
X144598947Y-107482852D01*
X144779412Y-107752937D01*
X145147063Y-108120588D01*
X145417148Y-108301053D01*
X145843302Y-108385821D01*
X146269457Y-108301053D01*
X146630734Y-108059656D01*
X146872131Y-107698379D01*
X146956899Y-107272224D01*
X146872131Y-106846070D01*
X146691666Y-106575985D01*
X146324015Y-106208334D01*
X146053930Y-106027869D01*
X145627776Y-105943101D01*
X145201622Y-106027869D01*
X144840345Y-106269267D01*
X144598947Y-106630544D01*
X144514179Y-107056698D01*
X141673600Y-107056698D01*
X141673600Y-106259897D01*
X141679547Y-106230000D01*
X141655984Y-106111542D01*
X141655984Y-106111541D01*
X141588883Y-106011117D01*
X141563535Y-105994180D01*
X140830002Y-105260647D01*
X146310230Y-105260647D01*
X146394998Y-105686801D01*
X146575463Y-105956886D01*
X146943114Y-106324537D01*
X147213199Y-106505002D01*
X147639353Y-106589770D01*
X148065508Y-106505002D01*
X148426785Y-106263605D01*
X148668182Y-105902328D01*
X148752950Y-105476173D01*
X148668182Y-105050019D01*
X148487717Y-104779934D01*
X148120066Y-104412283D01*
X147849981Y-104231818D01*
X147423827Y-104147050D01*
X146997673Y-104231818D01*
X146636396Y-104473216D01*
X146394998Y-104834493D01*
X146310230Y-105260647D01*
X140830002Y-105260647D01*
X139033951Y-103464596D01*
X148106281Y-103464596D01*
X148191049Y-103890750D01*
X148371514Y-104160835D01*
X148739165Y-104528486D01*
X149009250Y-104708951D01*
X149435404Y-104793719D01*
X149861559Y-104708951D01*
X150222836Y-104467554D01*
X150464233Y-104106277D01*
X150549001Y-103680122D01*
X150464233Y-103253968D01*
X150283768Y-102983883D01*
X149916117Y-102616232D01*
X149646032Y-102435767D01*
X149219878Y-102350999D01*
X148793724Y-102435767D01*
X148432447Y-102677165D01*
X148191049Y-103038442D01*
X148106281Y-103464596D01*
X139033951Y-103464596D01*
X136569355Y-101000000D01*
X137191017Y-101000000D01*
X137287613Y-101485619D01*
X137562694Y-101897306D01*
X137974381Y-102172387D01*
X138337419Y-102244600D01*
X138582581Y-102244600D01*
X138945619Y-102172387D01*
X139357306Y-101897306D01*
X139632387Y-101485619D01*
X139728983Y-101000000D01*
X139632387Y-100514381D01*
X139357306Y-100102694D01*
X139179669Y-99984000D01*
X139750922Y-99984000D01*
X139750922Y-102016000D01*
X139768664Y-102105195D01*
X139819189Y-102180811D01*
X139894805Y-102231336D01*
X139984000Y-102249078D01*
X142016000Y-102249078D01*
X142105195Y-102231336D01*
X142180811Y-102180811D01*
X142181485Y-102179801D01*
X144296400Y-102179801D01*
X144296400Y-102370199D01*
X144369263Y-102546105D01*
X144503895Y-102680737D01*
X144679801Y-102753600D01*
X144870199Y-102753600D01*
X145046105Y-102680737D01*
X145180737Y-102546105D01*
X145253600Y-102370199D01*
X145253600Y-102179801D01*
X145180737Y-102003895D01*
X145046105Y-101869263D01*
X144870199Y-101796400D01*
X144679801Y-101796400D01*
X144503895Y-101869263D01*
X144369263Y-102003895D01*
X144296400Y-102179801D01*
X142181485Y-102179801D01*
X142231336Y-102105195D01*
X142249078Y-102016000D01*
X142249078Y-101668544D01*
X149902333Y-101668544D01*
X149987101Y-102094698D01*
X150167566Y-102364783D01*
X150535217Y-102732434D01*
X150805302Y-102912899D01*
X151231456Y-102997667D01*
X151657611Y-102912899D01*
X152018888Y-102671502D01*
X152260285Y-102310225D01*
X152345053Y-101884070D01*
X152260285Y-101457916D01*
X152079820Y-101187831D01*
X151712169Y-100820180D01*
X151442084Y-100639715D01*
X151015930Y-100554947D01*
X150589776Y-100639715D01*
X150228499Y-100881113D01*
X149987101Y-101242390D01*
X149902333Y-101668544D01*
X142249078Y-101668544D01*
X142249078Y-100424801D01*
X143601400Y-100424801D01*
X143601400Y-100615199D01*
X143674263Y-100791105D01*
X143808895Y-100925737D01*
X143984801Y-100998600D01*
X144175199Y-100998600D01*
X144351105Y-100925737D01*
X144472041Y-100804801D01*
X147821400Y-100804801D01*
X147821400Y-100995199D01*
X147894263Y-101171105D01*
X148028895Y-101305737D01*
X148204801Y-101378600D01*
X148395199Y-101378600D01*
X148571105Y-101305737D01*
X148705737Y-101171105D01*
X148778600Y-100995199D01*
X148778600Y-100850754D01*
X149756861Y-99872493D01*
X151698384Y-99872493D01*
X151783152Y-100298647D01*
X151963617Y-100568732D01*
X152331268Y-100936383D01*
X152601353Y-101116848D01*
X153027507Y-101201616D01*
X153453662Y-101116848D01*
X153814939Y-100875451D01*
X154056336Y-100514174D01*
X154141104Y-100088019D01*
X154056336Y-99661865D01*
X153875871Y-99391780D01*
X153508220Y-99024129D01*
X153238135Y-98843664D01*
X152811981Y-98758896D01*
X152385827Y-98843664D01*
X152024550Y-99085062D01*
X151783152Y-99446339D01*
X151698384Y-99872493D01*
X149756861Y-99872493D01*
X151552912Y-98076442D01*
X153494435Y-98076442D01*
X153579203Y-98502596D01*
X153759668Y-98772681D01*
X154127319Y-99140332D01*
X154397404Y-99320797D01*
X154823558Y-99405565D01*
X155249713Y-99320797D01*
X155610990Y-99079400D01*
X155852387Y-98718123D01*
X155937155Y-98291968D01*
X155852387Y-97865814D01*
X155671922Y-97595729D01*
X155304271Y-97228078D01*
X155034186Y-97047613D01*
X154608032Y-96962845D01*
X154181878Y-97047613D01*
X153820601Y-97289011D01*
X153579203Y-97650288D01*
X153494435Y-98076442D01*
X151552912Y-98076442D01*
X151793535Y-97835820D01*
X151818883Y-97818883D01*
X151885984Y-97718459D01*
X151903600Y-97629898D01*
X151903600Y-97629897D01*
X151909547Y-97600000D01*
X151903600Y-97570103D01*
X151903600Y-96473242D01*
X152005737Y-96371105D01*
X152043312Y-96280391D01*
X155290486Y-96280391D01*
X155375254Y-96706545D01*
X155555719Y-96976630D01*
X155923370Y-97344281D01*
X156193455Y-97524746D01*
X156619609Y-97609514D01*
X157045764Y-97524746D01*
X157407041Y-97283349D01*
X157648438Y-96922072D01*
X157733206Y-96495917D01*
X157648438Y-96069763D01*
X157467973Y-95799678D01*
X157100322Y-95432027D01*
X156830237Y-95251562D01*
X156404083Y-95166794D01*
X155977929Y-95251562D01*
X155616652Y-95492960D01*
X155375254Y-95854237D01*
X155290486Y-96280391D01*
X152043312Y-96280391D01*
X152078600Y-96195199D01*
X152078600Y-96004801D01*
X152005737Y-95828895D01*
X151871105Y-95694263D01*
X151695199Y-95621400D01*
X151504801Y-95621400D01*
X151328895Y-95694263D01*
X151194263Y-95828895D01*
X151121400Y-96004801D01*
X151121400Y-96195199D01*
X151194263Y-96371105D01*
X151296400Y-96473242D01*
X151296401Y-97474244D01*
X148349246Y-100421400D01*
X148204801Y-100421400D01*
X148028895Y-100494263D01*
X147894263Y-100628895D01*
X147821400Y-100804801D01*
X144472041Y-100804801D01*
X144485737Y-100791105D01*
X144558600Y-100615199D01*
X144558600Y-100424801D01*
X144485737Y-100248895D01*
X144351105Y-100114263D01*
X144175199Y-100041400D01*
X143984801Y-100041400D01*
X143808895Y-100114263D01*
X143674263Y-100248895D01*
X143601400Y-100424801D01*
X142249078Y-100424801D01*
X142249078Y-99984000D01*
X142231336Y-99894805D01*
X142180811Y-99819189D01*
X142105195Y-99768664D01*
X142016000Y-99750922D01*
X139984000Y-99750922D01*
X139894805Y-99768664D01*
X139819189Y-99819189D01*
X139768664Y-99894805D01*
X139750922Y-99984000D01*
X139179669Y-99984000D01*
X138945619Y-99827613D01*
X138582581Y-99755400D01*
X138337419Y-99755400D01*
X137974381Y-99827613D01*
X137562694Y-100102694D01*
X137287613Y-100514381D01*
X137191017Y-101000000D01*
X136569355Y-101000000D01*
X134034156Y-98464801D01*
X139991400Y-98464801D01*
X139991400Y-98655199D01*
X140064263Y-98831105D01*
X140198895Y-98965737D01*
X140374801Y-99038600D01*
X140565199Y-99038600D01*
X140741105Y-98965737D01*
X140852562Y-98854280D01*
X142631921Y-98854280D01*
X142631921Y-99044678D01*
X142704784Y-99220584D01*
X142839416Y-99355216D01*
X143015322Y-99428079D01*
X143205720Y-99428079D01*
X143381626Y-99355216D01*
X143516258Y-99220584D01*
X143564217Y-99104801D01*
X145281400Y-99104801D01*
X145281400Y-99295199D01*
X145354263Y-99471105D01*
X145488895Y-99605737D01*
X145664801Y-99678600D01*
X145855199Y-99678600D01*
X146031105Y-99605737D01*
X146165737Y-99471105D01*
X146238600Y-99295199D01*
X146238600Y-99104801D01*
X146165737Y-98928895D01*
X146031105Y-98794263D01*
X145985458Y-98775355D01*
X146081105Y-98735737D01*
X146215737Y-98601105D01*
X146288600Y-98425199D01*
X146288600Y-98234801D01*
X146215737Y-98058895D01*
X146081105Y-97924263D01*
X145905199Y-97851400D01*
X145714801Y-97851400D01*
X145538895Y-97924263D01*
X145404263Y-98058895D01*
X145331400Y-98234801D01*
X145331400Y-98425199D01*
X145404263Y-98601105D01*
X145538895Y-98735737D01*
X145584542Y-98754645D01*
X145488895Y-98794263D01*
X145354263Y-98928895D01*
X145281400Y-99104801D01*
X143564217Y-99104801D01*
X143589121Y-99044678D01*
X143589121Y-98854280D01*
X143516258Y-98678374D01*
X143381626Y-98543742D01*
X143205720Y-98470879D01*
X143015322Y-98470879D01*
X142839416Y-98543742D01*
X142704784Y-98678374D01*
X142631921Y-98854280D01*
X140852562Y-98854280D01*
X140875737Y-98831105D01*
X140948600Y-98655199D01*
X140948600Y-98464801D01*
X140919605Y-98394801D01*
X143751400Y-98394801D01*
X143751400Y-98585199D01*
X143824263Y-98761105D01*
X143958895Y-98895737D01*
X144134801Y-98968600D01*
X144325199Y-98968600D01*
X144501105Y-98895737D01*
X144635737Y-98761105D01*
X144708600Y-98585199D01*
X144708600Y-98394801D01*
X144635737Y-98218895D01*
X144501105Y-98084263D01*
X144325199Y-98011400D01*
X144134801Y-98011400D01*
X143958895Y-98084263D01*
X143824263Y-98218895D01*
X143751400Y-98394801D01*
X140919605Y-98394801D01*
X140875737Y-98288895D01*
X140741105Y-98154263D01*
X140565199Y-98081400D01*
X140374801Y-98081400D01*
X140198895Y-98154263D01*
X140064263Y-98288895D01*
X139991400Y-98464801D01*
X134034156Y-98464801D01*
X132324156Y-96754801D01*
X133331400Y-96754801D01*
X133331400Y-96945199D01*
X133404263Y-97121105D01*
X133538895Y-97255737D01*
X133714801Y-97328600D01*
X133905199Y-97328600D01*
X134081105Y-97255737D01*
X134215737Y-97121105D01*
X134288600Y-96945199D01*
X134288600Y-96754801D01*
X134215737Y-96578895D01*
X134081105Y-96444263D01*
X133961694Y-96394801D01*
X134381400Y-96394801D01*
X134381400Y-96585199D01*
X134454263Y-96761105D01*
X134588895Y-96895737D01*
X134764801Y-96968600D01*
X134955199Y-96968600D01*
X135131105Y-96895737D01*
X135265737Y-96761105D01*
X135338600Y-96585199D01*
X135338600Y-96394801D01*
X135280610Y-96254801D01*
X140601400Y-96254801D01*
X140601400Y-96445199D01*
X140674263Y-96621105D01*
X140808895Y-96755737D01*
X140984801Y-96828600D01*
X141175199Y-96828600D01*
X141351105Y-96755737D01*
X141485737Y-96621105D01*
X141558600Y-96445199D01*
X141558600Y-96254801D01*
X141485737Y-96078895D01*
X141351105Y-95944263D01*
X141175199Y-95871400D01*
X140984801Y-95871400D01*
X140808895Y-95944263D01*
X140674263Y-96078895D01*
X140601400Y-96254801D01*
X135280610Y-96254801D01*
X135265737Y-96218895D01*
X135131105Y-96084263D01*
X134955199Y-96011400D01*
X134764801Y-96011400D01*
X134588895Y-96084263D01*
X134454263Y-96218895D01*
X134381400Y-96394801D01*
X133961694Y-96394801D01*
X133905199Y-96371400D01*
X133714801Y-96371400D01*
X133538895Y-96444263D01*
X133404263Y-96578895D01*
X133331400Y-96754801D01*
X132324156Y-96754801D01*
X131064156Y-95494801D01*
X141861400Y-95494801D01*
X141861400Y-95685199D01*
X141934263Y-95861105D01*
X142068895Y-95995737D01*
X142244801Y-96068600D01*
X142389246Y-96068600D01*
X143089180Y-96768535D01*
X143106117Y-96793883D01*
X143184273Y-96846105D01*
X143206541Y-96860984D01*
X143324999Y-96884547D01*
X143354896Y-96878600D01*
X146726758Y-96878600D01*
X146828895Y-96980737D01*
X147004801Y-97053600D01*
X147195199Y-97053600D01*
X147371105Y-96980737D01*
X147505737Y-96846105D01*
X147578600Y-96670199D01*
X147578600Y-96525754D01*
X149199553Y-94904801D01*
X152721400Y-94904801D01*
X152721400Y-95095199D01*
X152794263Y-95271105D01*
X152928895Y-95405737D01*
X153104801Y-95478600D01*
X153295199Y-95478600D01*
X153471105Y-95405737D01*
X153605737Y-95271105D01*
X153678600Y-95095199D01*
X153678600Y-94904801D01*
X153605737Y-94728895D01*
X153471105Y-94594263D01*
X153295199Y-94521400D01*
X153104801Y-94521400D01*
X152928895Y-94594263D01*
X152794263Y-94728895D01*
X152721400Y-94904801D01*
X149199553Y-94904801D01*
X150200755Y-93903600D01*
X152668466Y-93903600D01*
X152651400Y-93944801D01*
X152651400Y-94135199D01*
X152724263Y-94311105D01*
X152858895Y-94445737D01*
X153034801Y-94518600D01*
X153225199Y-94518600D01*
X153307911Y-94484339D01*
X157086538Y-94484339D01*
X157171306Y-94910493D01*
X157351771Y-95180578D01*
X157719422Y-95548229D01*
X157989507Y-95728694D01*
X158415661Y-95813462D01*
X158841816Y-95728694D01*
X159203093Y-95487297D01*
X159444490Y-95126020D01*
X159529258Y-94699865D01*
X159444490Y-94273711D01*
X159264025Y-94003626D01*
X158896374Y-93635975D01*
X158626289Y-93455510D01*
X158200135Y-93370742D01*
X157773981Y-93455510D01*
X157412704Y-93696908D01*
X157171306Y-94058185D01*
X157086538Y-94484339D01*
X153307911Y-94484339D01*
X153401105Y-94445737D01*
X153535737Y-94311105D01*
X153608600Y-94135199D01*
X153608600Y-93944801D01*
X153591534Y-93903600D01*
X154995103Y-93903600D01*
X155025000Y-93909547D01*
X155054897Y-93903600D01*
X155054898Y-93903600D01*
X155088611Y-93896894D01*
X155104801Y-93903600D01*
X155295199Y-93903600D01*
X155471105Y-93830737D01*
X155605737Y-93696105D01*
X155678600Y-93520199D01*
X155678600Y-93329801D01*
X155605737Y-93153895D01*
X155471105Y-93019263D01*
X155295199Y-92946400D01*
X155104801Y-92946400D01*
X154928895Y-93019263D01*
X154794263Y-93153895D01*
X154735235Y-93296400D01*
X150104896Y-93296400D01*
X150074999Y-93290453D01*
X150045102Y-93296400D01*
X149956541Y-93314016D01*
X149856117Y-93381117D01*
X149839181Y-93406464D01*
X147149246Y-96096400D01*
X147004801Y-96096400D01*
X146828895Y-96169263D01*
X146726758Y-96271400D01*
X143450755Y-96271400D01*
X142818600Y-95639246D01*
X142818600Y-95494801D01*
X142745737Y-95318895D01*
X142611105Y-95184263D01*
X142435199Y-95111400D01*
X142244801Y-95111400D01*
X142068895Y-95184263D01*
X141934263Y-95318895D01*
X141861400Y-95494801D01*
X131064156Y-95494801D01*
X128828600Y-93259246D01*
X128828600Y-93114801D01*
X128755737Y-92938895D01*
X128621105Y-92804263D01*
X128445199Y-92731400D01*
X128375731Y-92731400D01*
X128909962Y-92144801D01*
X132921400Y-92144801D01*
X132921400Y-92335199D01*
X132994263Y-92511105D01*
X133128895Y-92645737D01*
X133304801Y-92718600D01*
X133495199Y-92718600D01*
X133649222Y-92654801D01*
X134921400Y-92654801D01*
X134921400Y-92845199D01*
X134994263Y-93021105D01*
X135128895Y-93155737D01*
X135304801Y-93228600D01*
X135495199Y-93228600D01*
X135671105Y-93155737D01*
X135805737Y-93021105D01*
X135878600Y-92845199D01*
X135878600Y-92654801D01*
X135805737Y-92478895D01*
X135671105Y-92344263D01*
X135495199Y-92271400D01*
X135304801Y-92271400D01*
X135128895Y-92344263D01*
X134994263Y-92478895D01*
X134921400Y-92654801D01*
X133649222Y-92654801D01*
X133671105Y-92645737D01*
X133805737Y-92511105D01*
X133878600Y-92335199D01*
X133878600Y-92144801D01*
X133805737Y-91968895D01*
X133671105Y-91834263D01*
X133495199Y-91761400D01*
X133304801Y-91761400D01*
X133128895Y-91834263D01*
X132994263Y-91968895D01*
X132921400Y-92144801D01*
X128909962Y-92144801D01*
X129194209Y-91832691D01*
X129214263Y-91881105D01*
X129348895Y-92015737D01*
X129524801Y-92088600D01*
X129715199Y-92088600D01*
X129891105Y-92015737D01*
X130025737Y-91881105D01*
X130098600Y-91705199D01*
X130098600Y-91524801D01*
X136141400Y-91524801D01*
X136141400Y-91715199D01*
X136214263Y-91891105D01*
X136348895Y-92025737D01*
X136524801Y-92098600D01*
X136715199Y-92098600D01*
X136891105Y-92025737D01*
X137025737Y-91891105D01*
X137098600Y-91715199D01*
X137098600Y-91524801D01*
X137025737Y-91348895D01*
X136891105Y-91214263D01*
X136715199Y-91141400D01*
X136524801Y-91141400D01*
X136348895Y-91214263D01*
X136214263Y-91348895D01*
X136141400Y-91524801D01*
X130098600Y-91524801D01*
X130098600Y-91514801D01*
X130025737Y-91338895D01*
X129891105Y-91204263D01*
X129800656Y-91166797D01*
X131359815Y-89454801D01*
X132631400Y-89454801D01*
X132631400Y-89645199D01*
X132704263Y-89821105D01*
X132838895Y-89955737D01*
X133014801Y-90028600D01*
X133159245Y-90028600D01*
X133944182Y-90813538D01*
X133961117Y-90838883D01*
X133986462Y-90855818D01*
X133986463Y-90855819D01*
X134014023Y-90874234D01*
X134061541Y-90905984D01*
X134150102Y-90923600D01*
X134150103Y-90923600D01*
X134180000Y-90929547D01*
X134209897Y-90923600D01*
X139784246Y-90923600D01*
X140032046Y-91171400D01*
X140004801Y-91171400D01*
X139828895Y-91244263D01*
X139800000Y-91273158D01*
X139746105Y-91219263D01*
X139570199Y-91146400D01*
X139379801Y-91146400D01*
X139203895Y-91219263D01*
X139069263Y-91353895D01*
X138996400Y-91529801D01*
X138996400Y-91720199D01*
X139069263Y-91896105D01*
X139203895Y-92030737D01*
X139379801Y-92103600D01*
X139570199Y-92103600D01*
X139746105Y-92030737D01*
X139775000Y-92001842D01*
X139828895Y-92055737D01*
X140004801Y-92128600D01*
X140192608Y-92128600D01*
X140171400Y-92179801D01*
X140171400Y-92324245D01*
X138474246Y-94021400D01*
X136223242Y-94021400D01*
X136121105Y-93919263D01*
X135945199Y-93846400D01*
X135754801Y-93846400D01*
X135578895Y-93919263D01*
X135444263Y-94053895D01*
X135371400Y-94229801D01*
X135371400Y-94420199D01*
X135444263Y-94596105D01*
X135578895Y-94730737D01*
X135754801Y-94803600D01*
X135945199Y-94803600D01*
X136121105Y-94730737D01*
X136223242Y-94628600D01*
X138570103Y-94628600D01*
X138600000Y-94634547D01*
X138629897Y-94628600D01*
X138629898Y-94628600D01*
X138718459Y-94610984D01*
X138818883Y-94543883D01*
X138835822Y-94518532D01*
X140600755Y-92753600D01*
X140745199Y-92753600D01*
X140921105Y-92680737D01*
X141055737Y-92546105D01*
X141066401Y-92520361D01*
X141066400Y-93531400D01*
X141014801Y-93531400D01*
X140838895Y-93604263D01*
X140704263Y-93738895D01*
X140631400Y-93914801D01*
X140631400Y-94105199D01*
X140704263Y-94281105D01*
X140838895Y-94415737D01*
X141014801Y-94488600D01*
X141205199Y-94488600D01*
X141381105Y-94415737D01*
X141515737Y-94281105D01*
X141588600Y-94105199D01*
X141588600Y-93969072D01*
X141588883Y-93968883D01*
X141655984Y-93868459D01*
X141673600Y-93779898D01*
X141673600Y-93779897D01*
X141679547Y-93750000D01*
X141673600Y-93720103D01*
X141673600Y-92688288D01*
X158882589Y-92688288D01*
X158967357Y-93114442D01*
X159147822Y-93384527D01*
X159515473Y-93752178D01*
X159785558Y-93932643D01*
X160211712Y-94017411D01*
X160637867Y-93932643D01*
X160999144Y-93691246D01*
X161240541Y-93329969D01*
X161325309Y-92903814D01*
X161240541Y-92477660D01*
X161060076Y-92207575D01*
X160692425Y-91839924D01*
X160422340Y-91659459D01*
X159996186Y-91574691D01*
X159570032Y-91659459D01*
X159208755Y-91900857D01*
X158967357Y-92262134D01*
X158882589Y-92688288D01*
X141673600Y-92688288D01*
X141673600Y-92109897D01*
X141679547Y-92080000D01*
X141655984Y-91961542D01*
X141655984Y-91961541D01*
X141588883Y-91861117D01*
X141563535Y-91844180D01*
X140556015Y-90836660D01*
X160291522Y-90836660D01*
X160291522Y-90947813D01*
X160334058Y-91050504D01*
X160988504Y-91704950D01*
X161087287Y-91704950D01*
X161792237Y-91000000D01*
X160979524Y-90187287D01*
X160880741Y-90187287D01*
X160334058Y-90733969D01*
X160291522Y-90836660D01*
X140556015Y-90836660D01*
X140145822Y-90426468D01*
X140128883Y-90401117D01*
X140028459Y-90334016D01*
X139939898Y-90316400D01*
X139939897Y-90316400D01*
X139910000Y-90310453D01*
X139880103Y-90316400D01*
X134305756Y-90316400D01*
X133588600Y-89599245D01*
X133588600Y-89454801D01*
X133515737Y-89278895D01*
X133395076Y-89158234D01*
X133401105Y-89155737D01*
X133535737Y-89021105D01*
X133608600Y-88845199D01*
X133608600Y-88654801D01*
X133535737Y-88478895D01*
X133401105Y-88344263D01*
X133225199Y-88271400D01*
X133034801Y-88271400D01*
X132858895Y-88344263D01*
X132724263Y-88478895D01*
X132651400Y-88654801D01*
X132651400Y-88845199D01*
X132724263Y-89021105D01*
X132844924Y-89141766D01*
X132838895Y-89144263D01*
X132704263Y-89278895D01*
X132631400Y-89454801D01*
X131359815Y-89454801D01*
X132722320Y-87958738D01*
X132744755Y-87942848D01*
X132762583Y-87914528D01*
X132764594Y-87912320D01*
X132778511Y-87889226D01*
X132809100Y-87840636D01*
X132809617Y-87837611D01*
X132811201Y-87834982D01*
X132819771Y-87778148D01*
X132824300Y-87751628D01*
X132824219Y-87748651D01*
X132829210Y-87715553D01*
X132822592Y-87688862D01*
X132807783Y-87144625D01*
X132818895Y-87155737D01*
X132994801Y-87228600D01*
X133185199Y-87228600D01*
X133361105Y-87155737D01*
X133495737Y-87021105D01*
X133568600Y-86845199D01*
X133568600Y-86654801D01*
X133495737Y-86478895D01*
X133361105Y-86344263D01*
X133185199Y-86271400D01*
X132994801Y-86271400D01*
X132958600Y-86286395D01*
X132958600Y-86164801D01*
X132885737Y-85988895D01*
X132751105Y-85854263D01*
X132575199Y-85781400D01*
X132384801Y-85781400D01*
X132208895Y-85854263D01*
X132074263Y-85988895D01*
X132001400Y-86164801D01*
X132001400Y-86355199D01*
X132074263Y-86531105D01*
X132186726Y-86643568D01*
X132188374Y-86704137D01*
X132085199Y-86661400D01*
X131894801Y-86661400D01*
X131718895Y-86734263D01*
X131584263Y-86868895D01*
X131511400Y-87044801D01*
X131511400Y-87235199D01*
X131584263Y-87411105D01*
X131718895Y-87545737D01*
X131894801Y-87618600D01*
X132085199Y-87618600D01*
X132211830Y-87566148D01*
X132213186Y-87615999D01*
X130447960Y-89554261D01*
X130445737Y-89548895D01*
X130311105Y-89414263D01*
X130135199Y-89341400D01*
X129944801Y-89341400D01*
X129768895Y-89414263D01*
X129634263Y-89548895D01*
X129561400Y-89724801D01*
X129561400Y-89915199D01*
X129634263Y-90091105D01*
X129768895Y-90225737D01*
X129817931Y-90246049D01*
X125179451Y-95339215D01*
X125160066Y-95352168D01*
X125139161Y-95383455D01*
X125134355Y-95388732D01*
X125122583Y-95408265D01*
X125111582Y-95424730D01*
X124903093Y-95112703D01*
X124541816Y-94871306D01*
X124115661Y-94786538D01*
X123886498Y-94832122D01*
X123886498Y-93392856D01*
X126425755Y-90853600D01*
X126570199Y-90853600D01*
X126746105Y-90780737D01*
X126880737Y-90646105D01*
X126953600Y-90470199D01*
X126953600Y-90279801D01*
X126880737Y-90103895D01*
X126746105Y-89969263D01*
X126570199Y-89896400D01*
X126379801Y-89896400D01*
X126203895Y-89969263D01*
X126069263Y-90103895D01*
X125996400Y-90279801D01*
X125996400Y-90424245D01*
X123389366Y-93031280D01*
X123364015Y-93048219D01*
X123303347Y-93139016D01*
X123296914Y-93148644D01*
X123273351Y-93267102D01*
X123279298Y-93296999D01*
X123279298Y-93574453D01*
X123107041Y-93316651D01*
X122745764Y-93075254D01*
X122319609Y-92990486D01*
X121893455Y-93075254D01*
X121623370Y-93255719D01*
X121255719Y-93623370D01*
X121075254Y-93893455D01*
X120990486Y-94319609D01*
X121075254Y-94745763D01*
X121316652Y-95107040D01*
X121677929Y-95348438D01*
X122104083Y-95433206D01*
X122530237Y-95348438D01*
X122800322Y-95167973D01*
X123167973Y-94800322D01*
X123279298Y-94633712D01*
X123279299Y-95191894D01*
X123051771Y-95419422D01*
X122871306Y-95689507D01*
X122786538Y-96115661D01*
X122871306Y-96541815D01*
X123112704Y-96903092D01*
X123473981Y-97144490D01*
X123900135Y-97229258D01*
X124326289Y-97144490D01*
X124596374Y-96964025D01*
X124964025Y-96596374D01*
X125075349Y-96429765D01*
X125075350Y-96987945D01*
X124847822Y-97215473D01*
X124667357Y-97485558D01*
X124582589Y-97911712D01*
X124667357Y-98337866D01*
X124908755Y-98699143D01*
X125270032Y-98940541D01*
X125696186Y-99025309D01*
X126122340Y-98940541D01*
X126392425Y-98760076D01*
X126760076Y-98392425D01*
X126940541Y-98122340D01*
X127025309Y-97696186D01*
X126940541Y-97270031D01*
X126699144Y-96908754D01*
X126337867Y-96667357D01*
X125911712Y-96582589D01*
X125682549Y-96628173D01*
X125682549Y-95688580D01*
X127871400Y-93285168D01*
X127871400Y-93305199D01*
X127944263Y-93481105D01*
X128078895Y-93615737D01*
X128254801Y-93688600D01*
X128399246Y-93688600D01*
X139769576Y-105058931D01*
X139743374Y-105069784D01*
X139608742Y-105204416D01*
X139535879Y-105380322D01*
X139535879Y-105570720D01*
X139608742Y-105746626D01*
X139743374Y-105881258D01*
X139919280Y-105954121D01*
X140109678Y-105954121D01*
X140285584Y-105881258D01*
X140420216Y-105746626D01*
X140431069Y-105720424D01*
X141066401Y-106355756D01*
X141066400Y-109366758D01*
X140964263Y-109468895D01*
X140891400Y-109644801D01*
X140891400Y-109835199D01*
X140928100Y-109923800D01*
X135067649Y-109923800D01*
X135049556Y-109920201D01*
X129864156Y-104734801D01*
X135921400Y-104734801D01*
X135921400Y-104925199D01*
X135994263Y-105101105D01*
X136128895Y-105235737D01*
X136304801Y-105308600D01*
X136495199Y-105308600D01*
X136671105Y-105235737D01*
X136805737Y-105101105D01*
X136878600Y-104925199D01*
X136878600Y-104734801D01*
X136805737Y-104558895D01*
X136671105Y-104424263D01*
X136495199Y-104351400D01*
X136304801Y-104351400D01*
X136128895Y-104424263D01*
X135994263Y-104558895D01*
X135921400Y-104734801D01*
X129864156Y-104734801D01*
X124837118Y-99707763D01*
X126037844Y-99707763D01*
X126055586Y-99796958D01*
X126106111Y-99872574D01*
X127327426Y-101093889D01*
X127403042Y-101144414D01*
X127492237Y-101162156D01*
X127581432Y-101144414D01*
X127657048Y-101093889D01*
X129093889Y-99657048D01*
X129144414Y-99581432D01*
X129162156Y-99492237D01*
X129144414Y-99403042D01*
X129093889Y-99327426D01*
X127872574Y-98106111D01*
X127796958Y-98055586D01*
X127707763Y-98037844D01*
X127618568Y-98055586D01*
X127542952Y-98106111D01*
X126106111Y-99542952D01*
X126055586Y-99618568D01*
X126037844Y-99707763D01*
X124837118Y-99707763D01*
X117652913Y-92523558D01*
X119194435Y-92523558D01*
X119279203Y-92949712D01*
X119520601Y-93310989D01*
X119881878Y-93552387D01*
X120308032Y-93637155D01*
X120734186Y-93552387D01*
X121004271Y-93371922D01*
X121371922Y-93004271D01*
X121552387Y-92734186D01*
X121637155Y-92308032D01*
X121552387Y-91881877D01*
X121310990Y-91520600D01*
X120949713Y-91279203D01*
X120523558Y-91194435D01*
X120097404Y-91279203D01*
X119827319Y-91459668D01*
X119459668Y-91827319D01*
X119279203Y-92097404D01*
X119194435Y-92523558D01*
X117652913Y-92523558D01*
X116667660Y-91538305D01*
X117808946Y-91538305D01*
X117903284Y-91694946D01*
X118004174Y-91754341D01*
X118435781Y-91870508D01*
X118878988Y-91812662D01*
X119266322Y-91589612D01*
X119374086Y-91481849D01*
X118619744Y-90727507D01*
X117808946Y-91538305D01*
X116667660Y-91538305D01*
X115933062Y-90803707D01*
X117368980Y-90803707D01*
X117485147Y-91235314D01*
X117544542Y-91336204D01*
X117701183Y-91430542D01*
X118511981Y-90619744D01*
X118727507Y-90619744D01*
X119481849Y-91374086D01*
X119589612Y-91266322D01*
X119812662Y-90878988D01*
X119870508Y-90435781D01*
X119754341Y-90004174D01*
X119694946Y-89903284D01*
X119538305Y-89808946D01*
X118727507Y-90619744D01*
X118511981Y-90619744D01*
X117757639Y-89865402D01*
X117649876Y-89973166D01*
X117426826Y-90360500D01*
X117368980Y-90803707D01*
X115933062Y-90803707D01*
X115079799Y-89950445D01*
X115076200Y-89932352D01*
X115076200Y-89757639D01*
X117865402Y-89757639D01*
X118619744Y-90511981D01*
X119430542Y-89701183D01*
X119336204Y-89544542D01*
X119235314Y-89485147D01*
X118803707Y-89368980D01*
X118360500Y-89426826D01*
X117973166Y-89649876D01*
X117865402Y-89757639D01*
X115076200Y-89757639D01*
X115076200Y-86744801D01*
X126611400Y-86744801D01*
X126611400Y-86935199D01*
X126684263Y-87111105D01*
X126818895Y-87245737D01*
X126994801Y-87318600D01*
X127185199Y-87318600D01*
X127361105Y-87245737D01*
X127495737Y-87111105D01*
X127568600Y-86935199D01*
X127568600Y-86790754D01*
X128425755Y-85933600D01*
X128646758Y-85933600D01*
X128748895Y-86035737D01*
X128924801Y-86108600D01*
X129115199Y-86108600D01*
X129291105Y-86035737D01*
X129425737Y-85901105D01*
X129498600Y-85725199D01*
X129498600Y-85555442D01*
X129498895Y-85555737D01*
X129674801Y-85628600D01*
X129772046Y-85628600D01*
X128006466Y-87394180D01*
X127981118Y-87411117D01*
X127947717Y-87461105D01*
X127914016Y-87511542D01*
X127890453Y-87630000D01*
X127896401Y-87659902D01*
X127896400Y-89480103D01*
X127890453Y-89510000D01*
X127896400Y-89539897D01*
X127914016Y-89628458D01*
X127981117Y-89728883D01*
X128001400Y-89742436D01*
X128001400Y-89885199D01*
X128074263Y-90061105D01*
X128208895Y-90195737D01*
X128384801Y-90268600D01*
X128575199Y-90268600D01*
X128751105Y-90195737D01*
X128885737Y-90061105D01*
X128958600Y-89885199D01*
X128958600Y-89848600D01*
X129035199Y-89848600D01*
X129211105Y-89775737D01*
X129345737Y-89641105D01*
X129418600Y-89465199D01*
X129418600Y-89274801D01*
X129345737Y-89098895D01*
X129211105Y-88964263D01*
X129035199Y-88891400D01*
X128844801Y-88891400D01*
X128668895Y-88964263D01*
X128534263Y-89098895D01*
X128503600Y-89172922D01*
X128503600Y-88404801D01*
X129471400Y-88404801D01*
X129471400Y-88595199D01*
X129544263Y-88771105D01*
X129678895Y-88905737D01*
X129854801Y-88978600D01*
X130045199Y-88978600D01*
X130221105Y-88905737D01*
X130355737Y-88771105D01*
X130428600Y-88595199D01*
X130428600Y-88404801D01*
X130355737Y-88228895D01*
X130221105Y-88094263D01*
X130045199Y-88021400D01*
X129854801Y-88021400D01*
X129678895Y-88094263D01*
X129544263Y-88228895D01*
X129471400Y-88404801D01*
X128503600Y-88404801D01*
X128503600Y-87755754D01*
X132473536Y-83785819D01*
X132498883Y-83768883D01*
X132565984Y-83668459D01*
X132583600Y-83579898D01*
X132583600Y-83579897D01*
X132589547Y-83550001D01*
X132583600Y-83520104D01*
X132583600Y-83063242D01*
X132685737Y-82961105D01*
X132758600Y-82785199D01*
X132758600Y-82594801D01*
X132685737Y-82418895D01*
X132551105Y-82284263D01*
X132375199Y-82211400D01*
X132184801Y-82211400D01*
X132008895Y-82284263D01*
X131874263Y-82418895D01*
X131801400Y-82594801D01*
X131801400Y-82785199D01*
X131874263Y-82961105D01*
X131976401Y-83063243D01*
X131976400Y-83424245D01*
X130248600Y-85152045D01*
X130248600Y-85054801D01*
X130175737Y-84878895D01*
X130041105Y-84744263D01*
X129865199Y-84671400D01*
X129674801Y-84671400D01*
X129498895Y-84744263D01*
X129364263Y-84878895D01*
X129291400Y-85054801D01*
X129291400Y-85224558D01*
X129291105Y-85224263D01*
X129115199Y-85151400D01*
X128924801Y-85151400D01*
X128748895Y-85224263D01*
X128646758Y-85326400D01*
X128329896Y-85326400D01*
X128299999Y-85320453D01*
X128199453Y-85340453D01*
X128181541Y-85344016D01*
X128081117Y-85411117D01*
X128064180Y-85436465D01*
X127139246Y-86361400D01*
X126994801Y-86361400D01*
X126818895Y-86434263D01*
X126684263Y-86568895D01*
X126611400Y-86744801D01*
X115076200Y-86744801D01*
X115076200Y-86603600D01*
X123380103Y-86603600D01*
X123410000Y-86609547D01*
X123439897Y-86603600D01*
X123439898Y-86603600D01*
X123528459Y-86585984D01*
X123628883Y-86518883D01*
X123645822Y-86493532D01*
X125440755Y-84698600D01*
X125585199Y-84698600D01*
X125761105Y-84625737D01*
X125895737Y-84491105D01*
X125968600Y-84315199D01*
X125968600Y-84124801D01*
X125895737Y-83948895D01*
X125761105Y-83814263D01*
X125585199Y-83741400D01*
X125394801Y-83741400D01*
X125218895Y-83814263D01*
X125084263Y-83948895D01*
X125011400Y-84124801D01*
X125011400Y-84269245D01*
X123284246Y-85996400D01*
X115076200Y-85996400D01*
X115076200Y-84944801D01*
X117951400Y-84944801D01*
X117951400Y-85135199D01*
X118024263Y-85311105D01*
X118158895Y-85445737D01*
X118334801Y-85518600D01*
X118525199Y-85518600D01*
X118701105Y-85445737D01*
X118835737Y-85311105D01*
X118838348Y-85304801D01*
X121021400Y-85304801D01*
X121021400Y-85495199D01*
X121094263Y-85671105D01*
X121228895Y-85805737D01*
X121404801Y-85878600D01*
X121595199Y-85878600D01*
X121771105Y-85805737D01*
X121905737Y-85671105D01*
X121978600Y-85495199D01*
X121978600Y-85304801D01*
X121905737Y-85128895D01*
X121771105Y-84994263D01*
X121595199Y-84921400D01*
X121404801Y-84921400D01*
X121228895Y-84994263D01*
X121094263Y-85128895D01*
X121021400Y-85304801D01*
X118838348Y-85304801D01*
X118908600Y-85135199D01*
X118908600Y-84944801D01*
X118835737Y-84768895D01*
X118701105Y-84634263D01*
X118525199Y-84561400D01*
X118334801Y-84561400D01*
X118158895Y-84634263D01*
X118024263Y-84768895D01*
X117951400Y-84944801D01*
X115076200Y-84944801D01*
X115076200Y-82094801D01*
X122921400Y-82094801D01*
X122921400Y-82285199D01*
X122994263Y-82461105D01*
X123128895Y-82595737D01*
X123304801Y-82668600D01*
X123495199Y-82668600D01*
X123671105Y-82595737D01*
X123805737Y-82461105D01*
X123878600Y-82285199D01*
X123878600Y-82160754D01*
X126004553Y-80034801D01*
X133781400Y-80034801D01*
X133781400Y-80225199D01*
X133854263Y-80401105D01*
X133956401Y-80503243D01*
X133956400Y-87440103D01*
X133950453Y-87470000D01*
X133956400Y-87499897D01*
X133974016Y-87588458D01*
X134041117Y-87688883D01*
X134066468Y-87705822D01*
X134981400Y-88620755D01*
X134981400Y-88765199D01*
X135054263Y-88941105D01*
X135188895Y-89075737D01*
X135364801Y-89148600D01*
X135555199Y-89148600D01*
X135731105Y-89075737D01*
X135865737Y-88941105D01*
X135938600Y-88765199D01*
X135938600Y-88574801D01*
X135865737Y-88398895D01*
X135731105Y-88264263D01*
X135555199Y-88191400D01*
X135410755Y-88191400D01*
X135024156Y-87804801D01*
X136271400Y-87804801D01*
X136271400Y-87995199D01*
X136344263Y-88171105D01*
X136478895Y-88305737D01*
X136654801Y-88378600D01*
X136845199Y-88378600D01*
X137021105Y-88305737D01*
X137155737Y-88171105D01*
X137228600Y-87995199D01*
X137228600Y-87804801D01*
X137174752Y-87674801D01*
X137621400Y-87674801D01*
X137621400Y-87865199D01*
X137694263Y-88041105D01*
X137828895Y-88175737D01*
X138004801Y-88248600D01*
X138195199Y-88248600D01*
X138371105Y-88175737D01*
X138505737Y-88041105D01*
X138578600Y-87865199D01*
X138578600Y-87779801D01*
X138596400Y-87779801D01*
X138596400Y-87970199D01*
X138669263Y-88146105D01*
X138803895Y-88280737D01*
X138979801Y-88353600D01*
X139170199Y-88353600D01*
X139346105Y-88280737D01*
X139480737Y-88146105D01*
X139553600Y-87970199D01*
X139553600Y-87779801D01*
X139480737Y-87603895D01*
X139346105Y-87469263D01*
X139170199Y-87396400D01*
X138979801Y-87396400D01*
X138803895Y-87469263D01*
X138669263Y-87603895D01*
X138596400Y-87779801D01*
X138578600Y-87779801D01*
X138578600Y-87674801D01*
X138505737Y-87498895D01*
X138371105Y-87364263D01*
X138195199Y-87291400D01*
X138004801Y-87291400D01*
X137828895Y-87364263D01*
X137694263Y-87498895D01*
X137621400Y-87674801D01*
X137174752Y-87674801D01*
X137155737Y-87628895D01*
X137021105Y-87494263D01*
X136845199Y-87421400D01*
X136654801Y-87421400D01*
X136478895Y-87494263D01*
X136344263Y-87628895D01*
X136271400Y-87804801D01*
X135024156Y-87804801D01*
X134563600Y-87344246D01*
X134563600Y-85279801D01*
X134871400Y-85279801D01*
X134871400Y-85470199D01*
X134944263Y-85646105D01*
X135078895Y-85780737D01*
X135254801Y-85853600D01*
X135445199Y-85853600D01*
X135621105Y-85780737D01*
X135755737Y-85646105D01*
X135828600Y-85470199D01*
X135828600Y-85325754D01*
X136100755Y-85053600D01*
X137301758Y-85053600D01*
X137403895Y-85155737D01*
X137579801Y-85228600D01*
X137770199Y-85228600D01*
X137946105Y-85155737D01*
X138080737Y-85021105D01*
X138153600Y-84845199D01*
X138153600Y-84654801D01*
X138080737Y-84478895D01*
X137946105Y-84344263D01*
X137770199Y-84271400D01*
X137579801Y-84271400D01*
X137403895Y-84344263D01*
X137301758Y-84446400D01*
X136004893Y-84446400D01*
X135974999Y-84440454D01*
X135945105Y-84446400D01*
X135945102Y-84446400D01*
X135856541Y-84464016D01*
X135756117Y-84531117D01*
X135739180Y-84556465D01*
X135399246Y-84896400D01*
X135254801Y-84896400D01*
X135078895Y-84969263D01*
X134944263Y-85103895D01*
X134871400Y-85279801D01*
X134563600Y-85279801D01*
X134563600Y-80503242D01*
X134665737Y-80401105D01*
X134684916Y-80354801D01*
X134991400Y-80354801D01*
X134991400Y-80545199D01*
X135064263Y-80721105D01*
X135198895Y-80855737D01*
X135374801Y-80928600D01*
X135565199Y-80928600D01*
X135741105Y-80855737D01*
X135875737Y-80721105D01*
X135948600Y-80545199D01*
X135948600Y-80354801D01*
X135875737Y-80178895D01*
X135741105Y-80044263D01*
X135565199Y-79971400D01*
X135374801Y-79971400D01*
X135198895Y-80044263D01*
X135064263Y-80178895D01*
X134991400Y-80354801D01*
X134684916Y-80354801D01*
X134738600Y-80225199D01*
X134738600Y-80034801D01*
X134665737Y-79858895D01*
X134531105Y-79724263D01*
X134355199Y-79651400D01*
X134164801Y-79651400D01*
X133988895Y-79724263D01*
X133854263Y-79858895D01*
X133781400Y-80034801D01*
X126004553Y-80034801D01*
X127075755Y-78963600D01*
X128128466Y-78963600D01*
X128111400Y-79004801D01*
X128111400Y-79195199D01*
X128184263Y-79371105D01*
X128318895Y-79505737D01*
X128494801Y-79578600D01*
X128685199Y-79578600D01*
X128861105Y-79505737D01*
X128995737Y-79371105D01*
X129068600Y-79195199D01*
X129068600Y-79004801D01*
X129051534Y-78963600D01*
X134726758Y-78963600D01*
X134828895Y-79065737D01*
X135004801Y-79138600D01*
X135195199Y-79138600D01*
X135371105Y-79065737D01*
X135505737Y-78931105D01*
X135578600Y-78755199D01*
X135578600Y-78564801D01*
X135505737Y-78388895D01*
X135371105Y-78254263D01*
X135195199Y-78181400D01*
X135004801Y-78181400D01*
X134828895Y-78254263D01*
X134726758Y-78356400D01*
X126979897Y-78356400D01*
X126950000Y-78350453D01*
X126920103Y-78356400D01*
X126920102Y-78356400D01*
X126831541Y-78374016D01*
X126731117Y-78441117D01*
X126714180Y-78466465D01*
X123469246Y-81711400D01*
X123304801Y-81711400D01*
X123128895Y-81784263D01*
X122994263Y-81918895D01*
X122921400Y-82094801D01*
X115076200Y-82094801D01*
X115076200Y-80067648D01*
X115079799Y-80049555D01*
X115737117Y-79392237D01*
X116237844Y-79392237D01*
X116255586Y-79481432D01*
X116306111Y-79557048D01*
X117742952Y-80993889D01*
X117818568Y-81044414D01*
X117907763Y-81062156D01*
X117996958Y-81044414D01*
X118072574Y-80993889D01*
X119293889Y-79772574D01*
X119344414Y-79696958D01*
X119362156Y-79607763D01*
X119344414Y-79518568D01*
X119293889Y-79442952D01*
X117857048Y-78006111D01*
X117781432Y-77955586D01*
X117692237Y-77937844D01*
X117603042Y-77955586D01*
X117527426Y-78006111D01*
X116306111Y-79227426D01*
X116255586Y-79303042D01*
X116237844Y-79392237D01*
X115737117Y-79392237D01*
X117533168Y-77596186D01*
X118374691Y-77596186D01*
X118459459Y-78022340D01*
X118639924Y-78292425D01*
X119007575Y-78660076D01*
X119277660Y-78840541D01*
X119703814Y-78925309D01*
X120129969Y-78840541D01*
X120491246Y-78599144D01*
X120732643Y-78237867D01*
X120817411Y-77811712D01*
X120771281Y-77579801D01*
X134771400Y-77579801D01*
X134771400Y-77770199D01*
X134844263Y-77946105D01*
X134978895Y-78080737D01*
X135154801Y-78153600D01*
X135345199Y-78153600D01*
X135521105Y-78080737D01*
X135655737Y-77946105D01*
X135728600Y-77770199D01*
X135728600Y-77579801D01*
X135655737Y-77403895D01*
X135521105Y-77269263D01*
X135345199Y-77196400D01*
X135154801Y-77196400D01*
X134978895Y-77269263D01*
X134844263Y-77403895D01*
X134771400Y-77579801D01*
X120771281Y-77579801D01*
X120732643Y-77385558D01*
X120552178Y-77115473D01*
X120184527Y-76747822D01*
X119914442Y-76567357D01*
X119488288Y-76482589D01*
X119062134Y-76567357D01*
X118700857Y-76808755D01*
X118459459Y-77170032D01*
X118374691Y-77596186D01*
X117533168Y-77596186D01*
X119329219Y-75800135D01*
X120170742Y-75800135D01*
X120255510Y-76226289D01*
X120435975Y-76496374D01*
X120803626Y-76864025D01*
X121073711Y-77044490D01*
X121499865Y-77129258D01*
X121926020Y-77044490D01*
X122287297Y-76803093D01*
X122528694Y-76441816D01*
X122613462Y-76015661D01*
X122528694Y-75589507D01*
X122348229Y-75319422D01*
X121980578Y-74951771D01*
X121710493Y-74771306D01*
X121284339Y-74686538D01*
X120858185Y-74771306D01*
X120496908Y-75012704D01*
X120255510Y-75373981D01*
X120170742Y-75800135D01*
X119329219Y-75800135D01*
X121125271Y-74004083D01*
X121966794Y-74004083D01*
X122051562Y-74430237D01*
X122232027Y-74700322D01*
X122599678Y-75067973D01*
X122869763Y-75248438D01*
X123295917Y-75333206D01*
X123722072Y-75248438D01*
X124083349Y-75007041D01*
X124324746Y-74645764D01*
X124409514Y-74219609D01*
X124356840Y-73954801D01*
X133421400Y-73954801D01*
X133421400Y-74145199D01*
X133494263Y-74321105D01*
X133628895Y-74455737D01*
X133804801Y-74528600D01*
X133995199Y-74528600D01*
X134171105Y-74455737D01*
X134305737Y-74321105D01*
X134378600Y-74145199D01*
X134378600Y-73954801D01*
X134305737Y-73778895D01*
X134171105Y-73644263D01*
X133995199Y-73571400D01*
X133804801Y-73571400D01*
X133628895Y-73644263D01*
X133494263Y-73778895D01*
X133421400Y-73954801D01*
X124356840Y-73954801D01*
X124324746Y-73793455D01*
X124144281Y-73523370D01*
X123776630Y-73155719D01*
X123506545Y-72975254D01*
X123080391Y-72890486D01*
X122654237Y-72975254D01*
X122292960Y-73216652D01*
X122051562Y-73577929D01*
X121966794Y-74004083D01*
X121125271Y-74004083D01*
X122921322Y-72208032D01*
X123762845Y-72208032D01*
X123847613Y-72634186D01*
X124028078Y-72904271D01*
X124395729Y-73271922D01*
X124665814Y-73452387D01*
X125091968Y-73537155D01*
X125518123Y-73452387D01*
X125879400Y-73210990D01*
X126120797Y-72849713D01*
X126205565Y-72423558D01*
X126120797Y-71997404D01*
X125940332Y-71727319D01*
X125572681Y-71359668D01*
X125302596Y-71179203D01*
X124876442Y-71094435D01*
X124450288Y-71179203D01*
X124089011Y-71420601D01*
X123847613Y-71781878D01*
X123762845Y-72208032D01*
X122921322Y-72208032D01*
X124717373Y-70411981D01*
X125558896Y-70411981D01*
X125643664Y-70838135D01*
X125824129Y-71108220D01*
X126191780Y-71475871D01*
X126461865Y-71656336D01*
X126888019Y-71741104D01*
X127314174Y-71656336D01*
X127577494Y-71480391D01*
X128990486Y-71480391D01*
X129075254Y-71906545D01*
X129255719Y-72176630D01*
X129623370Y-72544281D01*
X129893455Y-72724746D01*
X130319609Y-72809514D01*
X130745764Y-72724746D01*
X131107041Y-72483349D01*
X131348438Y-72122072D01*
X131433206Y-71695917D01*
X131348438Y-71269763D01*
X131167973Y-70999678D01*
X130800322Y-70632027D01*
X130530237Y-70451562D01*
X130104083Y-70366794D01*
X129677929Y-70451562D01*
X129316652Y-70692960D01*
X129075254Y-71054237D01*
X128990486Y-71480391D01*
X127577494Y-71480391D01*
X127675451Y-71414939D01*
X127916848Y-71053662D01*
X128001616Y-70627507D01*
X127916848Y-70201353D01*
X127736383Y-69931268D01*
X127368732Y-69563617D01*
X127098647Y-69383152D01*
X126672493Y-69298384D01*
X126246339Y-69383152D01*
X125885062Y-69624550D01*
X125643664Y-69985827D01*
X125558896Y-70411981D01*
X124717373Y-70411981D01*
X126513424Y-68615930D01*
X127354947Y-68615930D01*
X127439715Y-69042084D01*
X127620180Y-69312169D01*
X127987831Y-69679820D01*
X128257916Y-69860285D01*
X128684070Y-69945053D01*
X129110225Y-69860285D01*
X129373547Y-69684339D01*
X130786538Y-69684339D01*
X130871306Y-70110493D01*
X131051771Y-70380578D01*
X131419422Y-70748229D01*
X131689507Y-70928694D01*
X132115661Y-71013462D01*
X132541816Y-70928694D01*
X132903093Y-70687297D01*
X133144490Y-70326020D01*
X133229258Y-69899865D01*
X133144490Y-69473711D01*
X132964025Y-69203626D01*
X132596374Y-68835975D01*
X132326289Y-68655510D01*
X131900135Y-68570742D01*
X131473981Y-68655510D01*
X131112704Y-68896908D01*
X130871306Y-69258185D01*
X130786538Y-69684339D01*
X129373547Y-69684339D01*
X129471502Y-69618888D01*
X129712899Y-69257611D01*
X129797667Y-68831456D01*
X129712899Y-68405302D01*
X129532434Y-68135217D01*
X129164783Y-67767566D01*
X128894698Y-67587101D01*
X128468544Y-67502333D01*
X128042390Y-67587101D01*
X127681113Y-67828499D01*
X127439715Y-68189776D01*
X127354947Y-68615930D01*
X126513424Y-68615930D01*
X128309476Y-66819878D01*
X129150999Y-66819878D01*
X129235767Y-67246032D01*
X129416232Y-67516117D01*
X129783883Y-67883768D01*
X130053968Y-68064233D01*
X130480122Y-68149001D01*
X130906277Y-68064233D01*
X131169597Y-67888288D01*
X132582589Y-67888288D01*
X132667357Y-68314442D01*
X132847822Y-68584527D01*
X133215473Y-68952178D01*
X133485558Y-69132643D01*
X133911712Y-69217411D01*
X134337867Y-69132643D01*
X134699144Y-68891246D01*
X134940541Y-68529969D01*
X135025309Y-68103814D01*
X134940541Y-67677660D01*
X134760076Y-67407575D01*
X134392425Y-67039924D01*
X134122340Y-66859459D01*
X133696186Y-66774691D01*
X133270032Y-66859459D01*
X132908755Y-67100857D01*
X132667357Y-67462134D01*
X132582589Y-67888288D01*
X131169597Y-67888288D01*
X131267554Y-67822836D01*
X131508951Y-67461559D01*
X131593719Y-67035404D01*
X131508951Y-66609250D01*
X131328486Y-66339165D01*
X130960835Y-65971514D01*
X130690750Y-65791049D01*
X130264596Y-65706281D01*
X129838442Y-65791049D01*
X129477165Y-66032447D01*
X129235767Y-66393724D01*
X129150999Y-66819878D01*
X128309476Y-66819878D01*
X130105527Y-65023827D01*
X130947050Y-65023827D01*
X131031818Y-65449981D01*
X131212283Y-65720066D01*
X131579934Y-66087717D01*
X131850019Y-66268182D01*
X132276173Y-66352950D01*
X132702328Y-66268182D01*
X132965648Y-66092237D01*
X134037844Y-66092237D01*
X134055586Y-66181432D01*
X134106111Y-66257048D01*
X135542952Y-67693889D01*
X135618568Y-67744414D01*
X135707763Y-67762156D01*
X135796958Y-67744414D01*
X135872574Y-67693889D01*
X137093889Y-66472574D01*
X137144414Y-66396958D01*
X137162156Y-66307763D01*
X137144414Y-66218568D01*
X137093889Y-66142952D01*
X136255738Y-65304801D01*
X138021400Y-65304801D01*
X138021400Y-65495199D01*
X138094263Y-65671105D01*
X138228895Y-65805737D01*
X138404801Y-65878600D01*
X138595199Y-65878600D01*
X138771105Y-65805737D01*
X138905737Y-65671105D01*
X138978600Y-65495199D01*
X138978600Y-65304801D01*
X138905737Y-65128895D01*
X138771105Y-64994263D01*
X138595199Y-64921400D01*
X138404801Y-64921400D01*
X138228895Y-64994263D01*
X138094263Y-65128895D01*
X138021400Y-65304801D01*
X136255738Y-65304801D01*
X135755738Y-64804801D01*
X139531400Y-64804801D01*
X139531400Y-64995199D01*
X139604263Y-65171105D01*
X139738895Y-65305737D01*
X139914801Y-65378600D01*
X140105199Y-65378600D01*
X140281105Y-65305737D01*
X140415737Y-65171105D01*
X140488600Y-64995199D01*
X140488600Y-64804801D01*
X140415737Y-64628895D01*
X140281105Y-64494263D01*
X140105199Y-64421400D01*
X139914801Y-64421400D01*
X139738895Y-64494263D01*
X139604263Y-64628895D01*
X139531400Y-64804801D01*
X135755738Y-64804801D01*
X135657048Y-64706111D01*
X135581432Y-64655586D01*
X135492237Y-64637844D01*
X135403042Y-64655586D01*
X135327426Y-64706111D01*
X134106111Y-65927426D01*
X134055586Y-66003042D01*
X134037844Y-66092237D01*
X132965648Y-66092237D01*
X133063605Y-66026785D01*
X133305002Y-65665508D01*
X133389770Y-65239353D01*
X133305002Y-64813199D01*
X133124537Y-64543114D01*
X132756886Y-64175463D01*
X132486801Y-63994998D01*
X132060647Y-63910230D01*
X131634493Y-63994998D01*
X131273216Y-64236396D01*
X131031818Y-64597673D01*
X130947050Y-65023827D01*
X130105527Y-65023827D01*
X131901578Y-63227776D01*
X132743101Y-63227776D01*
X132827869Y-63653930D01*
X133008334Y-63924015D01*
X133375985Y-64291666D01*
X133646070Y-64472131D01*
X134072224Y-64556899D01*
X134498379Y-64472131D01*
X134859656Y-64230734D01*
X135101053Y-63869457D01*
X135185821Y-63443302D01*
X135101053Y-63017148D01*
X134920588Y-62747063D01*
X134552937Y-62379412D01*
X134282852Y-62198947D01*
X133856698Y-62114179D01*
X133430544Y-62198947D01*
X133069267Y-62440345D01*
X132827869Y-62801622D01*
X132743101Y-63227776D01*
X131901578Y-63227776D01*
X135049556Y-60079799D01*
X135067649Y-60076200D01*
X142171958Y-60076200D01*
X142119263Y-60128895D01*
M02*
