G04 #@! TF.GenerationSoftware,KiCad,Pcbnew,5.0-dev-unknown-28f1209~61~ubuntu16.04.1*
G04 #@! TF.CreationDate,2018-02-18T12:37:57+01:00*
G04 #@! TF.ProjectId,roboy_crazyfly,726F626F795F6372617A79666C792E6B,rev?*
G04 #@! TF.SameCoordinates,Original*
G04 #@! TF.FileFunction,Profile,NP*
%FSLAX46Y46*%
G04 Gerber Fmt 4.6, Leading zero omitted, Abs format (unit mm)*
G04 Created by KiCad (PCBNEW 5.0-dev-unknown-28f1209~61~ubuntu16.04.1) date Sun Feb 18 12:37:57 2018*
%MOMM*%
%LPD*%
G01*
G04 APERTURE LIST*
%ADD10C,0.150000*%
G04 APERTURE END LIST*
D10*
X114800000Y-90900000D02*
X126000000Y-102100000D01*
X114800000Y-87000000D02*
X114800000Y-90900000D01*
X100000000Y-87000000D02*
X114800000Y-87000000D01*
X125900000Y-102200000D02*
X126000000Y-102100000D01*
X122200000Y-105900000D02*
X125900000Y-102200000D01*
X123800000Y-107500000D02*
X122200000Y-105900000D01*
X127500000Y-103800000D02*
X123800000Y-107500000D01*
X133900000Y-110200000D02*
X127500000Y-103800000D01*
X138000000Y-110200000D02*
X133900000Y-110200000D01*
X138000000Y-125000000D02*
X138000000Y-110200000D01*
X142000000Y-110200000D02*
X146100000Y-110200000D01*
X142000000Y-125000000D02*
X142000000Y-110200000D01*
X151000000Y-105300000D02*
X146100000Y-110200000D01*
X154000000Y-108300000D02*
X151000000Y-105300000D01*
X163300000Y-99000000D02*
X154000000Y-108300000D01*
X163200000Y-98900000D02*
X163300000Y-99000000D01*
X160300000Y-96000000D02*
X163200000Y-98900000D01*
X165200000Y-91100000D02*
X160300000Y-96000000D01*
X165200000Y-87000000D02*
X165200000Y-91100000D01*
X180000000Y-87000000D02*
X165200000Y-87000000D01*
X165200000Y-83000000D02*
X165200000Y-79900000D01*
X180000000Y-83000000D02*
X165200000Y-83000000D01*
X145100000Y-59800000D02*
X165200000Y-79900000D01*
X142000000Y-59800000D02*
X145100000Y-59800000D01*
X142000000Y-45000000D02*
X142000000Y-59800000D01*
X138000000Y-59800000D02*
X138000000Y-45000000D01*
X134900000Y-59800000D02*
X138000000Y-59800000D01*
X114800000Y-79900000D02*
X134900000Y-59800000D01*
X114800000Y-83000000D02*
X114800000Y-79900000D01*
X100000000Y-83000000D02*
X114800000Y-83000000D01*
X100000000Y-83000000D02*
X100000000Y-87000000D01*
X142000000Y-125000000D02*
X138000000Y-125000000D01*
X180000000Y-83000000D02*
X180000000Y-87000000D01*
X138000000Y-45000000D02*
X142000000Y-45000000D01*
M02*
