G04 #@! TF.GenerationSoftware,KiCad,Pcbnew,5.0-dev-unknown-28f1209~61~ubuntu16.04.1*
G04 #@! TF.CreationDate,2018-02-18T12:37:57+01:00*
G04 #@! TF.ProjectId,roboy_crazyfly,726F626F795F6372617A79666C792E6B,rev?*
G04 #@! TF.SameCoordinates,Original*
G04 #@! TF.FileFunction,Legend,Top*
G04 #@! TF.FilePolarity,Positive*
%FSLAX46Y46*%
G04 Gerber Fmt 4.6, Leading zero omitted, Abs format (unit mm)*
G04 Created by KiCad (PCBNEW 5.0-dev-unknown-28f1209~61~ubuntu16.04.1) date Sun Feb 18 12:37:57 2018*
%MOMM*%
%LPD*%
G01*
G04 APERTURE LIST*
%ADD10C,0.150000*%
%ADD11C,0.120000*%
%ADD12C,0.100000*%
%ADD13C,0.350000*%
G04 APERTURE END LIST*
D10*
X137500000Y-81650000D02*
X137500000Y-81150000D01*
X136550000Y-81150000D02*
X136550000Y-81650000D01*
X151650000Y-97025000D02*
X151150000Y-97025000D01*
X151150000Y-97975000D02*
X151650000Y-97975000D01*
X135050000Y-103625000D02*
X134550000Y-103625000D01*
X134550000Y-104575000D02*
X135050000Y-104575000D01*
X124350000Y-86525000D02*
X123850000Y-86525000D01*
X123850000Y-87475000D02*
X124350000Y-87475000D01*
X143025000Y-76850000D02*
X143025000Y-77350000D01*
X143975000Y-77350000D02*
X143975000Y-76850000D01*
X127200000Y-95525000D02*
X127200000Y-96025000D01*
X128150000Y-96025000D02*
X128150000Y-95525000D01*
X140250000Y-79725000D02*
X140750000Y-79725000D01*
X140750000Y-78775000D02*
X140250000Y-78775000D01*
X132525000Y-84500000D02*
X132525000Y-85000000D01*
X133475000Y-85000000D02*
X133475000Y-84500000D01*
X140250000Y-81225000D02*
X140750000Y-81225000D01*
X140750000Y-80275000D02*
X140250000Y-80275000D01*
X131025000Y-84500000D02*
X131025000Y-85000000D01*
X131975000Y-85000000D02*
X131975000Y-84500000D01*
X140250000Y-82725000D02*
X140750000Y-82725000D01*
X140750000Y-81775000D02*
X140250000Y-81775000D01*
X134875000Y-92950000D02*
X134875000Y-92450000D01*
X133925000Y-92450000D02*
X133925000Y-92950000D01*
X141425000Y-89100000D02*
X140925000Y-89100000D01*
X140925000Y-90050000D02*
X141425000Y-90050000D01*
X140475000Y-96750000D02*
X140475000Y-96250000D01*
X139525000Y-96250000D02*
X139525000Y-96750000D01*
X152650000Y-92325000D02*
X152150000Y-92325000D01*
X152150000Y-93275000D02*
X152650000Y-93275000D01*
X145525000Y-86450000D02*
X145525000Y-86950000D01*
X146475000Y-86950000D02*
X146475000Y-86450000D01*
X152650000Y-90725000D02*
X152150000Y-90725000D01*
X152150000Y-91675000D02*
X152650000Y-91675000D01*
X125825000Y-77550000D02*
X125825000Y-78050000D01*
X126775000Y-78050000D02*
X126775000Y-77550000D01*
X149425000Y-86550000D02*
X149425000Y-87050000D01*
X150375000Y-87050000D02*
X150375000Y-86550000D01*
X127550000Y-89275000D02*
X128050000Y-89275000D01*
X128050000Y-88325000D02*
X127550000Y-88325000D01*
X127225000Y-79750000D02*
X127225000Y-80250000D01*
X128175000Y-80250000D02*
X128175000Y-79750000D01*
X148475000Y-87050000D02*
X148475000Y-86550000D01*
X147525000Y-86550000D02*
X147525000Y-87050000D01*
X125825000Y-80550000D02*
X125825000Y-81050000D01*
X126775000Y-81050000D02*
X126775000Y-80550000D01*
X142925000Y-84850000D02*
X142925000Y-85350000D01*
X143875000Y-85350000D02*
X143875000Y-84850000D01*
X132425000Y-103850000D02*
X132425000Y-103350000D01*
X131475000Y-103350000D02*
X131475000Y-103850000D01*
X146125000Y-81450000D02*
X146125000Y-81950000D01*
X147075000Y-81950000D02*
X147075000Y-81450000D01*
D11*
X149415685Y-69547792D02*
X150122792Y-68840685D01*
X150122792Y-68840685D02*
X148637868Y-67355761D01*
X149415685Y-69547792D02*
X147930761Y-68062868D01*
X138700000Y-112900000D02*
X139700000Y-112900000D01*
X139700000Y-112900000D02*
X139700000Y-110800000D01*
X138700000Y-112900000D02*
X138700000Y-110800000D01*
X111800000Y-83500000D02*
X111800000Y-84500000D01*
X111800000Y-84500000D02*
X113900000Y-84500000D01*
X111800000Y-83500000D02*
X113900000Y-83500000D01*
X138600000Y-59600000D02*
X139600000Y-59600000D01*
X139600000Y-59600000D02*
X139600000Y-57500000D01*
X138600000Y-59600000D02*
X138600000Y-57500000D01*
X167900000Y-84600000D02*
X167900000Y-83600000D01*
X167900000Y-83600000D02*
X165800000Y-83600000D01*
X167900000Y-84600000D02*
X165800000Y-84600000D01*
X141700000Y-96500000D02*
X141700000Y-97500000D01*
X141700000Y-97500000D02*
X143800000Y-97500000D01*
X141700000Y-96500000D02*
X143800000Y-96500000D01*
D10*
X142550000Y-99450000D02*
X141000000Y-99450000D01*
X137190000Y-99730000D02*
X139730000Y-99730000D01*
X139730000Y-99730000D02*
X139730000Y-102270000D01*
X141000000Y-102550000D02*
X142550000Y-102550000D01*
X142550000Y-102550000D02*
X142550000Y-99450000D01*
X139730000Y-102270000D02*
X137190000Y-102270000D01*
X137190000Y-102270000D02*
X137190000Y-99730000D01*
X127600000Y-97803949D02*
X118619744Y-88823693D01*
X118619744Y-88823693D02*
X116823693Y-90619744D01*
X116823693Y-90619744D02*
X125803949Y-99600000D01*
X129792031Y-99600000D02*
X128696016Y-98503984D01*
X127600000Y-97803949D02*
X125803949Y-99600000D01*
X126503984Y-100696016D02*
X127600000Y-101792031D01*
X127600000Y-101792031D02*
X129792031Y-99600000D01*
X153550000Y-81528949D02*
X158938154Y-76140795D01*
X155346051Y-83325000D02*
X160734205Y-77936846D01*
X153550000Y-85517031D02*
X154646016Y-84421016D01*
X158938154Y-76140795D02*
X160734205Y-77936846D01*
X155346051Y-83325000D02*
X153550000Y-81528949D01*
X152453984Y-82228984D02*
X151357969Y-83325000D01*
X151357969Y-83325000D02*
X153550000Y-85517031D01*
X160378949Y-91100000D02*
X144214488Y-107264461D01*
X144214488Y-107264461D02*
X146010539Y-109060512D01*
X146010539Y-109060512D02*
X162175000Y-92896051D01*
X162175000Y-88907969D02*
X161078984Y-90003984D01*
X160378949Y-91100000D02*
X162175000Y-92896051D01*
X163271016Y-92196016D02*
X164367031Y-91100000D01*
X164367031Y-91100000D02*
X162175000Y-88907969D01*
X120596051Y-80000000D02*
X136760512Y-63835539D01*
X136760512Y-63835539D02*
X134964461Y-62039488D01*
X134964461Y-62039488D02*
X118800000Y-78203949D01*
X118800000Y-82192031D02*
X119896016Y-81096016D01*
X120596051Y-80000000D02*
X118800000Y-78203949D01*
X117703984Y-78903984D02*
X116607969Y-80000000D01*
X116607969Y-80000000D02*
X118800000Y-82192031D01*
D11*
X140760000Y-109580000D02*
X140760000Y-108650000D01*
X140760000Y-106420000D02*
X140760000Y-107350000D01*
X140760000Y-106420000D02*
X138600000Y-106420000D01*
X140760000Y-109580000D02*
X139300000Y-109580000D01*
X115420000Y-85760000D02*
X116350000Y-85760000D01*
X118580000Y-85760000D02*
X117650000Y-85760000D01*
X118580000Y-85760000D02*
X118580000Y-83600000D01*
X115420000Y-85760000D02*
X115420000Y-84300000D01*
X139240000Y-60420000D02*
X139240000Y-61350000D01*
X139240000Y-63580000D02*
X139240000Y-62650000D01*
X139240000Y-63580000D02*
X141400000Y-63580000D01*
X139240000Y-60420000D02*
X140700000Y-60420000D01*
X164580000Y-84240000D02*
X163650000Y-84240000D01*
X161420000Y-84240000D02*
X162350000Y-84240000D01*
X161420000Y-84240000D02*
X161420000Y-86400000D01*
X164580000Y-84240000D02*
X164580000Y-85700000D01*
D10*
X147151992Y-69719454D02*
X147505546Y-70073008D01*
X148248008Y-69330546D02*
X147894454Y-68976992D01*
X141425000Y-111350000D02*
X141425000Y-110850000D01*
X140375000Y-110850000D02*
X140375000Y-111350000D01*
X135525000Y-76550000D02*
X135525000Y-76050000D01*
X134475000Y-76050000D02*
X134475000Y-76550000D01*
X113350000Y-85475000D02*
X112850000Y-85475000D01*
X112850000Y-86525000D02*
X113350000Y-86525000D01*
X134475000Y-74050000D02*
X134475000Y-74550000D01*
X135525000Y-74550000D02*
X135525000Y-74050000D01*
X141425000Y-59250000D02*
X141425000Y-58750000D01*
X140375000Y-58750000D02*
X140375000Y-59250000D01*
X165950000Y-86425000D02*
X166450000Y-86425000D01*
X166450000Y-85375000D02*
X165950000Y-85375000D01*
X136075000Y-74050000D02*
X136075000Y-74550000D01*
X137125000Y-74550000D02*
X137125000Y-74050000D01*
X137125000Y-76550000D02*
X137125000Y-76050000D01*
X136075000Y-76050000D02*
X136075000Y-76550000D01*
X142050000Y-97975000D02*
X141550000Y-97975000D01*
X141550000Y-99025000D02*
X142050000Y-99025000D01*
X133875000Y-90150000D02*
X133875000Y-90650000D01*
X134925000Y-90650000D02*
X134925000Y-90150000D01*
X135775000Y-89050000D02*
X135775000Y-89550000D01*
X136825000Y-89550000D02*
X136825000Y-89050000D01*
X148450000Y-97525000D02*
X148950000Y-97525000D01*
X148950000Y-96475000D02*
X148450000Y-96475000D01*
X145350000Y-97525000D02*
X145850000Y-97525000D01*
X145850000Y-96475000D02*
X145350000Y-96475000D01*
X141425000Y-90375000D02*
X140925000Y-90375000D01*
X140925000Y-91425000D02*
X141425000Y-91425000D01*
X137675000Y-89050000D02*
X137675000Y-89550000D01*
X138725000Y-89550000D02*
X138725000Y-89050000D01*
X133875000Y-94850000D02*
X133875000Y-95350000D01*
X134925000Y-95350000D02*
X134925000Y-94850000D01*
X136925000Y-96750000D02*
X136925000Y-96250000D01*
X135875000Y-96250000D02*
X135875000Y-96750000D01*
X138825000Y-96750000D02*
X138825000Y-96250000D01*
X137775000Y-96250000D02*
X137775000Y-96750000D01*
X151175000Y-94550000D02*
X151175000Y-95050000D01*
X152225000Y-95050000D02*
X152225000Y-94550000D01*
X143750000Y-87825000D02*
X144250000Y-87825000D01*
X144250000Y-86775000D02*
X143750000Y-86775000D01*
X154950000Y-87775000D02*
X154450000Y-87775000D01*
X154450000Y-88825000D02*
X154950000Y-88825000D01*
X131150000Y-95575000D02*
X130650000Y-95575000D01*
X130650000Y-96625000D02*
X131150000Y-96625000D01*
D11*
X139100000Y-76610000D02*
X140900000Y-76610000D01*
X140900000Y-73390000D02*
X138450000Y-73390000D01*
D10*
X139200000Y-85200000D02*
X139200000Y-84200000D01*
X139200000Y-84200000D02*
X140800000Y-84200000D01*
X140800000Y-84200000D02*
X140800000Y-85800000D01*
X140800000Y-85800000D02*
X139800000Y-85800000D01*
X139800000Y-85800000D02*
X139200000Y-85200000D01*
X133850000Y-83800000D02*
X136350000Y-83800000D01*
X136350000Y-83800000D02*
X136350000Y-86400000D01*
X136350000Y-86400000D02*
X133850000Y-86400000D01*
X133850000Y-86400000D02*
X133850000Y-83800000D01*
X149825000Y-88975000D02*
X149825000Y-89575000D01*
X143575000Y-95225000D02*
X143575000Y-94625000D01*
X149825000Y-95225000D02*
X149825000Y-94625000D01*
X143575000Y-88975000D02*
X144175000Y-88975000D01*
X143575000Y-95225000D02*
X144175000Y-95225000D01*
X149825000Y-95225000D02*
X149225000Y-95225000D01*
X149825000Y-88975000D02*
X149225000Y-88975000D01*
X136375000Y-91375000D02*
X136875000Y-91375000D01*
X139625000Y-94625000D02*
X139125000Y-94625000D01*
X139625000Y-91375000D02*
X139125000Y-91375000D01*
X136375000Y-94625000D02*
X136375000Y-94125000D01*
X139625000Y-94625000D02*
X139625000Y-94125000D01*
X139625000Y-91375000D02*
X139625000Y-91875000D01*
X136375000Y-91375000D02*
X136375000Y-91875000D01*
X126525000Y-92750000D02*
X126525000Y-93250000D01*
X127475000Y-93250000D02*
X127475000Y-92750000D01*
D11*
X144800000Y-79400000D02*
X143200000Y-79400000D01*
X143200000Y-82600000D02*
X145500000Y-82600000D01*
D12*
X129600000Y-81570000D02*
X129600000Y-82050000D01*
X129600000Y-82050000D02*
X130240000Y-82050000D01*
X129600000Y-77950000D02*
X130240000Y-77950000D01*
X131760000Y-82050000D02*
X132400000Y-82050000D01*
X132400000Y-81570000D02*
X132400000Y-82050000D01*
X131760000Y-77950000D02*
X132400000Y-77950000D01*
X132400000Y-77950000D02*
X132400000Y-78430000D01*
D10*
X157100000Y-89900000D02*
X157100000Y-90800000D01*
D13*
X157000000Y-91300000D02*
X155000000Y-91300000D01*
D10*
X132625000Y-91375000D02*
X132625000Y-91875000D01*
X129375000Y-94625000D02*
X129375000Y-94125000D01*
X132625000Y-94625000D02*
X132625000Y-94125000D01*
X129375000Y-91375000D02*
X129875000Y-91375000D01*
X129375000Y-94625000D02*
X129875000Y-94625000D01*
X132625000Y-94625000D02*
X132125000Y-94625000D01*
X132625000Y-91375000D02*
X132125000Y-91375000D01*
X140475000Y-105250000D02*
X140475000Y-104750000D01*
X139525000Y-104750000D02*
X139525000Y-105250000D01*
X119750000Y-85475000D02*
X120250000Y-85475000D01*
X120250000Y-84525000D02*
X119750000Y-84525000D01*
X139525000Y-64750000D02*
X139525000Y-65250000D01*
X140475000Y-65250000D02*
X140475000Y-64750000D01*
X160250000Y-84525000D02*
X159750000Y-84525000D01*
X159750000Y-85475000D02*
X160250000Y-85475000D01*
X130375000Y-84050000D02*
X130375000Y-83550000D01*
X129425000Y-83550000D02*
X129425000Y-84050000D01*
X131125000Y-103850000D02*
X131125000Y-103350000D01*
X130175000Y-103350000D02*
X130175000Y-103850000D01*
X128875000Y-103350000D02*
X128875000Y-103850000D01*
X129825000Y-103850000D02*
X129825000Y-103350000D01*
X153593019Y-103389214D02*
X153239466Y-103035660D01*
X153239466Y-103035660D02*
X157835660Y-98439466D01*
X157835660Y-98439466D02*
X158189214Y-98793019D01*
X159956981Y-100560786D02*
X160310534Y-100914340D01*
X160310534Y-100914340D02*
X155714340Y-105510534D01*
X155714340Y-105510534D02*
X155360786Y-105156981D01*
X136775000Y-107750000D02*
X136775000Y-108250000D01*
X137825000Y-108250000D02*
X137825000Y-107750000D01*
X117150000Y-81875000D02*
X116650000Y-81875000D01*
X116650000Y-82925000D02*
X117150000Y-82925000D01*
X143125000Y-62150000D02*
X143125000Y-61650000D01*
X142075000Y-61650000D02*
X142075000Y-62150000D01*
X162400000Y-87075000D02*
X161900000Y-87075000D01*
X161900000Y-88125000D02*
X162400000Y-88125000D01*
X135175000Y-107350000D02*
X135175000Y-107850000D01*
X136225000Y-107850000D02*
X136225000Y-107350000D01*
X120750000Y-82775000D02*
X120250000Y-82775000D01*
X120250000Y-83825000D02*
X120750000Y-83825000D01*
X144625000Y-62850000D02*
X144625000Y-62350000D01*
X143575000Y-62350000D02*
X143575000Y-62850000D01*
X159700000Y-87375000D02*
X160200000Y-87375000D01*
X160200000Y-86325000D02*
X159700000Y-86325000D01*
X139082142Y-81566666D02*
X139129761Y-81614285D01*
X139177380Y-81757142D01*
X139177380Y-81852380D01*
X139129761Y-81995238D01*
X139034523Y-82090476D01*
X138939285Y-82138095D01*
X138748809Y-82185714D01*
X138605952Y-82185714D01*
X138415476Y-82138095D01*
X138320238Y-82090476D01*
X138225000Y-81995238D01*
X138177380Y-81852380D01*
X138177380Y-81757142D01*
X138225000Y-81614285D01*
X138272619Y-81566666D01*
X139177380Y-80614285D02*
X139177380Y-81185714D01*
X139177380Y-80900000D02*
X138177380Y-80900000D01*
X138320238Y-80995238D01*
X138415476Y-81090476D01*
X138463095Y-81185714D01*
X151233333Y-96157142D02*
X151185714Y-96204761D01*
X151042857Y-96252380D01*
X150947619Y-96252380D01*
X150804761Y-96204761D01*
X150709523Y-96109523D01*
X150661904Y-96014285D01*
X150614285Y-95823809D01*
X150614285Y-95680952D01*
X150661904Y-95490476D01*
X150709523Y-95395238D01*
X150804761Y-95300000D01*
X150947619Y-95252380D01*
X151042857Y-95252380D01*
X151185714Y-95300000D01*
X151233333Y-95347619D01*
X151614285Y-95347619D02*
X151661904Y-95300000D01*
X151757142Y-95252380D01*
X151995238Y-95252380D01*
X152090476Y-95300000D01*
X152138095Y-95347619D01*
X152185714Y-95442857D01*
X152185714Y-95538095D01*
X152138095Y-95680952D01*
X151566666Y-96252380D01*
X152185714Y-96252380D01*
X134633333Y-102757142D02*
X134585714Y-102804761D01*
X134442857Y-102852380D01*
X134347619Y-102852380D01*
X134204761Y-102804761D01*
X134109523Y-102709523D01*
X134061904Y-102614285D01*
X134014285Y-102423809D01*
X134014285Y-102280952D01*
X134061904Y-102090476D01*
X134109523Y-101995238D01*
X134204761Y-101900000D01*
X134347619Y-101852380D01*
X134442857Y-101852380D01*
X134585714Y-101900000D01*
X134633333Y-101947619D01*
X134966666Y-101852380D02*
X135585714Y-101852380D01*
X135252380Y-102233333D01*
X135395238Y-102233333D01*
X135490476Y-102280952D01*
X135538095Y-102328571D01*
X135585714Y-102423809D01*
X135585714Y-102661904D01*
X135538095Y-102757142D01*
X135490476Y-102804761D01*
X135395238Y-102852380D01*
X135109523Y-102852380D01*
X135014285Y-102804761D01*
X134966666Y-102757142D01*
X123933333Y-85657142D02*
X123885714Y-85704761D01*
X123742857Y-85752380D01*
X123647619Y-85752380D01*
X123504761Y-85704761D01*
X123409523Y-85609523D01*
X123361904Y-85514285D01*
X123314285Y-85323809D01*
X123314285Y-85180952D01*
X123361904Y-84990476D01*
X123409523Y-84895238D01*
X123504761Y-84800000D01*
X123647619Y-84752380D01*
X123742857Y-84752380D01*
X123885714Y-84800000D01*
X123933333Y-84847619D01*
X124790476Y-85085714D02*
X124790476Y-85752380D01*
X124552380Y-84704761D02*
X124314285Y-85419047D01*
X124933333Y-85419047D01*
X142157142Y-77266666D02*
X142204761Y-77314285D01*
X142252380Y-77457142D01*
X142252380Y-77552380D01*
X142204761Y-77695238D01*
X142109523Y-77790476D01*
X142014285Y-77838095D01*
X141823809Y-77885714D01*
X141680952Y-77885714D01*
X141490476Y-77838095D01*
X141395238Y-77790476D01*
X141300000Y-77695238D01*
X141252380Y-77552380D01*
X141252380Y-77457142D01*
X141300000Y-77314285D01*
X141347619Y-77266666D01*
X141252380Y-76409523D02*
X141252380Y-76600000D01*
X141300000Y-76695238D01*
X141347619Y-76742857D01*
X141490476Y-76838095D01*
X141680952Y-76885714D01*
X142061904Y-76885714D01*
X142157142Y-76838095D01*
X142204761Y-76790476D01*
X142252380Y-76695238D01*
X142252380Y-76504761D01*
X142204761Y-76409523D01*
X142157142Y-76361904D01*
X142061904Y-76314285D01*
X141823809Y-76314285D01*
X141728571Y-76361904D01*
X141680952Y-76409523D01*
X141633333Y-76504761D01*
X141633333Y-76695238D01*
X141680952Y-76790476D01*
X141728571Y-76838095D01*
X141823809Y-76885714D01*
X126332142Y-95941666D02*
X126379761Y-95989285D01*
X126427380Y-96132142D01*
X126427380Y-96227380D01*
X126379761Y-96370238D01*
X126284523Y-96465476D01*
X126189285Y-96513095D01*
X125998809Y-96560714D01*
X125855952Y-96560714D01*
X125665476Y-96513095D01*
X125570238Y-96465476D01*
X125475000Y-96370238D01*
X125427380Y-96227380D01*
X125427380Y-96132142D01*
X125475000Y-95989285D01*
X125522619Y-95941666D01*
X125427380Y-95608333D02*
X125427380Y-94941666D01*
X126427380Y-95370238D01*
X139857142Y-81307142D02*
X139809523Y-81354761D01*
X139666666Y-81402380D01*
X139571428Y-81402380D01*
X139428571Y-81354761D01*
X139333333Y-81259523D01*
X139285714Y-81164285D01*
X139238095Y-80973809D01*
X139238095Y-80830952D01*
X139285714Y-80640476D01*
X139333333Y-80545238D01*
X139428571Y-80450000D01*
X139571428Y-80402380D01*
X139666666Y-80402380D01*
X139809523Y-80450000D01*
X139857142Y-80497619D01*
X140809523Y-81402380D02*
X140238095Y-81402380D01*
X140523809Y-81402380D02*
X140523809Y-80402380D01*
X140428571Y-80545238D01*
X140333333Y-80640476D01*
X140238095Y-80688095D01*
X141428571Y-80402380D02*
X141523809Y-80402380D01*
X141619047Y-80450000D01*
X141666666Y-80497619D01*
X141714285Y-80592857D01*
X141761904Y-80783333D01*
X141761904Y-81021428D01*
X141714285Y-81211904D01*
X141666666Y-81307142D01*
X141619047Y-81354761D01*
X141523809Y-81402380D01*
X141428571Y-81402380D01*
X141333333Y-81354761D01*
X141285714Y-81307142D01*
X141238095Y-81211904D01*
X141190476Y-81021428D01*
X141190476Y-80783333D01*
X141238095Y-80592857D01*
X141285714Y-80497619D01*
X141333333Y-80450000D01*
X141428571Y-80402380D01*
X131657142Y-85392857D02*
X131704761Y-85440476D01*
X131752380Y-85583333D01*
X131752380Y-85678571D01*
X131704761Y-85821428D01*
X131609523Y-85916666D01*
X131514285Y-85964285D01*
X131323809Y-86011904D01*
X131180952Y-86011904D01*
X130990476Y-85964285D01*
X130895238Y-85916666D01*
X130800000Y-85821428D01*
X130752380Y-85678571D01*
X130752380Y-85583333D01*
X130800000Y-85440476D01*
X130847619Y-85392857D01*
X131752380Y-84440476D02*
X131752380Y-85011904D01*
X131752380Y-84726190D02*
X130752380Y-84726190D01*
X130895238Y-84821428D01*
X130990476Y-84916666D01*
X131038095Y-85011904D01*
X131752380Y-83488095D02*
X131752380Y-84059523D01*
X131752380Y-83773809D02*
X130752380Y-83773809D01*
X130895238Y-83869047D01*
X130990476Y-83964285D01*
X131038095Y-84059523D01*
X139857142Y-82807142D02*
X139809523Y-82854761D01*
X139666666Y-82902380D01*
X139571428Y-82902380D01*
X139428571Y-82854761D01*
X139333333Y-82759523D01*
X139285714Y-82664285D01*
X139238095Y-82473809D01*
X139238095Y-82330952D01*
X139285714Y-82140476D01*
X139333333Y-82045238D01*
X139428571Y-81950000D01*
X139571428Y-81902380D01*
X139666666Y-81902380D01*
X139809523Y-81950000D01*
X139857142Y-81997619D01*
X140809523Y-82902380D02*
X140238095Y-82902380D01*
X140523809Y-82902380D02*
X140523809Y-81902380D01*
X140428571Y-82045238D01*
X140333333Y-82140476D01*
X140238095Y-82188095D01*
X141190476Y-81997619D02*
X141238095Y-81950000D01*
X141333333Y-81902380D01*
X141571428Y-81902380D01*
X141666666Y-81950000D01*
X141714285Y-81997619D01*
X141761904Y-82092857D01*
X141761904Y-82188095D01*
X141714285Y-82330952D01*
X141142857Y-82902380D01*
X141761904Y-82902380D01*
X130157142Y-85392857D02*
X130204761Y-85440476D01*
X130252380Y-85583333D01*
X130252380Y-85678571D01*
X130204761Y-85821428D01*
X130109523Y-85916666D01*
X130014285Y-85964285D01*
X129823809Y-86011904D01*
X129680952Y-86011904D01*
X129490476Y-85964285D01*
X129395238Y-85916666D01*
X129300000Y-85821428D01*
X129252380Y-85678571D01*
X129252380Y-85583333D01*
X129300000Y-85440476D01*
X129347619Y-85392857D01*
X130252380Y-84440476D02*
X130252380Y-85011904D01*
X130252380Y-84726190D02*
X129252380Y-84726190D01*
X129395238Y-84821428D01*
X129490476Y-84916666D01*
X129538095Y-85011904D01*
X129252380Y-84107142D02*
X129252380Y-83488095D01*
X129633333Y-83821428D01*
X129633333Y-83678571D01*
X129680952Y-83583333D01*
X129728571Y-83535714D01*
X129823809Y-83488095D01*
X130061904Y-83488095D01*
X130157142Y-83535714D01*
X130204761Y-83583333D01*
X130252380Y-83678571D01*
X130252380Y-83964285D01*
X130204761Y-84059523D01*
X130157142Y-84107142D01*
X139857142Y-84307142D02*
X139809523Y-84354761D01*
X139666666Y-84402380D01*
X139571428Y-84402380D01*
X139428571Y-84354761D01*
X139333333Y-84259523D01*
X139285714Y-84164285D01*
X139238095Y-83973809D01*
X139238095Y-83830952D01*
X139285714Y-83640476D01*
X139333333Y-83545238D01*
X139428571Y-83450000D01*
X139571428Y-83402380D01*
X139666666Y-83402380D01*
X139809523Y-83450000D01*
X139857142Y-83497619D01*
X140809523Y-84402380D02*
X140238095Y-84402380D01*
X140523809Y-84402380D02*
X140523809Y-83402380D01*
X140428571Y-83545238D01*
X140333333Y-83640476D01*
X140238095Y-83688095D01*
X141666666Y-83735714D02*
X141666666Y-84402380D01*
X141428571Y-83354761D02*
X141190476Y-84069047D01*
X141809523Y-84069047D01*
X136457142Y-93342857D02*
X136504761Y-93390476D01*
X136552380Y-93533333D01*
X136552380Y-93628571D01*
X136504761Y-93771428D01*
X136409523Y-93866666D01*
X136314285Y-93914285D01*
X136123809Y-93961904D01*
X135980952Y-93961904D01*
X135790476Y-93914285D01*
X135695238Y-93866666D01*
X135600000Y-93771428D01*
X135552380Y-93628571D01*
X135552380Y-93533333D01*
X135600000Y-93390476D01*
X135647619Y-93342857D01*
X136552380Y-92390476D02*
X136552380Y-92961904D01*
X136552380Y-92676190D02*
X135552380Y-92676190D01*
X135695238Y-92771428D01*
X135790476Y-92866666D01*
X135838095Y-92961904D01*
X135552380Y-91485714D02*
X135552380Y-91961904D01*
X136028571Y-92009523D01*
X135980952Y-91961904D01*
X135933333Y-91866666D01*
X135933333Y-91628571D01*
X135980952Y-91533333D01*
X136028571Y-91485714D01*
X136123809Y-91438095D01*
X136361904Y-91438095D01*
X136457142Y-91485714D01*
X136504761Y-91533333D01*
X136552380Y-91628571D01*
X136552380Y-91866666D01*
X136504761Y-91961904D01*
X136457142Y-92009523D01*
X140532142Y-88232142D02*
X140484523Y-88279761D01*
X140341666Y-88327380D01*
X140246428Y-88327380D01*
X140103571Y-88279761D01*
X140008333Y-88184523D01*
X139960714Y-88089285D01*
X139913095Y-87898809D01*
X139913095Y-87755952D01*
X139960714Y-87565476D01*
X140008333Y-87470238D01*
X140103571Y-87375000D01*
X140246428Y-87327380D01*
X140341666Y-87327380D01*
X140484523Y-87375000D01*
X140532142Y-87422619D01*
X141484523Y-88327380D02*
X140913095Y-88327380D01*
X141198809Y-88327380D02*
X141198809Y-87327380D01*
X141103571Y-87470238D01*
X141008333Y-87565476D01*
X140913095Y-87613095D01*
X141960714Y-88327380D02*
X142151190Y-88327380D01*
X142246428Y-88279761D01*
X142294047Y-88232142D01*
X142389285Y-88089285D01*
X142436904Y-87898809D01*
X142436904Y-87517857D01*
X142389285Y-87422619D01*
X142341666Y-87375000D01*
X142246428Y-87327380D01*
X142055952Y-87327380D01*
X141960714Y-87375000D01*
X141913095Y-87422619D01*
X141865476Y-87517857D01*
X141865476Y-87755952D01*
X141913095Y-87851190D01*
X141960714Y-87898809D01*
X142055952Y-87946428D01*
X142246428Y-87946428D01*
X142341666Y-87898809D01*
X142389285Y-87851190D01*
X142436904Y-87755952D01*
X142057142Y-97142857D02*
X142104761Y-97190476D01*
X142152380Y-97333333D01*
X142152380Y-97428571D01*
X142104761Y-97571428D01*
X142009523Y-97666666D01*
X141914285Y-97714285D01*
X141723809Y-97761904D01*
X141580952Y-97761904D01*
X141390476Y-97714285D01*
X141295238Y-97666666D01*
X141200000Y-97571428D01*
X141152380Y-97428571D01*
X141152380Y-97333333D01*
X141200000Y-97190476D01*
X141247619Y-97142857D01*
X141247619Y-96761904D02*
X141200000Y-96714285D01*
X141152380Y-96619047D01*
X141152380Y-96380952D01*
X141200000Y-96285714D01*
X141247619Y-96238095D01*
X141342857Y-96190476D01*
X141438095Y-96190476D01*
X141580952Y-96238095D01*
X142152380Y-96809523D01*
X142152380Y-96190476D01*
X141152380Y-95571428D02*
X141152380Y-95476190D01*
X141200000Y-95380952D01*
X141247619Y-95333333D01*
X141342857Y-95285714D01*
X141533333Y-95238095D01*
X141771428Y-95238095D01*
X141961904Y-95285714D01*
X142057142Y-95333333D01*
X142104761Y-95380952D01*
X142152380Y-95476190D01*
X142152380Y-95571428D01*
X142104761Y-95666666D01*
X142057142Y-95714285D01*
X141961904Y-95761904D01*
X141771428Y-95809523D01*
X141533333Y-95809523D01*
X141342857Y-95761904D01*
X141247619Y-95714285D01*
X141200000Y-95666666D01*
X141152380Y-95571428D01*
X151757142Y-91457142D02*
X151709523Y-91504761D01*
X151566666Y-91552380D01*
X151471428Y-91552380D01*
X151328571Y-91504761D01*
X151233333Y-91409523D01*
X151185714Y-91314285D01*
X151138095Y-91123809D01*
X151138095Y-90980952D01*
X151185714Y-90790476D01*
X151233333Y-90695238D01*
X151328571Y-90600000D01*
X151471428Y-90552380D01*
X151566666Y-90552380D01*
X151709523Y-90600000D01*
X151757142Y-90647619D01*
X152138095Y-90647619D02*
X152185714Y-90600000D01*
X152280952Y-90552380D01*
X152519047Y-90552380D01*
X152614285Y-90600000D01*
X152661904Y-90647619D01*
X152709523Y-90742857D01*
X152709523Y-90838095D01*
X152661904Y-90980952D01*
X152090476Y-91552380D01*
X152709523Y-91552380D01*
X153661904Y-91552380D02*
X153090476Y-91552380D01*
X153376190Y-91552380D02*
X153376190Y-90552380D01*
X153280952Y-90695238D01*
X153185714Y-90790476D01*
X153090476Y-90838095D01*
X144657142Y-87342857D02*
X144704761Y-87390476D01*
X144752380Y-87533333D01*
X144752380Y-87628571D01*
X144704761Y-87771428D01*
X144609523Y-87866666D01*
X144514285Y-87914285D01*
X144323809Y-87961904D01*
X144180952Y-87961904D01*
X143990476Y-87914285D01*
X143895238Y-87866666D01*
X143800000Y-87771428D01*
X143752380Y-87628571D01*
X143752380Y-87533333D01*
X143800000Y-87390476D01*
X143847619Y-87342857D01*
X143847619Y-86961904D02*
X143800000Y-86914285D01*
X143752380Y-86819047D01*
X143752380Y-86580952D01*
X143800000Y-86485714D01*
X143847619Y-86438095D01*
X143942857Y-86390476D01*
X144038095Y-86390476D01*
X144180952Y-86438095D01*
X144752380Y-87009523D01*
X144752380Y-86390476D01*
X143847619Y-86009523D02*
X143800000Y-85961904D01*
X143752380Y-85866666D01*
X143752380Y-85628571D01*
X143800000Y-85533333D01*
X143847619Y-85485714D01*
X143942857Y-85438095D01*
X144038095Y-85438095D01*
X144180952Y-85485714D01*
X144752380Y-86057142D01*
X144752380Y-85438095D01*
X151757142Y-89857142D02*
X151709523Y-89904761D01*
X151566666Y-89952380D01*
X151471428Y-89952380D01*
X151328571Y-89904761D01*
X151233333Y-89809523D01*
X151185714Y-89714285D01*
X151138095Y-89523809D01*
X151138095Y-89380952D01*
X151185714Y-89190476D01*
X151233333Y-89095238D01*
X151328571Y-89000000D01*
X151471428Y-88952380D01*
X151566666Y-88952380D01*
X151709523Y-89000000D01*
X151757142Y-89047619D01*
X152138095Y-89047619D02*
X152185714Y-89000000D01*
X152280952Y-88952380D01*
X152519047Y-88952380D01*
X152614285Y-89000000D01*
X152661904Y-89047619D01*
X152709523Y-89142857D01*
X152709523Y-89238095D01*
X152661904Y-89380952D01*
X152090476Y-89952380D01*
X152709523Y-89952380D01*
X153042857Y-88952380D02*
X153661904Y-88952380D01*
X153328571Y-89333333D01*
X153471428Y-89333333D01*
X153566666Y-89380952D01*
X153614285Y-89428571D01*
X153661904Y-89523809D01*
X153661904Y-89761904D01*
X153614285Y-89857142D01*
X153566666Y-89904761D01*
X153471428Y-89952380D01*
X153185714Y-89952380D01*
X153090476Y-89904761D01*
X153042857Y-89857142D01*
X124957142Y-78442857D02*
X125004761Y-78490476D01*
X125052380Y-78633333D01*
X125052380Y-78728571D01*
X125004761Y-78871428D01*
X124909523Y-78966666D01*
X124814285Y-79014285D01*
X124623809Y-79061904D01*
X124480952Y-79061904D01*
X124290476Y-79014285D01*
X124195238Y-78966666D01*
X124100000Y-78871428D01*
X124052380Y-78728571D01*
X124052380Y-78633333D01*
X124100000Y-78490476D01*
X124147619Y-78442857D01*
X124147619Y-78061904D02*
X124100000Y-78014285D01*
X124052380Y-77919047D01*
X124052380Y-77680952D01*
X124100000Y-77585714D01*
X124147619Y-77538095D01*
X124242857Y-77490476D01*
X124338095Y-77490476D01*
X124480952Y-77538095D01*
X125052380Y-78109523D01*
X125052380Y-77490476D01*
X124385714Y-76633333D02*
X125052380Y-76633333D01*
X124004761Y-76871428D02*
X124719047Y-77109523D01*
X124719047Y-76490476D01*
X148557142Y-87442857D02*
X148604761Y-87490476D01*
X148652380Y-87633333D01*
X148652380Y-87728571D01*
X148604761Y-87871428D01*
X148509523Y-87966666D01*
X148414285Y-88014285D01*
X148223809Y-88061904D01*
X148080952Y-88061904D01*
X147890476Y-88014285D01*
X147795238Y-87966666D01*
X147700000Y-87871428D01*
X147652380Y-87728571D01*
X147652380Y-87633333D01*
X147700000Y-87490476D01*
X147747619Y-87442857D01*
X147747619Y-87061904D02*
X147700000Y-87014285D01*
X147652380Y-86919047D01*
X147652380Y-86680952D01*
X147700000Y-86585714D01*
X147747619Y-86538095D01*
X147842857Y-86490476D01*
X147938095Y-86490476D01*
X148080952Y-86538095D01*
X148652380Y-87109523D01*
X148652380Y-86490476D01*
X147652380Y-85585714D02*
X147652380Y-86061904D01*
X148128571Y-86109523D01*
X148080952Y-86061904D01*
X148033333Y-85966666D01*
X148033333Y-85728571D01*
X148080952Y-85633333D01*
X148128571Y-85585714D01*
X148223809Y-85538095D01*
X148461904Y-85538095D01*
X148557142Y-85585714D01*
X148604761Y-85633333D01*
X148652380Y-85728571D01*
X148652380Y-85966666D01*
X148604761Y-86061904D01*
X148557142Y-86109523D01*
X127157142Y-90857142D02*
X127109523Y-90904761D01*
X126966666Y-90952380D01*
X126871428Y-90952380D01*
X126728571Y-90904761D01*
X126633333Y-90809523D01*
X126585714Y-90714285D01*
X126538095Y-90523809D01*
X126538095Y-90380952D01*
X126585714Y-90190476D01*
X126633333Y-90095238D01*
X126728571Y-90000000D01*
X126871428Y-89952380D01*
X126966666Y-89952380D01*
X127109523Y-90000000D01*
X127157142Y-90047619D01*
X127538095Y-90047619D02*
X127585714Y-90000000D01*
X127680952Y-89952380D01*
X127919047Y-89952380D01*
X128014285Y-90000000D01*
X128061904Y-90047619D01*
X128109523Y-90142857D01*
X128109523Y-90238095D01*
X128061904Y-90380952D01*
X127490476Y-90952380D01*
X128109523Y-90952380D01*
X128680952Y-90380952D02*
X128585714Y-90333333D01*
X128538095Y-90285714D01*
X128490476Y-90190476D01*
X128490476Y-90142857D01*
X128538095Y-90047619D01*
X128585714Y-90000000D01*
X128680952Y-89952380D01*
X128871428Y-89952380D01*
X128966666Y-90000000D01*
X129014285Y-90047619D01*
X129061904Y-90142857D01*
X129061904Y-90190476D01*
X129014285Y-90285714D01*
X128966666Y-90333333D01*
X128871428Y-90380952D01*
X128680952Y-90380952D01*
X128585714Y-90428571D01*
X128538095Y-90476190D01*
X128490476Y-90571428D01*
X128490476Y-90761904D01*
X128538095Y-90857142D01*
X128585714Y-90904761D01*
X128680952Y-90952380D01*
X128871428Y-90952380D01*
X128966666Y-90904761D01*
X129014285Y-90857142D01*
X129061904Y-90761904D01*
X129061904Y-90571428D01*
X129014285Y-90476190D01*
X128966666Y-90428571D01*
X128871428Y-90380952D01*
X126357142Y-80642857D02*
X126404761Y-80690476D01*
X126452380Y-80833333D01*
X126452380Y-80928571D01*
X126404761Y-81071428D01*
X126309523Y-81166666D01*
X126214285Y-81214285D01*
X126023809Y-81261904D01*
X125880952Y-81261904D01*
X125690476Y-81214285D01*
X125595238Y-81166666D01*
X125500000Y-81071428D01*
X125452380Y-80928571D01*
X125452380Y-80833333D01*
X125500000Y-80690476D01*
X125547619Y-80642857D01*
X125547619Y-80261904D02*
X125500000Y-80214285D01*
X125452380Y-80119047D01*
X125452380Y-79880952D01*
X125500000Y-79785714D01*
X125547619Y-79738095D01*
X125642857Y-79690476D01*
X125738095Y-79690476D01*
X125880952Y-79738095D01*
X126452380Y-80309523D01*
X126452380Y-79690476D01*
X126452380Y-79214285D02*
X126452380Y-79023809D01*
X126404761Y-78928571D01*
X126357142Y-78880952D01*
X126214285Y-78785714D01*
X126023809Y-78738095D01*
X125642857Y-78738095D01*
X125547619Y-78785714D01*
X125500000Y-78833333D01*
X125452380Y-78928571D01*
X125452380Y-79119047D01*
X125500000Y-79214285D01*
X125547619Y-79261904D01*
X125642857Y-79309523D01*
X125880952Y-79309523D01*
X125976190Y-79261904D01*
X126023809Y-79214285D01*
X126071428Y-79119047D01*
X126071428Y-78928571D01*
X126023809Y-78833333D01*
X125976190Y-78785714D01*
X125880952Y-78738095D01*
X150057142Y-87442857D02*
X150104761Y-87490476D01*
X150152380Y-87633333D01*
X150152380Y-87728571D01*
X150104761Y-87871428D01*
X150009523Y-87966666D01*
X149914285Y-88014285D01*
X149723809Y-88061904D01*
X149580952Y-88061904D01*
X149390476Y-88014285D01*
X149295238Y-87966666D01*
X149200000Y-87871428D01*
X149152380Y-87728571D01*
X149152380Y-87633333D01*
X149200000Y-87490476D01*
X149247619Y-87442857D01*
X149152380Y-87109523D02*
X149152380Y-86490476D01*
X149533333Y-86823809D01*
X149533333Y-86680952D01*
X149580952Y-86585714D01*
X149628571Y-86538095D01*
X149723809Y-86490476D01*
X149961904Y-86490476D01*
X150057142Y-86538095D01*
X150104761Y-86585714D01*
X150152380Y-86680952D01*
X150152380Y-86966666D01*
X150104761Y-87061904D01*
X150057142Y-87109523D01*
X149152380Y-85871428D02*
X149152380Y-85776190D01*
X149200000Y-85680952D01*
X149247619Y-85633333D01*
X149342857Y-85585714D01*
X149533333Y-85538095D01*
X149771428Y-85538095D01*
X149961904Y-85585714D01*
X150057142Y-85633333D01*
X150104761Y-85680952D01*
X150152380Y-85776190D01*
X150152380Y-85871428D01*
X150104761Y-85966666D01*
X150057142Y-86014285D01*
X149961904Y-86061904D01*
X149771428Y-86109523D01*
X149533333Y-86109523D01*
X149342857Y-86061904D01*
X149247619Y-86014285D01*
X149200000Y-85966666D01*
X149152380Y-85871428D01*
X124957142Y-81442857D02*
X125004761Y-81490476D01*
X125052380Y-81633333D01*
X125052380Y-81728571D01*
X125004761Y-81871428D01*
X124909523Y-81966666D01*
X124814285Y-82014285D01*
X124623809Y-82061904D01*
X124480952Y-82061904D01*
X124290476Y-82014285D01*
X124195238Y-81966666D01*
X124100000Y-81871428D01*
X124052380Y-81728571D01*
X124052380Y-81633333D01*
X124100000Y-81490476D01*
X124147619Y-81442857D01*
X124052380Y-81109523D02*
X124052380Y-80490476D01*
X124433333Y-80823809D01*
X124433333Y-80680952D01*
X124480952Y-80585714D01*
X124528571Y-80538095D01*
X124623809Y-80490476D01*
X124861904Y-80490476D01*
X124957142Y-80538095D01*
X125004761Y-80585714D01*
X125052380Y-80680952D01*
X125052380Y-80966666D01*
X125004761Y-81061904D01*
X124957142Y-81109523D01*
X125052380Y-79538095D02*
X125052380Y-80109523D01*
X125052380Y-79823809D02*
X124052380Y-79823809D01*
X124195238Y-79919047D01*
X124290476Y-80014285D01*
X124338095Y-80109523D01*
X142057142Y-85742857D02*
X142104761Y-85790476D01*
X142152380Y-85933333D01*
X142152380Y-86028571D01*
X142104761Y-86171428D01*
X142009523Y-86266666D01*
X141914285Y-86314285D01*
X141723809Y-86361904D01*
X141580952Y-86361904D01*
X141390476Y-86314285D01*
X141295238Y-86266666D01*
X141200000Y-86171428D01*
X141152380Y-86028571D01*
X141152380Y-85933333D01*
X141200000Y-85790476D01*
X141247619Y-85742857D01*
X141152380Y-85409523D02*
X141152380Y-84790476D01*
X141533333Y-85123809D01*
X141533333Y-84980952D01*
X141580952Y-84885714D01*
X141628571Y-84838095D01*
X141723809Y-84790476D01*
X141961904Y-84790476D01*
X142057142Y-84838095D01*
X142104761Y-84885714D01*
X142152380Y-84980952D01*
X142152380Y-85266666D01*
X142104761Y-85361904D01*
X142057142Y-85409523D01*
X141247619Y-84409523D02*
X141200000Y-84361904D01*
X141152380Y-84266666D01*
X141152380Y-84028571D01*
X141200000Y-83933333D01*
X141247619Y-83885714D01*
X141342857Y-83838095D01*
X141438095Y-83838095D01*
X141580952Y-83885714D01*
X142152380Y-84457142D01*
X142152380Y-83838095D01*
X134007142Y-104242857D02*
X134054761Y-104290476D01*
X134102380Y-104433333D01*
X134102380Y-104528571D01*
X134054761Y-104671428D01*
X133959523Y-104766666D01*
X133864285Y-104814285D01*
X133673809Y-104861904D01*
X133530952Y-104861904D01*
X133340476Y-104814285D01*
X133245238Y-104766666D01*
X133150000Y-104671428D01*
X133102380Y-104528571D01*
X133102380Y-104433333D01*
X133150000Y-104290476D01*
X133197619Y-104242857D01*
X133102380Y-103909523D02*
X133102380Y-103290476D01*
X133483333Y-103623809D01*
X133483333Y-103480952D01*
X133530952Y-103385714D01*
X133578571Y-103338095D01*
X133673809Y-103290476D01*
X133911904Y-103290476D01*
X134007142Y-103338095D01*
X134054761Y-103385714D01*
X134102380Y-103480952D01*
X134102380Y-103766666D01*
X134054761Y-103861904D01*
X134007142Y-103909523D01*
X133102380Y-102957142D02*
X133102380Y-102338095D01*
X133483333Y-102671428D01*
X133483333Y-102528571D01*
X133530952Y-102433333D01*
X133578571Y-102385714D01*
X133673809Y-102338095D01*
X133911904Y-102338095D01*
X134007142Y-102385714D01*
X134054761Y-102433333D01*
X134102380Y-102528571D01*
X134102380Y-102814285D01*
X134054761Y-102909523D01*
X134007142Y-102957142D01*
X145257142Y-82342857D02*
X145304761Y-82390476D01*
X145352380Y-82533333D01*
X145352380Y-82628571D01*
X145304761Y-82771428D01*
X145209523Y-82866666D01*
X145114285Y-82914285D01*
X144923809Y-82961904D01*
X144780952Y-82961904D01*
X144590476Y-82914285D01*
X144495238Y-82866666D01*
X144400000Y-82771428D01*
X144352380Y-82628571D01*
X144352380Y-82533333D01*
X144400000Y-82390476D01*
X144447619Y-82342857D01*
X144352380Y-82009523D02*
X144352380Y-81390476D01*
X144733333Y-81723809D01*
X144733333Y-81580952D01*
X144780952Y-81485714D01*
X144828571Y-81438095D01*
X144923809Y-81390476D01*
X145161904Y-81390476D01*
X145257142Y-81438095D01*
X145304761Y-81485714D01*
X145352380Y-81580952D01*
X145352380Y-81866666D01*
X145304761Y-81961904D01*
X145257142Y-82009523D01*
X144685714Y-80533333D02*
X145352380Y-80533333D01*
X144304761Y-80771428D02*
X145019047Y-81009523D01*
X145019047Y-80390476D01*
X147124323Y-68956852D02*
X147831429Y-68249745D01*
X147999788Y-68418104D01*
X148067132Y-68552791D01*
X148067132Y-68687478D01*
X148033460Y-68788493D01*
X147932445Y-68956852D01*
X147831429Y-69057867D01*
X147663071Y-69158883D01*
X147562055Y-69192554D01*
X147427368Y-69192554D01*
X147292681Y-69125211D01*
X147124323Y-68956852D01*
X148875254Y-69293570D02*
X148538536Y-68956852D01*
X148168147Y-69259898D01*
X148235491Y-69259898D01*
X148336506Y-69293570D01*
X148504865Y-69461928D01*
X148538536Y-69562944D01*
X148538536Y-69630287D01*
X148504865Y-69731302D01*
X148336506Y-69899661D01*
X148235491Y-69933333D01*
X148168147Y-69933333D01*
X148067132Y-69899661D01*
X147898773Y-69731302D01*
X147865101Y-69630287D01*
X147865101Y-69562944D01*
X138402380Y-112338095D02*
X137402380Y-112338095D01*
X137402380Y-112100000D01*
X137450000Y-111957142D01*
X137545238Y-111861904D01*
X137640476Y-111814285D01*
X137830952Y-111766666D01*
X137973809Y-111766666D01*
X138164285Y-111814285D01*
X138259523Y-111861904D01*
X138354761Y-111957142D01*
X138402380Y-112100000D01*
X138402380Y-112338095D01*
X137402380Y-110909523D02*
X137402380Y-111100000D01*
X137450000Y-111195238D01*
X137497619Y-111242857D01*
X137640476Y-111338095D01*
X137830952Y-111385714D01*
X138211904Y-111385714D01*
X138307142Y-111338095D01*
X138354761Y-111290476D01*
X138402380Y-111195238D01*
X138402380Y-111004761D01*
X138354761Y-110909523D01*
X138307142Y-110861904D01*
X138211904Y-110814285D01*
X137973809Y-110814285D01*
X137878571Y-110861904D01*
X137830952Y-110909523D01*
X137783333Y-111004761D01*
X137783333Y-111195238D01*
X137830952Y-111290476D01*
X137878571Y-111338095D01*
X137973809Y-111385714D01*
X112361904Y-83202380D02*
X112361904Y-82202380D01*
X112600000Y-82202380D01*
X112742857Y-82250000D01*
X112838095Y-82345238D01*
X112885714Y-82440476D01*
X112933333Y-82630952D01*
X112933333Y-82773809D01*
X112885714Y-82964285D01*
X112838095Y-83059523D01*
X112742857Y-83154761D01*
X112600000Y-83202380D01*
X112361904Y-83202380D01*
X113266666Y-82202380D02*
X113933333Y-82202380D01*
X113504761Y-83202380D01*
X138302380Y-59038095D02*
X137302380Y-59038095D01*
X137302380Y-58800000D01*
X137350000Y-58657142D01*
X137445238Y-58561904D01*
X137540476Y-58514285D01*
X137730952Y-58466666D01*
X137873809Y-58466666D01*
X138064285Y-58514285D01*
X138159523Y-58561904D01*
X138254761Y-58657142D01*
X138302380Y-58800000D01*
X138302380Y-59038095D01*
X137730952Y-57895238D02*
X137683333Y-57990476D01*
X137635714Y-58038095D01*
X137540476Y-58085714D01*
X137492857Y-58085714D01*
X137397619Y-58038095D01*
X137350000Y-57990476D01*
X137302380Y-57895238D01*
X137302380Y-57704761D01*
X137350000Y-57609523D01*
X137397619Y-57561904D01*
X137492857Y-57514285D01*
X137540476Y-57514285D01*
X137635714Y-57561904D01*
X137683333Y-57609523D01*
X137730952Y-57704761D01*
X137730952Y-57895238D01*
X137778571Y-57990476D01*
X137826190Y-58038095D01*
X137921428Y-58085714D01*
X138111904Y-58085714D01*
X138207142Y-58038095D01*
X138254761Y-57990476D01*
X138302380Y-57895238D01*
X138302380Y-57704761D01*
X138254761Y-57609523D01*
X138207142Y-57561904D01*
X138111904Y-57514285D01*
X137921428Y-57514285D01*
X137826190Y-57561904D01*
X137778571Y-57609523D01*
X137730952Y-57704761D01*
X165861904Y-85802380D02*
X165861904Y-84802380D01*
X166100000Y-84802380D01*
X166242857Y-84850000D01*
X166338095Y-84945238D01*
X166385714Y-85040476D01*
X166433333Y-85230952D01*
X166433333Y-85373809D01*
X166385714Y-85564285D01*
X166338095Y-85659523D01*
X166242857Y-85754761D01*
X166100000Y-85802380D01*
X165861904Y-85802380D01*
X166909523Y-85802380D02*
X167100000Y-85802380D01*
X167195238Y-85754761D01*
X167242857Y-85707142D01*
X167338095Y-85564285D01*
X167385714Y-85373809D01*
X167385714Y-84992857D01*
X167338095Y-84897619D01*
X167290476Y-84850000D01*
X167195238Y-84802380D01*
X167004761Y-84802380D01*
X166909523Y-84850000D01*
X166861904Y-84897619D01*
X166814285Y-84992857D01*
X166814285Y-85230952D01*
X166861904Y-85326190D01*
X166909523Y-85373809D01*
X167004761Y-85421428D01*
X167195238Y-85421428D01*
X167290476Y-85373809D01*
X167338095Y-85326190D01*
X167385714Y-85230952D01*
X141785714Y-96202380D02*
X141785714Y-95202380D01*
X142023809Y-95202380D01*
X142166666Y-95250000D01*
X142261904Y-95345238D01*
X142309523Y-95440476D01*
X142357142Y-95630952D01*
X142357142Y-95773809D01*
X142309523Y-95964285D01*
X142261904Y-96059523D01*
X142166666Y-96154761D01*
X142023809Y-96202380D01*
X141785714Y-96202380D01*
X143309523Y-96202380D02*
X142738095Y-96202380D01*
X143023809Y-96202380D02*
X143023809Y-95202380D01*
X142928571Y-95345238D01*
X142833333Y-95440476D01*
X142738095Y-95488095D01*
X143928571Y-95202380D02*
X144023809Y-95202380D01*
X144119047Y-95250000D01*
X144166666Y-95297619D01*
X144214285Y-95392857D01*
X144261904Y-95583333D01*
X144261904Y-95821428D01*
X144214285Y-96011904D01*
X144166666Y-96107142D01*
X144119047Y-96154761D01*
X144023809Y-96202380D01*
X143928571Y-96202380D01*
X143833333Y-96154761D01*
X143785714Y-96107142D01*
X143738095Y-96011904D01*
X143690476Y-95821428D01*
X143690476Y-95583333D01*
X143738095Y-95392857D01*
X143785714Y-95297619D01*
X143833333Y-95250000D01*
X143928571Y-95202380D01*
X140261904Y-106552380D02*
X140261904Y-105552380D01*
X140642857Y-105552380D01*
X140738095Y-105600000D01*
X140785714Y-105647619D01*
X140833333Y-105742857D01*
X140833333Y-105885714D01*
X140785714Y-105980952D01*
X140738095Y-106028571D01*
X140642857Y-106076190D01*
X140261904Y-106076190D01*
X141214285Y-105647619D02*
X141261904Y-105600000D01*
X141357142Y-105552380D01*
X141595238Y-105552380D01*
X141690476Y-105600000D01*
X141738095Y-105647619D01*
X141785714Y-105742857D01*
X141785714Y-105838095D01*
X141738095Y-105980952D01*
X141166666Y-106552380D01*
X141785714Y-106552380D01*
X123151961Y-103004214D02*
X123859067Y-102297107D01*
X124128442Y-102566481D01*
X124162113Y-102667496D01*
X124162113Y-102734840D01*
X124128442Y-102835855D01*
X124027426Y-102936870D01*
X123926411Y-102970542D01*
X123859067Y-102970542D01*
X123758052Y-102936870D01*
X123488678Y-102667496D01*
X124498831Y-102936870D02*
X124936564Y-103374603D01*
X124431487Y-103408275D01*
X124532503Y-103509290D01*
X124566174Y-103610306D01*
X124566174Y-103677649D01*
X124532503Y-103778664D01*
X124364144Y-103947023D01*
X124263129Y-103980695D01*
X124195785Y-103980695D01*
X124094770Y-103947023D01*
X123892739Y-103744993D01*
X123859067Y-103643977D01*
X123859067Y-103576634D01*
X149741724Y-80560548D02*
X149034617Y-79853442D01*
X149303991Y-79584067D01*
X149405006Y-79550396D01*
X149472350Y-79550396D01*
X149573365Y-79584067D01*
X149674380Y-79685083D01*
X149708052Y-79786098D01*
X149708052Y-79853442D01*
X149674380Y-79954457D01*
X149405006Y-80223831D01*
X150280472Y-79078991D02*
X150751877Y-79550396D01*
X149842739Y-78977976D02*
X150179457Y-79651411D01*
X150617190Y-79213678D01*
X165579214Y-95548038D02*
X164872107Y-94840932D01*
X165141481Y-94571557D01*
X165242496Y-94537886D01*
X165309840Y-94537886D01*
X165410855Y-94571557D01*
X165511870Y-94672573D01*
X165545542Y-94773588D01*
X165545542Y-94840932D01*
X165511870Y-94941947D01*
X165242496Y-95211321D01*
X165915932Y-93797107D02*
X165579214Y-94133825D01*
X165882260Y-94504214D01*
X165882260Y-94436870D01*
X165915932Y-94335855D01*
X166084290Y-94167496D01*
X166185306Y-94133825D01*
X166252649Y-94133825D01*
X166353664Y-94167496D01*
X166522023Y-94335855D01*
X166555695Y-94436870D01*
X166555695Y-94504214D01*
X166522023Y-94605229D01*
X166353664Y-94773588D01*
X166252649Y-94807260D01*
X166185306Y-94807260D01*
X114991724Y-77235548D02*
X114284617Y-76528442D01*
X114553991Y-76259067D01*
X114655006Y-76225396D01*
X114722350Y-76225396D01*
X114823365Y-76259067D01*
X114924380Y-76360083D01*
X114958052Y-76461098D01*
X114958052Y-76528442D01*
X114924380Y-76629457D01*
X114655006Y-76898831D01*
X115294770Y-75518289D02*
X115160083Y-75652976D01*
X115126411Y-75753991D01*
X115126411Y-75821335D01*
X115160083Y-75989693D01*
X115261098Y-76158052D01*
X115530472Y-76427426D01*
X115631487Y-76461098D01*
X115698831Y-76461098D01*
X115799846Y-76427426D01*
X115934533Y-76292739D01*
X115968205Y-76191724D01*
X115968205Y-76124380D01*
X115934533Y-76023365D01*
X115766174Y-75855006D01*
X115665159Y-75821335D01*
X115597816Y-75821335D01*
X115496800Y-75855006D01*
X115362113Y-75989693D01*
X115328442Y-76090709D01*
X115328442Y-76158052D01*
X115362113Y-76259067D01*
X139904761Y-106047619D02*
X139809523Y-106000000D01*
X139714285Y-105904761D01*
X139571428Y-105761904D01*
X139476190Y-105714285D01*
X139380952Y-105714285D01*
X139428571Y-105952380D02*
X139333333Y-105904761D01*
X139238095Y-105809523D01*
X139190476Y-105619047D01*
X139190476Y-105285714D01*
X139238095Y-105095238D01*
X139333333Y-105000000D01*
X139428571Y-104952380D01*
X139619047Y-104952380D01*
X139714285Y-105000000D01*
X139809523Y-105095238D01*
X139857142Y-105285714D01*
X139857142Y-105619047D01*
X139809523Y-105809523D01*
X139714285Y-105904761D01*
X139619047Y-105952380D01*
X139428571Y-105952380D01*
X140809523Y-105952380D02*
X140238095Y-105952380D01*
X140523809Y-105952380D02*
X140523809Y-104952380D01*
X140428571Y-105095238D01*
X140333333Y-105190476D01*
X140238095Y-105238095D01*
X120047619Y-85095238D02*
X120000000Y-85190476D01*
X119904761Y-85285714D01*
X119761904Y-85428571D01*
X119714285Y-85523809D01*
X119714285Y-85619047D01*
X119952380Y-85571428D02*
X119904761Y-85666666D01*
X119809523Y-85761904D01*
X119619047Y-85809523D01*
X119285714Y-85809523D01*
X119095238Y-85761904D01*
X119000000Y-85666666D01*
X118952380Y-85571428D01*
X118952380Y-85380952D01*
X119000000Y-85285714D01*
X119095238Y-85190476D01*
X119285714Y-85142857D01*
X119619047Y-85142857D01*
X119809523Y-85190476D01*
X119904761Y-85285714D01*
X119952380Y-85380952D01*
X119952380Y-85571428D01*
X119047619Y-84761904D02*
X119000000Y-84714285D01*
X118952380Y-84619047D01*
X118952380Y-84380952D01*
X119000000Y-84285714D01*
X119047619Y-84238095D01*
X119142857Y-84190476D01*
X119238095Y-84190476D01*
X119380952Y-84238095D01*
X119952380Y-84809523D01*
X119952380Y-84190476D01*
X139904761Y-65047619D02*
X139809523Y-65000000D01*
X139714285Y-64904761D01*
X139571428Y-64761904D01*
X139476190Y-64714285D01*
X139380952Y-64714285D01*
X139428571Y-64952380D02*
X139333333Y-64904761D01*
X139238095Y-64809523D01*
X139190476Y-64619047D01*
X139190476Y-64285714D01*
X139238095Y-64095238D01*
X139333333Y-64000000D01*
X139428571Y-63952380D01*
X139619047Y-63952380D01*
X139714285Y-64000000D01*
X139809523Y-64095238D01*
X139857142Y-64285714D01*
X139857142Y-64619047D01*
X139809523Y-64809523D01*
X139714285Y-64904761D01*
X139619047Y-64952380D01*
X139428571Y-64952380D01*
X140190476Y-63952380D02*
X140809523Y-63952380D01*
X140476190Y-64333333D01*
X140619047Y-64333333D01*
X140714285Y-64380952D01*
X140761904Y-64428571D01*
X140809523Y-64523809D01*
X140809523Y-64761904D01*
X140761904Y-64857142D01*
X140714285Y-64904761D01*
X140619047Y-64952380D01*
X140333333Y-64952380D01*
X140238095Y-64904761D01*
X140190476Y-64857142D01*
X161047619Y-85095238D02*
X161000000Y-85190476D01*
X160904761Y-85285714D01*
X160761904Y-85428571D01*
X160714285Y-85523809D01*
X160714285Y-85619047D01*
X160952380Y-85571428D02*
X160904761Y-85666666D01*
X160809523Y-85761904D01*
X160619047Y-85809523D01*
X160285714Y-85809523D01*
X160095238Y-85761904D01*
X160000000Y-85666666D01*
X159952380Y-85571428D01*
X159952380Y-85380952D01*
X160000000Y-85285714D01*
X160095238Y-85190476D01*
X160285714Y-85142857D01*
X160619047Y-85142857D01*
X160809523Y-85190476D01*
X160904761Y-85285714D01*
X160952380Y-85380952D01*
X160952380Y-85571428D01*
X160285714Y-84285714D02*
X160952380Y-84285714D01*
X159904761Y-84523809D02*
X160619047Y-84761904D01*
X160619047Y-84142857D01*
X151937267Y-71902030D02*
X152038282Y-71329610D01*
X151533206Y-71497969D02*
X152240312Y-70790862D01*
X152509687Y-71060236D01*
X152543358Y-71161251D01*
X152543358Y-71228595D01*
X152509687Y-71329610D01*
X152408671Y-71430625D01*
X152307656Y-71464297D01*
X152240312Y-71464297D01*
X152139297Y-71430625D01*
X151869923Y-71161251D01*
X152846404Y-71531641D02*
X152913748Y-71531641D01*
X153014763Y-71565312D01*
X153183122Y-71733671D01*
X153216793Y-71834687D01*
X153216793Y-71902030D01*
X153183122Y-72003045D01*
X153115778Y-72070389D01*
X152981091Y-72137732D01*
X152172969Y-72137732D01*
X152610702Y-72575465D01*
X143152380Y-111266666D02*
X142676190Y-111600000D01*
X143152380Y-111838095D02*
X142152380Y-111838095D01*
X142152380Y-111457142D01*
X142200000Y-111361904D01*
X142247619Y-111314285D01*
X142342857Y-111266666D01*
X142485714Y-111266666D01*
X142580952Y-111314285D01*
X142628571Y-111361904D01*
X142676190Y-111457142D01*
X142676190Y-111838095D01*
X142152380Y-110933333D02*
X142152380Y-110314285D01*
X142533333Y-110647619D01*
X142533333Y-110504761D01*
X142580952Y-110409523D01*
X142628571Y-110361904D01*
X142723809Y-110314285D01*
X142961904Y-110314285D01*
X143057142Y-110361904D01*
X143104761Y-110409523D01*
X143152380Y-110504761D01*
X143152380Y-110790476D01*
X143104761Y-110885714D01*
X143057142Y-110933333D01*
X137252380Y-76466666D02*
X136776190Y-76800000D01*
X137252380Y-77038095D02*
X136252380Y-77038095D01*
X136252380Y-76657142D01*
X136300000Y-76561904D01*
X136347619Y-76514285D01*
X136442857Y-76466666D01*
X136585714Y-76466666D01*
X136680952Y-76514285D01*
X136728571Y-76561904D01*
X136776190Y-76657142D01*
X136776190Y-77038095D01*
X136585714Y-75609523D02*
X137252380Y-75609523D01*
X136204761Y-75847619D02*
X136919047Y-76085714D01*
X136919047Y-75466666D01*
X112933333Y-84652380D02*
X112600000Y-84176190D01*
X112361904Y-84652380D02*
X112361904Y-83652380D01*
X112742857Y-83652380D01*
X112838095Y-83700000D01*
X112885714Y-83747619D01*
X112933333Y-83842857D01*
X112933333Y-83985714D01*
X112885714Y-84080952D01*
X112838095Y-84128571D01*
X112742857Y-84176190D01*
X112361904Y-84176190D01*
X113838095Y-83652380D02*
X113361904Y-83652380D01*
X113314285Y-84128571D01*
X113361904Y-84080952D01*
X113457142Y-84033333D01*
X113695238Y-84033333D01*
X113790476Y-84080952D01*
X113838095Y-84128571D01*
X113885714Y-84223809D01*
X113885714Y-84461904D01*
X113838095Y-84557142D01*
X113790476Y-84604761D01*
X113695238Y-84652380D01*
X113457142Y-84652380D01*
X113361904Y-84604761D01*
X113314285Y-84557142D01*
X133652380Y-74466666D02*
X133176190Y-74800000D01*
X133652380Y-75038095D02*
X132652380Y-75038095D01*
X132652380Y-74657142D01*
X132700000Y-74561904D01*
X132747619Y-74514285D01*
X132842857Y-74466666D01*
X132985714Y-74466666D01*
X133080952Y-74514285D01*
X133128571Y-74561904D01*
X133176190Y-74657142D01*
X133176190Y-75038095D01*
X132652380Y-73609523D02*
X132652380Y-73800000D01*
X132700000Y-73895238D01*
X132747619Y-73942857D01*
X132890476Y-74038095D01*
X133080952Y-74085714D01*
X133461904Y-74085714D01*
X133557142Y-74038095D01*
X133604761Y-73990476D01*
X133652380Y-73895238D01*
X133652380Y-73704761D01*
X133604761Y-73609523D01*
X133557142Y-73561904D01*
X133461904Y-73514285D01*
X133223809Y-73514285D01*
X133128571Y-73561904D01*
X133080952Y-73609523D01*
X133033333Y-73704761D01*
X133033333Y-73895238D01*
X133080952Y-73990476D01*
X133128571Y-74038095D01*
X133223809Y-74085714D01*
X143152380Y-59166666D02*
X142676190Y-59500000D01*
X143152380Y-59738095D02*
X142152380Y-59738095D01*
X142152380Y-59357142D01*
X142200000Y-59261904D01*
X142247619Y-59214285D01*
X142342857Y-59166666D01*
X142485714Y-59166666D01*
X142580952Y-59214285D01*
X142628571Y-59261904D01*
X142676190Y-59357142D01*
X142676190Y-59738095D01*
X142152380Y-58833333D02*
X142152380Y-58166666D01*
X143152380Y-58595238D01*
X166033333Y-88152380D02*
X165700000Y-87676190D01*
X165461904Y-88152380D02*
X165461904Y-87152380D01*
X165842857Y-87152380D01*
X165938095Y-87200000D01*
X165985714Y-87247619D01*
X166033333Y-87342857D01*
X166033333Y-87485714D01*
X165985714Y-87580952D01*
X165938095Y-87628571D01*
X165842857Y-87676190D01*
X165461904Y-87676190D01*
X166604761Y-87580952D02*
X166509523Y-87533333D01*
X166461904Y-87485714D01*
X166414285Y-87390476D01*
X166414285Y-87342857D01*
X166461904Y-87247619D01*
X166509523Y-87200000D01*
X166604761Y-87152380D01*
X166795238Y-87152380D01*
X166890476Y-87200000D01*
X166938095Y-87247619D01*
X166985714Y-87342857D01*
X166985714Y-87390476D01*
X166938095Y-87485714D01*
X166890476Y-87533333D01*
X166795238Y-87580952D01*
X166604761Y-87580952D01*
X166509523Y-87628571D01*
X166461904Y-87676190D01*
X166414285Y-87771428D01*
X166414285Y-87961904D01*
X166461904Y-88057142D01*
X166509523Y-88104761D01*
X166604761Y-88152380D01*
X166795238Y-88152380D01*
X166890476Y-88104761D01*
X166938095Y-88057142D01*
X166985714Y-87961904D01*
X166985714Y-87771428D01*
X166938095Y-87676190D01*
X166890476Y-87628571D01*
X166795238Y-87580952D01*
X135252380Y-74466666D02*
X134776190Y-74800000D01*
X135252380Y-75038095D02*
X134252380Y-75038095D01*
X134252380Y-74657142D01*
X134300000Y-74561904D01*
X134347619Y-74514285D01*
X134442857Y-74466666D01*
X134585714Y-74466666D01*
X134680952Y-74514285D01*
X134728571Y-74561904D01*
X134776190Y-74657142D01*
X134776190Y-75038095D01*
X135252380Y-73990476D02*
X135252380Y-73800000D01*
X135204761Y-73704761D01*
X135157142Y-73657142D01*
X135014285Y-73561904D01*
X134823809Y-73514285D01*
X134442857Y-73514285D01*
X134347619Y-73561904D01*
X134300000Y-73609523D01*
X134252380Y-73704761D01*
X134252380Y-73895238D01*
X134300000Y-73990476D01*
X134347619Y-74038095D01*
X134442857Y-74085714D01*
X134680952Y-74085714D01*
X134776190Y-74038095D01*
X134823809Y-73990476D01*
X134871428Y-73895238D01*
X134871428Y-73704761D01*
X134823809Y-73609523D01*
X134776190Y-73561904D01*
X134680952Y-73514285D01*
X138852380Y-76942857D02*
X138376190Y-77276190D01*
X138852380Y-77514285D02*
X137852380Y-77514285D01*
X137852380Y-77133333D01*
X137900000Y-77038095D01*
X137947619Y-76990476D01*
X138042857Y-76942857D01*
X138185714Y-76942857D01*
X138280952Y-76990476D01*
X138328571Y-77038095D01*
X138376190Y-77133333D01*
X138376190Y-77514285D01*
X138852380Y-75990476D02*
X138852380Y-76561904D01*
X138852380Y-76276190D02*
X137852380Y-76276190D01*
X137995238Y-76371428D01*
X138090476Y-76466666D01*
X138138095Y-76561904D01*
X137852380Y-75371428D02*
X137852380Y-75276190D01*
X137900000Y-75180952D01*
X137947619Y-75133333D01*
X138042857Y-75085714D01*
X138233333Y-75038095D01*
X138471428Y-75038095D01*
X138661904Y-75085714D01*
X138757142Y-75133333D01*
X138804761Y-75180952D01*
X138852380Y-75276190D01*
X138852380Y-75371428D01*
X138804761Y-75466666D01*
X138757142Y-75514285D01*
X138661904Y-75561904D01*
X138471428Y-75609523D01*
X138233333Y-75609523D01*
X138042857Y-75561904D01*
X137947619Y-75514285D01*
X137900000Y-75466666D01*
X137852380Y-75371428D01*
X141157142Y-97152380D02*
X140823809Y-96676190D01*
X140585714Y-97152380D02*
X140585714Y-96152380D01*
X140966666Y-96152380D01*
X141061904Y-96200000D01*
X141109523Y-96247619D01*
X141157142Y-96342857D01*
X141157142Y-96485714D01*
X141109523Y-96580952D01*
X141061904Y-96628571D01*
X140966666Y-96676190D01*
X140585714Y-96676190D01*
X142109523Y-97152380D02*
X141538095Y-97152380D01*
X141823809Y-97152380D02*
X141823809Y-96152380D01*
X141728571Y-96295238D01*
X141633333Y-96390476D01*
X141538095Y-96438095D01*
X143061904Y-97152380D02*
X142490476Y-97152380D01*
X142776190Y-97152380D02*
X142776190Y-96152380D01*
X142680952Y-96295238D01*
X142585714Y-96390476D01*
X142490476Y-96438095D01*
X133052380Y-91042857D02*
X132576190Y-91376190D01*
X133052380Y-91614285D02*
X132052380Y-91614285D01*
X132052380Y-91233333D01*
X132100000Y-91138095D01*
X132147619Y-91090476D01*
X132242857Y-91042857D01*
X132385714Y-91042857D01*
X132480952Y-91090476D01*
X132528571Y-91138095D01*
X132576190Y-91233333D01*
X132576190Y-91614285D01*
X133052380Y-90090476D02*
X133052380Y-90661904D01*
X133052380Y-90376190D02*
X132052380Y-90376190D01*
X132195238Y-90471428D01*
X132290476Y-90566666D01*
X132338095Y-90661904D01*
X132147619Y-89709523D02*
X132100000Y-89661904D01*
X132052380Y-89566666D01*
X132052380Y-89328571D01*
X132100000Y-89233333D01*
X132147619Y-89185714D01*
X132242857Y-89138095D01*
X132338095Y-89138095D01*
X132480952Y-89185714D01*
X133052380Y-89757142D01*
X133052380Y-89138095D01*
X134952380Y-89942857D02*
X134476190Y-90276190D01*
X134952380Y-90514285D02*
X133952380Y-90514285D01*
X133952380Y-90133333D01*
X134000000Y-90038095D01*
X134047619Y-89990476D01*
X134142857Y-89942857D01*
X134285714Y-89942857D01*
X134380952Y-89990476D01*
X134428571Y-90038095D01*
X134476190Y-90133333D01*
X134476190Y-90514285D01*
X134952380Y-88990476D02*
X134952380Y-89561904D01*
X134952380Y-89276190D02*
X133952380Y-89276190D01*
X134095238Y-89371428D01*
X134190476Y-89466666D01*
X134238095Y-89561904D01*
X133952380Y-88657142D02*
X133952380Y-88038095D01*
X134333333Y-88371428D01*
X134333333Y-88228571D01*
X134380952Y-88133333D01*
X134428571Y-88085714D01*
X134523809Y-88038095D01*
X134761904Y-88038095D01*
X134857142Y-88085714D01*
X134904761Y-88133333D01*
X134952380Y-88228571D01*
X134952380Y-88514285D01*
X134904761Y-88609523D01*
X134857142Y-88657142D01*
X148057142Y-99252380D02*
X147723809Y-98776190D01*
X147485714Y-99252380D02*
X147485714Y-98252380D01*
X147866666Y-98252380D01*
X147961904Y-98300000D01*
X148009523Y-98347619D01*
X148057142Y-98442857D01*
X148057142Y-98585714D01*
X148009523Y-98680952D01*
X147961904Y-98728571D01*
X147866666Y-98776190D01*
X147485714Y-98776190D01*
X149009523Y-99252380D02*
X148438095Y-99252380D01*
X148723809Y-99252380D02*
X148723809Y-98252380D01*
X148628571Y-98395238D01*
X148533333Y-98490476D01*
X148438095Y-98538095D01*
X149866666Y-98585714D02*
X149866666Y-99252380D01*
X149628571Y-98204761D02*
X149390476Y-98919047D01*
X150009523Y-98919047D01*
X144957142Y-99252380D02*
X144623809Y-98776190D01*
X144385714Y-99252380D02*
X144385714Y-98252380D01*
X144766666Y-98252380D01*
X144861904Y-98300000D01*
X144909523Y-98347619D01*
X144957142Y-98442857D01*
X144957142Y-98585714D01*
X144909523Y-98680952D01*
X144861904Y-98728571D01*
X144766666Y-98776190D01*
X144385714Y-98776190D01*
X145909523Y-99252380D02*
X145338095Y-99252380D01*
X145623809Y-99252380D02*
X145623809Y-98252380D01*
X145528571Y-98395238D01*
X145433333Y-98490476D01*
X145338095Y-98538095D01*
X146814285Y-98252380D02*
X146338095Y-98252380D01*
X146290476Y-98728571D01*
X146338095Y-98680952D01*
X146433333Y-98633333D01*
X146671428Y-98633333D01*
X146766666Y-98680952D01*
X146814285Y-98728571D01*
X146861904Y-98823809D01*
X146861904Y-99061904D01*
X146814285Y-99157142D01*
X146766666Y-99204761D01*
X146671428Y-99252380D01*
X146433333Y-99252380D01*
X146338095Y-99204761D01*
X146290476Y-99157142D01*
X140532142Y-89552380D02*
X140198809Y-89076190D01*
X139960714Y-89552380D02*
X139960714Y-88552380D01*
X140341666Y-88552380D01*
X140436904Y-88600000D01*
X140484523Y-88647619D01*
X140532142Y-88742857D01*
X140532142Y-88885714D01*
X140484523Y-88980952D01*
X140436904Y-89028571D01*
X140341666Y-89076190D01*
X139960714Y-89076190D01*
X141484523Y-89552380D02*
X140913095Y-89552380D01*
X141198809Y-89552380D02*
X141198809Y-88552380D01*
X141103571Y-88695238D01*
X141008333Y-88790476D01*
X140913095Y-88838095D01*
X142341666Y-88552380D02*
X142151190Y-88552380D01*
X142055952Y-88600000D01*
X142008333Y-88647619D01*
X141913095Y-88790476D01*
X141865476Y-88980952D01*
X141865476Y-89361904D01*
X141913095Y-89457142D01*
X141960714Y-89504761D01*
X142055952Y-89552380D01*
X142246428Y-89552380D01*
X142341666Y-89504761D01*
X142389285Y-89457142D01*
X142436904Y-89361904D01*
X142436904Y-89123809D01*
X142389285Y-89028571D01*
X142341666Y-88980952D01*
X142246428Y-88933333D01*
X142055952Y-88933333D01*
X141960714Y-88980952D01*
X141913095Y-89028571D01*
X141865476Y-89123809D01*
X136852380Y-89942857D02*
X136376190Y-90276190D01*
X136852380Y-90514285D02*
X135852380Y-90514285D01*
X135852380Y-90133333D01*
X135900000Y-90038095D01*
X135947619Y-89990476D01*
X136042857Y-89942857D01*
X136185714Y-89942857D01*
X136280952Y-89990476D01*
X136328571Y-90038095D01*
X136376190Y-90133333D01*
X136376190Y-90514285D01*
X136852380Y-88990476D02*
X136852380Y-89561904D01*
X136852380Y-89276190D02*
X135852380Y-89276190D01*
X135995238Y-89371428D01*
X136090476Y-89466666D01*
X136138095Y-89561904D01*
X135852380Y-88657142D02*
X135852380Y-87990476D01*
X136852380Y-88419047D01*
X133052380Y-95742857D02*
X132576190Y-96076190D01*
X133052380Y-96314285D02*
X132052380Y-96314285D01*
X132052380Y-95933333D01*
X132100000Y-95838095D01*
X132147619Y-95790476D01*
X132242857Y-95742857D01*
X132385714Y-95742857D01*
X132480952Y-95790476D01*
X132528571Y-95838095D01*
X132576190Y-95933333D01*
X132576190Y-96314285D01*
X133052380Y-94790476D02*
X133052380Y-95361904D01*
X133052380Y-95076190D02*
X132052380Y-95076190D01*
X132195238Y-95171428D01*
X132290476Y-95266666D01*
X132338095Y-95361904D01*
X132480952Y-94219047D02*
X132433333Y-94314285D01*
X132385714Y-94361904D01*
X132290476Y-94409523D01*
X132242857Y-94409523D01*
X132147619Y-94361904D01*
X132100000Y-94314285D01*
X132052380Y-94219047D01*
X132052380Y-94028571D01*
X132100000Y-93933333D01*
X132147619Y-93885714D01*
X132242857Y-93838095D01*
X132290476Y-93838095D01*
X132385714Y-93885714D01*
X132433333Y-93933333D01*
X132480952Y-94028571D01*
X132480952Y-94219047D01*
X132528571Y-94314285D01*
X132576190Y-94361904D01*
X132671428Y-94409523D01*
X132861904Y-94409523D01*
X132957142Y-94361904D01*
X133004761Y-94314285D01*
X133052380Y-94219047D01*
X133052380Y-94028571D01*
X133004761Y-93933333D01*
X132957142Y-93885714D01*
X132861904Y-93838095D01*
X132671428Y-93838095D01*
X132576190Y-93885714D01*
X132528571Y-93933333D01*
X132480952Y-94028571D01*
X138652380Y-97142857D02*
X138176190Y-97476190D01*
X138652380Y-97714285D02*
X137652380Y-97714285D01*
X137652380Y-97333333D01*
X137700000Y-97238095D01*
X137747619Y-97190476D01*
X137842857Y-97142857D01*
X137985714Y-97142857D01*
X138080952Y-97190476D01*
X138128571Y-97238095D01*
X138176190Y-97333333D01*
X138176190Y-97714285D01*
X138652380Y-96190476D02*
X138652380Y-96761904D01*
X138652380Y-96476190D02*
X137652380Y-96476190D01*
X137795238Y-96571428D01*
X137890476Y-96666666D01*
X137938095Y-96761904D01*
X138652380Y-95714285D02*
X138652380Y-95523809D01*
X138604761Y-95428571D01*
X138557142Y-95380952D01*
X138414285Y-95285714D01*
X138223809Y-95238095D01*
X137842857Y-95238095D01*
X137747619Y-95285714D01*
X137700000Y-95333333D01*
X137652380Y-95428571D01*
X137652380Y-95619047D01*
X137700000Y-95714285D01*
X137747619Y-95761904D01*
X137842857Y-95809523D01*
X138080952Y-95809523D01*
X138176190Y-95761904D01*
X138223809Y-95714285D01*
X138271428Y-95619047D01*
X138271428Y-95428571D01*
X138223809Y-95333333D01*
X138176190Y-95285714D01*
X138080952Y-95238095D01*
X140552380Y-97142857D02*
X140076190Y-97476190D01*
X140552380Y-97714285D02*
X139552380Y-97714285D01*
X139552380Y-97333333D01*
X139600000Y-97238095D01*
X139647619Y-97190476D01*
X139742857Y-97142857D01*
X139885714Y-97142857D01*
X139980952Y-97190476D01*
X140028571Y-97238095D01*
X140076190Y-97333333D01*
X140076190Y-97714285D01*
X139647619Y-96761904D02*
X139600000Y-96714285D01*
X139552380Y-96619047D01*
X139552380Y-96380952D01*
X139600000Y-96285714D01*
X139647619Y-96238095D01*
X139742857Y-96190476D01*
X139838095Y-96190476D01*
X139980952Y-96238095D01*
X140552380Y-96809523D01*
X140552380Y-96190476D01*
X139552380Y-95571428D02*
X139552380Y-95476190D01*
X139600000Y-95380952D01*
X139647619Y-95333333D01*
X139742857Y-95285714D01*
X139933333Y-95238095D01*
X140171428Y-95238095D01*
X140361904Y-95285714D01*
X140457142Y-95333333D01*
X140504761Y-95380952D01*
X140552380Y-95476190D01*
X140552380Y-95571428D01*
X140504761Y-95666666D01*
X140457142Y-95714285D01*
X140361904Y-95761904D01*
X140171428Y-95809523D01*
X139933333Y-95809523D01*
X139742857Y-95761904D01*
X139647619Y-95714285D01*
X139600000Y-95666666D01*
X139552380Y-95571428D01*
X150352380Y-95442857D02*
X149876190Y-95776190D01*
X150352380Y-96014285D02*
X149352380Y-96014285D01*
X149352380Y-95633333D01*
X149400000Y-95538095D01*
X149447619Y-95490476D01*
X149542857Y-95442857D01*
X149685714Y-95442857D01*
X149780952Y-95490476D01*
X149828571Y-95538095D01*
X149876190Y-95633333D01*
X149876190Y-96014285D01*
X149447619Y-95061904D02*
X149400000Y-95014285D01*
X149352380Y-94919047D01*
X149352380Y-94680952D01*
X149400000Y-94585714D01*
X149447619Y-94538095D01*
X149542857Y-94490476D01*
X149638095Y-94490476D01*
X149780952Y-94538095D01*
X150352380Y-95109523D01*
X150352380Y-94490476D01*
X150352380Y-93538095D02*
X150352380Y-94109523D01*
X150352380Y-93823809D02*
X149352380Y-93823809D01*
X149495238Y-93919047D01*
X149590476Y-94014285D01*
X149638095Y-94109523D01*
X143357142Y-89552380D02*
X143023809Y-89076190D01*
X142785714Y-89552380D02*
X142785714Y-88552380D01*
X143166666Y-88552380D01*
X143261904Y-88600000D01*
X143309523Y-88647619D01*
X143357142Y-88742857D01*
X143357142Y-88885714D01*
X143309523Y-88980952D01*
X143261904Y-89028571D01*
X143166666Y-89076190D01*
X142785714Y-89076190D01*
X143738095Y-88647619D02*
X143785714Y-88600000D01*
X143880952Y-88552380D01*
X144119047Y-88552380D01*
X144214285Y-88600000D01*
X144261904Y-88647619D01*
X144309523Y-88742857D01*
X144309523Y-88838095D01*
X144261904Y-88980952D01*
X143690476Y-89552380D01*
X144309523Y-89552380D01*
X144690476Y-88647619D02*
X144738095Y-88600000D01*
X144833333Y-88552380D01*
X145071428Y-88552380D01*
X145166666Y-88600000D01*
X145214285Y-88647619D01*
X145261904Y-88742857D01*
X145261904Y-88838095D01*
X145214285Y-88980952D01*
X144642857Y-89552380D01*
X145261904Y-89552380D01*
X154057142Y-86952380D02*
X153723809Y-86476190D01*
X153485714Y-86952380D02*
X153485714Y-85952380D01*
X153866666Y-85952380D01*
X153961904Y-86000000D01*
X154009523Y-86047619D01*
X154057142Y-86142857D01*
X154057142Y-86285714D01*
X154009523Y-86380952D01*
X153961904Y-86428571D01*
X153866666Y-86476190D01*
X153485714Y-86476190D01*
X154438095Y-86047619D02*
X154485714Y-86000000D01*
X154580952Y-85952380D01*
X154819047Y-85952380D01*
X154914285Y-86000000D01*
X154961904Y-86047619D01*
X155009523Y-86142857D01*
X155009523Y-86238095D01*
X154961904Y-86380952D01*
X154390476Y-86952380D01*
X155009523Y-86952380D01*
X155342857Y-85952380D02*
X155961904Y-85952380D01*
X155628571Y-86333333D01*
X155771428Y-86333333D01*
X155866666Y-86380952D01*
X155914285Y-86428571D01*
X155961904Y-86523809D01*
X155961904Y-86761904D01*
X155914285Y-86857142D01*
X155866666Y-86904761D01*
X155771428Y-86952380D01*
X155485714Y-86952380D01*
X155390476Y-86904761D01*
X155342857Y-86857142D01*
X130257142Y-94752380D02*
X129923809Y-94276190D01*
X129685714Y-94752380D02*
X129685714Y-93752380D01*
X130066666Y-93752380D01*
X130161904Y-93800000D01*
X130209523Y-93847619D01*
X130257142Y-93942857D01*
X130257142Y-94085714D01*
X130209523Y-94180952D01*
X130161904Y-94228571D01*
X130066666Y-94276190D01*
X129685714Y-94276190D01*
X130638095Y-93847619D02*
X130685714Y-93800000D01*
X130780952Y-93752380D01*
X131019047Y-93752380D01*
X131114285Y-93800000D01*
X131161904Y-93847619D01*
X131209523Y-93942857D01*
X131209523Y-94038095D01*
X131161904Y-94180952D01*
X130590476Y-94752380D01*
X131209523Y-94752380D01*
X132066666Y-94085714D02*
X132066666Y-94752380D01*
X131828571Y-93704761D02*
X131590476Y-94419047D01*
X132209523Y-94419047D01*
X139238095Y-71552380D02*
X139238095Y-72361904D01*
X139285714Y-72457142D01*
X139333333Y-72504761D01*
X139428571Y-72552380D01*
X139619047Y-72552380D01*
X139714285Y-72504761D01*
X139761904Y-72457142D01*
X139809523Y-72361904D01*
X139809523Y-71552380D01*
X140238095Y-71647619D02*
X140285714Y-71600000D01*
X140380952Y-71552380D01*
X140619047Y-71552380D01*
X140714285Y-71600000D01*
X140761904Y-71647619D01*
X140809523Y-71742857D01*
X140809523Y-71838095D01*
X140761904Y-71980952D01*
X140190476Y-72552380D01*
X140809523Y-72552380D01*
X134438095Y-88552380D02*
X134438095Y-89361904D01*
X134485714Y-89457142D01*
X134533333Y-89504761D01*
X134628571Y-89552380D01*
X134819047Y-89552380D01*
X134914285Y-89504761D01*
X134961904Y-89457142D01*
X135009523Y-89361904D01*
X135009523Y-88552380D01*
X135914285Y-88885714D02*
X135914285Y-89552380D01*
X135676190Y-88504761D02*
X135438095Y-89219047D01*
X136057142Y-89219047D01*
X145938095Y-87152380D02*
X145938095Y-87961904D01*
X145985714Y-88057142D01*
X146033333Y-88104761D01*
X146128571Y-88152380D01*
X146319047Y-88152380D01*
X146414285Y-88104761D01*
X146461904Y-88057142D01*
X146509523Y-87961904D01*
X146509523Y-87152380D01*
X147461904Y-87152380D02*
X146985714Y-87152380D01*
X146938095Y-87628571D01*
X146985714Y-87580952D01*
X147080952Y-87533333D01*
X147319047Y-87533333D01*
X147414285Y-87580952D01*
X147461904Y-87628571D01*
X147509523Y-87723809D01*
X147509523Y-87961904D01*
X147461904Y-88057142D01*
X147414285Y-88104761D01*
X147319047Y-88152380D01*
X147080952Y-88152380D01*
X146985714Y-88104761D01*
X146938095Y-88057142D01*
X134602380Y-93761904D02*
X135411904Y-93761904D01*
X135507142Y-93714285D01*
X135554761Y-93666666D01*
X135602380Y-93571428D01*
X135602380Y-93380952D01*
X135554761Y-93285714D01*
X135507142Y-93238095D01*
X135411904Y-93190476D01*
X134602380Y-93190476D01*
X134602380Y-92285714D02*
X134602380Y-92476190D01*
X134650000Y-92571428D01*
X134697619Y-92619047D01*
X134840476Y-92714285D01*
X135030952Y-92761904D01*
X135411904Y-92761904D01*
X135507142Y-92714285D01*
X135554761Y-92666666D01*
X135602380Y-92571428D01*
X135602380Y-92380952D01*
X135554761Y-92285714D01*
X135507142Y-92238095D01*
X135411904Y-92190476D01*
X135173809Y-92190476D01*
X135078571Y-92238095D01*
X135030952Y-92285714D01*
X134983333Y-92380952D01*
X134983333Y-92571428D01*
X135030952Y-92666666D01*
X135078571Y-92714285D01*
X135173809Y-92761904D01*
X124752380Y-93761904D02*
X125561904Y-93761904D01*
X125657142Y-93714285D01*
X125704761Y-93666666D01*
X125752380Y-93571428D01*
X125752380Y-93380952D01*
X125704761Y-93285714D01*
X125657142Y-93238095D01*
X125561904Y-93190476D01*
X124752380Y-93190476D01*
X124752380Y-92809523D02*
X124752380Y-92142857D01*
X125752380Y-92571428D01*
X143238095Y-82902380D02*
X143238095Y-83711904D01*
X143285714Y-83807142D01*
X143333333Y-83854761D01*
X143428571Y-83902380D01*
X143619047Y-83902380D01*
X143714285Y-83854761D01*
X143761904Y-83807142D01*
X143809523Y-83711904D01*
X143809523Y-82902380D01*
X144428571Y-83330952D02*
X144333333Y-83283333D01*
X144285714Y-83235714D01*
X144238095Y-83140476D01*
X144238095Y-83092857D01*
X144285714Y-82997619D01*
X144333333Y-82950000D01*
X144428571Y-82902380D01*
X144619047Y-82902380D01*
X144714285Y-82950000D01*
X144761904Y-82997619D01*
X144809523Y-83092857D01*
X144809523Y-83140476D01*
X144761904Y-83235714D01*
X144714285Y-83283333D01*
X144619047Y-83330952D01*
X144428571Y-83330952D01*
X144333333Y-83378571D01*
X144285714Y-83426190D01*
X144238095Y-83521428D01*
X144238095Y-83711904D01*
X144285714Y-83807142D01*
X144333333Y-83854761D01*
X144428571Y-83902380D01*
X144619047Y-83902380D01*
X144714285Y-83854761D01*
X144761904Y-83807142D01*
X144809523Y-83711904D01*
X144809523Y-83521428D01*
X144761904Y-83426190D01*
X144714285Y-83378571D01*
X144619047Y-83330952D01*
X130238095Y-76352380D02*
X130238095Y-77161904D01*
X130285714Y-77257142D01*
X130333333Y-77304761D01*
X130428571Y-77352380D01*
X130619047Y-77352380D01*
X130714285Y-77304761D01*
X130761904Y-77257142D01*
X130809523Y-77161904D01*
X130809523Y-76352380D01*
X131333333Y-77352380D02*
X131523809Y-77352380D01*
X131619047Y-77304761D01*
X131666666Y-77257142D01*
X131761904Y-77114285D01*
X131809523Y-76923809D01*
X131809523Y-76542857D01*
X131761904Y-76447619D01*
X131714285Y-76400000D01*
X131619047Y-76352380D01*
X131428571Y-76352380D01*
X131333333Y-76400000D01*
X131285714Y-76447619D01*
X131238095Y-76542857D01*
X131238095Y-76780952D01*
X131285714Y-76876190D01*
X131333333Y-76923809D01*
X131428571Y-76971428D01*
X131619047Y-76971428D01*
X131714285Y-76923809D01*
X131761904Y-76876190D01*
X131809523Y-76780952D01*
X157561904Y-91990476D02*
X158209523Y-91990476D01*
X158285714Y-91952380D01*
X158323809Y-91914285D01*
X158361904Y-91838095D01*
X158361904Y-91685714D01*
X158323809Y-91609523D01*
X158285714Y-91571428D01*
X158209523Y-91533333D01*
X157561904Y-91533333D01*
X158361904Y-90733333D02*
X158361904Y-91190476D01*
X158361904Y-90961904D02*
X157561904Y-90961904D01*
X157676190Y-91038095D01*
X157752380Y-91114285D01*
X157790476Y-91190476D01*
X157561904Y-90238095D02*
X157561904Y-90161904D01*
X157600000Y-90085714D01*
X157638095Y-90047619D01*
X157714285Y-90009523D01*
X157866666Y-89971428D01*
X158057142Y-89971428D01*
X158209523Y-90009523D01*
X158285714Y-90047619D01*
X158323809Y-90085714D01*
X158361904Y-90161904D01*
X158361904Y-90238095D01*
X158323809Y-90314285D01*
X158285714Y-90352380D01*
X158209523Y-90390476D01*
X158057142Y-90428571D01*
X157866666Y-90428571D01*
X157714285Y-90390476D01*
X157638095Y-90352380D01*
X157600000Y-90314285D01*
X157561904Y-90238095D01*
X129761904Y-89602380D02*
X129761904Y-90411904D01*
X129809523Y-90507142D01*
X129857142Y-90554761D01*
X129952380Y-90602380D01*
X130142857Y-90602380D01*
X130238095Y-90554761D01*
X130285714Y-90507142D01*
X130333333Y-90411904D01*
X130333333Y-89602380D01*
X131333333Y-90602380D02*
X130761904Y-90602380D01*
X131047619Y-90602380D02*
X131047619Y-89602380D01*
X130952380Y-89745238D01*
X130857142Y-89840476D01*
X130761904Y-89888095D01*
X132285714Y-90602380D02*
X131714285Y-90602380D01*
X132000000Y-90602380D02*
X132000000Y-89602380D01*
X131904761Y-89745238D01*
X131809523Y-89840476D01*
X131714285Y-89888095D01*
X150215476Y-81102380D02*
X150882142Y-82102380D01*
X150882142Y-81102380D02*
X150215476Y-82102380D01*
X151215476Y-81197619D02*
X151263095Y-81150000D01*
X151358333Y-81102380D01*
X151596428Y-81102380D01*
X151691666Y-81150000D01*
X151739285Y-81197619D01*
X151786904Y-81292857D01*
X151786904Y-81388095D01*
X151739285Y-81530952D01*
X151167857Y-82102380D01*
X151786904Y-82102380D01*
X142152380Y-105738095D02*
X141152380Y-105738095D01*
X141152380Y-105500000D01*
X141200000Y-105357142D01*
X141295238Y-105261904D01*
X141390476Y-105214285D01*
X141580952Y-105166666D01*
X141723809Y-105166666D01*
X141914285Y-105214285D01*
X142009523Y-105261904D01*
X142104761Y-105357142D01*
X142152380Y-105500000D01*
X142152380Y-105738095D01*
X142152380Y-104214285D02*
X142152380Y-104785714D01*
X142152380Y-104500000D02*
X141152380Y-104500000D01*
X141295238Y-104595238D01*
X141390476Y-104690476D01*
X141438095Y-104785714D01*
X119261904Y-87152380D02*
X119261904Y-86152380D01*
X119500000Y-86152380D01*
X119642857Y-86200000D01*
X119738095Y-86295238D01*
X119785714Y-86390476D01*
X119833333Y-86580952D01*
X119833333Y-86723809D01*
X119785714Y-86914285D01*
X119738095Y-87009523D01*
X119642857Y-87104761D01*
X119500000Y-87152380D01*
X119261904Y-87152380D01*
X120214285Y-86247619D02*
X120261904Y-86200000D01*
X120357142Y-86152380D01*
X120595238Y-86152380D01*
X120690476Y-86200000D01*
X120738095Y-86247619D01*
X120785714Y-86342857D01*
X120785714Y-86438095D01*
X120738095Y-86580952D01*
X120166666Y-87152380D01*
X120785714Y-87152380D01*
X138752380Y-65738095D02*
X137752380Y-65738095D01*
X137752380Y-65500000D01*
X137800000Y-65357142D01*
X137895238Y-65261904D01*
X137990476Y-65214285D01*
X138180952Y-65166666D01*
X138323809Y-65166666D01*
X138514285Y-65214285D01*
X138609523Y-65261904D01*
X138704761Y-65357142D01*
X138752380Y-65500000D01*
X138752380Y-65738095D01*
X137752380Y-64833333D02*
X137752380Y-64214285D01*
X138133333Y-64547619D01*
X138133333Y-64404761D01*
X138180952Y-64309523D01*
X138228571Y-64261904D01*
X138323809Y-64214285D01*
X138561904Y-64214285D01*
X138657142Y-64261904D01*
X138704761Y-64309523D01*
X138752380Y-64404761D01*
X138752380Y-64690476D01*
X138704761Y-64785714D01*
X138657142Y-64833333D01*
X159261904Y-83752380D02*
X159261904Y-82752380D01*
X159500000Y-82752380D01*
X159642857Y-82800000D01*
X159738095Y-82895238D01*
X159785714Y-82990476D01*
X159833333Y-83180952D01*
X159833333Y-83323809D01*
X159785714Y-83514285D01*
X159738095Y-83609523D01*
X159642857Y-83704761D01*
X159500000Y-83752380D01*
X159261904Y-83752380D01*
X160690476Y-83085714D02*
X160690476Y-83752380D01*
X160452380Y-82704761D02*
X160214285Y-83419047D01*
X160833333Y-83419047D01*
X132052380Y-83966666D02*
X132052380Y-84442857D01*
X131052380Y-84442857D01*
X132052380Y-83109523D02*
X132052380Y-83680952D01*
X132052380Y-83395238D02*
X131052380Y-83395238D01*
X131195238Y-83490476D01*
X131290476Y-83585714D01*
X131338095Y-83680952D01*
X132802380Y-103766666D02*
X132802380Y-104242857D01*
X131802380Y-104242857D01*
X131897619Y-103480952D02*
X131850000Y-103433333D01*
X131802380Y-103338095D01*
X131802380Y-103100000D01*
X131850000Y-103004761D01*
X131897619Y-102957142D01*
X131992857Y-102909523D01*
X132088095Y-102909523D01*
X132230952Y-102957142D01*
X132802380Y-103528571D01*
X132802380Y-102909523D01*
X128102380Y-103766666D02*
X128102380Y-104242857D01*
X127102380Y-104242857D01*
X127102380Y-103528571D02*
X127102380Y-102909523D01*
X127483333Y-103242857D01*
X127483333Y-103100000D01*
X127530952Y-103004761D01*
X127578571Y-102957142D01*
X127673809Y-102909523D01*
X127911904Y-102909523D01*
X128007142Y-102957142D01*
X128054761Y-103004761D01*
X128102380Y-103100000D01*
X128102380Y-103385714D01*
X128054761Y-103480952D01*
X128007142Y-103528571D01*
X154173856Y-101259474D02*
X154308543Y-101192131D01*
X154476902Y-101023772D01*
X154510574Y-100922757D01*
X154510574Y-100855413D01*
X154476902Y-100754398D01*
X154409559Y-100687055D01*
X154308543Y-100653383D01*
X154241200Y-100653383D01*
X154140185Y-100687055D01*
X153971826Y-100788070D01*
X153870811Y-100821742D01*
X153803467Y-100821742D01*
X153702452Y-100788070D01*
X153635108Y-100720726D01*
X153601437Y-100619711D01*
X153601437Y-100552368D01*
X153635108Y-100451352D01*
X153803467Y-100282994D01*
X153938154Y-100215650D01*
X154140185Y-99946276D02*
X155015650Y-100485024D01*
X154645261Y-99845261D01*
X155285024Y-100215650D01*
X154746276Y-99340185D01*
X156093146Y-99407528D02*
X155689085Y-99811589D01*
X155891116Y-99609559D02*
X155184009Y-98902452D01*
X155217681Y-99070811D01*
X155217681Y-99205498D01*
X155184009Y-99306513D01*
X124999010Y-107149941D02*
X125571430Y-107722361D01*
X125672445Y-107756032D01*
X125739788Y-107756032D01*
X125840804Y-107722361D01*
X125975491Y-107587674D01*
X126009162Y-107486658D01*
X126009162Y-107419315D01*
X125975491Y-107318300D01*
X125403071Y-106745880D01*
X126817284Y-106745880D02*
X126413223Y-107149941D01*
X126615254Y-106947910D02*
X125908147Y-106240804D01*
X125941819Y-106409162D01*
X125941819Y-106543849D01*
X125908147Y-106644865D01*
X126446895Y-105836743D02*
X126446895Y-105769399D01*
X126480567Y-105668384D01*
X126648926Y-105500025D01*
X126749941Y-105466353D01*
X126817284Y-105466353D01*
X126918300Y-105500025D01*
X126985643Y-105567369D01*
X127052987Y-105702056D01*
X127052987Y-106510178D01*
X127490719Y-106072445D01*
X135952380Y-108642857D02*
X135476190Y-108976190D01*
X135952380Y-109214285D02*
X134952380Y-109214285D01*
X134952380Y-108833333D01*
X135000000Y-108738095D01*
X135047619Y-108690476D01*
X135142857Y-108642857D01*
X135285714Y-108642857D01*
X135380952Y-108690476D01*
X135428571Y-108738095D01*
X135476190Y-108833333D01*
X135476190Y-109214285D01*
X135047619Y-108261904D02*
X135000000Y-108214285D01*
X134952380Y-108119047D01*
X134952380Y-107880952D01*
X135000000Y-107785714D01*
X135047619Y-107738095D01*
X135142857Y-107690476D01*
X135238095Y-107690476D01*
X135380952Y-107738095D01*
X135952380Y-108309523D01*
X135952380Y-107690476D01*
X134952380Y-106785714D02*
X134952380Y-107261904D01*
X135428571Y-107309523D01*
X135380952Y-107261904D01*
X135333333Y-107166666D01*
X135333333Y-106928571D01*
X135380952Y-106833333D01*
X135428571Y-106785714D01*
X135523809Y-106738095D01*
X135761904Y-106738095D01*
X135857142Y-106785714D01*
X135904761Y-106833333D01*
X135952380Y-106928571D01*
X135952380Y-107166666D01*
X135904761Y-107261904D01*
X135857142Y-107309523D01*
X116257142Y-81052380D02*
X115923809Y-80576190D01*
X115685714Y-81052380D02*
X115685714Y-80052380D01*
X116066666Y-80052380D01*
X116161904Y-80100000D01*
X116209523Y-80147619D01*
X116257142Y-80242857D01*
X116257142Y-80385714D01*
X116209523Y-80480952D01*
X116161904Y-80528571D01*
X116066666Y-80576190D01*
X115685714Y-80576190D01*
X116638095Y-80147619D02*
X116685714Y-80100000D01*
X116780952Y-80052380D01*
X117019047Y-80052380D01*
X117114285Y-80100000D01*
X117161904Y-80147619D01*
X117209523Y-80242857D01*
X117209523Y-80338095D01*
X117161904Y-80480952D01*
X116590476Y-81052380D01*
X117209523Y-81052380D01*
X118066666Y-80052380D02*
X117876190Y-80052380D01*
X117780952Y-80100000D01*
X117733333Y-80147619D01*
X117638095Y-80290476D01*
X117590476Y-80480952D01*
X117590476Y-80861904D01*
X117638095Y-80957142D01*
X117685714Y-81004761D01*
X117780952Y-81052380D01*
X117971428Y-81052380D01*
X118066666Y-81004761D01*
X118114285Y-80957142D01*
X118161904Y-80861904D01*
X118161904Y-80623809D01*
X118114285Y-80528571D01*
X118066666Y-80480952D01*
X117971428Y-80433333D01*
X117780952Y-80433333D01*
X117685714Y-80480952D01*
X117638095Y-80528571D01*
X117590476Y-80623809D01*
X144852380Y-62542857D02*
X144376190Y-62876190D01*
X144852380Y-63114285D02*
X143852380Y-63114285D01*
X143852380Y-62733333D01*
X143900000Y-62638095D01*
X143947619Y-62590476D01*
X144042857Y-62542857D01*
X144185714Y-62542857D01*
X144280952Y-62590476D01*
X144328571Y-62638095D01*
X144376190Y-62733333D01*
X144376190Y-63114285D01*
X143947619Y-62161904D02*
X143900000Y-62114285D01*
X143852380Y-62019047D01*
X143852380Y-61780952D01*
X143900000Y-61685714D01*
X143947619Y-61638095D01*
X144042857Y-61590476D01*
X144138095Y-61590476D01*
X144280952Y-61638095D01*
X144852380Y-62209523D01*
X144852380Y-61590476D01*
X143852380Y-61257142D02*
X143852380Y-60590476D01*
X144852380Y-61019047D01*
X161507142Y-86252380D02*
X161173809Y-85776190D01*
X160935714Y-86252380D02*
X160935714Y-85252380D01*
X161316666Y-85252380D01*
X161411904Y-85300000D01*
X161459523Y-85347619D01*
X161507142Y-85442857D01*
X161507142Y-85585714D01*
X161459523Y-85680952D01*
X161411904Y-85728571D01*
X161316666Y-85776190D01*
X160935714Y-85776190D01*
X161888095Y-85347619D02*
X161935714Y-85300000D01*
X162030952Y-85252380D01*
X162269047Y-85252380D01*
X162364285Y-85300000D01*
X162411904Y-85347619D01*
X162459523Y-85442857D01*
X162459523Y-85538095D01*
X162411904Y-85680952D01*
X161840476Y-86252380D01*
X162459523Y-86252380D01*
X163030952Y-85680952D02*
X162935714Y-85633333D01*
X162888095Y-85585714D01*
X162840476Y-85490476D01*
X162840476Y-85442857D01*
X162888095Y-85347619D01*
X162935714Y-85300000D01*
X163030952Y-85252380D01*
X163221428Y-85252380D01*
X163316666Y-85300000D01*
X163364285Y-85347619D01*
X163411904Y-85442857D01*
X163411904Y-85490476D01*
X163364285Y-85585714D01*
X163316666Y-85633333D01*
X163221428Y-85680952D01*
X163030952Y-85680952D01*
X162935714Y-85728571D01*
X162888095Y-85776190D01*
X162840476Y-85871428D01*
X162840476Y-86061904D01*
X162888095Y-86157142D01*
X162935714Y-86204761D01*
X163030952Y-86252380D01*
X163221428Y-86252380D01*
X163316666Y-86204761D01*
X163364285Y-86157142D01*
X163411904Y-86061904D01*
X163411904Y-85871428D01*
X163364285Y-85776190D01*
X163316666Y-85728571D01*
X163221428Y-85680952D01*
X134352380Y-108242857D02*
X133876190Y-108576190D01*
X134352380Y-108814285D02*
X133352380Y-108814285D01*
X133352380Y-108433333D01*
X133400000Y-108338095D01*
X133447619Y-108290476D01*
X133542857Y-108242857D01*
X133685714Y-108242857D01*
X133780952Y-108290476D01*
X133828571Y-108338095D01*
X133876190Y-108433333D01*
X133876190Y-108814285D01*
X133447619Y-107861904D02*
X133400000Y-107814285D01*
X133352380Y-107719047D01*
X133352380Y-107480952D01*
X133400000Y-107385714D01*
X133447619Y-107338095D01*
X133542857Y-107290476D01*
X133638095Y-107290476D01*
X133780952Y-107338095D01*
X134352380Y-107909523D01*
X134352380Y-107290476D01*
X134352380Y-106814285D02*
X134352380Y-106623809D01*
X134304761Y-106528571D01*
X134257142Y-106480952D01*
X134114285Y-106385714D01*
X133923809Y-106338095D01*
X133542857Y-106338095D01*
X133447619Y-106385714D01*
X133400000Y-106433333D01*
X133352380Y-106528571D01*
X133352380Y-106719047D01*
X133400000Y-106814285D01*
X133447619Y-106861904D01*
X133542857Y-106909523D01*
X133780952Y-106909523D01*
X133876190Y-106861904D01*
X133923809Y-106814285D01*
X133971428Y-106719047D01*
X133971428Y-106528571D01*
X133923809Y-106433333D01*
X133876190Y-106385714D01*
X133780952Y-106338095D01*
X119857142Y-81952380D02*
X119523809Y-81476190D01*
X119285714Y-81952380D02*
X119285714Y-80952380D01*
X119666666Y-80952380D01*
X119761904Y-81000000D01*
X119809523Y-81047619D01*
X119857142Y-81142857D01*
X119857142Y-81285714D01*
X119809523Y-81380952D01*
X119761904Y-81428571D01*
X119666666Y-81476190D01*
X119285714Y-81476190D01*
X120190476Y-80952380D02*
X120809523Y-80952380D01*
X120476190Y-81333333D01*
X120619047Y-81333333D01*
X120714285Y-81380952D01*
X120761904Y-81428571D01*
X120809523Y-81523809D01*
X120809523Y-81761904D01*
X120761904Y-81857142D01*
X120714285Y-81904761D01*
X120619047Y-81952380D01*
X120333333Y-81952380D01*
X120238095Y-81904761D01*
X120190476Y-81857142D01*
X121428571Y-80952380D02*
X121523809Y-80952380D01*
X121619047Y-81000000D01*
X121666666Y-81047619D01*
X121714285Y-81142857D01*
X121761904Y-81333333D01*
X121761904Y-81571428D01*
X121714285Y-81761904D01*
X121666666Y-81857142D01*
X121619047Y-81904761D01*
X121523809Y-81952380D01*
X121428571Y-81952380D01*
X121333333Y-81904761D01*
X121285714Y-81857142D01*
X121238095Y-81761904D01*
X121190476Y-81571428D01*
X121190476Y-81333333D01*
X121238095Y-81142857D01*
X121285714Y-81047619D01*
X121333333Y-81000000D01*
X121428571Y-80952380D01*
X146352380Y-63242857D02*
X145876190Y-63576190D01*
X146352380Y-63814285D02*
X145352380Y-63814285D01*
X145352380Y-63433333D01*
X145400000Y-63338095D01*
X145447619Y-63290476D01*
X145542857Y-63242857D01*
X145685714Y-63242857D01*
X145780952Y-63290476D01*
X145828571Y-63338095D01*
X145876190Y-63433333D01*
X145876190Y-63814285D01*
X145352380Y-62909523D02*
X145352380Y-62290476D01*
X145733333Y-62623809D01*
X145733333Y-62480952D01*
X145780952Y-62385714D01*
X145828571Y-62338095D01*
X145923809Y-62290476D01*
X146161904Y-62290476D01*
X146257142Y-62338095D01*
X146304761Y-62385714D01*
X146352380Y-62480952D01*
X146352380Y-62766666D01*
X146304761Y-62861904D01*
X146257142Y-62909523D01*
X146352380Y-61338095D02*
X146352380Y-61909523D01*
X146352380Y-61623809D02*
X145352380Y-61623809D01*
X145495238Y-61719047D01*
X145590476Y-61814285D01*
X145638095Y-61909523D01*
X159307142Y-89102380D02*
X158973809Y-88626190D01*
X158735714Y-89102380D02*
X158735714Y-88102380D01*
X159116666Y-88102380D01*
X159211904Y-88150000D01*
X159259523Y-88197619D01*
X159307142Y-88292857D01*
X159307142Y-88435714D01*
X159259523Y-88530952D01*
X159211904Y-88578571D01*
X159116666Y-88626190D01*
X158735714Y-88626190D01*
X159640476Y-88102380D02*
X160259523Y-88102380D01*
X159926190Y-88483333D01*
X160069047Y-88483333D01*
X160164285Y-88530952D01*
X160211904Y-88578571D01*
X160259523Y-88673809D01*
X160259523Y-88911904D01*
X160211904Y-89007142D01*
X160164285Y-89054761D01*
X160069047Y-89102380D01*
X159783333Y-89102380D01*
X159688095Y-89054761D01*
X159640476Y-89007142D01*
X160640476Y-88197619D02*
X160688095Y-88150000D01*
X160783333Y-88102380D01*
X161021428Y-88102380D01*
X161116666Y-88150000D01*
X161164285Y-88197619D01*
X161211904Y-88292857D01*
X161211904Y-88388095D01*
X161164285Y-88530952D01*
X160592857Y-89102380D01*
X161211904Y-89102380D01*
M02*
