G04 #@! TF.GenerationSoftware,KiCad,Pcbnew,5.0-dev-unknown-28f1209~61~ubuntu16.04.1*
G04 #@! TF.CreationDate,2018-02-18T17:05:59+01:00*
G04 #@! TF.ProjectId,roboy_crazyfly,726F626F795F6372617A79666C792E6B,rev?*
G04 #@! TF.SameCoordinates,Original*
G04 #@! TF.FileFunction,Paste,Bot*
G04 #@! TF.FilePolarity,Positive*
%FSLAX46Y46*%
G04 Gerber Fmt 4.6, Leading zero omitted, Abs format (unit mm)*
G04 Created by KiCad (PCBNEW 5.0-dev-unknown-28f1209~61~ubuntu16.04.1) date Sun Feb 18 17:05:59 2018*
%MOMM*%
%LPD*%
G01*
G04 APERTURE LIST*
%ADD10C,0.500380*%
%ADD11C,0.100000*%
%ADD12C,1.998980*%
%ADD13R,0.600000X0.500000*%
%ADD14R,0.500000X0.600000*%
%ADD15C,0.500000*%
%ADD16R,0.400000X0.600000*%
%ADD17R,1.000000X0.250000*%
%ADD18R,0.250000X1.000000*%
%ADD19R,1.800000X2.000000*%
%ADD20R,1.000000X1.000000*%
G04 APERTURE END LIST*
D10*
X144549450Y-69297525D03*
D11*
G36*
X145186150Y-68307003D02*
X145539972Y-68660825D01*
X143912750Y-70288047D01*
X143558928Y-69934225D01*
X145186150Y-68307003D01*
X145186150Y-68307003D01*
G37*
D10*
X145115206Y-69863281D03*
D11*
G36*
X145751906Y-68872759D02*
X146105728Y-69226581D01*
X144478506Y-70853803D01*
X144124684Y-70499981D01*
X145751906Y-68872759D01*
X145751906Y-68872759D01*
G37*
D10*
X145680962Y-70429038D03*
D11*
G36*
X146317662Y-69438516D02*
X146671484Y-69792338D01*
X145044262Y-71419560D01*
X144690440Y-71065738D01*
X146317662Y-69438516D01*
X146317662Y-69438516D01*
G37*
D10*
X146246719Y-70994794D03*
D11*
G36*
X146883419Y-70004272D02*
X147237241Y-70358094D01*
X145610019Y-71985316D01*
X145256197Y-71631494D01*
X146883419Y-70004272D01*
X146883419Y-70004272D01*
G37*
D10*
X146812475Y-71560550D03*
D11*
G36*
X147449175Y-70570028D02*
X147802997Y-70923850D01*
X146175775Y-72551072D01*
X145821953Y-72197250D01*
X147449175Y-70570028D01*
X147449175Y-70570028D01*
G37*
D12*
X142604327Y-67212310D03*
D11*
G36*
X142781238Y-65621907D02*
X144194730Y-67035399D01*
X142427416Y-68802713D01*
X141013924Y-67389221D01*
X142781238Y-65621907D01*
X142781238Y-65621907D01*
G37*
D12*
X146492778Y-63323859D03*
D11*
G36*
X146669689Y-61733456D02*
X148083181Y-63146948D01*
X146315867Y-64914262D01*
X144902375Y-63500770D01*
X146669689Y-61733456D01*
X146669689Y-61733456D01*
G37*
D12*
X148897690Y-73505673D03*
D11*
G36*
X149074601Y-71915270D02*
X150488093Y-73328762D01*
X148720779Y-75096076D01*
X147307287Y-73682584D01*
X149074601Y-71915270D01*
X149074601Y-71915270D01*
G37*
D12*
X152786141Y-69617222D03*
D11*
G36*
X152963052Y-68026819D02*
X154376544Y-69440311D01*
X152609230Y-71207625D01*
X151195738Y-69794133D01*
X152963052Y-68026819D01*
X152963052Y-68026819D01*
G37*
D13*
X132075000Y-90075000D03*
X130975000Y-90075000D03*
D14*
X143325000Y-77700000D03*
X143325000Y-76600000D03*
D13*
X147325000Y-88450000D03*
X148425000Y-88450000D03*
D15*
X149963909Y-96238909D03*
D11*
G36*
X150352818Y-96274264D02*
X149999264Y-96627818D01*
X149575000Y-96203554D01*
X149928554Y-95850000D01*
X150352818Y-96274264D01*
X150352818Y-96274264D01*
G37*
D15*
X149186091Y-95461091D03*
D11*
G36*
X149575000Y-95496446D02*
X149221446Y-95850000D01*
X148797182Y-95425736D01*
X149150736Y-95072182D01*
X149575000Y-95496446D01*
X149575000Y-95496446D01*
G37*
D15*
X150963909Y-95263909D03*
D11*
G36*
X151352818Y-95299264D02*
X150999264Y-95652818D01*
X150575000Y-95228554D01*
X150928554Y-94875000D01*
X151352818Y-95299264D01*
X151352818Y-95299264D01*
G37*
D15*
X150186091Y-94486091D03*
D11*
G36*
X150575000Y-94521446D02*
X150221446Y-94875000D01*
X149797182Y-94450736D01*
X150150736Y-94097182D01*
X150575000Y-94521446D01*
X150575000Y-94521446D01*
G37*
D15*
X147963909Y-98213909D03*
D11*
G36*
X148352818Y-98249264D02*
X147999264Y-98602818D01*
X147575000Y-98178554D01*
X147928554Y-97825000D01*
X148352818Y-98249264D01*
X148352818Y-98249264D01*
G37*
D15*
X147186091Y-97436091D03*
D11*
G36*
X147575000Y-97471446D02*
X147221446Y-97825000D01*
X146797182Y-97400736D01*
X147150736Y-97047182D01*
X147575000Y-97471446D01*
X147575000Y-97471446D01*
G37*
D15*
X151913909Y-94288909D03*
D11*
G36*
X152302818Y-94324264D02*
X151949264Y-94677818D01*
X151525000Y-94253554D01*
X151878554Y-93900000D01*
X152302818Y-94324264D01*
X152302818Y-94324264D01*
G37*
D15*
X151136091Y-93511091D03*
D11*
G36*
X151525000Y-93546446D02*
X151171446Y-93900000D01*
X150747182Y-93475736D01*
X151100736Y-93122182D01*
X151525000Y-93546446D01*
X151525000Y-93546446D01*
G37*
D15*
X148988909Y-97188909D03*
D11*
G36*
X149377818Y-97224264D02*
X149024264Y-97577818D01*
X148600000Y-97153554D01*
X148953554Y-96800000D01*
X149377818Y-97224264D01*
X149377818Y-97224264D01*
G37*
D15*
X148211091Y-96411091D03*
D11*
G36*
X148600000Y-96446446D02*
X148246446Y-96800000D01*
X147822182Y-96375736D01*
X148175736Y-96022182D01*
X148600000Y-96446446D01*
X148600000Y-96446446D01*
G37*
D13*
X132075000Y-88525000D03*
X130975000Y-88525000D03*
D16*
X131200000Y-87025000D03*
X130300000Y-87025000D03*
D17*
X134300000Y-88750000D03*
X134300000Y-88250000D03*
X134300000Y-87750000D03*
X134300000Y-87250000D03*
X134300000Y-86750000D03*
X134300000Y-86250000D03*
X134300000Y-85750000D03*
X134300000Y-85250000D03*
X134300000Y-84750000D03*
X134300000Y-84250000D03*
X134300000Y-83750000D03*
X134300000Y-83250000D03*
X134300000Y-82750000D03*
X134300000Y-82250000D03*
X134300000Y-81750000D03*
X134300000Y-81250000D03*
D18*
X136250000Y-79300000D03*
X136750000Y-79300000D03*
X137250000Y-79300000D03*
X137750000Y-79300000D03*
X138250000Y-79300000D03*
X138750000Y-79300000D03*
X139250000Y-79300000D03*
X139750000Y-79300000D03*
X140250000Y-79300000D03*
X140750000Y-79300000D03*
X141250000Y-79300000D03*
X141750000Y-79300000D03*
X142250000Y-79300000D03*
X142750000Y-79300000D03*
X143250000Y-79300000D03*
X143750000Y-79300000D03*
D17*
X145700000Y-81250000D03*
X145700000Y-81750000D03*
X145700000Y-82250000D03*
X145700000Y-82750000D03*
X145700000Y-83250000D03*
X145700000Y-83750000D03*
X145700000Y-84250000D03*
X145700000Y-84750000D03*
X145700000Y-85250000D03*
X145700000Y-85750000D03*
X145700000Y-86250000D03*
X145700000Y-86750000D03*
X145700000Y-87250000D03*
X145700000Y-87750000D03*
X145700000Y-88250000D03*
X145700000Y-88750000D03*
D18*
X143750000Y-90700000D03*
X143250000Y-90700000D03*
X142750000Y-90700000D03*
X142250000Y-90700000D03*
X141750000Y-90700000D03*
X141250000Y-90700000D03*
X140750000Y-90700000D03*
X140250000Y-90700000D03*
X139750000Y-90700000D03*
X139250000Y-90700000D03*
X138750000Y-90700000D03*
X138250000Y-90700000D03*
X137750000Y-90700000D03*
X137250000Y-90700000D03*
X136750000Y-90700000D03*
X136250000Y-90700000D03*
D19*
X123546000Y-83700000D03*
X128554000Y-83700000D03*
X128554000Y-87700000D03*
X123546000Y-87700000D03*
D20*
X137510000Y-106020000D03*
X142510000Y-106020000D03*
D18*
X140635000Y-106020000D03*
X139385000Y-106020000D03*
D17*
X118890000Y-84435000D03*
X118890000Y-85685000D03*
D20*
X118890000Y-87560000D03*
X118890000Y-82560000D03*
X142490000Y-63950000D03*
X137490000Y-63950000D03*
D18*
X139365000Y-63950000D03*
X140615000Y-63950000D03*
D17*
X161000000Y-85625000D03*
X161000000Y-84375000D03*
D20*
X161000000Y-82500000D03*
X161000000Y-87500000D03*
M02*
