M48
;DRILL file {KiCad 5.0-dev-unknown-28f1209~61~ubuntu16.04.1} date Sun Feb 18 17:06:02 2018
;FORMAT={-:-/ absolute / inch / decimal}
FMAT,2
INCH,TZ
T1C0.0157
T2C0.0400
%
G90
G05
M72
T1
X4.5114Y-3.3976
X4.563Y-3.189
X4.6626Y-3.348
X4.7835Y-3.3622
X4.8059Y-3.4374
X4.8583Y-3.2358
X4.9406Y-3.3157
X4.9793Y-3.5581
X5.0035Y-3.4189
X5.0157Y-3.2028
X5.0531Y-3.6697
X5.0583Y-3.535
X5.0626Y-3.1142
X5.0764Y-3.5185
X5.0795Y-3.3713
X5.1031Y-3.6067
X5.1091Y-3.3524
X5.1161Y-3.4843
X5.1197Y-3.5362
X5.1965Y-3.4307
X5.2079Y-3.2555
X5.2157Y-3.3961
X5.2303Y-3.2677
X5.2398Y-3.4154
X5.2406Y-3.5256
X5.2413Y-3.4941
X5.252Y-3.6315
X5.2681Y-3.813
X5.2689Y-2.9846
X5.2717Y-2.9154
X5.2823Y-4.1417
X5.2858Y-3.1547
X5.3094Y-3.7988
X5.3189Y-3.0969
X5.3248Y-3.0581
X5.3287Y-3.3612
X5.3307Y-3.6516
X5.3307Y-4.3031
X5.3319Y-3.6091
X5.3331Y-3.4909
X5.3335Y-3.1673
X5.3425Y-3.2475
X5.3455Y-3.2815
X5.3484Y-3.7136
X5.3531Y-3.1858
X5.3543Y-2.3858
X5.3701Y-4.1272
X5.3787Y-3.6071
X5.3839Y-3.4606
X5.3882Y-3.0736
X5.3967Y-3.3907
X5.3976Y-3.501
X5.4193Y-2.9715
X5.4203Y-3.3366
X5.4209Y-3.2858
X5.4242Y-3.377
X5.4341Y-3.1673
X5.437Y-3.4555
X5.4449Y-3.2193
X5.4488Y-3.4104
X5.4528Y-2.5748
X5.4754Y-3.4596
X5.4872Y-3.5276
X5.4882Y-3.0594
X5.4882Y-3.3307
X5.4911Y-3.6073
X5.5122Y-2.5551
X5.5124Y-4.1526
X5.5157Y-3.6083
X5.5276Y-3.3366
X5.5303Y-3.8803
X5.5374Y-3.6329
X5.5382Y-3.4768
X5.5543Y-3.7933
X5.5555Y-3.7012
X5.5657Y-4.3205
X5.5858Y-3.4795
X5.6012Y-3.1823
X5.6039Y-3.435
X5.6039Y-3.7634
X5.6112Y-2.378
X5.623Y-3.4734
X5.6299Y-2.7677
X5.6299Y-3.1909
X5.6343Y-3.8956
X5.635Y-2.9685
X5.6457Y-2.7953
X5.6526Y-3.5187
X5.6585Y-3.4783
X5.6724Y-3.9575
X5.6783Y-3.8776
X5.6791Y-2.5315
X5.6998Y-4.0266
X5.7102Y-2.9362
X5.7177Y-2.8965
X5.7291Y-3.1063
X5.7331Y-3.0689
X5.7386Y-3.9055
X5.7406Y-3.8713
X5.7756Y-3.1457
X5.7756Y-3.3533
X5.7889Y-3.4044
X5.7913Y-3.8022
X5.7992Y-2.8346
X5.7992Y-3.1339
X5.7992Y-3.3553
X5.8Y-3.2449
X5.8386Y-3.9724
X5.8638Y-3.3949
X5.8846Y-2.8051
X5.9173Y-3.2677
X5.9331Y-3.8504
X5.9413Y-3.3622
X5.9421Y-3.5256
X5.9488Y-3.4094
X5.9488Y-3.4803
X5.9669Y-3.4327
X5.9685Y-3.7835
X5.9882Y-3.4843
X6.0197Y-3.5177
X6.0287Y-3.7024
X6.0315Y-3.7402
X6.0394Y-3.5354
X6.0748Y-3.2244
X6.1102Y-3.6781
X6.1339Y-3.2756
X6.1417Y-3.2087
X6.1524Y-3.4689
X6.2413Y-3.3634
X6.2421Y-3.4193
X6.3307Y-3.3772
X6.4685Y-3.1969
X6.5102Y-3.4102
T2
X5.4512Y-3.9764
X5.5512Y-3.9764
X5.7376Y-4.2191
X5.8083Y-4.1484
X5.879Y-4.0777
X5.9498Y-4.0069
X6.0205Y-3.9362
X6.0912Y-3.8655
X6.1619Y-3.7948
X6.2326Y-3.7241
X6.3033Y-3.6534
X6.374Y-3.5827
X4.6378Y-3.1299
X4.7085Y-3.0592
X4.7792Y-2.9885
X4.8499Y-2.9178
X4.9206Y-2.8471
X4.9913Y-2.7764
X5.0621Y-2.7057
X5.1328Y-2.6349
X5.2035Y-2.5642
X5.2742Y-2.4935
X4.6701Y-3.5677
X4.7408Y-3.6384
X4.8115Y-3.7091
X4.8822Y-3.7798
X4.9529Y-3.8505
X5.0236Y-3.9213
X5.1265Y-2.8184
X5.1972Y-2.7477
X5.2679Y-2.677
X5.3386Y-2.6063
T0
M30
