M48
;DRILL file {KiCad 5.0-dev-unknown-28f1209~61~ubuntu16.04.1} date Sun Feb 18 12:35:56 2018
;FORMAT={-:-/ absolute / inch / decimal}
FMAT,2
INCH,TZ
T1C0.0157
T2C0.0400
%
G90
G05
M72
T1
X4.5114Y-3.3976
X4.563Y-3.189
X4.8059Y-3.4374
X4.8173Y-3.3579
X4.8307Y-3.1978
X4.8583Y-3.2358
X4.9406Y-3.3157
X4.9634Y-3.4185
X4.9793Y-3.5581
X5.0035Y-3.4189
X5.0157Y-3.2028
X5.0531Y-3.6697
X5.0583Y-3.535
X5.0626Y-3.1142
X5.0764Y-3.5185
X5.0795Y-3.3713
X5.0843Y-3.1543
X5.1031Y-3.6067
X5.1091Y-3.3524
X5.1161Y-3.4843
X5.1197Y-3.5362
X5.1965Y-3.4307
X5.2079Y-3.2555
X5.2146Y-3.7943
X5.2157Y-3.3961
X5.2217Y-3.9394
X5.2303Y-3.2677
X5.2398Y-3.4154
X5.2406Y-3.5256
X5.2413Y-3.4941
X5.252Y-3.6315
X5.2681Y-3.813
X5.2689Y-2.9846
X5.2717Y-2.9154
X5.2823Y-4.1417
X5.2858Y-3.1547
X5.3094Y-3.7988
X5.3189Y-3.0969
X5.3205Y-4.0118
X5.3248Y-3.0581
X5.3287Y-3.3612
X5.3307Y-3.6516
X5.3307Y-4.3031
X5.3319Y-3.6091
X5.3331Y-3.4909
X5.3335Y-3.1673
X5.3425Y-3.2475
X5.3455Y-3.2815
X5.3484Y-3.7136
X5.3531Y-3.1858
X5.3543Y-2.3858
X5.3701Y-4.1272
X5.3787Y-3.6071
X5.3839Y-3.4606
X5.3882Y-3.0736
X5.3967Y-3.3907
X5.3976Y-3.501
X5.4193Y-2.9715
X5.4203Y-3.3366
X5.4209Y-3.2858
X5.4242Y-3.377
X5.4341Y-3.1673
X5.437Y-3.4555
X5.4449Y-2.5679
X5.4449Y-3.2193
X5.4488Y-3.4104
X5.4754Y-3.4596
X5.4872Y-3.5276
X5.4882Y-3.0594
X5.4882Y-3.3307
X5.4911Y-3.6073
X5.5049Y-2.6624
X5.5157Y-3.6083
X5.5276Y-3.3366
X5.5303Y-3.8803
X5.5374Y-3.6329
X5.5382Y-3.4768
X5.5543Y-3.7933
X5.5555Y-3.7012
X5.5657Y-4.3205
X5.5713Y-2.6969
X5.5858Y-3.4795
X5.6012Y-3.1823
X5.6039Y-3.435
X5.6039Y-3.7634
X5.6112Y-2.378
X5.623Y-3.4734
X5.6299Y-3.1909
X5.635Y-2.9685
X5.6526Y-3.5187
X5.6585Y-3.4783
X5.6724Y-3.9575
X5.6783Y-3.8776
X5.6791Y-2.5315
X5.6998Y-4.0266
X5.7331Y-3.0689
X5.7386Y-3.9055
X5.7406Y-3.8713
X5.7756Y-3.3533
X5.7904Y-3.2844
X5.7913Y-3.8022
X5.798Y-3.2177
X5.7992Y-3.3553
X5.8Y-3.2449
X5.8553Y-3.3356
X5.9118Y-3.8791
X5.913Y-3.0122
X5.9413Y-3.3622
X5.9419Y-3.5551
X5.9421Y-3.5256
X5.9439Y-3.4065
X5.9488Y-3.4803
X5.9488Y-3.7976
X5.9669Y-3.4327
X6.0285Y-3.7274
X6.0287Y-3.7024
X6.1102Y-3.6781
X6.1524Y-3.4689
X6.2043Y-3.3472
X6.2327Y-3.9449
X6.2421Y-3.4193
X6.3307Y-3.3772
X6.4685Y-3.1969
X6.5102Y-3.4102
T2
X5.7484Y-4.223
X5.8192Y-4.1523
X5.8899Y-4.0816
X5.9606Y-4.0109
X6.0313Y-3.9402
X6.102Y-3.8695
X6.1727Y-3.7987
X6.2434Y-3.728
X6.3141Y-3.6573
X6.3848Y-3.5866
X4.6772Y-3.1496
X4.7479Y-3.0789
X4.8186Y-3.0082
X4.8893Y-2.9375
X4.96Y-2.8668
X5.0307Y-2.7961
X5.1014Y-2.7253
X5.1721Y-2.6546
X5.2429Y-2.5839
X5.3136Y-2.5132
X4.6701Y-3.5677
X4.7408Y-3.6384
X4.8115Y-3.7091
X4.8822Y-3.7798
X4.9529Y-3.8505
X5.0236Y-3.9213
X5.4512Y-3.9764
X5.5512Y-3.9764
X6.0453Y-3.2805
X6.116Y-3.2098
X6.1867Y-3.1391
X6.2574Y-3.0684
T0
M30
