G04 #@! TF.GenerationSoftware,KiCad,Pcbnew,5.0-dev-unknown-28f1209~61~ubuntu16.04.1*
G04 #@! TF.CreationDate,2018-02-18T17:05:59+01:00*
G04 #@! TF.ProjectId,roboy_crazyfly,726F626F795F6372617A79666C792E6B,rev?*
G04 #@! TF.SameCoordinates,Original*
G04 #@! TF.FileFunction,Soldermask,Bot*
G04 #@! TF.FilePolarity,Negative*
%FSLAX46Y46*%
G04 Gerber Fmt 4.6, Leading zero omitted, Abs format (unit mm)*
G04 Created by KiCad (PCBNEW 5.0-dev-unknown-28f1209~61~ubuntu16.04.1) date Sun Feb 18 17:05:59 2018*
%MOMM*%
%LPD*%
G01*
G04 APERTURE LIST*
%ADD10C,0.900380*%
%ADD11C,0.100000*%
%ADD12C,2.398980*%
%ADD13C,1.299160*%
%ADD14C,2.127200*%
%ADD15C,2.127200*%
%ADD16R,1.000000X0.900000*%
%ADD17R,0.900000X1.000000*%
%ADD18C,0.900000*%
%ADD19R,2.432000X2.432000*%
%ADD20O,2.432000X2.432000*%
%ADD21R,0.800000X1.000000*%
%ADD22R,1.400000X0.650000*%
%ADD23R,0.650000X1.400000*%
%ADD24R,2.200000X2.400000*%
%ADD25R,1.400000X1.400000*%
G04 APERTURE END LIST*
D10*
X144549450Y-69297525D03*
D11*
G36*
X145186150Y-68024160D02*
X145822815Y-68660825D01*
X143912750Y-70570890D01*
X143276085Y-69934225D01*
X145186150Y-68024160D01*
X145186150Y-68024160D01*
G37*
D10*
X145115206Y-69863281D03*
D11*
G36*
X145751906Y-68589916D02*
X146388571Y-69226581D01*
X144478506Y-71136646D01*
X143841841Y-70499981D01*
X145751906Y-68589916D01*
X145751906Y-68589916D01*
G37*
D10*
X145680962Y-70429038D03*
D11*
G36*
X146317662Y-69155673D02*
X146954327Y-69792338D01*
X145044262Y-71702403D01*
X144407597Y-71065738D01*
X146317662Y-69155673D01*
X146317662Y-69155673D01*
G37*
D10*
X146246719Y-70994794D03*
D11*
G36*
X146883419Y-69721429D02*
X147520084Y-70358094D01*
X145610019Y-72268159D01*
X144973354Y-71631494D01*
X146883419Y-69721429D01*
X146883419Y-69721429D01*
G37*
D10*
X146812475Y-71560550D03*
D11*
G36*
X147449175Y-70287185D02*
X148085840Y-70923850D01*
X146175775Y-72833915D01*
X145539110Y-72197250D01*
X147449175Y-70287185D01*
X147449175Y-70287185D01*
G37*
D12*
X142604327Y-67212310D03*
D11*
G36*
X142781238Y-65339064D02*
X144477573Y-67035399D01*
X142427416Y-69085556D01*
X140731081Y-67389221D01*
X142781238Y-65339064D01*
X142781238Y-65339064D01*
G37*
D12*
X146492778Y-63323859D03*
D11*
G36*
X146669689Y-61450613D02*
X148366024Y-63146948D01*
X146315867Y-65197105D01*
X144619532Y-63500770D01*
X146669689Y-61450613D01*
X146669689Y-61450613D01*
G37*
D12*
X148897690Y-73505673D03*
D11*
G36*
X149074601Y-71632427D02*
X150770936Y-73328762D01*
X148720779Y-75378919D01*
X147024444Y-73682584D01*
X149074601Y-71632427D01*
X149074601Y-71632427D01*
G37*
D12*
X152786141Y-69617222D03*
D11*
G36*
X152963052Y-67743976D02*
X154659387Y-69440311D01*
X152609230Y-71490468D01*
X150912895Y-69794133D01*
X152963052Y-67743976D01*
X152963052Y-67743976D01*
G37*
D13*
X145962942Y-67036297D03*
X149073703Y-70147058D03*
D14*
X127600000Y-99600000D03*
D11*
G36*
X129211921Y-99492237D02*
X127492237Y-101211921D01*
X125988079Y-99707763D01*
X127707763Y-97988079D01*
X129211921Y-99492237D01*
X129211921Y-99492237D01*
G37*
D14*
X125803949Y-97803949D03*
D15*
X125696186Y-97911712D02*
X125911712Y-97696186D01*
D14*
X124007898Y-96007898D03*
D15*
X123900135Y-96115661D02*
X124115661Y-95900135D01*
D14*
X122211846Y-94211846D03*
D15*
X122104083Y-94319609D02*
X122319609Y-94104083D01*
D14*
X120415795Y-92415795D03*
D15*
X120308032Y-92523558D02*
X120523558Y-92308032D01*
D14*
X118619744Y-90619744D03*
D15*
X118511981Y-90727507D02*
X118727507Y-90511981D01*
D16*
X132075000Y-90075000D03*
X130975000Y-90075000D03*
D17*
X143325000Y-77700000D03*
X143325000Y-76600000D03*
D16*
X147325000Y-88450000D03*
X148425000Y-88450000D03*
D18*
X149963909Y-96238909D03*
D11*
G36*
X150635660Y-96274264D02*
X149999264Y-96910660D01*
X149292158Y-96203554D01*
X149928554Y-95567158D01*
X150635660Y-96274264D01*
X150635660Y-96274264D01*
G37*
D18*
X149186091Y-95461091D03*
D11*
G36*
X149857842Y-95496446D02*
X149221446Y-96132842D01*
X148514340Y-95425736D01*
X149150736Y-94789340D01*
X149857842Y-95496446D01*
X149857842Y-95496446D01*
G37*
D18*
X150963909Y-95263909D03*
D11*
G36*
X151635660Y-95299264D02*
X150999264Y-95935660D01*
X150292158Y-95228554D01*
X150928554Y-94592158D01*
X151635660Y-95299264D01*
X151635660Y-95299264D01*
G37*
D18*
X150186091Y-94486091D03*
D11*
G36*
X150857842Y-94521446D02*
X150221446Y-95157842D01*
X149514340Y-94450736D01*
X150150736Y-93814340D01*
X150857842Y-94521446D01*
X150857842Y-94521446D01*
G37*
D18*
X147963909Y-98213909D03*
D11*
G36*
X148635660Y-98249264D02*
X147999264Y-98885660D01*
X147292158Y-98178554D01*
X147928554Y-97542158D01*
X148635660Y-98249264D01*
X148635660Y-98249264D01*
G37*
D18*
X147186091Y-97436091D03*
D11*
G36*
X147857842Y-97471446D02*
X147221446Y-98107842D01*
X146514340Y-97400736D01*
X147150736Y-96764340D01*
X147857842Y-97471446D01*
X147857842Y-97471446D01*
G37*
D18*
X151913909Y-94288909D03*
D11*
G36*
X152585660Y-94324264D02*
X151949264Y-94960660D01*
X151242158Y-94253554D01*
X151878554Y-93617158D01*
X152585660Y-94324264D01*
X152585660Y-94324264D01*
G37*
D18*
X151136091Y-93511091D03*
D11*
G36*
X151807842Y-93546446D02*
X151171446Y-94182842D01*
X150464340Y-93475736D01*
X151100736Y-92839340D01*
X151807842Y-93546446D01*
X151807842Y-93546446D01*
G37*
D18*
X148988909Y-97188909D03*
D11*
G36*
X149660660Y-97224264D02*
X149024264Y-97860660D01*
X148317158Y-97153554D01*
X148953554Y-96517158D01*
X149660660Y-97224264D01*
X149660660Y-97224264D01*
G37*
D18*
X148211091Y-96411091D03*
D11*
G36*
X148882842Y-96446446D02*
X148246446Y-97082842D01*
X147539340Y-96375736D01*
X148175736Y-95739340D01*
X148882842Y-96446446D01*
X148882842Y-96446446D01*
G37*
D16*
X132075000Y-88525000D03*
X130975000Y-88525000D03*
D19*
X141000000Y-101000000D03*
D20*
X138460000Y-101000000D03*
D14*
X135600000Y-66200000D03*
D11*
G36*
X135492237Y-64588079D02*
X137211921Y-66307763D01*
X135707763Y-67811921D01*
X133988079Y-66092237D01*
X135492237Y-64588079D01*
X135492237Y-64588079D01*
G37*
D14*
X133803949Y-67996051D03*
D15*
X133911712Y-68103814D02*
X133696186Y-67888288D01*
D14*
X132007898Y-69792102D03*
D15*
X132115661Y-69899865D02*
X131900135Y-69684339D01*
D14*
X130211846Y-71588154D03*
D15*
X130319609Y-71695917D02*
X130104083Y-71480391D01*
D14*
X161900000Y-91000000D03*
D11*
G36*
X161792237Y-89388079D02*
X163511921Y-91107763D01*
X162007763Y-92611921D01*
X160288079Y-90892237D01*
X161792237Y-89388079D01*
X161792237Y-89388079D01*
G37*
D14*
X160103949Y-92796051D03*
D15*
X160211712Y-92903814D02*
X159996186Y-92688288D01*
D14*
X158307898Y-94592102D03*
D15*
X158415661Y-94699865D02*
X158200135Y-94484339D01*
D14*
X156511846Y-96388154D03*
D15*
X156619609Y-96495917D02*
X156404083Y-96280391D01*
D14*
X154715795Y-98184205D03*
D15*
X154823558Y-98291968D02*
X154608032Y-98076442D01*
D14*
X152919744Y-99980256D03*
D15*
X153027507Y-100088019D02*
X152811981Y-99872493D01*
D14*
X151123693Y-101776307D03*
D15*
X151231456Y-101884070D02*
X151015930Y-101668544D01*
D14*
X149327641Y-103572359D03*
D15*
X149435404Y-103680122D02*
X149219878Y-103464596D01*
D14*
X147531590Y-105368410D03*
D15*
X147639353Y-105476173D02*
X147423827Y-105260647D01*
D14*
X145735539Y-107164461D03*
D15*
X145843302Y-107272224D02*
X145627776Y-107056698D01*
D14*
X117800000Y-79500000D03*
D11*
G36*
X117907763Y-81111921D02*
X116188079Y-79392237D01*
X117692237Y-77888079D01*
X119411921Y-79607763D01*
X117907763Y-81111921D01*
X117907763Y-81111921D01*
G37*
D14*
X119596051Y-77703949D03*
D15*
X119488288Y-77596186D02*
X119703814Y-77811712D01*
D14*
X121392102Y-75907898D03*
D15*
X121284339Y-75800135D02*
X121499865Y-76015661D01*
D14*
X123188154Y-74111846D03*
D15*
X123080391Y-74004083D02*
X123295917Y-74219609D01*
D14*
X124984205Y-72315795D03*
D15*
X124876442Y-72208032D02*
X125091968Y-72423558D01*
D14*
X126780256Y-70519744D03*
D15*
X126672493Y-70411981D02*
X126888019Y-70627507D01*
D14*
X128576307Y-68723693D03*
D15*
X128468544Y-68615930D02*
X128684070Y-68831456D01*
D14*
X130372359Y-66927641D03*
D15*
X130264596Y-66819878D02*
X130480122Y-67035404D01*
D14*
X132168410Y-65131590D03*
D15*
X132060647Y-65023827D02*
X132276173Y-65239353D01*
D14*
X133964461Y-63335539D03*
D15*
X133856698Y-63227776D02*
X134072224Y-63443302D01*
D21*
X131200000Y-87025000D03*
X130300000Y-87025000D03*
D22*
X134300000Y-88750000D03*
X134300000Y-88250000D03*
X134300000Y-87750000D03*
X134300000Y-87250000D03*
X134300000Y-86750000D03*
X134300000Y-86250000D03*
X134300000Y-85750000D03*
X134300000Y-85250000D03*
X134300000Y-84750000D03*
X134300000Y-84250000D03*
X134300000Y-83750000D03*
X134300000Y-83250000D03*
X134300000Y-82750000D03*
X134300000Y-82250000D03*
X134300000Y-81750000D03*
X134300000Y-81250000D03*
D23*
X136250000Y-79300000D03*
X136750000Y-79300000D03*
X137250000Y-79300000D03*
X137750000Y-79300000D03*
X138250000Y-79300000D03*
X138750000Y-79300000D03*
X139250000Y-79300000D03*
X139750000Y-79300000D03*
X140250000Y-79300000D03*
X140750000Y-79300000D03*
X141250000Y-79300000D03*
X141750000Y-79300000D03*
X142250000Y-79300000D03*
X142750000Y-79300000D03*
X143250000Y-79300000D03*
X143750000Y-79300000D03*
D22*
X145700000Y-81250000D03*
X145700000Y-81750000D03*
X145700000Y-82250000D03*
X145700000Y-82750000D03*
X145700000Y-83250000D03*
X145700000Y-83750000D03*
X145700000Y-84250000D03*
X145700000Y-84750000D03*
X145700000Y-85250000D03*
X145700000Y-85750000D03*
X145700000Y-86250000D03*
X145700000Y-86750000D03*
X145700000Y-87250000D03*
X145700000Y-87750000D03*
X145700000Y-88250000D03*
X145700000Y-88750000D03*
D23*
X143750000Y-90700000D03*
X143250000Y-90700000D03*
X142750000Y-90700000D03*
X142250000Y-90700000D03*
X141750000Y-90700000D03*
X141250000Y-90700000D03*
X140750000Y-90700000D03*
X140250000Y-90700000D03*
X139750000Y-90700000D03*
X139250000Y-90700000D03*
X138750000Y-90700000D03*
X138250000Y-90700000D03*
X137750000Y-90700000D03*
X137250000Y-90700000D03*
X136750000Y-90700000D03*
X136250000Y-90700000D03*
D24*
X123546000Y-83700000D03*
X128554000Y-83700000D03*
X128554000Y-87700000D03*
X123546000Y-87700000D03*
D25*
X137510000Y-106020000D03*
X142510000Y-106020000D03*
D23*
X140635000Y-106020000D03*
X139385000Y-106020000D03*
D22*
X118890000Y-84435000D03*
X118890000Y-85685000D03*
D25*
X118890000Y-87560000D03*
X118890000Y-82560000D03*
X142490000Y-63950000D03*
X137490000Y-63950000D03*
D23*
X139365000Y-63950000D03*
X140615000Y-63950000D03*
D22*
X161000000Y-85625000D03*
X161000000Y-84375000D03*
D25*
X161000000Y-82500000D03*
X161000000Y-87500000D03*
M02*
