G04 #@! TF.GenerationSoftware,KiCad,Pcbnew,5.0-dev-unknown-28f1209~61~ubuntu16.04.1*
G04 #@! TF.CreationDate,2018-02-18T17:05:59+01:00*
G04 #@! TF.ProjectId,roboy_crazyfly,726F626F795F6372617A79666C792E6B,rev?*
G04 #@! TF.SameCoordinates,Original*
G04 #@! TF.FileFunction,Legend,Bot*
G04 #@! TF.FilePolarity,Positive*
%FSLAX46Y46*%
G04 Gerber Fmt 4.6, Leading zero omitted, Abs format (unit mm)*
G04 Created by KiCad (PCBNEW 5.0-dev-unknown-28f1209~61~ubuntu16.04.1) date Sun Feb 18 17:05:59 2018*
%MOMM*%
%LPD*%
G01*
G04 APERTURE LIST*
%ADD10C,0.150000*%
G04 APERTURE END LIST*
D10*
X147942191Y-62722182D02*
X153387818Y-68167809D01*
X148649835Y-62014538D02*
X154095462Y-67460165D01*
X154095462Y-67460165D02*
X147590165Y-73965462D01*
X147590165Y-73965462D02*
X142144538Y-68519835D01*
X142144538Y-68519835D02*
X148649835Y-62014538D01*
X131275000Y-89600000D02*
X131775000Y-89600000D01*
X131775000Y-90550000D02*
X131275000Y-90550000D01*
X143800000Y-76900000D02*
X143800000Y-77400000D01*
X142850000Y-77400000D02*
X142850000Y-76900000D01*
X148125000Y-88925000D02*
X147625000Y-88925000D01*
X147625000Y-87975000D02*
X148125000Y-87975000D01*
X149734099Y-95337348D02*
X150087652Y-95690901D01*
X149415901Y-96362652D02*
X149062348Y-96009099D01*
X150734099Y-94362348D02*
X151087652Y-94715901D01*
X150415901Y-95387652D02*
X150062348Y-95034099D01*
X147734099Y-97312348D02*
X148087652Y-97665901D01*
X147415901Y-98337652D02*
X147062348Y-97984099D01*
X151684099Y-93387348D02*
X152037652Y-93740901D01*
X151365901Y-94412652D02*
X151012348Y-94059099D01*
X148759099Y-96287348D02*
X149112652Y-96640901D01*
X148440901Y-97312652D02*
X148087348Y-96959099D01*
X131275000Y-88050000D02*
X131775000Y-88050000D01*
X131775000Y-89000000D02*
X131275000Y-89000000D01*
X130500000Y-86500000D02*
X131000000Y-86500000D01*
X131000000Y-87550000D02*
X130500000Y-87550000D01*
X134825000Y-90175000D02*
X134825000Y-89175000D01*
X145175000Y-90175000D02*
X145175000Y-89100000D01*
X145175000Y-79825000D02*
X145175000Y-80900000D01*
X134825000Y-79825000D02*
X134825000Y-80900000D01*
X134825000Y-90175000D02*
X135900000Y-90175000D01*
X134825000Y-79825000D02*
X135900000Y-79825000D01*
X145175000Y-79825000D02*
X144100000Y-79825000D01*
X145175000Y-90175000D02*
X144100000Y-90175000D01*
X134825000Y-89175000D02*
X133800000Y-89175000D01*
X122550000Y-88300000D02*
X129550000Y-88300000D01*
X129550000Y-88300000D02*
X129550000Y-83200000D01*
X129550000Y-83200000D02*
X122550000Y-83200000D01*
X122550000Y-83200000D02*
X122550000Y-88300000D01*
X142510000Y-109820000D02*
X137510000Y-109820000D01*
X142510000Y-105720000D02*
X142510000Y-109820000D01*
X137510000Y-105720000D02*
X142510000Y-105720000D01*
X137510000Y-109820000D02*
X137510000Y-105720000D01*
X115090000Y-82560000D02*
X119190000Y-82560000D01*
X119190000Y-82560000D02*
X119190000Y-87560000D01*
X119190000Y-87560000D02*
X115090000Y-87560000D01*
X115090000Y-87560000D02*
X115090000Y-82560000D01*
X137490000Y-60150000D02*
X142490000Y-60150000D01*
X137490000Y-64250000D02*
X137490000Y-60150000D01*
X142490000Y-64250000D02*
X137490000Y-64250000D01*
X142490000Y-60150000D02*
X142490000Y-64250000D01*
X164800000Y-87500000D02*
X160700000Y-87500000D01*
X160700000Y-87500000D02*
X160700000Y-82500000D01*
X160700000Y-82500000D02*
X164800000Y-82500000D01*
X164800000Y-82500000D02*
X164800000Y-87500000D01*
X153841664Y-72667840D02*
X153134558Y-71960733D01*
X152865183Y-72230107D01*
X152831512Y-72331122D01*
X152831512Y-72398466D01*
X152865183Y-72499481D01*
X152966199Y-72600496D01*
X153067214Y-72634168D01*
X153134558Y-72634168D01*
X153235573Y-72600496D01*
X153504947Y-72331122D01*
X152764168Y-73745336D02*
X153168229Y-73341275D01*
X152966199Y-73543306D02*
X152259092Y-72836199D01*
X152427451Y-72869871D01*
X152562138Y-72869871D01*
X152663153Y-72836199D01*
X131691666Y-88732142D02*
X131739285Y-88779761D01*
X131882142Y-88827380D01*
X131977380Y-88827380D01*
X132120238Y-88779761D01*
X132215476Y-88684523D01*
X132263095Y-88589285D01*
X132310714Y-88398809D01*
X132310714Y-88255952D01*
X132263095Y-88065476D01*
X132215476Y-87970238D01*
X132120238Y-87875000D01*
X131977380Y-87827380D01*
X131882142Y-87827380D01*
X131739285Y-87875000D01*
X131691666Y-87922619D01*
X130786904Y-87827380D02*
X131263095Y-87827380D01*
X131310714Y-88303571D01*
X131263095Y-88255952D01*
X131167857Y-88208333D01*
X130929761Y-88208333D01*
X130834523Y-88255952D01*
X130786904Y-88303571D01*
X130739285Y-88398809D01*
X130739285Y-88636904D01*
X130786904Y-88732142D01*
X130834523Y-88779761D01*
X130929761Y-88827380D01*
X131167857Y-88827380D01*
X131263095Y-88779761D01*
X131310714Y-88732142D01*
X145382142Y-76983333D02*
X145429761Y-76935714D01*
X145477380Y-76792857D01*
X145477380Y-76697619D01*
X145429761Y-76554761D01*
X145334523Y-76459523D01*
X145239285Y-76411904D01*
X145048809Y-76364285D01*
X144905952Y-76364285D01*
X144715476Y-76411904D01*
X144620238Y-76459523D01*
X144525000Y-76554761D01*
X144477380Y-76697619D01*
X144477380Y-76792857D01*
X144525000Y-76935714D01*
X144572619Y-76983333D01*
X144905952Y-77554761D02*
X144858333Y-77459523D01*
X144810714Y-77411904D01*
X144715476Y-77364285D01*
X144667857Y-77364285D01*
X144572619Y-77411904D01*
X144525000Y-77459523D01*
X144477380Y-77554761D01*
X144477380Y-77745238D01*
X144525000Y-77840476D01*
X144572619Y-77888095D01*
X144667857Y-77935714D01*
X144715476Y-77935714D01*
X144810714Y-77888095D01*
X144858333Y-77840476D01*
X144905952Y-77745238D01*
X144905952Y-77554761D01*
X144953571Y-77459523D01*
X145001190Y-77411904D01*
X145096428Y-77364285D01*
X145286904Y-77364285D01*
X145382142Y-77411904D01*
X145429761Y-77459523D01*
X145477380Y-77554761D01*
X145477380Y-77745238D01*
X145429761Y-77840476D01*
X145382142Y-77888095D01*
X145286904Y-77935714D01*
X145096428Y-77935714D01*
X145001190Y-77888095D01*
X144953571Y-77840476D01*
X144905952Y-77745238D01*
X148041666Y-90507142D02*
X148089285Y-90554761D01*
X148232142Y-90602380D01*
X148327380Y-90602380D01*
X148470238Y-90554761D01*
X148565476Y-90459523D01*
X148613095Y-90364285D01*
X148660714Y-90173809D01*
X148660714Y-90030952D01*
X148613095Y-89840476D01*
X148565476Y-89745238D01*
X148470238Y-89650000D01*
X148327380Y-89602380D01*
X148232142Y-89602380D01*
X148089285Y-89650000D01*
X148041666Y-89697619D01*
X147565476Y-90602380D02*
X147375000Y-90602380D01*
X147279761Y-90554761D01*
X147232142Y-90507142D01*
X147136904Y-90364285D01*
X147089285Y-90173809D01*
X147089285Y-89792857D01*
X147136904Y-89697619D01*
X147184523Y-89650000D01*
X147279761Y-89602380D01*
X147470238Y-89602380D01*
X147565476Y-89650000D01*
X147613095Y-89697619D01*
X147660714Y-89792857D01*
X147660714Y-90030952D01*
X147613095Y-90126190D01*
X147565476Y-90173809D01*
X147470238Y-90221428D01*
X147279761Y-90221428D01*
X147184523Y-90173809D01*
X147136904Y-90126190D01*
X147089285Y-90030952D01*
X150979112Y-95355024D02*
X150979112Y-95422368D01*
X151046456Y-95557055D01*
X151113799Y-95624398D01*
X151248486Y-95691742D01*
X151383173Y-95691742D01*
X151484188Y-95658070D01*
X151652547Y-95557055D01*
X151753562Y-95456040D01*
X151854578Y-95287681D01*
X151888249Y-95186666D01*
X151888249Y-95051979D01*
X151820906Y-94917292D01*
X151753562Y-94849948D01*
X151618875Y-94782605D01*
X151551532Y-94782605D01*
X150238333Y-94748933D02*
X150642394Y-95152994D01*
X150440364Y-94950963D02*
X151147471Y-94243856D01*
X151113799Y-94412215D01*
X151113799Y-94546902D01*
X151147471Y-94647917D01*
X150339349Y-93435734D02*
X150474036Y-93570421D01*
X150507707Y-93671437D01*
X150507707Y-93738780D01*
X150474036Y-93907139D01*
X150373020Y-94075498D01*
X150103646Y-94344872D01*
X150002631Y-94378543D01*
X149935288Y-94378543D01*
X149834272Y-94344872D01*
X149699585Y-94210185D01*
X149665914Y-94109169D01*
X149665914Y-94041826D01*
X149699585Y-93940811D01*
X149867944Y-93772452D01*
X149968959Y-93738780D01*
X150036303Y-93738780D01*
X150137318Y-93772452D01*
X150272005Y-93907139D01*
X150305677Y-94008154D01*
X150305677Y-94075498D01*
X150272005Y-94176513D01*
X151979112Y-94380024D02*
X151979112Y-94447368D01*
X152046456Y-94582055D01*
X152113799Y-94649398D01*
X152248486Y-94716742D01*
X152383173Y-94716742D01*
X152484188Y-94683070D01*
X152652547Y-94582055D01*
X152753562Y-94481040D01*
X152854578Y-94312681D01*
X152888249Y-94211666D01*
X152888249Y-94076979D01*
X152820906Y-93942292D01*
X152753562Y-93874948D01*
X152618875Y-93807605D01*
X152551532Y-93807605D01*
X151238333Y-93773933D02*
X151642394Y-94177994D01*
X151440364Y-93975963D02*
X152147471Y-93268856D01*
X152113799Y-93437215D01*
X152113799Y-93571902D01*
X152147471Y-93672917D01*
X151709738Y-92831124D02*
X151238333Y-92359719D01*
X150834272Y-93369872D01*
X148979112Y-97330024D02*
X148979112Y-97397368D01*
X149046456Y-97532055D01*
X149113799Y-97599398D01*
X149248486Y-97666742D01*
X149383173Y-97666742D01*
X149484188Y-97633070D01*
X149652547Y-97532055D01*
X149753562Y-97431040D01*
X149854578Y-97262681D01*
X149888249Y-97161666D01*
X149888249Y-97026979D01*
X149820906Y-96892292D01*
X149753562Y-96824948D01*
X149618875Y-96757605D01*
X149551532Y-96757605D01*
X148238333Y-96723933D02*
X148642394Y-97127994D01*
X148440364Y-96925963D02*
X149147471Y-96218856D01*
X149113799Y-96387215D01*
X149113799Y-96521902D01*
X149147471Y-96622917D01*
X148238333Y-95915811D02*
X148339349Y-95949482D01*
X148406692Y-95949482D01*
X148507707Y-95915811D01*
X148541379Y-95882139D01*
X148575051Y-95781124D01*
X148575051Y-95713780D01*
X148541379Y-95612765D01*
X148406692Y-95478078D01*
X148305677Y-95444406D01*
X148238333Y-95444406D01*
X148137318Y-95478078D01*
X148103646Y-95511750D01*
X148069975Y-95612765D01*
X148069975Y-95680108D01*
X148103646Y-95781124D01*
X148238333Y-95915811D01*
X148272005Y-96016826D01*
X148272005Y-96084169D01*
X148238333Y-96185185D01*
X148103646Y-96319872D01*
X148002631Y-96353543D01*
X147935288Y-96353543D01*
X147834272Y-96319872D01*
X147699585Y-96185185D01*
X147665914Y-96084169D01*
X147665914Y-96016826D01*
X147699585Y-95915811D01*
X147834272Y-95781124D01*
X147935288Y-95747452D01*
X148002631Y-95747452D01*
X148103646Y-95781124D01*
X152929112Y-93405024D02*
X152929112Y-93472368D01*
X152996456Y-93607055D01*
X153063799Y-93674398D01*
X153198486Y-93741742D01*
X153333173Y-93741742D01*
X153434188Y-93708070D01*
X153602547Y-93607055D01*
X153703562Y-93506040D01*
X153804578Y-93337681D01*
X153838249Y-93236666D01*
X153838249Y-93101979D01*
X153770906Y-92967292D01*
X153703562Y-92899948D01*
X153568875Y-92832605D01*
X153501532Y-92832605D01*
X153232158Y-92563230D02*
X153232158Y-92495887D01*
X153198486Y-92394872D01*
X153030127Y-92226513D01*
X152929112Y-92192841D01*
X152861769Y-92192841D01*
X152760753Y-92226513D01*
X152693410Y-92293856D01*
X152626066Y-92428543D01*
X152626066Y-93236666D01*
X152188333Y-92798933D01*
X152289349Y-91485734D02*
X152424036Y-91620421D01*
X152457707Y-91721437D01*
X152457707Y-91788780D01*
X152424036Y-91957139D01*
X152323020Y-92125498D01*
X152053646Y-92394872D01*
X151952631Y-92428543D01*
X151885288Y-92428543D01*
X151784272Y-92394872D01*
X151649585Y-92260185D01*
X151615914Y-92159169D01*
X151615914Y-92091826D01*
X151649585Y-91990811D01*
X151817944Y-91822452D01*
X151918959Y-91788780D01*
X151986303Y-91788780D01*
X152087318Y-91822452D01*
X152222005Y-91957139D01*
X152255677Y-92058154D01*
X152255677Y-92125498D01*
X152222005Y-92226513D01*
X150004112Y-96305024D02*
X150004112Y-96372368D01*
X150071456Y-96507055D01*
X150138799Y-96574398D01*
X150273486Y-96641742D01*
X150408173Y-96641742D01*
X150509188Y-96608070D01*
X150677547Y-96507055D01*
X150778562Y-96406040D01*
X150879578Y-96237681D01*
X150913249Y-96136666D01*
X150913249Y-96001979D01*
X150845906Y-95867292D01*
X150778562Y-95799948D01*
X150643875Y-95732605D01*
X150576532Y-95732605D01*
X150307158Y-95463230D02*
X150307158Y-95395887D01*
X150273486Y-95294872D01*
X150105127Y-95126513D01*
X150004112Y-95092841D01*
X149936769Y-95092841D01*
X149835753Y-95126513D01*
X149768410Y-95193856D01*
X149701066Y-95328543D01*
X149701066Y-96136666D01*
X149263333Y-95698933D01*
X149734738Y-94756124D02*
X149263333Y-94284719D01*
X148859272Y-95294872D01*
X132167857Y-87182142D02*
X132215476Y-87229761D01*
X132358333Y-87277380D01*
X132453571Y-87277380D01*
X132596428Y-87229761D01*
X132691666Y-87134523D01*
X132739285Y-87039285D01*
X132786904Y-86848809D01*
X132786904Y-86705952D01*
X132739285Y-86515476D01*
X132691666Y-86420238D01*
X132596428Y-86325000D01*
X132453571Y-86277380D01*
X132358333Y-86277380D01*
X132215476Y-86325000D01*
X132167857Y-86372619D01*
X131834523Y-86277380D02*
X131215476Y-86277380D01*
X131548809Y-86658333D01*
X131405952Y-86658333D01*
X131310714Y-86705952D01*
X131263095Y-86753571D01*
X131215476Y-86848809D01*
X131215476Y-87086904D01*
X131263095Y-87182142D01*
X131310714Y-87229761D01*
X131405952Y-87277380D01*
X131691666Y-87277380D01*
X131786904Y-87229761D01*
X131834523Y-87182142D01*
X130310714Y-86277380D02*
X130786904Y-86277380D01*
X130834523Y-86753571D01*
X130786904Y-86705952D01*
X130691666Y-86658333D01*
X130453571Y-86658333D01*
X130358333Y-86705952D01*
X130310714Y-86753571D01*
X130263095Y-86848809D01*
X130263095Y-87086904D01*
X130310714Y-87182142D01*
X130358333Y-87229761D01*
X130453571Y-87277380D01*
X130691666Y-87277380D01*
X130786904Y-87229761D01*
X130834523Y-87182142D01*
X130916666Y-85677380D02*
X131250000Y-85201190D01*
X131488095Y-85677380D02*
X131488095Y-84677380D01*
X131107142Y-84677380D01*
X131011904Y-84725000D01*
X130964285Y-84772619D01*
X130916666Y-84867857D01*
X130916666Y-85010714D01*
X130964285Y-85105952D01*
X131011904Y-85153571D01*
X131107142Y-85201190D01*
X131488095Y-85201190D01*
X129964285Y-85677380D02*
X130535714Y-85677380D01*
X130250000Y-85677380D02*
X130250000Y-84677380D01*
X130345238Y-84820238D01*
X130440476Y-84915476D01*
X130535714Y-84963095D01*
X140761904Y-91652380D02*
X140761904Y-92461904D01*
X140714285Y-92557142D01*
X140666666Y-92604761D01*
X140571428Y-92652380D01*
X140380952Y-92652380D01*
X140285714Y-92604761D01*
X140238095Y-92557142D01*
X140190476Y-92461904D01*
X140190476Y-91652380D01*
X139190476Y-92652380D02*
X139761904Y-92652380D01*
X139476190Y-92652380D02*
X139476190Y-91652380D01*
X139571428Y-91795238D01*
X139666666Y-91890476D01*
X139761904Y-91938095D01*
X127059523Y-80752380D02*
X126392857Y-81752380D01*
X126392857Y-80752380D02*
X127059523Y-81752380D01*
X125488095Y-81752380D02*
X126059523Y-81752380D01*
X125773809Y-81752380D02*
X125773809Y-80752380D01*
X125869047Y-80895238D01*
X125964285Y-80990476D01*
X126059523Y-81038095D01*
X140748095Y-105072380D02*
X140748095Y-104072380D01*
X140367142Y-104072380D01*
X140271904Y-104120000D01*
X140224285Y-104167619D01*
X140176666Y-104262857D01*
X140176666Y-104405714D01*
X140224285Y-104500952D01*
X140271904Y-104548571D01*
X140367142Y-104596190D01*
X140748095Y-104596190D01*
X139843333Y-104072380D02*
X139176666Y-104072380D01*
X139605238Y-105072380D01*
X120742380Y-84321904D02*
X119742380Y-84321904D01*
X119742380Y-84702857D01*
X119790000Y-84798095D01*
X119837619Y-84845714D01*
X119932857Y-84893333D01*
X120075714Y-84893333D01*
X120170952Y-84845714D01*
X120218571Y-84798095D01*
X120266190Y-84702857D01*
X120266190Y-84321904D01*
X120170952Y-85464761D02*
X120123333Y-85369523D01*
X120075714Y-85321904D01*
X119980476Y-85274285D01*
X119932857Y-85274285D01*
X119837619Y-85321904D01*
X119790000Y-85369523D01*
X119742380Y-85464761D01*
X119742380Y-85655238D01*
X119790000Y-85750476D01*
X119837619Y-85798095D01*
X119932857Y-85845714D01*
X119980476Y-85845714D01*
X120075714Y-85798095D01*
X120123333Y-85750476D01*
X120170952Y-85655238D01*
X120170952Y-85464761D01*
X120218571Y-85369523D01*
X120266190Y-85321904D01*
X120361428Y-85274285D01*
X120551904Y-85274285D01*
X120647142Y-85321904D01*
X120694761Y-85369523D01*
X120742380Y-85464761D01*
X120742380Y-85655238D01*
X120694761Y-85750476D01*
X120647142Y-85798095D01*
X120551904Y-85845714D01*
X120361428Y-85845714D01*
X120266190Y-85798095D01*
X120218571Y-85750476D01*
X120170952Y-85655238D01*
X140728095Y-65802380D02*
X140728095Y-64802380D01*
X140347142Y-64802380D01*
X140251904Y-64850000D01*
X140204285Y-64897619D01*
X140156666Y-64992857D01*
X140156666Y-65135714D01*
X140204285Y-65230952D01*
X140251904Y-65278571D01*
X140347142Y-65326190D01*
X140728095Y-65326190D01*
X139680476Y-65802380D02*
X139490000Y-65802380D01*
X139394761Y-65754761D01*
X139347142Y-65707142D01*
X139251904Y-65564285D01*
X139204285Y-65373809D01*
X139204285Y-64992857D01*
X139251904Y-64897619D01*
X139299523Y-64850000D01*
X139394761Y-64802380D01*
X139585238Y-64802380D01*
X139680476Y-64850000D01*
X139728095Y-64897619D01*
X139775714Y-64992857D01*
X139775714Y-65230952D01*
X139728095Y-65326190D01*
X139680476Y-65373809D01*
X139585238Y-65421428D01*
X139394761Y-65421428D01*
X139299523Y-65373809D01*
X139251904Y-65326190D01*
X139204285Y-65230952D01*
X164414285Y-82352380D02*
X164414285Y-81352380D01*
X164033333Y-81352380D01*
X163938095Y-81400000D01*
X163890476Y-81447619D01*
X163842857Y-81542857D01*
X163842857Y-81685714D01*
X163890476Y-81780952D01*
X163938095Y-81828571D01*
X164033333Y-81876190D01*
X164414285Y-81876190D01*
X162890476Y-82352380D02*
X163461904Y-82352380D01*
X163176190Y-82352380D02*
X163176190Y-81352380D01*
X163271428Y-81495238D01*
X163366666Y-81590476D01*
X163461904Y-81638095D01*
X162271428Y-81352380D02*
X162176190Y-81352380D01*
X162080952Y-81400000D01*
X162033333Y-81447619D01*
X161985714Y-81542857D01*
X161938095Y-81733333D01*
X161938095Y-81971428D01*
X161985714Y-82161904D01*
X162033333Y-82257142D01*
X162080952Y-82304761D01*
X162176190Y-82352380D01*
X162271428Y-82352380D01*
X162366666Y-82304761D01*
X162414285Y-82257142D01*
X162461904Y-82161904D01*
X162509523Y-81971428D01*
X162509523Y-81733333D01*
X162461904Y-81542857D01*
X162414285Y-81447619D01*
X162366666Y-81400000D01*
X162271428Y-81352380D01*
M02*
