G04 #@! TF.GenerationSoftware,KiCad,Pcbnew,5.0-dev-unknown-28f1209~61~ubuntu16.04.1*
G04 #@! TF.CreationDate,2018-02-18T17:05:59+01:00*
G04 #@! TF.ProjectId,roboy_crazyfly,726F626F795F6372617A79666C792E6B,rev?*
G04 #@! TF.SameCoordinates,Original*
G04 #@! TF.FileFunction,Legend,Top*
G04 #@! TF.FilePolarity,Positive*
%FSLAX46Y46*%
G04 Gerber Fmt 4.6, Leading zero omitted, Abs format (unit mm)*
G04 Created by KiCad (PCBNEW 5.0-dev-unknown-28f1209~61~ubuntu16.04.1) date Sun Feb 18 17:05:59 2018*
%MOMM*%
%LPD*%
G01*
G04 APERTURE LIST*
%ADD10C,0.150000*%
%ADD11C,0.120000*%
%ADD12C,0.350000*%
G04 APERTURE END LIST*
D10*
X127600000Y-97803949D02*
X118619744Y-88823693D01*
X118619744Y-88823693D02*
X116823693Y-90619744D01*
X116823693Y-90619744D02*
X125803949Y-99600000D01*
X129792031Y-99600000D02*
X128696016Y-98503984D01*
X127600000Y-97803949D02*
X125803949Y-99600000D01*
X126503984Y-100696016D02*
X127600000Y-101792031D01*
X127600000Y-101792031D02*
X129792031Y-99600000D01*
X137500000Y-81650000D02*
X137500000Y-81150000D01*
X136550000Y-81150000D02*
X136550000Y-81650000D01*
X151500000Y-96425000D02*
X151000000Y-96425000D01*
X151000000Y-97375000D02*
X151500000Y-97375000D01*
X135050000Y-103625000D02*
X134550000Y-103625000D01*
X134550000Y-104575000D02*
X135050000Y-104575000D01*
X124350000Y-86525000D02*
X123850000Y-86525000D01*
X123850000Y-87475000D02*
X124350000Y-87475000D01*
X143025000Y-76850000D02*
X143025000Y-77350000D01*
X143975000Y-77350000D02*
X143975000Y-76850000D01*
X127200000Y-95525000D02*
X127200000Y-96025000D01*
X128150000Y-96025000D02*
X128150000Y-95525000D01*
X140250000Y-79725000D02*
X140750000Y-79725000D01*
X140750000Y-78775000D02*
X140250000Y-78775000D01*
X132525000Y-84500000D02*
X132525000Y-85000000D01*
X133475000Y-85000000D02*
X133475000Y-84500000D01*
X140250000Y-81225000D02*
X140750000Y-81225000D01*
X140750000Y-80275000D02*
X140250000Y-80275000D01*
X131025000Y-84500000D02*
X131025000Y-85000000D01*
X131975000Y-85000000D02*
X131975000Y-84500000D01*
X140250000Y-82725000D02*
X140750000Y-82725000D01*
X140750000Y-81775000D02*
X140250000Y-81775000D01*
X134875000Y-92950000D02*
X134875000Y-92450000D01*
X133925000Y-92450000D02*
X133925000Y-92950000D01*
X141425000Y-89100000D02*
X140925000Y-89100000D01*
X140925000Y-90050000D02*
X141425000Y-90050000D01*
X140475000Y-96750000D02*
X140475000Y-96250000D01*
X139525000Y-96250000D02*
X139525000Y-96750000D01*
X152650000Y-92325000D02*
X152150000Y-92325000D01*
X152150000Y-93275000D02*
X152650000Y-93275000D01*
X145525000Y-86450000D02*
X145525000Y-86950000D01*
X146475000Y-86950000D02*
X146475000Y-86450000D01*
X152650000Y-90725000D02*
X152150000Y-90725000D01*
X152150000Y-91675000D02*
X152650000Y-91675000D01*
X125825000Y-77550000D02*
X125825000Y-78050000D01*
X126775000Y-78050000D02*
X126775000Y-77550000D01*
X149425000Y-86550000D02*
X149425000Y-87050000D01*
X150375000Y-87050000D02*
X150375000Y-86550000D01*
X127550000Y-89275000D02*
X128050000Y-89275000D01*
X128050000Y-88325000D02*
X127550000Y-88325000D01*
X127225000Y-79750000D02*
X127225000Y-80250000D01*
X128175000Y-80250000D02*
X128175000Y-79750000D01*
X148475000Y-87050000D02*
X148475000Y-86550000D01*
X147525000Y-86550000D02*
X147525000Y-87050000D01*
X125825000Y-80550000D02*
X125825000Y-81050000D01*
X126775000Y-81050000D02*
X126775000Y-80550000D01*
X142925000Y-84850000D02*
X142925000Y-85350000D01*
X143875000Y-85350000D02*
X143875000Y-84850000D01*
X150898439Y-72919093D02*
X151251992Y-73272646D01*
X151923743Y-72600895D02*
X151570190Y-72247342D01*
X146125000Y-81450000D02*
X146125000Y-81950000D01*
X147075000Y-81950000D02*
X147075000Y-81450000D01*
D11*
X149415685Y-69547792D02*
X150122792Y-68840685D01*
X150122792Y-68840685D02*
X148637868Y-67355761D01*
X149415685Y-69547792D02*
X147930761Y-68062868D01*
X138700000Y-112900000D02*
X139700000Y-112900000D01*
X139700000Y-112900000D02*
X139700000Y-110800000D01*
X138700000Y-112900000D02*
X138700000Y-110800000D01*
X111800000Y-83500000D02*
X111800000Y-84500000D01*
X111800000Y-84500000D02*
X113900000Y-84500000D01*
X111800000Y-83500000D02*
X113900000Y-83500000D01*
X138600000Y-59600000D02*
X139600000Y-59600000D01*
X139600000Y-59600000D02*
X139600000Y-57500000D01*
X138600000Y-59600000D02*
X138600000Y-57500000D01*
X167900000Y-84600000D02*
X167900000Y-83600000D01*
X167900000Y-83600000D02*
X165800000Y-83600000D01*
X167900000Y-84600000D02*
X165800000Y-84600000D01*
X141700000Y-96500000D02*
X141700000Y-97500000D01*
X141700000Y-97500000D02*
X143800000Y-97500000D01*
X141700000Y-96500000D02*
X143800000Y-96500000D01*
D10*
X142550000Y-99450000D02*
X141000000Y-99450000D01*
X137190000Y-99730000D02*
X139730000Y-99730000D01*
X139730000Y-99730000D02*
X139730000Y-102270000D01*
X141000000Y-102550000D02*
X142550000Y-102550000D01*
X142550000Y-102550000D02*
X142550000Y-99450000D01*
X139730000Y-102270000D02*
X137190000Y-102270000D01*
X137190000Y-102270000D02*
X137190000Y-99730000D01*
X135600000Y-67996051D02*
X130211846Y-73384205D01*
X133803949Y-66200000D02*
X128415795Y-71588154D01*
X135600000Y-64007969D02*
X134503984Y-65103984D01*
X130211846Y-73384205D02*
X128415795Y-71588154D01*
X133803949Y-66200000D02*
X135600000Y-67996051D01*
X136696016Y-67296016D02*
X137792031Y-66200000D01*
X137792031Y-66200000D02*
X135600000Y-64007969D01*
X160103949Y-91000000D02*
X143939488Y-107164461D01*
X143939488Y-107164461D02*
X145735539Y-108960512D01*
X145735539Y-108960512D02*
X161900000Y-92796051D01*
X161900000Y-88807969D02*
X160803984Y-89903984D01*
X160103949Y-91000000D02*
X161900000Y-92796051D01*
X162996016Y-92096016D02*
X164092031Y-91000000D01*
X164092031Y-91000000D02*
X161900000Y-88807969D01*
X119596051Y-79500000D02*
X135760512Y-63335539D01*
X135760512Y-63335539D02*
X133964461Y-61539488D01*
X133964461Y-61539488D02*
X117800000Y-77703949D01*
X117800000Y-81692031D02*
X118896016Y-80596016D01*
X119596051Y-79500000D02*
X117800000Y-77703949D01*
X116703984Y-78403984D02*
X115607969Y-79500000D01*
X115607969Y-79500000D02*
X117800000Y-81692031D01*
D11*
X140760000Y-109580000D02*
X140760000Y-108650000D01*
X140760000Y-106420000D02*
X140760000Y-107350000D01*
X140760000Y-106420000D02*
X138600000Y-106420000D01*
X140760000Y-109580000D02*
X139300000Y-109580000D01*
X115420000Y-85760000D02*
X116350000Y-85760000D01*
X118580000Y-85760000D02*
X117650000Y-85760000D01*
X118580000Y-85760000D02*
X118580000Y-83600000D01*
X115420000Y-85760000D02*
X115420000Y-84300000D01*
X139240000Y-60420000D02*
X139240000Y-61350000D01*
X139240000Y-63580000D02*
X139240000Y-62650000D01*
X139240000Y-63580000D02*
X141400000Y-63580000D01*
X139240000Y-60420000D02*
X140700000Y-60420000D01*
X164580000Y-84240000D02*
X163650000Y-84240000D01*
X161420000Y-84240000D02*
X162350000Y-84240000D01*
X161420000Y-84240000D02*
X161420000Y-86400000D01*
X164580000Y-84240000D02*
X164580000Y-85700000D01*
D10*
X147151992Y-69719454D02*
X147505546Y-70073008D01*
X148248008Y-69330546D02*
X147894454Y-68976992D01*
X141425000Y-111350000D02*
X141425000Y-110850000D01*
X140375000Y-110850000D02*
X140375000Y-111350000D01*
X135525000Y-76550000D02*
X135525000Y-76050000D01*
X134475000Y-76050000D02*
X134475000Y-76550000D01*
X113350000Y-85475000D02*
X112850000Y-85475000D01*
X112850000Y-86525000D02*
X113350000Y-86525000D01*
X134475000Y-74050000D02*
X134475000Y-74550000D01*
X135525000Y-74550000D02*
X135525000Y-74050000D01*
X141425000Y-59250000D02*
X141425000Y-58750000D01*
X140375000Y-58750000D02*
X140375000Y-59250000D01*
X165950000Y-86425000D02*
X166450000Y-86425000D01*
X166450000Y-85375000D02*
X165950000Y-85375000D01*
X136075000Y-74050000D02*
X136075000Y-74550000D01*
X137125000Y-74550000D02*
X137125000Y-74050000D01*
X137125000Y-76550000D02*
X137125000Y-76050000D01*
X136075000Y-76050000D02*
X136075000Y-76550000D01*
X142050000Y-97975000D02*
X141550000Y-97975000D01*
X141550000Y-99025000D02*
X142050000Y-99025000D01*
X133875000Y-90150000D02*
X133875000Y-90650000D01*
X134925000Y-90650000D02*
X134925000Y-90150000D01*
X135775000Y-89050000D02*
X135775000Y-89550000D01*
X136825000Y-89550000D02*
X136825000Y-89050000D01*
X148450000Y-97525000D02*
X148950000Y-97525000D01*
X148950000Y-96475000D02*
X148450000Y-96475000D01*
X145350000Y-97525000D02*
X145850000Y-97525000D01*
X145850000Y-96475000D02*
X145350000Y-96475000D01*
X141425000Y-90375000D02*
X140925000Y-90375000D01*
X140925000Y-91425000D02*
X141425000Y-91425000D01*
X137675000Y-89050000D02*
X137675000Y-89550000D01*
X138725000Y-89550000D02*
X138725000Y-89050000D01*
X133875000Y-94850000D02*
X133875000Y-95350000D01*
X134925000Y-95350000D02*
X134925000Y-94850000D01*
X136925000Y-96750000D02*
X136925000Y-96250000D01*
X135875000Y-96250000D02*
X135875000Y-96750000D01*
X138825000Y-96750000D02*
X138825000Y-96250000D01*
X137775000Y-96250000D02*
X137775000Y-96750000D01*
X151175000Y-94550000D02*
X151175000Y-95050000D01*
X152225000Y-95050000D02*
X152225000Y-94550000D01*
X143750000Y-87825000D02*
X144250000Y-87825000D01*
X144250000Y-86775000D02*
X143750000Y-86775000D01*
X154950000Y-87775000D02*
X154450000Y-87775000D01*
X154450000Y-88825000D02*
X154950000Y-88825000D01*
X157925000Y-79350000D02*
X157925000Y-78850000D01*
X156875000Y-78850000D02*
X156875000Y-79350000D01*
D11*
X139100000Y-76610000D02*
X140900000Y-76610000D01*
X140900000Y-73390000D02*
X138450000Y-73390000D01*
D10*
X139200000Y-85200000D02*
X139200000Y-84200000D01*
X139200000Y-84200000D02*
X140800000Y-84200000D01*
X140800000Y-84200000D02*
X140800000Y-85800000D01*
X140800000Y-85800000D02*
X139800000Y-85800000D01*
X139800000Y-85800000D02*
X139200000Y-85200000D01*
X133850000Y-83800000D02*
X136350000Y-83800000D01*
X136350000Y-83800000D02*
X136350000Y-86400000D01*
X136350000Y-86400000D02*
X133850000Y-86400000D01*
X133850000Y-86400000D02*
X133850000Y-83800000D01*
X149825000Y-88975000D02*
X149825000Y-89575000D01*
X143575000Y-95225000D02*
X143575000Y-94625000D01*
X149825000Y-95225000D02*
X149825000Y-94625000D01*
X143575000Y-88975000D02*
X144175000Y-88975000D01*
X143575000Y-95225000D02*
X144175000Y-95225000D01*
X149825000Y-95225000D02*
X149225000Y-95225000D01*
X149825000Y-88975000D02*
X149225000Y-88975000D01*
X136375000Y-91375000D02*
X136875000Y-91375000D01*
X139625000Y-94625000D02*
X139125000Y-94625000D01*
X139625000Y-91375000D02*
X139125000Y-91375000D01*
X136375000Y-94625000D02*
X136375000Y-94125000D01*
X139625000Y-94625000D02*
X139625000Y-94125000D01*
X139625000Y-91375000D02*
X139625000Y-91875000D01*
X136375000Y-91375000D02*
X136375000Y-91875000D01*
D11*
X144800000Y-79400000D02*
X143200000Y-79400000D01*
X143200000Y-82600000D02*
X145500000Y-82600000D01*
D10*
X157100000Y-89900000D02*
X157100000Y-90800000D01*
D12*
X157000000Y-91300000D02*
X155000000Y-91300000D01*
D10*
X155133794Y-74082144D02*
X155487347Y-74435697D01*
X155133794Y-78678338D02*
X154780241Y-78324785D01*
X157431891Y-76380241D02*
X157078338Y-76026688D01*
X152835697Y-76380241D02*
X153189250Y-76026688D01*
X155133794Y-78678338D02*
X155487347Y-78324785D01*
X157431891Y-76380241D02*
X157078338Y-76733794D01*
X155133794Y-74082144D02*
X154780241Y-74435697D01*
X139775000Y-104200000D02*
X139775000Y-103700000D01*
X138825000Y-103700000D02*
X138825000Y-104200000D01*
X119750000Y-85475000D02*
X120250000Y-85475000D01*
X120250000Y-84525000D02*
X119750000Y-84525000D01*
X140250000Y-65525000D02*
X139750000Y-65525000D01*
X139750000Y-66475000D02*
X140250000Y-66475000D01*
X160250000Y-84525000D02*
X159750000Y-84525000D01*
X159750000Y-85475000D02*
X160250000Y-85475000D01*
X130375000Y-84050000D02*
X130375000Y-83550000D01*
X129425000Y-83550000D02*
X129425000Y-84050000D01*
X151787348Y-72059099D02*
X152140901Y-72412652D01*
X152812652Y-71740901D02*
X152459099Y-71387348D01*
X152687348Y-71159099D02*
X153040901Y-71512652D01*
X153712652Y-70840901D02*
X153359099Y-70487348D01*
X136775000Y-107750000D02*
X136775000Y-108250000D01*
X137825000Y-108250000D02*
X137825000Y-107750000D01*
X117150000Y-81875000D02*
X116650000Y-81875000D01*
X116650000Y-82925000D02*
X117150000Y-82925000D01*
X143125000Y-62150000D02*
X143125000Y-61650000D01*
X142075000Y-61650000D02*
X142075000Y-62150000D01*
X162400000Y-87075000D02*
X161900000Y-87075000D01*
X161900000Y-88125000D02*
X162400000Y-88125000D01*
X135175000Y-107350000D02*
X135175000Y-107850000D01*
X136225000Y-107850000D02*
X136225000Y-107350000D01*
X120750000Y-82775000D02*
X120250000Y-82775000D01*
X120250000Y-83825000D02*
X120750000Y-83825000D01*
X144625000Y-62850000D02*
X144625000Y-62350000D01*
X143575000Y-62350000D02*
X143575000Y-62850000D01*
X159700000Y-87375000D02*
X160200000Y-87375000D01*
X160200000Y-86325000D02*
X159700000Y-86325000D01*
D11*
X130481500Y-81556500D02*
X132281500Y-81556500D01*
X132281500Y-78336500D02*
X129831500Y-78336500D01*
D10*
X155302944Y-67765685D02*
X157565685Y-65502944D01*
X157565685Y-65502944D02*
X158697056Y-66634315D01*
X158697056Y-66634315D02*
X156434315Y-68897056D01*
X156434315Y-68897056D02*
X155302944Y-67765685D01*
X130741421Y-105279899D02*
X128620101Y-103158579D01*
X128620101Y-103158579D02*
X130387868Y-101390812D01*
X130387868Y-101390812D02*
X132509188Y-103512132D01*
X132509188Y-103512132D02*
X130741421Y-105279899D01*
X151700000Y-78500000D02*
X148500000Y-78500000D01*
X148500000Y-81000000D02*
X148500000Y-78500000D01*
X151700000Y-78500000D02*
X151700000Y-81000000D01*
X148500000Y-81000000D02*
X151700000Y-81000000D01*
X154956497Y-81722183D02*
X156370711Y-80307969D01*
X156370711Y-80307969D02*
X157219239Y-81156497D01*
X157219239Y-81156497D02*
X155805025Y-82570711D01*
X155805025Y-82570711D02*
X154956497Y-81722183D01*
X128958206Y-98397969D02*
X129665312Y-97690862D01*
X129934687Y-97960236D01*
X129968358Y-98061251D01*
X129968358Y-98128595D01*
X129934687Y-98229610D01*
X129833671Y-98330625D01*
X129732656Y-98364297D01*
X129665312Y-98364297D01*
X129564297Y-98330625D01*
X129294923Y-98061251D01*
X130305076Y-98330625D02*
X130742809Y-98768358D01*
X130237732Y-98802030D01*
X130338748Y-98903045D01*
X130372419Y-99004061D01*
X130372419Y-99071404D01*
X130338748Y-99172419D01*
X130170389Y-99340778D01*
X130069374Y-99374450D01*
X130002030Y-99374450D01*
X129901015Y-99340778D01*
X129698984Y-99138748D01*
X129665312Y-99037732D01*
X129665312Y-98970389D01*
X137257142Y-83666666D02*
X137304761Y-83714285D01*
X137352380Y-83857142D01*
X137352380Y-83952380D01*
X137304761Y-84095238D01*
X137209523Y-84190476D01*
X137114285Y-84238095D01*
X136923809Y-84285714D01*
X136780952Y-84285714D01*
X136590476Y-84238095D01*
X136495238Y-84190476D01*
X136400000Y-84095238D01*
X136352380Y-83952380D01*
X136352380Y-83857142D01*
X136400000Y-83714285D01*
X136447619Y-83666666D01*
X137352380Y-82714285D02*
X137352380Y-83285714D01*
X137352380Y-83000000D02*
X136352380Y-83000000D01*
X136495238Y-83095238D01*
X136590476Y-83190476D01*
X136638095Y-83285714D01*
X151633333Y-98457142D02*
X151585714Y-98504761D01*
X151442857Y-98552380D01*
X151347619Y-98552380D01*
X151204761Y-98504761D01*
X151109523Y-98409523D01*
X151061904Y-98314285D01*
X151014285Y-98123809D01*
X151014285Y-97980952D01*
X151061904Y-97790476D01*
X151109523Y-97695238D01*
X151204761Y-97600000D01*
X151347619Y-97552380D01*
X151442857Y-97552380D01*
X151585714Y-97600000D01*
X151633333Y-97647619D01*
X152014285Y-97647619D02*
X152061904Y-97600000D01*
X152157142Y-97552380D01*
X152395238Y-97552380D01*
X152490476Y-97600000D01*
X152538095Y-97647619D01*
X152585714Y-97742857D01*
X152585714Y-97838095D01*
X152538095Y-97980952D01*
X151966666Y-98552380D01*
X152585714Y-98552380D01*
X134633333Y-103257142D02*
X134585714Y-103304761D01*
X134442857Y-103352380D01*
X134347619Y-103352380D01*
X134204761Y-103304761D01*
X134109523Y-103209523D01*
X134061904Y-103114285D01*
X134014285Y-102923809D01*
X134014285Y-102780952D01*
X134061904Y-102590476D01*
X134109523Y-102495238D01*
X134204761Y-102400000D01*
X134347619Y-102352380D01*
X134442857Y-102352380D01*
X134585714Y-102400000D01*
X134633333Y-102447619D01*
X134966666Y-102352380D02*
X135585714Y-102352380D01*
X135252380Y-102733333D01*
X135395238Y-102733333D01*
X135490476Y-102780952D01*
X135538095Y-102828571D01*
X135585714Y-102923809D01*
X135585714Y-103161904D01*
X135538095Y-103257142D01*
X135490476Y-103304761D01*
X135395238Y-103352380D01*
X135109523Y-103352380D01*
X135014285Y-103304761D01*
X134966666Y-103257142D01*
X123933333Y-85657142D02*
X123885714Y-85704761D01*
X123742857Y-85752380D01*
X123647619Y-85752380D01*
X123504761Y-85704761D01*
X123409523Y-85609523D01*
X123361904Y-85514285D01*
X123314285Y-85323809D01*
X123314285Y-85180952D01*
X123361904Y-84990476D01*
X123409523Y-84895238D01*
X123504761Y-84800000D01*
X123647619Y-84752380D01*
X123742857Y-84752380D01*
X123885714Y-84800000D01*
X123933333Y-84847619D01*
X124790476Y-85085714D02*
X124790476Y-85752380D01*
X124552380Y-84704761D02*
X124314285Y-85419047D01*
X124933333Y-85419047D01*
X145057142Y-77366666D02*
X145104761Y-77414285D01*
X145152380Y-77557142D01*
X145152380Y-77652380D01*
X145104761Y-77795238D01*
X145009523Y-77890476D01*
X144914285Y-77938095D01*
X144723809Y-77985714D01*
X144580952Y-77985714D01*
X144390476Y-77938095D01*
X144295238Y-77890476D01*
X144200000Y-77795238D01*
X144152380Y-77652380D01*
X144152380Y-77557142D01*
X144200000Y-77414285D01*
X144247619Y-77366666D01*
X144152380Y-76509523D02*
X144152380Y-76700000D01*
X144200000Y-76795238D01*
X144247619Y-76842857D01*
X144390476Y-76938095D01*
X144580952Y-76985714D01*
X144961904Y-76985714D01*
X145057142Y-76938095D01*
X145104761Y-76890476D01*
X145152380Y-76795238D01*
X145152380Y-76604761D01*
X145104761Y-76509523D01*
X145057142Y-76461904D01*
X144961904Y-76414285D01*
X144723809Y-76414285D01*
X144628571Y-76461904D01*
X144580952Y-76509523D01*
X144533333Y-76604761D01*
X144533333Y-76795238D01*
X144580952Y-76890476D01*
X144628571Y-76938095D01*
X144723809Y-76985714D01*
X126332142Y-95941666D02*
X126379761Y-95989285D01*
X126427380Y-96132142D01*
X126427380Y-96227380D01*
X126379761Y-96370238D01*
X126284523Y-96465476D01*
X126189285Y-96513095D01*
X125998809Y-96560714D01*
X125855952Y-96560714D01*
X125665476Y-96513095D01*
X125570238Y-96465476D01*
X125475000Y-96370238D01*
X125427380Y-96227380D01*
X125427380Y-96132142D01*
X125475000Y-95989285D01*
X125522619Y-95941666D01*
X125427380Y-95608333D02*
X125427380Y-94941666D01*
X126427380Y-95370238D01*
X139857142Y-78457142D02*
X139809523Y-78504761D01*
X139666666Y-78552380D01*
X139571428Y-78552380D01*
X139428571Y-78504761D01*
X139333333Y-78409523D01*
X139285714Y-78314285D01*
X139238095Y-78123809D01*
X139238095Y-77980952D01*
X139285714Y-77790476D01*
X139333333Y-77695238D01*
X139428571Y-77600000D01*
X139571428Y-77552380D01*
X139666666Y-77552380D01*
X139809523Y-77600000D01*
X139857142Y-77647619D01*
X140809523Y-78552380D02*
X140238095Y-78552380D01*
X140523809Y-78552380D02*
X140523809Y-77552380D01*
X140428571Y-77695238D01*
X140333333Y-77790476D01*
X140238095Y-77838095D01*
X141428571Y-77552380D02*
X141523809Y-77552380D01*
X141619047Y-77600000D01*
X141666666Y-77647619D01*
X141714285Y-77742857D01*
X141761904Y-77933333D01*
X141761904Y-78171428D01*
X141714285Y-78361904D01*
X141666666Y-78457142D01*
X141619047Y-78504761D01*
X141523809Y-78552380D01*
X141428571Y-78552380D01*
X141333333Y-78504761D01*
X141285714Y-78457142D01*
X141238095Y-78361904D01*
X141190476Y-78171428D01*
X141190476Y-77933333D01*
X141238095Y-77742857D01*
X141285714Y-77647619D01*
X141333333Y-77600000D01*
X141428571Y-77552380D01*
X131657142Y-85392857D02*
X131704761Y-85440476D01*
X131752380Y-85583333D01*
X131752380Y-85678571D01*
X131704761Y-85821428D01*
X131609523Y-85916666D01*
X131514285Y-85964285D01*
X131323809Y-86011904D01*
X131180952Y-86011904D01*
X130990476Y-85964285D01*
X130895238Y-85916666D01*
X130800000Y-85821428D01*
X130752380Y-85678571D01*
X130752380Y-85583333D01*
X130800000Y-85440476D01*
X130847619Y-85392857D01*
X131752380Y-84440476D02*
X131752380Y-85011904D01*
X131752380Y-84726190D02*
X130752380Y-84726190D01*
X130895238Y-84821428D01*
X130990476Y-84916666D01*
X131038095Y-85011904D01*
X131752380Y-83488095D02*
X131752380Y-84059523D01*
X131752380Y-83773809D02*
X130752380Y-83773809D01*
X130895238Y-83869047D01*
X130990476Y-83964285D01*
X131038095Y-84059523D01*
X137885714Y-81185714D02*
X137847619Y-81223809D01*
X137733333Y-81261904D01*
X137657142Y-81261904D01*
X137542857Y-81223809D01*
X137466666Y-81147619D01*
X137428571Y-81071428D01*
X137390476Y-80919047D01*
X137390476Y-80804761D01*
X137428571Y-80652380D01*
X137466666Y-80576190D01*
X137542857Y-80500000D01*
X137657142Y-80461904D01*
X137733333Y-80461904D01*
X137847619Y-80500000D01*
X137885714Y-80538095D01*
X138647619Y-81261904D02*
X138190476Y-81261904D01*
X138419047Y-81261904D02*
X138419047Y-80461904D01*
X138342857Y-80576190D01*
X138266666Y-80652380D01*
X138190476Y-80690476D01*
X138952380Y-80538095D02*
X138990476Y-80500000D01*
X139066666Y-80461904D01*
X139257142Y-80461904D01*
X139333333Y-80500000D01*
X139371428Y-80538095D01*
X139409523Y-80614285D01*
X139409523Y-80690476D01*
X139371428Y-80804761D01*
X138914285Y-81261904D01*
X139409523Y-81261904D01*
X130157142Y-85392857D02*
X130204761Y-85440476D01*
X130252380Y-85583333D01*
X130252380Y-85678571D01*
X130204761Y-85821428D01*
X130109523Y-85916666D01*
X130014285Y-85964285D01*
X129823809Y-86011904D01*
X129680952Y-86011904D01*
X129490476Y-85964285D01*
X129395238Y-85916666D01*
X129300000Y-85821428D01*
X129252380Y-85678571D01*
X129252380Y-85583333D01*
X129300000Y-85440476D01*
X129347619Y-85392857D01*
X130252380Y-84440476D02*
X130252380Y-85011904D01*
X130252380Y-84726190D02*
X129252380Y-84726190D01*
X129395238Y-84821428D01*
X129490476Y-84916666D01*
X129538095Y-85011904D01*
X129252380Y-84107142D02*
X129252380Y-83488095D01*
X129633333Y-83821428D01*
X129633333Y-83678571D01*
X129680952Y-83583333D01*
X129728571Y-83535714D01*
X129823809Y-83488095D01*
X130061904Y-83488095D01*
X130157142Y-83535714D01*
X130204761Y-83583333D01*
X130252380Y-83678571D01*
X130252380Y-83964285D01*
X130204761Y-84059523D01*
X130157142Y-84107142D01*
X139857142Y-84307142D02*
X139809523Y-84354761D01*
X139666666Y-84402380D01*
X139571428Y-84402380D01*
X139428571Y-84354761D01*
X139333333Y-84259523D01*
X139285714Y-84164285D01*
X139238095Y-83973809D01*
X139238095Y-83830952D01*
X139285714Y-83640476D01*
X139333333Y-83545238D01*
X139428571Y-83450000D01*
X139571428Y-83402380D01*
X139666666Y-83402380D01*
X139809523Y-83450000D01*
X139857142Y-83497619D01*
X140809523Y-84402380D02*
X140238095Y-84402380D01*
X140523809Y-84402380D02*
X140523809Y-83402380D01*
X140428571Y-83545238D01*
X140333333Y-83640476D01*
X140238095Y-83688095D01*
X141666666Y-83735714D02*
X141666666Y-84402380D01*
X141428571Y-83354761D02*
X141190476Y-84069047D01*
X141809523Y-84069047D01*
X136457142Y-93342857D02*
X136504761Y-93390476D01*
X136552380Y-93533333D01*
X136552380Y-93628571D01*
X136504761Y-93771428D01*
X136409523Y-93866666D01*
X136314285Y-93914285D01*
X136123809Y-93961904D01*
X135980952Y-93961904D01*
X135790476Y-93914285D01*
X135695238Y-93866666D01*
X135600000Y-93771428D01*
X135552380Y-93628571D01*
X135552380Y-93533333D01*
X135600000Y-93390476D01*
X135647619Y-93342857D01*
X136552380Y-92390476D02*
X136552380Y-92961904D01*
X136552380Y-92676190D02*
X135552380Y-92676190D01*
X135695238Y-92771428D01*
X135790476Y-92866666D01*
X135838095Y-92961904D01*
X135552380Y-91485714D02*
X135552380Y-91961904D01*
X136028571Y-92009523D01*
X135980952Y-91961904D01*
X135933333Y-91866666D01*
X135933333Y-91628571D01*
X135980952Y-91533333D01*
X136028571Y-91485714D01*
X136123809Y-91438095D01*
X136361904Y-91438095D01*
X136457142Y-91485714D01*
X136504761Y-91533333D01*
X136552380Y-91628571D01*
X136552380Y-91866666D01*
X136504761Y-91961904D01*
X136457142Y-92009523D01*
X140557142Y-88757142D02*
X140509523Y-88804761D01*
X140366666Y-88852380D01*
X140271428Y-88852380D01*
X140128571Y-88804761D01*
X140033333Y-88709523D01*
X139985714Y-88614285D01*
X139938095Y-88423809D01*
X139938095Y-88280952D01*
X139985714Y-88090476D01*
X140033333Y-87995238D01*
X140128571Y-87900000D01*
X140271428Y-87852380D01*
X140366666Y-87852380D01*
X140509523Y-87900000D01*
X140557142Y-87947619D01*
X141509523Y-88852380D02*
X140938095Y-88852380D01*
X141223809Y-88852380D02*
X141223809Y-87852380D01*
X141128571Y-87995238D01*
X141033333Y-88090476D01*
X140938095Y-88138095D01*
X141985714Y-88852380D02*
X142176190Y-88852380D01*
X142271428Y-88804761D01*
X142319047Y-88757142D01*
X142414285Y-88614285D01*
X142461904Y-88423809D01*
X142461904Y-88042857D01*
X142414285Y-87947619D01*
X142366666Y-87900000D01*
X142271428Y-87852380D01*
X142080952Y-87852380D01*
X141985714Y-87900000D01*
X141938095Y-87947619D01*
X141890476Y-88042857D01*
X141890476Y-88280952D01*
X141938095Y-88376190D01*
X141985714Y-88423809D01*
X142080952Y-88471428D01*
X142271428Y-88471428D01*
X142366666Y-88423809D01*
X142414285Y-88376190D01*
X142461904Y-88280952D01*
X139685714Y-99114285D02*
X139723809Y-99152380D01*
X139761904Y-99266666D01*
X139761904Y-99342857D01*
X139723809Y-99457142D01*
X139647619Y-99533333D01*
X139571428Y-99571428D01*
X139419047Y-99609523D01*
X139304761Y-99609523D01*
X139152380Y-99571428D01*
X139076190Y-99533333D01*
X139000000Y-99457142D01*
X138961904Y-99342857D01*
X138961904Y-99266666D01*
X139000000Y-99152380D01*
X139038095Y-99114285D01*
X139038095Y-98809523D02*
X139000000Y-98771428D01*
X138961904Y-98695238D01*
X138961904Y-98504761D01*
X139000000Y-98428571D01*
X139038095Y-98390476D01*
X139114285Y-98352380D01*
X139190476Y-98352380D01*
X139304761Y-98390476D01*
X139761904Y-98847619D01*
X139761904Y-98352380D01*
X138961904Y-97857142D02*
X138961904Y-97780952D01*
X139000000Y-97704761D01*
X139038095Y-97666666D01*
X139114285Y-97628571D01*
X139266666Y-97590476D01*
X139457142Y-97590476D01*
X139609523Y-97628571D01*
X139685714Y-97666666D01*
X139723809Y-97704761D01*
X139761904Y-97780952D01*
X139761904Y-97857142D01*
X139723809Y-97933333D01*
X139685714Y-97971428D01*
X139609523Y-98009523D01*
X139457142Y-98047619D01*
X139266666Y-98047619D01*
X139114285Y-98009523D01*
X139038095Y-97971428D01*
X139000000Y-97933333D01*
X138961904Y-97857142D01*
X154557142Y-93442857D02*
X154604761Y-93490476D01*
X154652380Y-93633333D01*
X154652380Y-93728571D01*
X154604761Y-93871428D01*
X154509523Y-93966666D01*
X154414285Y-94014285D01*
X154223809Y-94061904D01*
X154080952Y-94061904D01*
X153890476Y-94014285D01*
X153795238Y-93966666D01*
X153700000Y-93871428D01*
X153652380Y-93728571D01*
X153652380Y-93633333D01*
X153700000Y-93490476D01*
X153747619Y-93442857D01*
X153747619Y-93061904D02*
X153700000Y-93014285D01*
X153652380Y-92919047D01*
X153652380Y-92680952D01*
X153700000Y-92585714D01*
X153747619Y-92538095D01*
X153842857Y-92490476D01*
X153938095Y-92490476D01*
X154080952Y-92538095D01*
X154652380Y-93109523D01*
X154652380Y-92490476D01*
X154652380Y-91538095D02*
X154652380Y-92109523D01*
X154652380Y-91823809D02*
X153652380Y-91823809D01*
X153795238Y-91919047D01*
X153890476Y-92014285D01*
X153938095Y-92109523D01*
X146357142Y-84842857D02*
X146404761Y-84890476D01*
X146452380Y-85033333D01*
X146452380Y-85128571D01*
X146404761Y-85271428D01*
X146309523Y-85366666D01*
X146214285Y-85414285D01*
X146023809Y-85461904D01*
X145880952Y-85461904D01*
X145690476Y-85414285D01*
X145595238Y-85366666D01*
X145500000Y-85271428D01*
X145452380Y-85128571D01*
X145452380Y-85033333D01*
X145500000Y-84890476D01*
X145547619Y-84842857D01*
X145547619Y-84461904D02*
X145500000Y-84414285D01*
X145452380Y-84319047D01*
X145452380Y-84080952D01*
X145500000Y-83985714D01*
X145547619Y-83938095D01*
X145642857Y-83890476D01*
X145738095Y-83890476D01*
X145880952Y-83938095D01*
X146452380Y-84509523D01*
X146452380Y-83890476D01*
X145547619Y-83509523D02*
X145500000Y-83461904D01*
X145452380Y-83366666D01*
X145452380Y-83128571D01*
X145500000Y-83033333D01*
X145547619Y-82985714D01*
X145642857Y-82938095D01*
X145738095Y-82938095D01*
X145880952Y-82985714D01*
X146452380Y-83557142D01*
X146452380Y-82938095D01*
X151857142Y-90457142D02*
X151809523Y-90504761D01*
X151666666Y-90552380D01*
X151571428Y-90552380D01*
X151428571Y-90504761D01*
X151333333Y-90409523D01*
X151285714Y-90314285D01*
X151238095Y-90123809D01*
X151238095Y-89980952D01*
X151285714Y-89790476D01*
X151333333Y-89695238D01*
X151428571Y-89600000D01*
X151571428Y-89552380D01*
X151666666Y-89552380D01*
X151809523Y-89600000D01*
X151857142Y-89647619D01*
X152238095Y-89647619D02*
X152285714Y-89600000D01*
X152380952Y-89552380D01*
X152619047Y-89552380D01*
X152714285Y-89600000D01*
X152761904Y-89647619D01*
X152809523Y-89742857D01*
X152809523Y-89838095D01*
X152761904Y-89980952D01*
X152190476Y-90552380D01*
X152809523Y-90552380D01*
X153142857Y-89552380D02*
X153761904Y-89552380D01*
X153428571Y-89933333D01*
X153571428Y-89933333D01*
X153666666Y-89980952D01*
X153714285Y-90028571D01*
X153761904Y-90123809D01*
X153761904Y-90361904D01*
X153714285Y-90457142D01*
X153666666Y-90504761D01*
X153571428Y-90552380D01*
X153285714Y-90552380D01*
X153190476Y-90504761D01*
X153142857Y-90457142D01*
X124957142Y-78442857D02*
X125004761Y-78490476D01*
X125052380Y-78633333D01*
X125052380Y-78728571D01*
X125004761Y-78871428D01*
X124909523Y-78966666D01*
X124814285Y-79014285D01*
X124623809Y-79061904D01*
X124480952Y-79061904D01*
X124290476Y-79014285D01*
X124195238Y-78966666D01*
X124100000Y-78871428D01*
X124052380Y-78728571D01*
X124052380Y-78633333D01*
X124100000Y-78490476D01*
X124147619Y-78442857D01*
X124147619Y-78061904D02*
X124100000Y-78014285D01*
X124052380Y-77919047D01*
X124052380Y-77680952D01*
X124100000Y-77585714D01*
X124147619Y-77538095D01*
X124242857Y-77490476D01*
X124338095Y-77490476D01*
X124480952Y-77538095D01*
X125052380Y-78109523D01*
X125052380Y-77490476D01*
X124385714Y-76633333D02*
X125052380Y-76633333D01*
X124004761Y-76871428D02*
X124719047Y-77109523D01*
X124719047Y-76490476D01*
X150357142Y-84942857D02*
X150404761Y-84990476D01*
X150452380Y-85133333D01*
X150452380Y-85228571D01*
X150404761Y-85371428D01*
X150309523Y-85466666D01*
X150214285Y-85514285D01*
X150023809Y-85561904D01*
X149880952Y-85561904D01*
X149690476Y-85514285D01*
X149595238Y-85466666D01*
X149500000Y-85371428D01*
X149452380Y-85228571D01*
X149452380Y-85133333D01*
X149500000Y-84990476D01*
X149547619Y-84942857D01*
X149547619Y-84561904D02*
X149500000Y-84514285D01*
X149452380Y-84419047D01*
X149452380Y-84180952D01*
X149500000Y-84085714D01*
X149547619Y-84038095D01*
X149642857Y-83990476D01*
X149738095Y-83990476D01*
X149880952Y-84038095D01*
X150452380Y-84609523D01*
X150452380Y-83990476D01*
X149452380Y-83085714D02*
X149452380Y-83561904D01*
X149928571Y-83609523D01*
X149880952Y-83561904D01*
X149833333Y-83466666D01*
X149833333Y-83228571D01*
X149880952Y-83133333D01*
X149928571Y-83085714D01*
X150023809Y-83038095D01*
X150261904Y-83038095D01*
X150357142Y-83085714D01*
X150404761Y-83133333D01*
X150452380Y-83228571D01*
X150452380Y-83466666D01*
X150404761Y-83561904D01*
X150357142Y-83609523D01*
X127157142Y-90857142D02*
X127109523Y-90904761D01*
X126966666Y-90952380D01*
X126871428Y-90952380D01*
X126728571Y-90904761D01*
X126633333Y-90809523D01*
X126585714Y-90714285D01*
X126538095Y-90523809D01*
X126538095Y-90380952D01*
X126585714Y-90190476D01*
X126633333Y-90095238D01*
X126728571Y-90000000D01*
X126871428Y-89952380D01*
X126966666Y-89952380D01*
X127109523Y-90000000D01*
X127157142Y-90047619D01*
X127538095Y-90047619D02*
X127585714Y-90000000D01*
X127680952Y-89952380D01*
X127919047Y-89952380D01*
X128014285Y-90000000D01*
X128061904Y-90047619D01*
X128109523Y-90142857D01*
X128109523Y-90238095D01*
X128061904Y-90380952D01*
X127490476Y-90952380D01*
X128109523Y-90952380D01*
X128680952Y-90380952D02*
X128585714Y-90333333D01*
X128538095Y-90285714D01*
X128490476Y-90190476D01*
X128490476Y-90142857D01*
X128538095Y-90047619D01*
X128585714Y-90000000D01*
X128680952Y-89952380D01*
X128871428Y-89952380D01*
X128966666Y-90000000D01*
X129014285Y-90047619D01*
X129061904Y-90142857D01*
X129061904Y-90190476D01*
X129014285Y-90285714D01*
X128966666Y-90333333D01*
X128871428Y-90380952D01*
X128680952Y-90380952D01*
X128585714Y-90428571D01*
X128538095Y-90476190D01*
X128490476Y-90571428D01*
X128490476Y-90761904D01*
X128538095Y-90857142D01*
X128585714Y-90904761D01*
X128680952Y-90952380D01*
X128871428Y-90952380D01*
X128966666Y-90904761D01*
X129014285Y-90857142D01*
X129061904Y-90761904D01*
X129061904Y-90571428D01*
X129014285Y-90476190D01*
X128966666Y-90428571D01*
X128871428Y-90380952D01*
X126357142Y-80642857D02*
X126404761Y-80690476D01*
X126452380Y-80833333D01*
X126452380Y-80928571D01*
X126404761Y-81071428D01*
X126309523Y-81166666D01*
X126214285Y-81214285D01*
X126023809Y-81261904D01*
X125880952Y-81261904D01*
X125690476Y-81214285D01*
X125595238Y-81166666D01*
X125500000Y-81071428D01*
X125452380Y-80928571D01*
X125452380Y-80833333D01*
X125500000Y-80690476D01*
X125547619Y-80642857D01*
X125547619Y-80261904D02*
X125500000Y-80214285D01*
X125452380Y-80119047D01*
X125452380Y-79880952D01*
X125500000Y-79785714D01*
X125547619Y-79738095D01*
X125642857Y-79690476D01*
X125738095Y-79690476D01*
X125880952Y-79738095D01*
X126452380Y-80309523D01*
X126452380Y-79690476D01*
X126452380Y-79214285D02*
X126452380Y-79023809D01*
X126404761Y-78928571D01*
X126357142Y-78880952D01*
X126214285Y-78785714D01*
X126023809Y-78738095D01*
X125642857Y-78738095D01*
X125547619Y-78785714D01*
X125500000Y-78833333D01*
X125452380Y-78928571D01*
X125452380Y-79119047D01*
X125500000Y-79214285D01*
X125547619Y-79261904D01*
X125642857Y-79309523D01*
X125880952Y-79309523D01*
X125976190Y-79261904D01*
X126023809Y-79214285D01*
X126071428Y-79119047D01*
X126071428Y-78928571D01*
X126023809Y-78833333D01*
X125976190Y-78785714D01*
X125880952Y-78738095D01*
X148557142Y-84842857D02*
X148604761Y-84890476D01*
X148652380Y-85033333D01*
X148652380Y-85128571D01*
X148604761Y-85271428D01*
X148509523Y-85366666D01*
X148414285Y-85414285D01*
X148223809Y-85461904D01*
X148080952Y-85461904D01*
X147890476Y-85414285D01*
X147795238Y-85366666D01*
X147700000Y-85271428D01*
X147652380Y-85128571D01*
X147652380Y-85033333D01*
X147700000Y-84890476D01*
X147747619Y-84842857D01*
X147652380Y-84509523D02*
X147652380Y-83890476D01*
X148033333Y-84223809D01*
X148033333Y-84080952D01*
X148080952Y-83985714D01*
X148128571Y-83938095D01*
X148223809Y-83890476D01*
X148461904Y-83890476D01*
X148557142Y-83938095D01*
X148604761Y-83985714D01*
X148652380Y-84080952D01*
X148652380Y-84366666D01*
X148604761Y-84461904D01*
X148557142Y-84509523D01*
X147652380Y-83271428D02*
X147652380Y-83176190D01*
X147700000Y-83080952D01*
X147747619Y-83033333D01*
X147842857Y-82985714D01*
X148033333Y-82938095D01*
X148271428Y-82938095D01*
X148461904Y-82985714D01*
X148557142Y-83033333D01*
X148604761Y-83080952D01*
X148652380Y-83176190D01*
X148652380Y-83271428D01*
X148604761Y-83366666D01*
X148557142Y-83414285D01*
X148461904Y-83461904D01*
X148271428Y-83509523D01*
X148033333Y-83509523D01*
X147842857Y-83461904D01*
X147747619Y-83414285D01*
X147700000Y-83366666D01*
X147652380Y-83271428D01*
X124957142Y-81442857D02*
X125004761Y-81490476D01*
X125052380Y-81633333D01*
X125052380Y-81728571D01*
X125004761Y-81871428D01*
X124909523Y-81966666D01*
X124814285Y-82014285D01*
X124623809Y-82061904D01*
X124480952Y-82061904D01*
X124290476Y-82014285D01*
X124195238Y-81966666D01*
X124100000Y-81871428D01*
X124052380Y-81728571D01*
X124052380Y-81633333D01*
X124100000Y-81490476D01*
X124147619Y-81442857D01*
X124052380Y-81109523D02*
X124052380Y-80490476D01*
X124433333Y-80823809D01*
X124433333Y-80680952D01*
X124480952Y-80585714D01*
X124528571Y-80538095D01*
X124623809Y-80490476D01*
X124861904Y-80490476D01*
X124957142Y-80538095D01*
X125004761Y-80585714D01*
X125052380Y-80680952D01*
X125052380Y-80966666D01*
X125004761Y-81061904D01*
X124957142Y-81109523D01*
X125052380Y-79538095D02*
X125052380Y-80109523D01*
X125052380Y-79823809D02*
X124052380Y-79823809D01*
X124195238Y-79919047D01*
X124290476Y-80014285D01*
X124338095Y-80109523D01*
X142857142Y-85742857D02*
X142904761Y-85790476D01*
X142952380Y-85933333D01*
X142952380Y-86028571D01*
X142904761Y-86171428D01*
X142809523Y-86266666D01*
X142714285Y-86314285D01*
X142523809Y-86361904D01*
X142380952Y-86361904D01*
X142190476Y-86314285D01*
X142095238Y-86266666D01*
X142000000Y-86171428D01*
X141952380Y-86028571D01*
X141952380Y-85933333D01*
X142000000Y-85790476D01*
X142047619Y-85742857D01*
X141952380Y-85409523D02*
X141952380Y-84790476D01*
X142333333Y-85123809D01*
X142333333Y-84980952D01*
X142380952Y-84885714D01*
X142428571Y-84838095D01*
X142523809Y-84790476D01*
X142761904Y-84790476D01*
X142857142Y-84838095D01*
X142904761Y-84885714D01*
X142952380Y-84980952D01*
X142952380Y-85266666D01*
X142904761Y-85361904D01*
X142857142Y-85409523D01*
X142047619Y-84409523D02*
X142000000Y-84361904D01*
X141952380Y-84266666D01*
X141952380Y-84028571D01*
X142000000Y-83933333D01*
X142047619Y-83885714D01*
X142142857Y-83838095D01*
X142238095Y-83838095D01*
X142380952Y-83885714D01*
X142952380Y-84457142D01*
X142952380Y-83838095D01*
X152648528Y-74290375D02*
X152581184Y-74290375D01*
X152446497Y-74223031D01*
X152379154Y-74155688D01*
X152311810Y-74021001D01*
X152311810Y-73886314D01*
X152345482Y-73785299D01*
X152446497Y-73616940D01*
X152547512Y-73515925D01*
X152715871Y-73414909D01*
X152816886Y-73381238D01*
X152951573Y-73381238D01*
X153086260Y-73448581D01*
X153153604Y-73515925D01*
X153220947Y-73650612D01*
X153220947Y-73717955D01*
X153523993Y-73886314D02*
X153961726Y-74324047D01*
X153456650Y-74357718D01*
X153557665Y-74458734D01*
X153591337Y-74559749D01*
X153591337Y-74627093D01*
X153557665Y-74728108D01*
X153389306Y-74896467D01*
X153288291Y-74930138D01*
X153220947Y-74930138D01*
X153119932Y-74896467D01*
X152917902Y-74694436D01*
X152884230Y-74593421D01*
X152884230Y-74526077D01*
X154197428Y-74559749D02*
X154635161Y-74997482D01*
X154130085Y-75031154D01*
X154231100Y-75132169D01*
X154264772Y-75233184D01*
X154264772Y-75300528D01*
X154231100Y-75401543D01*
X154062741Y-75569902D01*
X153961726Y-75603573D01*
X153894383Y-75603573D01*
X153793367Y-75569902D01*
X153591337Y-75367871D01*
X153557665Y-75266856D01*
X153557665Y-75199512D01*
X145257142Y-82342857D02*
X145304761Y-82390476D01*
X145352380Y-82533333D01*
X145352380Y-82628571D01*
X145304761Y-82771428D01*
X145209523Y-82866666D01*
X145114285Y-82914285D01*
X144923809Y-82961904D01*
X144780952Y-82961904D01*
X144590476Y-82914285D01*
X144495238Y-82866666D01*
X144400000Y-82771428D01*
X144352380Y-82628571D01*
X144352380Y-82533333D01*
X144400000Y-82390476D01*
X144447619Y-82342857D01*
X144352380Y-82009523D02*
X144352380Y-81390476D01*
X144733333Y-81723809D01*
X144733333Y-81580952D01*
X144780952Y-81485714D01*
X144828571Y-81438095D01*
X144923809Y-81390476D01*
X145161904Y-81390476D01*
X145257142Y-81438095D01*
X145304761Y-81485714D01*
X145352380Y-81580952D01*
X145352380Y-81866666D01*
X145304761Y-81961904D01*
X145257142Y-82009523D01*
X144685714Y-80533333D02*
X145352380Y-80533333D01*
X144304761Y-80771428D02*
X145019047Y-81009523D01*
X145019047Y-80390476D01*
X149558206Y-69797969D02*
X150265312Y-69090862D01*
X150433671Y-69259221D01*
X150501015Y-69393908D01*
X150501015Y-69528595D01*
X150467343Y-69629610D01*
X150366328Y-69797969D01*
X150265312Y-69898984D01*
X150096954Y-70000000D01*
X149995938Y-70033671D01*
X149861251Y-70033671D01*
X149726564Y-69966328D01*
X149558206Y-69797969D01*
X151309137Y-70134687D02*
X150972419Y-69797969D01*
X150602030Y-70101015D01*
X150669374Y-70101015D01*
X150770389Y-70134687D01*
X150938748Y-70303045D01*
X150972419Y-70404061D01*
X150972419Y-70471404D01*
X150938748Y-70572419D01*
X150770389Y-70740778D01*
X150669374Y-70774450D01*
X150602030Y-70774450D01*
X150501015Y-70740778D01*
X150332656Y-70572419D01*
X150298984Y-70471404D01*
X150298984Y-70404061D01*
X139752380Y-114738095D02*
X138752380Y-114738095D01*
X138752380Y-114500000D01*
X138800000Y-114357142D01*
X138895238Y-114261904D01*
X138990476Y-114214285D01*
X139180952Y-114166666D01*
X139323809Y-114166666D01*
X139514285Y-114214285D01*
X139609523Y-114261904D01*
X139704761Y-114357142D01*
X139752380Y-114500000D01*
X139752380Y-114738095D01*
X138752380Y-113309523D02*
X138752380Y-113500000D01*
X138800000Y-113595238D01*
X138847619Y-113642857D01*
X138990476Y-113738095D01*
X139180952Y-113785714D01*
X139561904Y-113785714D01*
X139657142Y-113738095D01*
X139704761Y-113690476D01*
X139752380Y-113595238D01*
X139752380Y-113404761D01*
X139704761Y-113309523D01*
X139657142Y-113261904D01*
X139561904Y-113214285D01*
X139323809Y-113214285D01*
X139228571Y-113261904D01*
X139180952Y-113309523D01*
X139133333Y-113404761D01*
X139133333Y-113595238D01*
X139180952Y-113690476D01*
X139228571Y-113738095D01*
X139323809Y-113785714D01*
X109861904Y-84452380D02*
X109861904Y-83452380D01*
X110100000Y-83452380D01*
X110242857Y-83500000D01*
X110338095Y-83595238D01*
X110385714Y-83690476D01*
X110433333Y-83880952D01*
X110433333Y-84023809D01*
X110385714Y-84214285D01*
X110338095Y-84309523D01*
X110242857Y-84404761D01*
X110100000Y-84452380D01*
X109861904Y-84452380D01*
X110766666Y-83452380D02*
X111433333Y-83452380D01*
X111004761Y-84452380D01*
X139552380Y-56638095D02*
X138552380Y-56638095D01*
X138552380Y-56400000D01*
X138600000Y-56257142D01*
X138695238Y-56161904D01*
X138790476Y-56114285D01*
X138980952Y-56066666D01*
X139123809Y-56066666D01*
X139314285Y-56114285D01*
X139409523Y-56161904D01*
X139504761Y-56257142D01*
X139552380Y-56400000D01*
X139552380Y-56638095D01*
X138980952Y-55495238D02*
X138933333Y-55590476D01*
X138885714Y-55638095D01*
X138790476Y-55685714D01*
X138742857Y-55685714D01*
X138647619Y-55638095D01*
X138600000Y-55590476D01*
X138552380Y-55495238D01*
X138552380Y-55304761D01*
X138600000Y-55209523D01*
X138647619Y-55161904D01*
X138742857Y-55114285D01*
X138790476Y-55114285D01*
X138885714Y-55161904D01*
X138933333Y-55209523D01*
X138980952Y-55304761D01*
X138980952Y-55495238D01*
X139028571Y-55590476D01*
X139076190Y-55638095D01*
X139171428Y-55685714D01*
X139361904Y-55685714D01*
X139457142Y-55638095D01*
X139504761Y-55590476D01*
X139552380Y-55495238D01*
X139552380Y-55304761D01*
X139504761Y-55209523D01*
X139457142Y-55161904D01*
X139361904Y-55114285D01*
X139171428Y-55114285D01*
X139076190Y-55161904D01*
X139028571Y-55209523D01*
X138980952Y-55304761D01*
X168261904Y-84552380D02*
X168261904Y-83552380D01*
X168500000Y-83552380D01*
X168642857Y-83600000D01*
X168738095Y-83695238D01*
X168785714Y-83790476D01*
X168833333Y-83980952D01*
X168833333Y-84123809D01*
X168785714Y-84314285D01*
X168738095Y-84409523D01*
X168642857Y-84504761D01*
X168500000Y-84552380D01*
X168261904Y-84552380D01*
X169309523Y-84552380D02*
X169500000Y-84552380D01*
X169595238Y-84504761D01*
X169642857Y-84457142D01*
X169738095Y-84314285D01*
X169785714Y-84123809D01*
X169785714Y-83742857D01*
X169738095Y-83647619D01*
X169690476Y-83600000D01*
X169595238Y-83552380D01*
X169404761Y-83552380D01*
X169309523Y-83600000D01*
X169261904Y-83647619D01*
X169214285Y-83742857D01*
X169214285Y-83980952D01*
X169261904Y-84076190D01*
X169309523Y-84123809D01*
X169404761Y-84171428D01*
X169595238Y-84171428D01*
X169690476Y-84123809D01*
X169738095Y-84076190D01*
X169785714Y-83980952D01*
X141485714Y-96052380D02*
X141485714Y-95052380D01*
X141723809Y-95052380D01*
X141866666Y-95100000D01*
X141961904Y-95195238D01*
X142009523Y-95290476D01*
X142057142Y-95480952D01*
X142057142Y-95623809D01*
X142009523Y-95814285D01*
X141961904Y-95909523D01*
X141866666Y-96004761D01*
X141723809Y-96052380D01*
X141485714Y-96052380D01*
X143009523Y-96052380D02*
X142438095Y-96052380D01*
X142723809Y-96052380D02*
X142723809Y-95052380D01*
X142628571Y-95195238D01*
X142533333Y-95290476D01*
X142438095Y-95338095D01*
X143628571Y-95052380D02*
X143723809Y-95052380D01*
X143819047Y-95100000D01*
X143866666Y-95147619D01*
X143914285Y-95242857D01*
X143961904Y-95433333D01*
X143961904Y-95671428D01*
X143914285Y-95861904D01*
X143866666Y-95957142D01*
X143819047Y-96004761D01*
X143723809Y-96052380D01*
X143628571Y-96052380D01*
X143533333Y-96004761D01*
X143485714Y-95957142D01*
X143438095Y-95861904D01*
X143390476Y-95671428D01*
X143390476Y-95433333D01*
X143438095Y-95242857D01*
X143485714Y-95147619D01*
X143533333Y-95100000D01*
X143628571Y-95052380D01*
X143452380Y-101838095D02*
X142452380Y-101838095D01*
X142452380Y-101457142D01*
X142500000Y-101361904D01*
X142547619Y-101314285D01*
X142642857Y-101266666D01*
X142785714Y-101266666D01*
X142880952Y-101314285D01*
X142928571Y-101361904D01*
X142976190Y-101457142D01*
X142976190Y-101838095D01*
X142547619Y-100885714D02*
X142500000Y-100838095D01*
X142452380Y-100742857D01*
X142452380Y-100504761D01*
X142500000Y-100409523D01*
X142547619Y-100361904D01*
X142642857Y-100314285D01*
X142738095Y-100314285D01*
X142880952Y-100361904D01*
X143452380Y-100933333D01*
X143452380Y-100314285D01*
X139004214Y-70648038D02*
X138297107Y-69940932D01*
X138566481Y-69671557D01*
X138667496Y-69637886D01*
X138734840Y-69637886D01*
X138835855Y-69671557D01*
X138936870Y-69772573D01*
X138970542Y-69873588D01*
X138970542Y-69940932D01*
X138936870Y-70041947D01*
X138667496Y-70311321D01*
X139542962Y-69166481D02*
X140014367Y-69637886D01*
X139105229Y-69065466D02*
X139441947Y-69738901D01*
X139879680Y-69301168D01*
X162558206Y-89197969D02*
X163265312Y-88490862D01*
X163534687Y-88760236D01*
X163568358Y-88861251D01*
X163568358Y-88928595D01*
X163534687Y-89029610D01*
X163433671Y-89130625D01*
X163332656Y-89164297D01*
X163265312Y-89164297D01*
X163164297Y-89130625D01*
X162894923Y-88861251D01*
X164309137Y-89534687D02*
X163972419Y-89197969D01*
X163602030Y-89501015D01*
X163669374Y-89501015D01*
X163770389Y-89534687D01*
X163938748Y-89703045D01*
X163972419Y-89804061D01*
X163972419Y-89871404D01*
X163938748Y-89972419D01*
X163770389Y-90140778D01*
X163669374Y-90174450D01*
X163602030Y-90174450D01*
X163501015Y-90140778D01*
X163332656Y-89972419D01*
X163298984Y-89871404D01*
X163298984Y-89804061D01*
X121697969Y-79741793D02*
X120990862Y-79034687D01*
X121260236Y-78765312D01*
X121361251Y-78731641D01*
X121428595Y-78731641D01*
X121529610Y-78765312D01*
X121630625Y-78866328D01*
X121664297Y-78967343D01*
X121664297Y-79034687D01*
X121630625Y-79135702D01*
X121361251Y-79405076D01*
X122001015Y-78024534D02*
X121866328Y-78159221D01*
X121832656Y-78260236D01*
X121832656Y-78327580D01*
X121866328Y-78495938D01*
X121967343Y-78664297D01*
X122236717Y-78933671D01*
X122337732Y-78967343D01*
X122405076Y-78967343D01*
X122506091Y-78933671D01*
X122640778Y-78798984D01*
X122674450Y-78697969D01*
X122674450Y-78630625D01*
X122640778Y-78529610D01*
X122472419Y-78361251D01*
X122371404Y-78327580D01*
X122304061Y-78327580D01*
X122203045Y-78361251D01*
X122068358Y-78495938D01*
X122034687Y-78596954D01*
X122034687Y-78664297D01*
X122068358Y-78765312D01*
X143504761Y-109747619D02*
X143409523Y-109700000D01*
X143314285Y-109604761D01*
X143171428Y-109461904D01*
X143076190Y-109414285D01*
X142980952Y-109414285D01*
X143028571Y-109652380D02*
X142933333Y-109604761D01*
X142838095Y-109509523D01*
X142790476Y-109319047D01*
X142790476Y-108985714D01*
X142838095Y-108795238D01*
X142933333Y-108700000D01*
X143028571Y-108652380D01*
X143219047Y-108652380D01*
X143314285Y-108700000D01*
X143409523Y-108795238D01*
X143457142Y-108985714D01*
X143457142Y-109319047D01*
X143409523Y-109509523D01*
X143314285Y-109604761D01*
X143219047Y-109652380D01*
X143028571Y-109652380D01*
X144409523Y-109652380D02*
X143838095Y-109652380D01*
X144123809Y-109652380D02*
X144123809Y-108652380D01*
X144028571Y-108795238D01*
X143933333Y-108890476D01*
X143838095Y-108938095D01*
X117804761Y-87947619D02*
X117709523Y-87900000D01*
X117614285Y-87804761D01*
X117471428Y-87661904D01*
X117376190Y-87614285D01*
X117280952Y-87614285D01*
X117328571Y-87852380D02*
X117233333Y-87804761D01*
X117138095Y-87709523D01*
X117090476Y-87519047D01*
X117090476Y-87185714D01*
X117138095Y-86995238D01*
X117233333Y-86900000D01*
X117328571Y-86852380D01*
X117519047Y-86852380D01*
X117614285Y-86900000D01*
X117709523Y-86995238D01*
X117757142Y-87185714D01*
X117757142Y-87519047D01*
X117709523Y-87709523D01*
X117614285Y-87804761D01*
X117519047Y-87852380D01*
X117328571Y-87852380D01*
X118138095Y-86947619D02*
X118185714Y-86900000D01*
X118280952Y-86852380D01*
X118519047Y-86852380D01*
X118614285Y-86900000D01*
X118661904Y-86947619D01*
X118709523Y-87042857D01*
X118709523Y-87138095D01*
X118661904Y-87280952D01*
X118090476Y-87852380D01*
X118709523Y-87852380D01*
X138147619Y-62995238D02*
X138100000Y-63090476D01*
X138004761Y-63185714D01*
X137861904Y-63328571D01*
X137814285Y-63423809D01*
X137814285Y-63519047D01*
X138052380Y-63471428D02*
X138004761Y-63566666D01*
X137909523Y-63661904D01*
X137719047Y-63709523D01*
X137385714Y-63709523D01*
X137195238Y-63661904D01*
X137100000Y-63566666D01*
X137052380Y-63471428D01*
X137052380Y-63280952D01*
X137100000Y-63185714D01*
X137195238Y-63090476D01*
X137385714Y-63042857D01*
X137719047Y-63042857D01*
X137909523Y-63090476D01*
X138004761Y-63185714D01*
X138052380Y-63280952D01*
X138052380Y-63471428D01*
X137052380Y-62709523D02*
X137052380Y-62090476D01*
X137433333Y-62423809D01*
X137433333Y-62280952D01*
X137480952Y-62185714D01*
X137528571Y-62138095D01*
X137623809Y-62090476D01*
X137861904Y-62090476D01*
X137957142Y-62138095D01*
X138004761Y-62185714D01*
X138052380Y-62280952D01*
X138052380Y-62566666D01*
X138004761Y-62661904D01*
X137957142Y-62709523D01*
X162147619Y-83595238D02*
X162100000Y-83690476D01*
X162004761Y-83785714D01*
X161861904Y-83928571D01*
X161814285Y-84023809D01*
X161814285Y-84119047D01*
X162052380Y-84071428D02*
X162004761Y-84166666D01*
X161909523Y-84261904D01*
X161719047Y-84309523D01*
X161385714Y-84309523D01*
X161195238Y-84261904D01*
X161100000Y-84166666D01*
X161052380Y-84071428D01*
X161052380Y-83880952D01*
X161100000Y-83785714D01*
X161195238Y-83690476D01*
X161385714Y-83642857D01*
X161719047Y-83642857D01*
X161909523Y-83690476D01*
X162004761Y-83785714D01*
X162052380Y-83880952D01*
X162052380Y-84071428D01*
X161385714Y-82785714D02*
X162052380Y-82785714D01*
X161004761Y-83023809D02*
X161719047Y-83261904D01*
X161719047Y-82642857D01*
X146262267Y-70702030D02*
X146363282Y-70129610D01*
X145858206Y-70297969D02*
X146565312Y-69590862D01*
X146834687Y-69860236D01*
X146868358Y-69961251D01*
X146868358Y-70028595D01*
X146834687Y-70129610D01*
X146733671Y-70230625D01*
X146632656Y-70264297D01*
X146565312Y-70264297D01*
X146464297Y-70230625D01*
X146194923Y-69961251D01*
X147171404Y-70331641D02*
X147238748Y-70331641D01*
X147339763Y-70365312D01*
X147508122Y-70533671D01*
X147541793Y-70634687D01*
X147541793Y-70702030D01*
X147508122Y-70803045D01*
X147440778Y-70870389D01*
X147306091Y-70937732D01*
X146497969Y-70937732D01*
X146935702Y-71375465D01*
X141452380Y-113266666D02*
X140976190Y-113600000D01*
X141452380Y-113838095D02*
X140452380Y-113838095D01*
X140452380Y-113457142D01*
X140500000Y-113361904D01*
X140547619Y-113314285D01*
X140642857Y-113266666D01*
X140785714Y-113266666D01*
X140880952Y-113314285D01*
X140928571Y-113361904D01*
X140976190Y-113457142D01*
X140976190Y-113838095D01*
X140452380Y-112933333D02*
X140452380Y-112314285D01*
X140833333Y-112647619D01*
X140833333Y-112504761D01*
X140880952Y-112409523D01*
X140928571Y-112361904D01*
X141023809Y-112314285D01*
X141261904Y-112314285D01*
X141357142Y-112361904D01*
X141404761Y-112409523D01*
X141452380Y-112504761D01*
X141452380Y-112790476D01*
X141404761Y-112885714D01*
X141357142Y-112933333D01*
X134152380Y-77266666D02*
X133676190Y-77600000D01*
X134152380Y-77838095D02*
X133152380Y-77838095D01*
X133152380Y-77457142D01*
X133200000Y-77361904D01*
X133247619Y-77314285D01*
X133342857Y-77266666D01*
X133485714Y-77266666D01*
X133580952Y-77314285D01*
X133628571Y-77361904D01*
X133676190Y-77457142D01*
X133676190Y-77838095D01*
X133485714Y-76409523D02*
X134152380Y-76409523D01*
X133104761Y-76647619D02*
X133819047Y-76885714D01*
X133819047Y-76266666D01*
X110933333Y-86452380D02*
X110600000Y-85976190D01*
X110361904Y-86452380D02*
X110361904Y-85452380D01*
X110742857Y-85452380D01*
X110838095Y-85500000D01*
X110885714Y-85547619D01*
X110933333Y-85642857D01*
X110933333Y-85785714D01*
X110885714Y-85880952D01*
X110838095Y-85928571D01*
X110742857Y-85976190D01*
X110361904Y-85976190D01*
X111838095Y-85452380D02*
X111361904Y-85452380D01*
X111314285Y-85928571D01*
X111361904Y-85880952D01*
X111457142Y-85833333D01*
X111695238Y-85833333D01*
X111790476Y-85880952D01*
X111838095Y-85928571D01*
X111885714Y-86023809D01*
X111885714Y-86261904D01*
X111838095Y-86357142D01*
X111790476Y-86404761D01*
X111695238Y-86452380D01*
X111457142Y-86452380D01*
X111361904Y-86404761D01*
X111314285Y-86357142D01*
X135452380Y-72566666D02*
X134976190Y-72900000D01*
X135452380Y-73138095D02*
X134452380Y-73138095D01*
X134452380Y-72757142D01*
X134500000Y-72661904D01*
X134547619Y-72614285D01*
X134642857Y-72566666D01*
X134785714Y-72566666D01*
X134880952Y-72614285D01*
X134928571Y-72661904D01*
X134976190Y-72757142D01*
X134976190Y-73138095D01*
X134452380Y-71709523D02*
X134452380Y-71900000D01*
X134500000Y-71995238D01*
X134547619Y-72042857D01*
X134690476Y-72138095D01*
X134880952Y-72185714D01*
X135261904Y-72185714D01*
X135357142Y-72138095D01*
X135404761Y-72090476D01*
X135452380Y-71995238D01*
X135452380Y-71804761D01*
X135404761Y-71709523D01*
X135357142Y-71661904D01*
X135261904Y-71614285D01*
X135023809Y-71614285D01*
X134928571Y-71661904D01*
X134880952Y-71709523D01*
X134833333Y-71804761D01*
X134833333Y-71995238D01*
X134880952Y-72090476D01*
X134928571Y-72138095D01*
X135023809Y-72185714D01*
X141352380Y-57266666D02*
X140876190Y-57600000D01*
X141352380Y-57838095D02*
X140352380Y-57838095D01*
X140352380Y-57457142D01*
X140400000Y-57361904D01*
X140447619Y-57314285D01*
X140542857Y-57266666D01*
X140685714Y-57266666D01*
X140780952Y-57314285D01*
X140828571Y-57361904D01*
X140876190Y-57457142D01*
X140876190Y-57838095D01*
X140352380Y-56933333D02*
X140352380Y-56266666D01*
X141352380Y-56695238D01*
X168233333Y-86452380D02*
X167900000Y-85976190D01*
X167661904Y-86452380D02*
X167661904Y-85452380D01*
X168042857Y-85452380D01*
X168138095Y-85500000D01*
X168185714Y-85547619D01*
X168233333Y-85642857D01*
X168233333Y-85785714D01*
X168185714Y-85880952D01*
X168138095Y-85928571D01*
X168042857Y-85976190D01*
X167661904Y-85976190D01*
X168804761Y-85880952D02*
X168709523Y-85833333D01*
X168661904Y-85785714D01*
X168614285Y-85690476D01*
X168614285Y-85642857D01*
X168661904Y-85547619D01*
X168709523Y-85500000D01*
X168804761Y-85452380D01*
X168995238Y-85452380D01*
X169090476Y-85500000D01*
X169138095Y-85547619D01*
X169185714Y-85642857D01*
X169185714Y-85690476D01*
X169138095Y-85785714D01*
X169090476Y-85833333D01*
X168995238Y-85880952D01*
X168804761Y-85880952D01*
X168709523Y-85928571D01*
X168661904Y-85976190D01*
X168614285Y-86071428D01*
X168614285Y-86261904D01*
X168661904Y-86357142D01*
X168709523Y-86404761D01*
X168804761Y-86452380D01*
X168995238Y-86452380D01*
X169090476Y-86404761D01*
X169138095Y-86357142D01*
X169185714Y-86261904D01*
X169185714Y-86071428D01*
X169138095Y-85976190D01*
X169090476Y-85928571D01*
X168995238Y-85880952D01*
X137152380Y-72466666D02*
X136676190Y-72800000D01*
X137152380Y-73038095D02*
X136152380Y-73038095D01*
X136152380Y-72657142D01*
X136200000Y-72561904D01*
X136247619Y-72514285D01*
X136342857Y-72466666D01*
X136485714Y-72466666D01*
X136580952Y-72514285D01*
X136628571Y-72561904D01*
X136676190Y-72657142D01*
X136676190Y-73038095D01*
X137152380Y-71990476D02*
X137152380Y-71800000D01*
X137104761Y-71704761D01*
X137057142Y-71657142D01*
X136914285Y-71561904D01*
X136723809Y-71514285D01*
X136342857Y-71514285D01*
X136247619Y-71561904D01*
X136200000Y-71609523D01*
X136152380Y-71704761D01*
X136152380Y-71895238D01*
X136200000Y-71990476D01*
X136247619Y-72038095D01*
X136342857Y-72085714D01*
X136580952Y-72085714D01*
X136676190Y-72038095D01*
X136723809Y-71990476D01*
X136771428Y-71895238D01*
X136771428Y-71704761D01*
X136723809Y-71609523D01*
X136676190Y-71561904D01*
X136580952Y-71514285D01*
X136952380Y-79342857D02*
X136476190Y-79676190D01*
X136952380Y-79914285D02*
X135952380Y-79914285D01*
X135952380Y-79533333D01*
X136000000Y-79438095D01*
X136047619Y-79390476D01*
X136142857Y-79342857D01*
X136285714Y-79342857D01*
X136380952Y-79390476D01*
X136428571Y-79438095D01*
X136476190Y-79533333D01*
X136476190Y-79914285D01*
X136952380Y-78390476D02*
X136952380Y-78961904D01*
X136952380Y-78676190D02*
X135952380Y-78676190D01*
X136095238Y-78771428D01*
X136190476Y-78866666D01*
X136238095Y-78961904D01*
X135952380Y-77771428D02*
X135952380Y-77676190D01*
X136000000Y-77580952D01*
X136047619Y-77533333D01*
X136142857Y-77485714D01*
X136333333Y-77438095D01*
X136571428Y-77438095D01*
X136761904Y-77485714D01*
X136857142Y-77533333D01*
X136904761Y-77580952D01*
X136952380Y-77676190D01*
X136952380Y-77771428D01*
X136904761Y-77866666D01*
X136857142Y-77914285D01*
X136761904Y-77961904D01*
X136571428Y-78009523D01*
X136333333Y-78009523D01*
X136142857Y-77961904D01*
X136047619Y-77914285D01*
X136000000Y-77866666D01*
X135952380Y-77771428D01*
X143852380Y-99742857D02*
X143376190Y-100076190D01*
X143852380Y-100314285D02*
X142852380Y-100314285D01*
X142852380Y-99933333D01*
X142900000Y-99838095D01*
X142947619Y-99790476D01*
X143042857Y-99742857D01*
X143185714Y-99742857D01*
X143280952Y-99790476D01*
X143328571Y-99838095D01*
X143376190Y-99933333D01*
X143376190Y-100314285D01*
X143852380Y-98790476D02*
X143852380Y-99361904D01*
X143852380Y-99076190D02*
X142852380Y-99076190D01*
X142995238Y-99171428D01*
X143090476Y-99266666D01*
X143138095Y-99361904D01*
X143852380Y-97838095D02*
X143852380Y-98409523D01*
X143852380Y-98123809D02*
X142852380Y-98123809D01*
X142995238Y-98219047D01*
X143090476Y-98314285D01*
X143138095Y-98409523D01*
X133052380Y-91042857D02*
X132576190Y-91376190D01*
X133052380Y-91614285D02*
X132052380Y-91614285D01*
X132052380Y-91233333D01*
X132100000Y-91138095D01*
X132147619Y-91090476D01*
X132242857Y-91042857D01*
X132385714Y-91042857D01*
X132480952Y-91090476D01*
X132528571Y-91138095D01*
X132576190Y-91233333D01*
X132576190Y-91614285D01*
X133052380Y-90090476D02*
X133052380Y-90661904D01*
X133052380Y-90376190D02*
X132052380Y-90376190D01*
X132195238Y-90471428D01*
X132290476Y-90566666D01*
X132338095Y-90661904D01*
X132147619Y-89709523D02*
X132100000Y-89661904D01*
X132052380Y-89566666D01*
X132052380Y-89328571D01*
X132100000Y-89233333D01*
X132147619Y-89185714D01*
X132242857Y-89138095D01*
X132338095Y-89138095D01*
X132480952Y-89185714D01*
X133052380Y-89757142D01*
X133052380Y-89138095D01*
X134952380Y-89942857D02*
X134476190Y-90276190D01*
X134952380Y-90514285D02*
X133952380Y-90514285D01*
X133952380Y-90133333D01*
X134000000Y-90038095D01*
X134047619Y-89990476D01*
X134142857Y-89942857D01*
X134285714Y-89942857D01*
X134380952Y-89990476D01*
X134428571Y-90038095D01*
X134476190Y-90133333D01*
X134476190Y-90514285D01*
X134952380Y-88990476D02*
X134952380Y-89561904D01*
X134952380Y-89276190D02*
X133952380Y-89276190D01*
X134095238Y-89371428D01*
X134190476Y-89466666D01*
X134238095Y-89561904D01*
X133952380Y-88657142D02*
X133952380Y-88038095D01*
X134333333Y-88371428D01*
X134333333Y-88228571D01*
X134380952Y-88133333D01*
X134428571Y-88085714D01*
X134523809Y-88038095D01*
X134761904Y-88038095D01*
X134857142Y-88085714D01*
X134904761Y-88133333D01*
X134952380Y-88228571D01*
X134952380Y-88514285D01*
X134904761Y-88609523D01*
X134857142Y-88657142D01*
X147957142Y-98852380D02*
X147623809Y-98376190D01*
X147385714Y-98852380D02*
X147385714Y-97852380D01*
X147766666Y-97852380D01*
X147861904Y-97900000D01*
X147909523Y-97947619D01*
X147957142Y-98042857D01*
X147957142Y-98185714D01*
X147909523Y-98280952D01*
X147861904Y-98328571D01*
X147766666Y-98376190D01*
X147385714Y-98376190D01*
X148909523Y-98852380D02*
X148338095Y-98852380D01*
X148623809Y-98852380D02*
X148623809Y-97852380D01*
X148528571Y-97995238D01*
X148433333Y-98090476D01*
X148338095Y-98138095D01*
X149766666Y-98185714D02*
X149766666Y-98852380D01*
X149528571Y-97804761D02*
X149290476Y-98519047D01*
X149909523Y-98519047D01*
X144857142Y-98652380D02*
X144523809Y-98176190D01*
X144285714Y-98652380D02*
X144285714Y-97652380D01*
X144666666Y-97652380D01*
X144761904Y-97700000D01*
X144809523Y-97747619D01*
X144857142Y-97842857D01*
X144857142Y-97985714D01*
X144809523Y-98080952D01*
X144761904Y-98128571D01*
X144666666Y-98176190D01*
X144285714Y-98176190D01*
X145809523Y-98652380D02*
X145238095Y-98652380D01*
X145523809Y-98652380D02*
X145523809Y-97652380D01*
X145428571Y-97795238D01*
X145333333Y-97890476D01*
X145238095Y-97938095D01*
X146714285Y-97652380D02*
X146238095Y-97652380D01*
X146190476Y-98128571D01*
X146238095Y-98080952D01*
X146333333Y-98033333D01*
X146571428Y-98033333D01*
X146666666Y-98080952D01*
X146714285Y-98128571D01*
X146761904Y-98223809D01*
X146761904Y-98461904D01*
X146714285Y-98557142D01*
X146666666Y-98604761D01*
X146571428Y-98652380D01*
X146333333Y-98652380D01*
X146238095Y-98604761D01*
X146190476Y-98557142D01*
X140532142Y-89552380D02*
X140198809Y-89076190D01*
X139960714Y-89552380D02*
X139960714Y-88552380D01*
X140341666Y-88552380D01*
X140436904Y-88600000D01*
X140484523Y-88647619D01*
X140532142Y-88742857D01*
X140532142Y-88885714D01*
X140484523Y-88980952D01*
X140436904Y-89028571D01*
X140341666Y-89076190D01*
X139960714Y-89076190D01*
X141484523Y-89552380D02*
X140913095Y-89552380D01*
X141198809Y-89552380D02*
X141198809Y-88552380D01*
X141103571Y-88695238D01*
X141008333Y-88790476D01*
X140913095Y-88838095D01*
X142341666Y-88552380D02*
X142151190Y-88552380D01*
X142055952Y-88600000D01*
X142008333Y-88647619D01*
X141913095Y-88790476D01*
X141865476Y-88980952D01*
X141865476Y-89361904D01*
X141913095Y-89457142D01*
X141960714Y-89504761D01*
X142055952Y-89552380D01*
X142246428Y-89552380D01*
X142341666Y-89504761D01*
X142389285Y-89457142D01*
X142436904Y-89361904D01*
X142436904Y-89123809D01*
X142389285Y-89028571D01*
X142341666Y-88980952D01*
X142246428Y-88933333D01*
X142055952Y-88933333D01*
X141960714Y-88980952D01*
X141913095Y-89028571D01*
X141865476Y-89123809D01*
X136852380Y-89942857D02*
X136376190Y-90276190D01*
X136852380Y-90514285D02*
X135852380Y-90514285D01*
X135852380Y-90133333D01*
X135900000Y-90038095D01*
X135947619Y-89990476D01*
X136042857Y-89942857D01*
X136185714Y-89942857D01*
X136280952Y-89990476D01*
X136328571Y-90038095D01*
X136376190Y-90133333D01*
X136376190Y-90514285D01*
X136852380Y-88990476D02*
X136852380Y-89561904D01*
X136852380Y-89276190D02*
X135852380Y-89276190D01*
X135995238Y-89371428D01*
X136090476Y-89466666D01*
X136138095Y-89561904D01*
X135852380Y-88657142D02*
X135852380Y-87990476D01*
X136852380Y-88419047D01*
X133052380Y-95742857D02*
X132576190Y-96076190D01*
X133052380Y-96314285D02*
X132052380Y-96314285D01*
X132052380Y-95933333D01*
X132100000Y-95838095D01*
X132147619Y-95790476D01*
X132242857Y-95742857D01*
X132385714Y-95742857D01*
X132480952Y-95790476D01*
X132528571Y-95838095D01*
X132576190Y-95933333D01*
X132576190Y-96314285D01*
X133052380Y-94790476D02*
X133052380Y-95361904D01*
X133052380Y-95076190D02*
X132052380Y-95076190D01*
X132195238Y-95171428D01*
X132290476Y-95266666D01*
X132338095Y-95361904D01*
X132480952Y-94219047D02*
X132433333Y-94314285D01*
X132385714Y-94361904D01*
X132290476Y-94409523D01*
X132242857Y-94409523D01*
X132147619Y-94361904D01*
X132100000Y-94314285D01*
X132052380Y-94219047D01*
X132052380Y-94028571D01*
X132100000Y-93933333D01*
X132147619Y-93885714D01*
X132242857Y-93838095D01*
X132290476Y-93838095D01*
X132385714Y-93885714D01*
X132433333Y-93933333D01*
X132480952Y-94028571D01*
X132480952Y-94219047D01*
X132528571Y-94314285D01*
X132576190Y-94361904D01*
X132671428Y-94409523D01*
X132861904Y-94409523D01*
X132957142Y-94361904D01*
X133004761Y-94314285D01*
X133052380Y-94219047D01*
X133052380Y-94028571D01*
X133004761Y-93933333D01*
X132957142Y-93885714D01*
X132861904Y-93838095D01*
X132671428Y-93838095D01*
X132576190Y-93885714D01*
X132528571Y-93933333D01*
X132480952Y-94028571D01*
X136952380Y-99542857D02*
X136476190Y-99876190D01*
X136952380Y-100114285D02*
X135952380Y-100114285D01*
X135952380Y-99733333D01*
X136000000Y-99638095D01*
X136047619Y-99590476D01*
X136142857Y-99542857D01*
X136285714Y-99542857D01*
X136380952Y-99590476D01*
X136428571Y-99638095D01*
X136476190Y-99733333D01*
X136476190Y-100114285D01*
X136952380Y-98590476D02*
X136952380Y-99161904D01*
X136952380Y-98876190D02*
X135952380Y-98876190D01*
X136095238Y-98971428D01*
X136190476Y-99066666D01*
X136238095Y-99161904D01*
X136952380Y-98114285D02*
X136952380Y-97923809D01*
X136904761Y-97828571D01*
X136857142Y-97780952D01*
X136714285Y-97685714D01*
X136523809Y-97638095D01*
X136142857Y-97638095D01*
X136047619Y-97685714D01*
X136000000Y-97733333D01*
X135952380Y-97828571D01*
X135952380Y-98019047D01*
X136000000Y-98114285D01*
X136047619Y-98161904D01*
X136142857Y-98209523D01*
X136380952Y-98209523D01*
X136476190Y-98161904D01*
X136523809Y-98114285D01*
X136571428Y-98019047D01*
X136571428Y-97828571D01*
X136523809Y-97733333D01*
X136476190Y-97685714D01*
X136380952Y-97638095D01*
X140552380Y-97142857D02*
X140076190Y-97476190D01*
X140552380Y-97714285D02*
X139552380Y-97714285D01*
X139552380Y-97333333D01*
X139600000Y-97238095D01*
X139647619Y-97190476D01*
X139742857Y-97142857D01*
X139885714Y-97142857D01*
X139980952Y-97190476D01*
X140028571Y-97238095D01*
X140076190Y-97333333D01*
X140076190Y-97714285D01*
X139647619Y-96761904D02*
X139600000Y-96714285D01*
X139552380Y-96619047D01*
X139552380Y-96380952D01*
X139600000Y-96285714D01*
X139647619Y-96238095D01*
X139742857Y-96190476D01*
X139838095Y-96190476D01*
X139980952Y-96238095D01*
X140552380Y-96809523D01*
X140552380Y-96190476D01*
X139552380Y-95571428D02*
X139552380Y-95476190D01*
X139600000Y-95380952D01*
X139647619Y-95333333D01*
X139742857Y-95285714D01*
X139933333Y-95238095D01*
X140171428Y-95238095D01*
X140361904Y-95285714D01*
X140457142Y-95333333D01*
X140504761Y-95380952D01*
X140552380Y-95476190D01*
X140552380Y-95571428D01*
X140504761Y-95666666D01*
X140457142Y-95714285D01*
X140361904Y-95761904D01*
X140171428Y-95809523D01*
X139933333Y-95809523D01*
X139742857Y-95761904D01*
X139647619Y-95714285D01*
X139600000Y-95666666D01*
X139552380Y-95571428D01*
X153652380Y-96742857D02*
X153176190Y-97076190D01*
X153652380Y-97314285D02*
X152652380Y-97314285D01*
X152652380Y-96933333D01*
X152700000Y-96838095D01*
X152747619Y-96790476D01*
X152842857Y-96742857D01*
X152985714Y-96742857D01*
X153080952Y-96790476D01*
X153128571Y-96838095D01*
X153176190Y-96933333D01*
X153176190Y-97314285D01*
X152747619Y-96361904D02*
X152700000Y-96314285D01*
X152652380Y-96219047D01*
X152652380Y-95980952D01*
X152700000Y-95885714D01*
X152747619Y-95838095D01*
X152842857Y-95790476D01*
X152938095Y-95790476D01*
X153080952Y-95838095D01*
X153652380Y-96409523D01*
X153652380Y-95790476D01*
X153652380Y-94838095D02*
X153652380Y-95409523D01*
X153652380Y-95123809D02*
X152652380Y-95123809D01*
X152795238Y-95219047D01*
X152890476Y-95314285D01*
X152938095Y-95409523D01*
X145052380Y-85942857D02*
X144576190Y-86276190D01*
X145052380Y-86514285D02*
X144052380Y-86514285D01*
X144052380Y-86133333D01*
X144100000Y-86038095D01*
X144147619Y-85990476D01*
X144242857Y-85942857D01*
X144385714Y-85942857D01*
X144480952Y-85990476D01*
X144528571Y-86038095D01*
X144576190Y-86133333D01*
X144576190Y-86514285D01*
X144147619Y-85561904D02*
X144100000Y-85514285D01*
X144052380Y-85419047D01*
X144052380Y-85180952D01*
X144100000Y-85085714D01*
X144147619Y-85038095D01*
X144242857Y-84990476D01*
X144338095Y-84990476D01*
X144480952Y-85038095D01*
X145052380Y-85609523D01*
X145052380Y-84990476D01*
X144147619Y-84609523D02*
X144100000Y-84561904D01*
X144052380Y-84466666D01*
X144052380Y-84228571D01*
X144100000Y-84133333D01*
X144147619Y-84085714D01*
X144242857Y-84038095D01*
X144338095Y-84038095D01*
X144480952Y-84085714D01*
X145052380Y-84657142D01*
X145052380Y-84038095D01*
X154057142Y-87552380D02*
X153723809Y-87076190D01*
X153485714Y-87552380D02*
X153485714Y-86552380D01*
X153866666Y-86552380D01*
X153961904Y-86600000D01*
X154009523Y-86647619D01*
X154057142Y-86742857D01*
X154057142Y-86885714D01*
X154009523Y-86980952D01*
X153961904Y-87028571D01*
X153866666Y-87076190D01*
X153485714Y-87076190D01*
X154438095Y-86647619D02*
X154485714Y-86600000D01*
X154580952Y-86552380D01*
X154819047Y-86552380D01*
X154914285Y-86600000D01*
X154961904Y-86647619D01*
X155009523Y-86742857D01*
X155009523Y-86838095D01*
X154961904Y-86980952D01*
X154390476Y-87552380D01*
X155009523Y-87552380D01*
X155342857Y-86552380D02*
X155961904Y-86552380D01*
X155628571Y-86933333D01*
X155771428Y-86933333D01*
X155866666Y-86980952D01*
X155914285Y-87028571D01*
X155961904Y-87123809D01*
X155961904Y-87361904D01*
X155914285Y-87457142D01*
X155866666Y-87504761D01*
X155771428Y-87552380D01*
X155485714Y-87552380D01*
X155390476Y-87504761D01*
X155342857Y-87457142D01*
X159652380Y-79742857D02*
X159176190Y-80076190D01*
X159652380Y-80314285D02*
X158652380Y-80314285D01*
X158652380Y-79933333D01*
X158700000Y-79838095D01*
X158747619Y-79790476D01*
X158842857Y-79742857D01*
X158985714Y-79742857D01*
X159080952Y-79790476D01*
X159128571Y-79838095D01*
X159176190Y-79933333D01*
X159176190Y-80314285D01*
X158747619Y-79361904D02*
X158700000Y-79314285D01*
X158652380Y-79219047D01*
X158652380Y-78980952D01*
X158700000Y-78885714D01*
X158747619Y-78838095D01*
X158842857Y-78790476D01*
X158938095Y-78790476D01*
X159080952Y-78838095D01*
X159652380Y-79409523D01*
X159652380Y-78790476D01*
X158985714Y-77933333D02*
X159652380Y-77933333D01*
X158604761Y-78171428D02*
X159319047Y-78409523D01*
X159319047Y-77790476D01*
X138038095Y-72052380D02*
X138038095Y-72861904D01*
X138085714Y-72957142D01*
X138133333Y-73004761D01*
X138228571Y-73052380D01*
X138419047Y-73052380D01*
X138514285Y-73004761D01*
X138561904Y-72957142D01*
X138609523Y-72861904D01*
X138609523Y-72052380D01*
X139038095Y-72147619D02*
X139085714Y-72100000D01*
X139180952Y-72052380D01*
X139419047Y-72052380D01*
X139514285Y-72100000D01*
X139561904Y-72147619D01*
X139609523Y-72242857D01*
X139609523Y-72338095D01*
X139561904Y-72480952D01*
X138990476Y-73052380D01*
X139609523Y-73052380D01*
X134438095Y-88552380D02*
X134438095Y-89361904D01*
X134485714Y-89457142D01*
X134533333Y-89504761D01*
X134628571Y-89552380D01*
X134819047Y-89552380D01*
X134914285Y-89504761D01*
X134961904Y-89457142D01*
X135009523Y-89361904D01*
X135009523Y-88552380D01*
X135914285Y-88885714D02*
X135914285Y-89552380D01*
X135676190Y-88504761D02*
X135438095Y-89219047D01*
X136057142Y-89219047D01*
X145938095Y-87152380D02*
X145938095Y-87961904D01*
X145985714Y-88057142D01*
X146033333Y-88104761D01*
X146128571Y-88152380D01*
X146319047Y-88152380D01*
X146414285Y-88104761D01*
X146461904Y-88057142D01*
X146509523Y-87961904D01*
X146509523Y-87152380D01*
X147461904Y-87152380D02*
X146985714Y-87152380D01*
X146938095Y-87628571D01*
X146985714Y-87580952D01*
X147080952Y-87533333D01*
X147319047Y-87533333D01*
X147414285Y-87580952D01*
X147461904Y-87628571D01*
X147509523Y-87723809D01*
X147509523Y-87961904D01*
X147461904Y-88057142D01*
X147414285Y-88104761D01*
X147319047Y-88152380D01*
X147080952Y-88152380D01*
X146985714Y-88104761D01*
X146938095Y-88057142D01*
X134602380Y-93761904D02*
X135411904Y-93761904D01*
X135507142Y-93714285D01*
X135554761Y-93666666D01*
X135602380Y-93571428D01*
X135602380Y-93380952D01*
X135554761Y-93285714D01*
X135507142Y-93238095D01*
X135411904Y-93190476D01*
X134602380Y-93190476D01*
X134602380Y-92285714D02*
X134602380Y-92476190D01*
X134650000Y-92571428D01*
X134697619Y-92619047D01*
X134840476Y-92714285D01*
X135030952Y-92761904D01*
X135411904Y-92761904D01*
X135507142Y-92714285D01*
X135554761Y-92666666D01*
X135602380Y-92571428D01*
X135602380Y-92380952D01*
X135554761Y-92285714D01*
X135507142Y-92238095D01*
X135411904Y-92190476D01*
X135173809Y-92190476D01*
X135078571Y-92238095D01*
X135030952Y-92285714D01*
X134983333Y-92380952D01*
X134983333Y-92571428D01*
X135030952Y-92666666D01*
X135078571Y-92714285D01*
X135173809Y-92761904D01*
X143552380Y-81761904D02*
X144361904Y-81761904D01*
X144457142Y-81714285D01*
X144504761Y-81666666D01*
X144552380Y-81571428D01*
X144552380Y-81380952D01*
X144504761Y-81285714D01*
X144457142Y-81238095D01*
X144361904Y-81190476D01*
X143552380Y-81190476D01*
X143980952Y-80571428D02*
X143933333Y-80666666D01*
X143885714Y-80714285D01*
X143790476Y-80761904D01*
X143742857Y-80761904D01*
X143647619Y-80714285D01*
X143600000Y-80666666D01*
X143552380Y-80571428D01*
X143552380Y-80380952D01*
X143600000Y-80285714D01*
X143647619Y-80238095D01*
X143742857Y-80190476D01*
X143790476Y-80190476D01*
X143885714Y-80238095D01*
X143933333Y-80285714D01*
X143980952Y-80380952D01*
X143980952Y-80571428D01*
X144028571Y-80666666D01*
X144076190Y-80714285D01*
X144171428Y-80761904D01*
X144361904Y-80761904D01*
X144457142Y-80714285D01*
X144504761Y-80666666D01*
X144552380Y-80571428D01*
X144552380Y-80380952D01*
X144504761Y-80285714D01*
X144457142Y-80238095D01*
X144361904Y-80190476D01*
X144171428Y-80190476D01*
X144076190Y-80238095D01*
X144028571Y-80285714D01*
X143980952Y-80380952D01*
X157561904Y-92290476D02*
X158209523Y-92290476D01*
X158285714Y-92252380D01*
X158323809Y-92214285D01*
X158361904Y-92138095D01*
X158361904Y-91985714D01*
X158323809Y-91909523D01*
X158285714Y-91871428D01*
X158209523Y-91833333D01*
X157561904Y-91833333D01*
X158361904Y-91033333D02*
X158361904Y-91490476D01*
X158361904Y-91261904D02*
X157561904Y-91261904D01*
X157676190Y-91338095D01*
X157752380Y-91414285D01*
X157790476Y-91490476D01*
X157561904Y-90538095D02*
X157561904Y-90461904D01*
X157600000Y-90385714D01*
X157638095Y-90347619D01*
X157714285Y-90309523D01*
X157866666Y-90271428D01*
X158057142Y-90271428D01*
X158209523Y-90309523D01*
X158285714Y-90347619D01*
X158323809Y-90385714D01*
X158361904Y-90461904D01*
X158361904Y-90538095D01*
X158323809Y-90614285D01*
X158285714Y-90652380D01*
X158209523Y-90690476D01*
X158057142Y-90728571D01*
X157866666Y-90728571D01*
X157714285Y-90690476D01*
X157638095Y-90652380D01*
X157600000Y-90614285D01*
X157561904Y-90538095D01*
X151855849Y-74853227D02*
X152428269Y-75425647D01*
X152529284Y-75459318D01*
X152596627Y-75459318D01*
X152697643Y-75425647D01*
X152832330Y-75290960D01*
X152866001Y-75189944D01*
X152866001Y-75122601D01*
X152832330Y-75021586D01*
X152259910Y-74449166D01*
X153674123Y-74449166D02*
X153270062Y-74853227D01*
X153472093Y-74651196D02*
X152764986Y-73944090D01*
X152798658Y-74112448D01*
X152798658Y-74247135D01*
X152764986Y-74348151D01*
X154347558Y-73775731D02*
X153943497Y-74179792D01*
X154145528Y-73977761D02*
X153438421Y-73270655D01*
X153472093Y-73439013D01*
X153472093Y-73573700D01*
X153438421Y-73674716D01*
X140852380Y-104488095D02*
X139852380Y-104488095D01*
X139852380Y-104250000D01*
X139900000Y-104107142D01*
X139995238Y-104011904D01*
X140090476Y-103964285D01*
X140280952Y-103916666D01*
X140423809Y-103916666D01*
X140614285Y-103964285D01*
X140709523Y-104011904D01*
X140804761Y-104107142D01*
X140852380Y-104250000D01*
X140852380Y-104488095D01*
X140852380Y-102964285D02*
X140852380Y-103535714D01*
X140852380Y-103250000D02*
X139852380Y-103250000D01*
X139995238Y-103345238D01*
X140090476Y-103440476D01*
X140138095Y-103535714D01*
X119261904Y-86652380D02*
X119261904Y-85652380D01*
X119500000Y-85652380D01*
X119642857Y-85700000D01*
X119738095Y-85795238D01*
X119785714Y-85890476D01*
X119833333Y-86080952D01*
X119833333Y-86223809D01*
X119785714Y-86414285D01*
X119738095Y-86509523D01*
X119642857Y-86604761D01*
X119500000Y-86652380D01*
X119261904Y-86652380D01*
X120214285Y-85747619D02*
X120261904Y-85700000D01*
X120357142Y-85652380D01*
X120595238Y-85652380D01*
X120690476Y-85700000D01*
X120738095Y-85747619D01*
X120785714Y-85842857D01*
X120785714Y-85938095D01*
X120738095Y-86080952D01*
X120166666Y-86652380D01*
X120785714Y-86652380D01*
X139261904Y-67652380D02*
X139261904Y-66652380D01*
X139500000Y-66652380D01*
X139642857Y-66700000D01*
X139738095Y-66795238D01*
X139785714Y-66890476D01*
X139833333Y-67080952D01*
X139833333Y-67223809D01*
X139785714Y-67414285D01*
X139738095Y-67509523D01*
X139642857Y-67604761D01*
X139500000Y-67652380D01*
X139261904Y-67652380D01*
X140166666Y-66652380D02*
X140785714Y-66652380D01*
X140452380Y-67033333D01*
X140595238Y-67033333D01*
X140690476Y-67080952D01*
X140738095Y-67128571D01*
X140785714Y-67223809D01*
X140785714Y-67461904D01*
X140738095Y-67557142D01*
X140690476Y-67604761D01*
X140595238Y-67652380D01*
X140309523Y-67652380D01*
X140214285Y-67604761D01*
X140166666Y-67557142D01*
X159261904Y-84252380D02*
X159261904Y-83252380D01*
X159500000Y-83252380D01*
X159642857Y-83300000D01*
X159738095Y-83395238D01*
X159785714Y-83490476D01*
X159833333Y-83680952D01*
X159833333Y-83823809D01*
X159785714Y-84014285D01*
X159738095Y-84109523D01*
X159642857Y-84204761D01*
X159500000Y-84252380D01*
X159261904Y-84252380D01*
X160690476Y-83585714D02*
X160690476Y-84252380D01*
X160452380Y-83204761D02*
X160214285Y-83919047D01*
X160833333Y-83919047D01*
X132052380Y-83966666D02*
X132052380Y-84442857D01*
X131052380Y-84442857D01*
X132052380Y-83109523D02*
X132052380Y-83680952D01*
X132052380Y-83395238D02*
X131052380Y-83395238D01*
X131195238Y-83490476D01*
X131290476Y-83585714D01*
X131338095Y-83680952D01*
X153311836Y-73480888D02*
X152975118Y-73144170D01*
X153682225Y-72437064D01*
X154153630Y-73043155D02*
X154220973Y-73043155D01*
X154321988Y-73076827D01*
X154490347Y-73245186D01*
X154524019Y-73346201D01*
X154524019Y-73413545D01*
X154490347Y-73514560D01*
X154423004Y-73581903D01*
X154288317Y-73649247D01*
X153480194Y-73649247D01*
X153917927Y-74086980D01*
X151383409Y-69752461D02*
X151046691Y-69415743D01*
X151753798Y-68708637D01*
X152258874Y-69213713D02*
X152696607Y-69651446D01*
X152191531Y-69685118D01*
X152292546Y-69786133D01*
X152326218Y-69887148D01*
X152326218Y-69954492D01*
X152292546Y-70055507D01*
X152124187Y-70223866D01*
X152023172Y-70257537D01*
X151955829Y-70257537D01*
X151854813Y-70223866D01*
X151652783Y-70021835D01*
X151619111Y-69920820D01*
X151619111Y-69853476D01*
X137852380Y-106242857D02*
X137376190Y-106576190D01*
X137852380Y-106814285D02*
X136852380Y-106814285D01*
X136852380Y-106433333D01*
X136900000Y-106338095D01*
X136947619Y-106290476D01*
X137042857Y-106242857D01*
X137185714Y-106242857D01*
X137280952Y-106290476D01*
X137328571Y-106338095D01*
X137376190Y-106433333D01*
X137376190Y-106814285D01*
X136947619Y-105861904D02*
X136900000Y-105814285D01*
X136852380Y-105719047D01*
X136852380Y-105480952D01*
X136900000Y-105385714D01*
X136947619Y-105338095D01*
X137042857Y-105290476D01*
X137138095Y-105290476D01*
X137280952Y-105338095D01*
X137852380Y-105909523D01*
X137852380Y-105290476D01*
X136852380Y-104385714D02*
X136852380Y-104861904D01*
X137328571Y-104909523D01*
X137280952Y-104861904D01*
X137233333Y-104766666D01*
X137233333Y-104528571D01*
X137280952Y-104433333D01*
X137328571Y-104385714D01*
X137423809Y-104338095D01*
X137661904Y-104338095D01*
X137757142Y-104385714D01*
X137804761Y-104433333D01*
X137852380Y-104528571D01*
X137852380Y-104766666D01*
X137804761Y-104861904D01*
X137757142Y-104909523D01*
X114285714Y-83161904D02*
X114019047Y-82780952D01*
X113828571Y-83161904D02*
X113828571Y-82361904D01*
X114133333Y-82361904D01*
X114209523Y-82400000D01*
X114247619Y-82438095D01*
X114285714Y-82514285D01*
X114285714Y-82628571D01*
X114247619Y-82704761D01*
X114209523Y-82742857D01*
X114133333Y-82780952D01*
X113828571Y-82780952D01*
X114590476Y-82438095D02*
X114628571Y-82400000D01*
X114704761Y-82361904D01*
X114895238Y-82361904D01*
X114971428Y-82400000D01*
X115009523Y-82438095D01*
X115047619Y-82514285D01*
X115047619Y-82590476D01*
X115009523Y-82704761D01*
X114552380Y-83161904D01*
X115047619Y-83161904D01*
X115733333Y-82361904D02*
X115580952Y-82361904D01*
X115504761Y-82400000D01*
X115466666Y-82438095D01*
X115390476Y-82552380D01*
X115352380Y-82704761D01*
X115352380Y-83009523D01*
X115390476Y-83085714D01*
X115428571Y-83123809D01*
X115504761Y-83161904D01*
X115657142Y-83161904D01*
X115733333Y-83123809D01*
X115771428Y-83085714D01*
X115809523Y-83009523D01*
X115809523Y-82819047D01*
X115771428Y-82742857D01*
X115733333Y-82704761D01*
X115657142Y-82666666D01*
X115504761Y-82666666D01*
X115428571Y-82704761D01*
X115390476Y-82742857D01*
X115352380Y-82819047D01*
X143052380Y-65142857D02*
X142576190Y-65476190D01*
X143052380Y-65714285D02*
X142052380Y-65714285D01*
X142052380Y-65333333D01*
X142100000Y-65238095D01*
X142147619Y-65190476D01*
X142242857Y-65142857D01*
X142385714Y-65142857D01*
X142480952Y-65190476D01*
X142528571Y-65238095D01*
X142576190Y-65333333D01*
X142576190Y-65714285D01*
X142147619Y-64761904D02*
X142100000Y-64714285D01*
X142052380Y-64619047D01*
X142052380Y-64380952D01*
X142100000Y-64285714D01*
X142147619Y-64238095D01*
X142242857Y-64190476D01*
X142338095Y-64190476D01*
X142480952Y-64238095D01*
X143052380Y-64809523D01*
X143052380Y-64190476D01*
X142052380Y-63857142D02*
X142052380Y-63190476D01*
X143052380Y-63619047D01*
X163857142Y-88152380D02*
X163523809Y-87676190D01*
X163285714Y-88152380D02*
X163285714Y-87152380D01*
X163666666Y-87152380D01*
X163761904Y-87200000D01*
X163809523Y-87247619D01*
X163857142Y-87342857D01*
X163857142Y-87485714D01*
X163809523Y-87580952D01*
X163761904Y-87628571D01*
X163666666Y-87676190D01*
X163285714Y-87676190D01*
X164238095Y-87247619D02*
X164285714Y-87200000D01*
X164380952Y-87152380D01*
X164619047Y-87152380D01*
X164714285Y-87200000D01*
X164761904Y-87247619D01*
X164809523Y-87342857D01*
X164809523Y-87438095D01*
X164761904Y-87580952D01*
X164190476Y-88152380D01*
X164809523Y-88152380D01*
X165380952Y-87580952D02*
X165285714Y-87533333D01*
X165238095Y-87485714D01*
X165190476Y-87390476D01*
X165190476Y-87342857D01*
X165238095Y-87247619D01*
X165285714Y-87200000D01*
X165380952Y-87152380D01*
X165571428Y-87152380D01*
X165666666Y-87200000D01*
X165714285Y-87247619D01*
X165761904Y-87342857D01*
X165761904Y-87390476D01*
X165714285Y-87485714D01*
X165666666Y-87533333D01*
X165571428Y-87580952D01*
X165380952Y-87580952D01*
X165285714Y-87628571D01*
X165238095Y-87676190D01*
X165190476Y-87771428D01*
X165190476Y-87961904D01*
X165238095Y-88057142D01*
X165285714Y-88104761D01*
X165380952Y-88152380D01*
X165571428Y-88152380D01*
X165666666Y-88104761D01*
X165714285Y-88057142D01*
X165761904Y-87961904D01*
X165761904Y-87771428D01*
X165714285Y-87676190D01*
X165666666Y-87628571D01*
X165571428Y-87580952D01*
X134652380Y-108142857D02*
X134176190Y-108476190D01*
X134652380Y-108714285D02*
X133652380Y-108714285D01*
X133652380Y-108333333D01*
X133700000Y-108238095D01*
X133747619Y-108190476D01*
X133842857Y-108142857D01*
X133985714Y-108142857D01*
X134080952Y-108190476D01*
X134128571Y-108238095D01*
X134176190Y-108333333D01*
X134176190Y-108714285D01*
X133747619Y-107761904D02*
X133700000Y-107714285D01*
X133652380Y-107619047D01*
X133652380Y-107380952D01*
X133700000Y-107285714D01*
X133747619Y-107238095D01*
X133842857Y-107190476D01*
X133938095Y-107190476D01*
X134080952Y-107238095D01*
X134652380Y-107809523D01*
X134652380Y-107190476D01*
X134652380Y-106714285D02*
X134652380Y-106523809D01*
X134604761Y-106428571D01*
X134557142Y-106380952D01*
X134414285Y-106285714D01*
X134223809Y-106238095D01*
X133842857Y-106238095D01*
X133747619Y-106285714D01*
X133700000Y-106333333D01*
X133652380Y-106428571D01*
X133652380Y-106619047D01*
X133700000Y-106714285D01*
X133747619Y-106761904D01*
X133842857Y-106809523D01*
X134080952Y-106809523D01*
X134176190Y-106761904D01*
X134223809Y-106714285D01*
X134271428Y-106619047D01*
X134271428Y-106428571D01*
X134223809Y-106333333D01*
X134176190Y-106285714D01*
X134080952Y-106238095D01*
X119857142Y-82452380D02*
X119523809Y-81976190D01*
X119285714Y-82452380D02*
X119285714Y-81452380D01*
X119666666Y-81452380D01*
X119761904Y-81500000D01*
X119809523Y-81547619D01*
X119857142Y-81642857D01*
X119857142Y-81785714D01*
X119809523Y-81880952D01*
X119761904Y-81928571D01*
X119666666Y-81976190D01*
X119285714Y-81976190D01*
X120190476Y-81452380D02*
X120809523Y-81452380D01*
X120476190Y-81833333D01*
X120619047Y-81833333D01*
X120714285Y-81880952D01*
X120761904Y-81928571D01*
X120809523Y-82023809D01*
X120809523Y-82261904D01*
X120761904Y-82357142D01*
X120714285Y-82404761D01*
X120619047Y-82452380D01*
X120333333Y-82452380D01*
X120238095Y-82404761D01*
X120190476Y-82357142D01*
X121428571Y-81452380D02*
X121523809Y-81452380D01*
X121619047Y-81500000D01*
X121666666Y-81547619D01*
X121714285Y-81642857D01*
X121761904Y-81833333D01*
X121761904Y-82071428D01*
X121714285Y-82261904D01*
X121666666Y-82357142D01*
X121619047Y-82404761D01*
X121523809Y-82452380D01*
X121428571Y-82452380D01*
X121333333Y-82404761D01*
X121285714Y-82357142D01*
X121238095Y-82261904D01*
X121190476Y-82071428D01*
X121190476Y-81833333D01*
X121238095Y-81642857D01*
X121285714Y-81547619D01*
X121333333Y-81500000D01*
X121428571Y-81452380D01*
X144652380Y-65442857D02*
X144176190Y-65776190D01*
X144652380Y-66014285D02*
X143652380Y-66014285D01*
X143652380Y-65633333D01*
X143700000Y-65538095D01*
X143747619Y-65490476D01*
X143842857Y-65442857D01*
X143985714Y-65442857D01*
X144080952Y-65490476D01*
X144128571Y-65538095D01*
X144176190Y-65633333D01*
X144176190Y-66014285D01*
X143652380Y-65109523D02*
X143652380Y-64490476D01*
X144033333Y-64823809D01*
X144033333Y-64680952D01*
X144080952Y-64585714D01*
X144128571Y-64538095D01*
X144223809Y-64490476D01*
X144461904Y-64490476D01*
X144557142Y-64538095D01*
X144604761Y-64585714D01*
X144652380Y-64680952D01*
X144652380Y-64966666D01*
X144604761Y-65061904D01*
X144557142Y-65109523D01*
X144652380Y-63538095D02*
X144652380Y-64109523D01*
X144652380Y-63823809D02*
X143652380Y-63823809D01*
X143795238Y-63919047D01*
X143890476Y-64014285D01*
X143938095Y-64109523D01*
X159157142Y-88552380D02*
X158823809Y-88076190D01*
X158585714Y-88552380D02*
X158585714Y-87552380D01*
X158966666Y-87552380D01*
X159061904Y-87600000D01*
X159109523Y-87647619D01*
X159157142Y-87742857D01*
X159157142Y-87885714D01*
X159109523Y-87980952D01*
X159061904Y-88028571D01*
X158966666Y-88076190D01*
X158585714Y-88076190D01*
X159490476Y-87552380D02*
X160109523Y-87552380D01*
X159776190Y-87933333D01*
X159919047Y-87933333D01*
X160014285Y-87980952D01*
X160061904Y-88028571D01*
X160109523Y-88123809D01*
X160109523Y-88361904D01*
X160061904Y-88457142D01*
X160014285Y-88504761D01*
X159919047Y-88552380D01*
X159633333Y-88552380D01*
X159538095Y-88504761D01*
X159490476Y-88457142D01*
X160490476Y-87647619D02*
X160538095Y-87600000D01*
X160633333Y-87552380D01*
X160871428Y-87552380D01*
X160966666Y-87600000D01*
X161014285Y-87647619D01*
X161061904Y-87742857D01*
X161061904Y-87838095D01*
X161014285Y-87980952D01*
X160442857Y-88552380D01*
X161061904Y-88552380D01*
X129938095Y-76952380D02*
X129938095Y-77761904D01*
X129985714Y-77857142D01*
X130033333Y-77904761D01*
X130128571Y-77952380D01*
X130319047Y-77952380D01*
X130414285Y-77904761D01*
X130461904Y-77857142D01*
X130509523Y-77761904D01*
X130509523Y-76952380D01*
X131033333Y-77952380D02*
X131223809Y-77952380D01*
X131319047Y-77904761D01*
X131366666Y-77857142D01*
X131461904Y-77714285D01*
X131509523Y-77523809D01*
X131509523Y-77142857D01*
X131461904Y-77047619D01*
X131414285Y-77000000D01*
X131319047Y-76952380D01*
X131128571Y-76952380D01*
X131033333Y-77000000D01*
X130985714Y-77047619D01*
X130938095Y-77142857D01*
X130938095Y-77380952D01*
X130985714Y-77476190D01*
X131033333Y-77523809D01*
X131128571Y-77571428D01*
X131319047Y-77571428D01*
X131414285Y-77523809D01*
X131461904Y-77476190D01*
X131509523Y-77380952D01*
X154611759Y-67737309D02*
X154039339Y-68309729D01*
X154005668Y-68410744D01*
X154005668Y-68478087D01*
X154039339Y-68579103D01*
X154174026Y-68713790D01*
X154275042Y-68747461D01*
X154342385Y-68747461D01*
X154443400Y-68713790D01*
X155015820Y-68141370D01*
X155015820Y-69555583D02*
X154611759Y-69151522D01*
X154813790Y-69353553D02*
X155520896Y-68646446D01*
X155352538Y-68680118D01*
X155217851Y-68680118D01*
X155116835Y-68646446D01*
X155924957Y-69185194D02*
X155992301Y-69185194D01*
X156093316Y-69218866D01*
X156261675Y-69387225D01*
X156295347Y-69488240D01*
X156295347Y-69555583D01*
X156261675Y-69656599D01*
X156194331Y-69723942D01*
X156059644Y-69791286D01*
X155251522Y-69791286D01*
X155689255Y-70229018D01*
X130727481Y-101214900D02*
X130794824Y-101349587D01*
X130963183Y-101517946D01*
X131064198Y-101551618D01*
X131131542Y-101551618D01*
X131232557Y-101517946D01*
X131299900Y-101450603D01*
X131333572Y-101349587D01*
X131333572Y-101282244D01*
X131299900Y-101181229D01*
X131198885Y-101012870D01*
X131165213Y-100911855D01*
X131165213Y-100844511D01*
X131198885Y-100743496D01*
X131266229Y-100676152D01*
X131367244Y-100642481D01*
X131434587Y-100642481D01*
X131535603Y-100676152D01*
X131703961Y-100844511D01*
X131771305Y-100979198D01*
X132040679Y-101181229D02*
X131501931Y-102056694D01*
X132141694Y-101686305D01*
X131771305Y-102326068D01*
X132646770Y-101787320D01*
X132579427Y-103134190D02*
X132175366Y-102730129D01*
X132377396Y-102932160D02*
X133084503Y-102225053D01*
X132916144Y-102258725D01*
X132781457Y-102258725D01*
X132680442Y-102225053D01*
X148961904Y-82052380D02*
X148961904Y-82861904D01*
X149009523Y-82957142D01*
X149057142Y-83004761D01*
X149152380Y-83052380D01*
X149342857Y-83052380D01*
X149438095Y-83004761D01*
X149485714Y-82957142D01*
X149533333Y-82861904D01*
X149533333Y-82052380D01*
X150533333Y-83052380D02*
X149961904Y-83052380D01*
X150247619Y-83052380D02*
X150247619Y-82052380D01*
X150152380Y-82195238D01*
X150057142Y-82290476D01*
X149961904Y-82338095D01*
X150866666Y-82052380D02*
X151485714Y-82052380D01*
X151152380Y-82433333D01*
X151295238Y-82433333D01*
X151390476Y-82480952D01*
X151438095Y-82528571D01*
X151485714Y-82623809D01*
X151485714Y-82861904D01*
X151438095Y-82957142D01*
X151390476Y-83004761D01*
X151295238Y-83052380D01*
X151009523Y-83052380D01*
X150914285Y-83004761D01*
X150866666Y-82957142D01*
X157071082Y-83075786D02*
X157643502Y-83648206D01*
X157744517Y-83681878D01*
X157811861Y-83681878D01*
X157912876Y-83648206D01*
X158047563Y-83513519D01*
X158081235Y-83412504D01*
X158081235Y-83345160D01*
X158047563Y-83244145D01*
X157475143Y-82671725D01*
X157744517Y-82402351D02*
X158215922Y-81930947D01*
X158619983Y-82941099D01*
M02*
