G04 #@! TF.GenerationSoftware,KiCad,Pcbnew,5.0-dev-unknown-28f1209~61~ubuntu16.04.1*
G04 #@! TF.CreationDate,2018-02-18T12:37:57+01:00*
G04 #@! TF.ProjectId,roboy_crazyfly,726F626F795F6372617A79666C792E6B,rev?*
G04 #@! TF.SameCoordinates,Original*
G04 #@! TF.FileFunction,Soldermask,Top*
G04 #@! TF.FilePolarity,Negative*
%FSLAX46Y46*%
G04 Gerber Fmt 4.6, Leading zero omitted, Abs format (unit mm)*
G04 Created by KiCad (PCBNEW 5.0-dev-unknown-28f1209~61~ubuntu16.04.1) date Sun Feb 18 12:37:57 2018*
%MOMM*%
%LPD*%
G01*
G04 APERTURE LIST*
%ADD10R,0.900000X1.000000*%
%ADD11R,1.000000X0.900000*%
%ADD12C,1.200000*%
%ADD13C,0.100000*%
%ADD14R,1.200000X1.200000*%
%ADD15R,2.432000X2.432000*%
%ADD16O,2.432000X2.432000*%
%ADD17C,2.127200*%
%ADD18C,2.127200*%
%ADD19R,1.300000X1.200000*%
%ADD20R,1.200000X1.300000*%
%ADD21C,0.800000*%
%ADD22R,1.000000X0.800000*%
%ADD23R,0.800000X1.000000*%
%ADD24R,1.460000X1.050000*%
%ADD25R,0.600000X0.800000*%
%ADD26R,0.800000X0.600000*%
%ADD27R,0.700000X0.850000*%
%ADD28R,0.850000X0.700000*%
%ADD29R,1.200000X0.600000*%
%ADD30R,0.600000X1.200000*%
%ADD31R,1.512500X1.512500*%
%ADD32O,0.700000X1.150000*%
%ADD33O,1.150000X0.700000*%
%ADD34R,1.300000X1.300000*%
%ADD35R,1.100000X0.910000*%
%ADD36C,0.700000*%
%ADD37R,1.400000X0.700000*%
%ADD38R,1.700000X2.600000*%
%ADD39R,0.800000X1.150000*%
%ADD40R,2.200000X2.400000*%
%ADD41C,1.299160*%
%ADD42C,2.400000*%
G04 APERTURE END LIST*
D10*
X137025000Y-80850000D03*
X137025000Y-81950000D03*
D11*
X150850000Y-97500000D03*
X151950000Y-97500000D03*
X134250000Y-104100000D03*
X135350000Y-104100000D03*
X123550000Y-87000000D03*
X124650000Y-87000000D03*
D10*
X143500000Y-77650000D03*
X143500000Y-76550000D03*
X127675000Y-96325000D03*
X127675000Y-95225000D03*
D11*
X141050000Y-79250000D03*
X139950000Y-79250000D03*
D10*
X133000000Y-85300000D03*
X133000000Y-84200000D03*
D11*
X141050000Y-80750000D03*
X139950000Y-80750000D03*
D10*
X131500000Y-85300000D03*
X131500000Y-84200000D03*
D11*
X141050000Y-82250000D03*
X139950000Y-82250000D03*
D10*
X134400000Y-92150000D03*
X134400000Y-93250000D03*
D11*
X140625000Y-89575000D03*
X141725000Y-89575000D03*
D10*
X140000000Y-95950000D03*
X140000000Y-97050000D03*
D11*
X151850000Y-92800000D03*
X152950000Y-92800000D03*
D10*
X146000000Y-87250000D03*
X146000000Y-86150000D03*
D11*
X151850000Y-91200000D03*
X152950000Y-91200000D03*
D10*
X126300000Y-78350000D03*
X126300000Y-77250000D03*
X149900000Y-87350000D03*
X149900000Y-86250000D03*
D11*
X128350000Y-88800000D03*
X127250000Y-88800000D03*
D10*
X127700000Y-80550000D03*
X127700000Y-79450000D03*
X148000000Y-86250000D03*
X148000000Y-87350000D03*
X126300000Y-81350000D03*
X126300000Y-80250000D03*
X143400000Y-85650000D03*
X143400000Y-84550000D03*
X131950000Y-103050000D03*
X131950000Y-104150000D03*
X146600000Y-82250000D03*
X146600000Y-81150000D03*
D12*
X148284315Y-67709315D03*
D13*
G36*
X147435787Y-67709315D02*
X148284315Y-66860787D01*
X149132843Y-67709315D01*
X148284315Y-68557843D01*
X147435787Y-67709315D01*
X147435787Y-67709315D01*
G37*
D12*
X149415685Y-68840685D03*
D13*
G36*
X148567157Y-68840685D02*
X149415685Y-67992157D01*
X150264213Y-68840685D01*
X149415685Y-69689213D01*
X148567157Y-68840685D01*
X148567157Y-68840685D01*
G37*
D14*
X139200000Y-110800000D03*
X139200000Y-112400000D03*
X113900000Y-84000000D03*
X112300000Y-84000000D03*
X139100000Y-57500000D03*
X139100000Y-59100000D03*
X165800000Y-84100000D03*
X167400000Y-84100000D03*
X143800000Y-97000000D03*
X142200000Y-97000000D03*
D15*
X141000000Y-101000000D03*
D16*
X138460000Y-101000000D03*
D17*
X127600000Y-99600000D03*
D13*
G36*
X129211921Y-99492237D02*
X127492237Y-101211921D01*
X125988079Y-99707763D01*
X127707763Y-97988079D01*
X129211921Y-99492237D01*
X129211921Y-99492237D01*
G37*
D17*
X125803949Y-97803949D03*
D18*
X125696186Y-97911712D02*
X125911712Y-97696186D01*
D17*
X124007898Y-96007898D03*
D18*
X123900135Y-96115661D02*
X124115661Y-95900135D01*
D17*
X122211846Y-94211846D03*
D18*
X122104083Y-94319609D02*
X122319609Y-94104083D01*
D17*
X120415795Y-92415795D03*
D18*
X120308032Y-92523558D02*
X120523558Y-92308032D01*
D17*
X118619744Y-90619744D03*
D18*
X118511981Y-90727507D02*
X118727507Y-90511981D01*
D17*
X153550000Y-83325000D03*
D13*
G36*
X153657763Y-84936921D02*
X151938079Y-83217237D01*
X153442237Y-81713079D01*
X155161921Y-83432763D01*
X153657763Y-84936921D01*
X153657763Y-84936921D01*
G37*
D17*
X155346051Y-81528949D03*
D18*
X155238288Y-81421186D02*
X155453814Y-81636712D01*
D17*
X157142102Y-79732898D03*
D18*
X157034339Y-79625135D02*
X157249865Y-79840661D01*
D17*
X158938154Y-77936846D03*
D18*
X158830391Y-77829083D02*
X159045917Y-78044609D01*
D17*
X162175000Y-91100000D03*
D13*
G36*
X162067237Y-89488079D02*
X163786921Y-91207763D01*
X162282763Y-92711921D01*
X160563079Y-90992237D01*
X162067237Y-89488079D01*
X162067237Y-89488079D01*
G37*
D17*
X160378949Y-92896051D03*
D18*
X160486712Y-93003814D02*
X160271186Y-92788288D01*
D17*
X158582898Y-94692102D03*
D18*
X158690661Y-94799865D02*
X158475135Y-94584339D01*
D17*
X156786846Y-96488154D03*
D18*
X156894609Y-96595917D02*
X156679083Y-96380391D01*
D17*
X154990795Y-98284205D03*
D18*
X155098558Y-98391968D02*
X154883032Y-98176442D01*
D17*
X153194744Y-100080256D03*
D18*
X153302507Y-100188019D02*
X153086981Y-99972493D01*
D17*
X151398693Y-101876307D03*
D18*
X151506456Y-101984070D02*
X151290930Y-101768544D01*
D17*
X149602641Y-103672359D03*
D18*
X149710404Y-103780122D02*
X149494878Y-103564596D01*
D17*
X147806590Y-105468410D03*
D18*
X147914353Y-105576173D02*
X147698827Y-105360647D01*
D17*
X146010539Y-107264461D03*
D18*
X146118302Y-107372224D02*
X145902776Y-107156698D01*
D17*
X118800000Y-80000000D03*
D13*
G36*
X118907763Y-81611921D02*
X117188079Y-79892237D01*
X118692237Y-78388079D01*
X120411921Y-80107763D01*
X118907763Y-81611921D01*
X118907763Y-81611921D01*
G37*
D17*
X120596051Y-78203949D03*
D18*
X120488288Y-78096186D02*
X120703814Y-78311712D01*
D17*
X122392102Y-76407898D03*
D18*
X122284339Y-76300135D02*
X122499865Y-76515661D01*
D17*
X124188154Y-74611846D03*
D18*
X124080391Y-74504083D02*
X124295917Y-74719609D01*
D17*
X125984205Y-72815795D03*
D18*
X125876442Y-72708032D02*
X126091968Y-72923558D01*
D17*
X127780256Y-71019744D03*
D18*
X127672493Y-70911981D02*
X127888019Y-71127507D01*
D17*
X129576307Y-69223693D03*
D18*
X129468544Y-69115930D02*
X129684070Y-69331456D01*
D17*
X131372359Y-67427641D03*
D18*
X131264596Y-67319878D02*
X131480122Y-67535404D01*
D17*
X133168410Y-65631590D03*
D18*
X133060647Y-65523827D02*
X133276173Y-65739353D01*
D17*
X134964461Y-63835539D03*
D18*
X134856698Y-63727776D02*
X135072224Y-63943302D01*
D19*
X139000000Y-107050000D03*
X139000000Y-108950000D03*
X141000000Y-108000000D03*
D20*
X117950000Y-84000000D03*
X116050000Y-84000000D03*
X117000000Y-86000000D03*
D19*
X141000000Y-62950000D03*
X141000000Y-61050000D03*
X139000000Y-62000000D03*
D20*
X162050000Y-86000000D03*
X163950000Y-86000000D03*
X163000000Y-84000000D03*
D21*
X148018198Y-69843198D03*
D13*
G36*
X148654594Y-69772487D02*
X147947487Y-70479594D01*
X147381802Y-69913909D01*
X148088909Y-69206802D01*
X148654594Y-69772487D01*
X148654594Y-69772487D01*
G37*
D21*
X147381802Y-69206802D03*
D13*
G36*
X148018198Y-69136091D02*
X147311091Y-69843198D01*
X146745406Y-69277513D01*
X147452513Y-68570406D01*
X148018198Y-69136091D01*
X148018198Y-69136091D01*
G37*
D22*
X140900000Y-110650000D03*
X140900000Y-111550000D03*
X135000000Y-75850000D03*
X135000000Y-76750000D03*
D23*
X112650000Y-86000000D03*
X113550000Y-86000000D03*
D22*
X135000000Y-74750000D03*
X135000000Y-73850000D03*
X140900000Y-58550000D03*
X140900000Y-59450000D03*
D23*
X166650000Y-85900000D03*
X165750000Y-85900000D03*
D22*
X136600000Y-74750000D03*
X136600000Y-73850000D03*
X136600000Y-75850000D03*
X136600000Y-76750000D03*
D23*
X141350000Y-98500000D03*
X142250000Y-98500000D03*
D22*
X134400000Y-90850000D03*
X134400000Y-89950000D03*
X136300000Y-89750000D03*
X136300000Y-88850000D03*
D23*
X149150000Y-97000000D03*
X148250000Y-97000000D03*
X146050000Y-97000000D03*
X145150000Y-97000000D03*
X140725000Y-90900000D03*
X141625000Y-90900000D03*
D22*
X138200000Y-89750000D03*
X138200000Y-88850000D03*
X134400000Y-95550000D03*
X134400000Y-94650000D03*
X136400000Y-96050000D03*
X136400000Y-96950000D03*
X138300000Y-96050000D03*
X138300000Y-96950000D03*
X151700000Y-95250000D03*
X151700000Y-94350000D03*
D23*
X144450000Y-87300000D03*
X143550000Y-87300000D03*
X154250000Y-88300000D03*
X155150000Y-88300000D03*
X130450000Y-96100000D03*
X131350000Y-96100000D03*
D24*
X138900000Y-74050000D03*
X138900000Y-75000000D03*
X138900000Y-75950000D03*
X141100000Y-75950000D03*
X141100000Y-74050000D03*
D25*
X139000000Y-86500000D03*
X139400000Y-86500000D03*
X139800000Y-86500000D03*
X140200000Y-86500000D03*
X140600000Y-86500000D03*
X141000000Y-86500000D03*
D26*
X141500000Y-86000000D03*
X141500000Y-85600000D03*
X141500000Y-85200000D03*
X141500000Y-84800000D03*
X141500000Y-84400000D03*
X141500000Y-84000000D03*
D25*
X141000000Y-83500000D03*
X140600000Y-83500000D03*
X140200000Y-83500000D03*
X139800000Y-83500000D03*
X139400000Y-83500000D03*
X139000000Y-83500000D03*
D26*
X138500000Y-84000000D03*
X138500000Y-84400000D03*
X138500000Y-84800000D03*
X138500000Y-85200000D03*
X138500000Y-85600000D03*
X138500000Y-86000000D03*
D27*
X135700000Y-84180000D03*
X135100000Y-84180000D03*
D28*
X136020000Y-84800000D03*
X136020000Y-85400000D03*
D27*
X135700000Y-86020000D03*
X135100000Y-86020000D03*
X134500000Y-86020000D03*
D28*
X134180000Y-85400000D03*
X134180000Y-84800000D03*
D27*
X134500000Y-84180000D03*
D29*
X143700000Y-89900000D03*
X143700000Y-90300000D03*
X143700000Y-90700000D03*
X143700000Y-91100000D03*
X143700000Y-91500000D03*
X143700000Y-91900000D03*
X143700000Y-92300000D03*
X143700000Y-92700000D03*
X143700000Y-93100000D03*
X143700000Y-93500000D03*
X143700000Y-93900000D03*
X143700000Y-94300000D03*
D30*
X144500000Y-95100000D03*
X144900000Y-95100000D03*
X145300000Y-95100000D03*
X145700000Y-95100000D03*
X146100000Y-95100000D03*
X146500000Y-95100000D03*
X146900000Y-95100000D03*
X147300000Y-95100000D03*
X147700000Y-95100000D03*
X148100000Y-95100000D03*
X148500000Y-95100000D03*
X148900000Y-95100000D03*
D29*
X149700000Y-94300000D03*
X149700000Y-93900000D03*
X149700000Y-93500000D03*
X149700000Y-93100000D03*
X149700000Y-92700000D03*
X149700000Y-92300000D03*
X149700000Y-91900000D03*
X149700000Y-91500000D03*
X149700000Y-91100000D03*
X149700000Y-90700000D03*
X149700000Y-90300000D03*
X149700000Y-89900000D03*
D30*
X148900000Y-89100000D03*
X148500000Y-89100000D03*
X148100000Y-89100000D03*
X147700000Y-89100000D03*
X147300000Y-89100000D03*
X146900000Y-89100000D03*
X146500000Y-89100000D03*
X146100000Y-89100000D03*
X145700000Y-89100000D03*
X145300000Y-89100000D03*
X144900000Y-89100000D03*
X144500000Y-89100000D03*
D31*
X148368750Y-93768750D03*
X148368750Y-92656250D03*
X148368750Y-91543750D03*
X148368750Y-90431250D03*
X147256250Y-93768750D03*
X147256250Y-92656250D03*
X147256250Y-91543750D03*
X147256250Y-90431250D03*
X146143750Y-93768750D03*
X146143750Y-92656250D03*
X146143750Y-91543750D03*
X146143750Y-90431250D03*
X145031250Y-93768750D03*
X145031250Y-92656250D03*
X145031250Y-91543750D03*
X145031250Y-90431250D03*
D32*
X137250000Y-94475000D03*
X137750000Y-94475000D03*
X138250000Y-94475000D03*
X138750000Y-94475000D03*
D33*
X139475000Y-93750000D03*
X139475000Y-93250000D03*
X139475000Y-92750000D03*
X139475000Y-92250000D03*
D32*
X138750000Y-91525000D03*
X138250000Y-91525000D03*
X137750000Y-91525000D03*
X137250000Y-91525000D03*
D33*
X136525000Y-92250000D03*
X136525000Y-92750000D03*
X136525000Y-93250000D03*
X136525000Y-93750000D03*
D34*
X138450000Y-92550000D03*
X137550000Y-92550000D03*
X138450000Y-93450000D03*
X137550000Y-93450000D03*
D10*
X127000000Y-93550000D03*
X127000000Y-92450000D03*
D35*
X145160000Y-81950000D03*
X145160000Y-81000000D03*
X145160000Y-80050000D03*
X142840000Y-80050000D03*
X142840000Y-81950000D03*
D36*
X131000000Y-78900000D03*
D13*
G36*
X129867157Y-79250000D02*
X130567157Y-78550000D01*
X131432843Y-78550000D01*
X132132843Y-79250000D01*
X129867157Y-79250000D01*
X129867157Y-79250000D01*
G37*
D37*
X131150000Y-78900000D03*
D38*
X131000000Y-80150000D03*
D22*
X132050000Y-81200000D03*
X132050000Y-80600000D03*
X132050000Y-78800000D03*
X132050000Y-79400000D03*
X129950000Y-81200000D03*
X129950000Y-78800000D03*
X129950000Y-79400000D03*
X129950000Y-80000000D03*
X129950000Y-80600000D03*
X132050000Y-80000000D03*
D39*
X156000000Y-92250000D03*
X156650000Y-90350000D03*
X155350000Y-90350000D03*
X156000000Y-90350000D03*
X155350000Y-92250000D03*
X156650000Y-92250000D03*
D33*
X129525000Y-92250000D03*
X129525000Y-92750000D03*
X129525000Y-93250000D03*
X129525000Y-93750000D03*
D32*
X130250000Y-94475000D03*
X130750000Y-94475000D03*
X131250000Y-94475000D03*
X131750000Y-94475000D03*
D33*
X132475000Y-93750000D03*
X132475000Y-93250000D03*
X132475000Y-92750000D03*
X132475000Y-92250000D03*
D32*
X131750000Y-91525000D03*
X131250000Y-91525000D03*
X130750000Y-91525000D03*
X130250000Y-91525000D03*
D34*
X131450000Y-93450000D03*
X131450000Y-92550000D03*
X130550000Y-93450000D03*
X130550000Y-92550000D03*
D40*
X148321000Y-75950000D03*
X153329000Y-75950000D03*
X148321000Y-79950000D03*
X153329000Y-79950000D03*
D10*
X140000000Y-104450000D03*
X140000000Y-105550000D03*
D11*
X120550000Y-85000000D03*
X119450000Y-85000000D03*
D10*
X140000000Y-65550000D03*
X140000000Y-64450000D03*
D11*
X159450000Y-85000000D03*
X160550000Y-85000000D03*
D10*
X129900000Y-83250000D03*
X129900000Y-84350000D03*
X130650000Y-103050000D03*
X130650000Y-104150000D03*
X129350000Y-104150000D03*
X129350000Y-103050000D03*
D41*
X148442942Y-74196297D03*
X151553703Y-77307058D03*
D42*
X153752119Y-104997881D03*
D13*
G36*
X153928896Y-103124048D02*
X155625952Y-104821104D01*
X153575342Y-106871714D01*
X151878286Y-105174658D01*
X153928896Y-103124048D01*
X153928896Y-103124048D01*
G37*
D42*
X159797881Y-98952119D03*
D13*
G36*
X159974658Y-97078286D02*
X161671714Y-98775342D01*
X159621104Y-100825952D01*
X157924048Y-99128896D01*
X159974658Y-97078286D01*
X159974658Y-97078286D01*
G37*
D12*
X123468629Y-106131371D03*
D13*
G36*
X123751472Y-107262742D02*
X122337258Y-105848528D01*
X123185786Y-105000000D01*
X124600000Y-106414214D01*
X123751472Y-107262742D01*
X123751472Y-107262742D01*
G37*
D12*
X125731371Y-103868629D03*
D13*
G36*
X126014214Y-105000000D02*
X124600000Y-103585786D01*
X125448528Y-102737258D01*
X126862742Y-104151472D01*
X126014214Y-105000000D01*
X126014214Y-105000000D01*
G37*
D22*
X137300000Y-108450000D03*
X137300000Y-107550000D03*
D23*
X116450000Y-82400000D03*
X117350000Y-82400000D03*
D22*
X142600000Y-61450000D03*
X142600000Y-62350000D03*
D23*
X161700000Y-87600000D03*
X162600000Y-87600000D03*
D22*
X135700000Y-108050000D03*
X135700000Y-107150000D03*
D23*
X120050000Y-83300000D03*
X120950000Y-83300000D03*
D22*
X144100000Y-62150000D03*
X144100000Y-63050000D03*
D23*
X160400000Y-86850000D03*
X159500000Y-86850000D03*
M02*
