G04 #@! TF.GenerationSoftware,KiCad,Pcbnew,5.0-dev-unknown-28f1209~61~ubuntu16.04.1*
G04 #@! TF.CreationDate,2018-02-18T17:05:59+01:00*
G04 #@! TF.ProjectId,roboy_crazyfly,726F626F795F6372617A79666C792E6B,rev?*
G04 #@! TF.SameCoordinates,Original*
G04 #@! TF.FileFunction,Copper,L3,Inr,Signal*
G04 #@! TF.FilePolarity,Positive*
%FSLAX46Y46*%
G04 Gerber Fmt 4.6, Leading zero omitted, Abs format (unit mm)*
G04 Created by KiCad (PCBNEW 5.0-dev-unknown-28f1209~61~ubuntu16.04.1) date Sun Feb 18 17:05:59 2018*
%MOMM*%
%LPD*%
G01*
G04 APERTURE LIST*
%ADD10C,1.727200*%
%ADD11C,0.100000*%
%ADD12C,1.727200*%
%ADD13R,2.032000X2.032000*%
%ADD14O,2.032000X2.032000*%
%ADD15C,0.500000*%
%ADD16C,0.150000*%
%ADD17C,0.152400*%
G04 APERTURE END LIST*
D10*
X127600000Y-99600000D03*
D11*
G36*
X128929078Y-99492237D02*
X127492237Y-100929078D01*
X126270922Y-99707763D01*
X127707763Y-98270922D01*
X128929078Y-99492237D01*
X128929078Y-99492237D01*
G37*
D10*
X125803949Y-97803949D03*
D12*
X125696186Y-97911712D02*
X125911712Y-97696186D01*
D10*
X124007898Y-96007898D03*
D12*
X123900135Y-96115661D02*
X124115661Y-95900135D01*
D10*
X122211846Y-94211846D03*
D12*
X122104083Y-94319609D02*
X122319609Y-94104083D01*
D10*
X120415795Y-92415795D03*
D12*
X120308032Y-92523558D02*
X120523558Y-92308032D01*
D10*
X118619744Y-90619744D03*
D12*
X118511981Y-90727507D02*
X118727507Y-90511981D01*
D13*
X141000000Y-101000000D03*
D14*
X138460000Y-101000000D03*
D10*
X135600000Y-66200000D03*
D11*
G36*
X135492237Y-64870922D02*
X136929078Y-66307763D01*
X135707763Y-67529078D01*
X134270922Y-66092237D01*
X135492237Y-64870922D01*
X135492237Y-64870922D01*
G37*
D10*
X133803949Y-67996051D03*
D12*
X133911712Y-68103814D02*
X133696186Y-67888288D01*
D10*
X132007898Y-69792102D03*
D12*
X132115661Y-69899865D02*
X131900135Y-69684339D01*
D10*
X130211846Y-71588154D03*
D12*
X130319609Y-71695917D02*
X130104083Y-71480391D01*
D10*
X161900000Y-91000000D03*
D11*
G36*
X161792237Y-89670922D02*
X163229078Y-91107763D01*
X162007763Y-92329078D01*
X160570922Y-90892237D01*
X161792237Y-89670922D01*
X161792237Y-89670922D01*
G37*
D10*
X160103949Y-92796051D03*
D12*
X160211712Y-92903814D02*
X159996186Y-92688288D01*
D10*
X158307898Y-94592102D03*
D12*
X158415661Y-94699865D02*
X158200135Y-94484339D01*
D10*
X156511846Y-96388154D03*
D12*
X156619609Y-96495917D02*
X156404083Y-96280391D01*
D10*
X154715795Y-98184205D03*
D12*
X154823558Y-98291968D02*
X154608032Y-98076442D01*
D10*
X152919744Y-99980256D03*
D12*
X153027507Y-100088019D02*
X152811981Y-99872493D01*
D10*
X151123693Y-101776307D03*
D12*
X151231456Y-101884070D02*
X151015930Y-101668544D01*
D10*
X149327641Y-103572359D03*
D12*
X149435404Y-103680122D02*
X149219878Y-103464596D01*
D10*
X147531590Y-105368410D03*
D12*
X147639353Y-105476173D02*
X147423827Y-105260647D01*
D10*
X145735539Y-107164461D03*
D12*
X145843302Y-107272224D02*
X145627776Y-107056698D01*
D10*
X117800000Y-79500000D03*
D11*
G36*
X117907763Y-80829078D02*
X116470922Y-79392237D01*
X117692237Y-78170922D01*
X119129078Y-79607763D01*
X117907763Y-80829078D01*
X117907763Y-80829078D01*
G37*
D10*
X119596051Y-77703949D03*
D12*
X119488288Y-77596186D02*
X119703814Y-77811712D01*
D10*
X121392102Y-75907898D03*
D12*
X121284339Y-75800135D02*
X121499865Y-76015661D01*
D10*
X123188154Y-74111846D03*
D12*
X123080391Y-74004083D02*
X123295917Y-74219609D01*
D10*
X124984205Y-72315795D03*
D12*
X124876442Y-72208032D02*
X125091968Y-72423558D01*
D10*
X126780256Y-70519744D03*
D12*
X126672493Y-70411981D02*
X126888019Y-70627507D01*
D10*
X128576307Y-68723693D03*
D12*
X128468544Y-68615930D02*
X128684070Y-68831456D01*
D10*
X130372359Y-66927641D03*
D12*
X130264596Y-66819878D02*
X130480122Y-67035404D01*
D10*
X132168410Y-65131590D03*
D12*
X132060647Y-65023827D02*
X132276173Y-65239353D01*
D10*
X133964461Y-63335539D03*
D12*
X133856698Y-63227776D02*
X134072224Y-63443302D01*
D15*
X145230000Y-73570000D03*
X135699500Y-82486500D03*
X151100000Y-88400000D03*
X136620000Y-91620000D03*
X143130000Y-75400000D03*
X142270000Y-80830000D03*
X129950000Y-88500000D03*
X130040000Y-89820000D03*
X138300000Y-81770000D03*
X153130000Y-94040000D03*
X136400000Y-104830000D03*
X128480000Y-89790000D03*
X129620000Y-91610000D03*
X132280000Y-82690000D03*
X123400000Y-82190000D03*
X139400000Y-77710000D03*
X135100000Y-78660000D03*
X144250000Y-64300000D03*
X142825000Y-88225000D03*
X137100000Y-88925000D03*
X158550000Y-86850000D03*
X150700000Y-97800000D03*
X164300000Y-81200000D03*
X136000000Y-60600000D03*
X115900000Y-81000000D03*
X135400000Y-109300000D03*
X145620000Y-77950000D03*
X135970000Y-80920000D03*
X136860000Y-78070000D03*
X133830000Y-75810000D03*
X132850000Y-83000000D03*
X135430000Y-91670000D03*
X150930000Y-89550000D03*
X127400000Y-81350000D03*
X122070000Y-87310000D03*
X134170000Y-105200000D03*
X132480000Y-86260000D03*
X149470000Y-71250000D03*
X147300000Y-72000000D03*
X153200000Y-95000000D03*
X128940000Y-89370000D03*
X133130000Y-88750000D03*
X145810000Y-98330000D03*
X133810000Y-96850000D03*
X133400000Y-92240000D03*
X140470000Y-98560000D03*
X140670000Y-88310000D03*
X141080000Y-96350000D03*
X156000000Y-81500000D03*
X153400000Y-89800000D03*
X151560000Y-87190000D03*
X142340000Y-87250000D03*
X128590000Y-79100000D03*
X139375000Y-89600000D03*
X151100000Y-86600000D03*
X150300000Y-83000000D03*
X150910000Y-85400000D03*
X147320000Y-82420000D03*
X158530000Y-85430000D03*
X143110521Y-98949479D03*
X138500000Y-65400000D03*
X121500000Y-85400000D03*
X147036979Y-86471979D03*
X148940000Y-86230000D03*
X145040000Y-74580000D03*
X145520000Y-78900000D03*
X126475000Y-90375000D03*
X143725000Y-88350000D03*
X143575000Y-89375000D03*
X146700000Y-79900000D03*
X143000000Y-70300000D03*
X143400000Y-71000000D03*
X147300000Y-79600000D03*
X156270000Y-88110000D03*
X141880000Y-88380000D03*
X135470000Y-80450000D03*
X138100000Y-87770000D03*
X145760000Y-99200000D03*
X144230000Y-98490000D03*
X137650000Y-75475000D03*
X138025000Y-80450000D03*
X139075000Y-87875000D03*
X139475000Y-91625000D03*
X144080000Y-100520000D03*
X140100000Y-91650000D03*
X144775000Y-102275000D03*
X140014479Y-105475521D03*
X118430000Y-85040000D03*
X140010000Y-64900000D03*
X160800000Y-85780000D03*
X136750000Y-87900000D03*
X131990000Y-87140000D03*
X143000000Y-81050000D03*
X127090000Y-86840000D03*
X129020000Y-85630000D03*
X141370000Y-109740000D03*
X128350000Y-93210000D03*
X137075000Y-86125000D03*
X135250000Y-77675000D03*
X147300000Y-85225000D03*
X138400000Y-86625000D03*
X125490000Y-84220000D03*
X114590000Y-86300000D03*
X139400000Y-84600000D03*
X133900000Y-74050000D03*
X146700000Y-85175000D03*
X137775000Y-85775000D03*
X142525000Y-60400000D03*
X135775000Y-83350000D03*
X165360000Y-86620000D03*
X137690000Y-83460000D03*
X134260000Y-80130000D03*
X135460000Y-88670000D03*
X133110000Y-89550000D03*
X141110000Y-94010000D03*
X142340000Y-95590000D03*
X155200000Y-93425000D03*
X147100000Y-96575000D03*
X135400000Y-92750000D03*
X134860000Y-96490000D03*
X135850000Y-94325000D03*
X140650000Y-92275000D03*
X151600000Y-96100000D03*
X148300000Y-100900000D03*
X140400000Y-84750000D03*
X129770000Y-85150000D03*
X133090000Y-86750000D03*
X137675000Y-84750000D03*
X135350000Y-85375000D03*
X155800000Y-83200000D03*
X152900000Y-89350000D03*
X154300000Y-81900000D03*
X152100000Y-88500000D03*
D16*
X136400000Y-104830000D02*
X136400000Y-102480000D01*
X130660000Y-96740000D02*
X130660000Y-92410000D01*
X129860000Y-91610000D02*
X129620000Y-91610000D01*
X130660000Y-92410000D02*
X129860000Y-91610000D01*
X136400000Y-102480000D02*
X130660000Y-96740000D01*
X144200000Y-65475000D02*
X144200000Y-64350000D01*
X144200000Y-64350000D02*
X144250000Y-64300000D01*
X144025000Y-86025000D02*
X144200000Y-65475000D01*
X144200000Y-65475000D02*
X144200000Y-65450000D01*
X142825000Y-88225000D02*
X144025000Y-86025000D01*
X140460000Y-98550000D02*
X140450000Y-98550000D01*
X140470000Y-98560000D02*
X140460000Y-98550000D01*
X153400000Y-89800000D02*
X156225001Y-86974999D01*
X156225001Y-86974999D02*
X156225001Y-81725001D01*
X156225001Y-81725001D02*
X156000000Y-81500000D01*
X139375000Y-89600000D02*
X139375000Y-88475000D01*
X140600000Y-87250000D02*
X142340000Y-87250000D01*
X139375000Y-88475000D02*
X140600000Y-87250000D01*
X128580000Y-81699885D02*
X128590000Y-79100000D01*
X134000000Y-86725000D02*
X128580000Y-81699885D01*
X136250000Y-86725000D02*
X134000000Y-86725000D01*
X139375000Y-89600000D02*
X136250000Y-86725000D01*
X150300000Y-83000000D02*
X151335001Y-84035001D01*
X151335001Y-86364999D02*
X151100000Y-86600000D01*
X151335001Y-84035001D02*
X151335001Y-86364999D01*
X150300000Y-85400000D02*
X150910000Y-85400000D01*
X147320000Y-82420000D02*
X150300000Y-85400000D01*
X145520000Y-78900000D02*
X145040000Y-78420000D01*
X145040000Y-78420000D02*
X145040000Y-74580000D01*
X126850000Y-90375000D02*
X126475000Y-90375000D01*
X126875000Y-90400000D02*
X126850000Y-90375000D01*
X139975000Y-90400000D02*
X126875000Y-90400000D01*
X140450000Y-89925000D02*
X139975000Y-90400000D01*
X142150000Y-89925000D02*
X140450000Y-89925000D01*
X143725000Y-88350000D02*
X142150000Y-89925000D01*
X122081590Y-90850000D02*
X119990795Y-92940795D01*
X142100000Y-90850000D02*
X122081590Y-90850000D01*
X143575000Y-89375000D02*
X142100000Y-90850000D01*
X158582898Y-90422898D02*
X158582898Y-94692102D01*
X156270000Y-88110000D02*
X158582898Y-90422898D01*
X135270000Y-80650000D02*
X135470000Y-80450000D01*
X135270000Y-84110000D02*
X135270000Y-80650000D01*
X136150000Y-84990000D02*
X135270000Y-84110000D01*
X136150000Y-85820000D02*
X136150000Y-84990000D01*
X138100000Y-87770000D02*
X136150000Y-85820000D01*
X144940000Y-99200000D02*
X145760000Y-99200000D01*
X144230000Y-98490000D02*
X144940000Y-99200000D01*
X138875000Y-81300000D02*
X138025000Y-80450000D01*
X138875000Y-87675000D02*
X138875000Y-81300000D01*
X139075000Y-87875000D02*
X138875000Y-87675000D01*
X147906590Y-91200000D02*
X154990795Y-98284205D01*
X139900000Y-91200000D02*
X147906590Y-91200000D01*
X139475000Y-91625000D02*
X139900000Y-91200000D01*
X150101307Y-101876307D02*
X151398693Y-101876307D01*
X145100000Y-96875000D02*
X150101307Y-101876307D01*
X145100000Y-95950000D02*
X145100000Y-96875000D01*
X140950000Y-91800000D02*
X145100000Y-95950000D01*
X140275000Y-91825000D02*
X140950000Y-91800000D01*
X140100000Y-91650000D02*
X140275000Y-91825000D01*
X144775000Y-102275000D02*
X146172359Y-103672359D01*
X146172359Y-103672359D02*
X149602641Y-103672359D01*
X132775000Y-87900000D02*
X136750000Y-87900000D01*
X131990000Y-87140000D02*
X132775000Y-87900000D01*
X137075000Y-79500000D02*
X137075000Y-86125000D01*
X135250000Y-77675000D02*
X137075000Y-79500000D01*
X139400000Y-79550000D02*
X139400000Y-84600000D01*
X133900000Y-74050000D02*
X139400000Y-79550000D01*
X134270000Y-80140000D02*
X134270000Y-80170000D01*
X134260000Y-80130000D02*
X134270000Y-80140000D01*
X152900000Y-89350000D02*
X152900000Y-86100000D01*
X152900000Y-86100000D02*
X155800000Y-83200000D01*
X152100000Y-88500000D02*
X152100000Y-84100000D01*
X152100000Y-84100000D02*
X154300000Y-81900000D01*
D17*
G36*
X142119263Y-60128895D02*
X142046400Y-60304801D01*
X142046400Y-60495199D01*
X142119263Y-60671105D01*
X142253895Y-60805737D01*
X142429801Y-60878600D01*
X142620199Y-60878600D01*
X142796105Y-60805737D01*
X142930737Y-60671105D01*
X143003600Y-60495199D01*
X143003600Y-60304801D01*
X142930737Y-60128895D01*
X142878042Y-60076200D01*
X144932352Y-60076200D01*
X144950445Y-60079799D01*
X150666650Y-65796005D01*
X150717225Y-65876180D01*
X150863279Y-66030125D01*
X150890920Y-66049665D01*
X150914856Y-66073600D01*
X151068493Y-66176257D01*
X158028435Y-73136199D01*
X158131092Y-73289836D01*
X158214855Y-73373599D01*
X158265028Y-73394382D01*
X164920201Y-80049556D01*
X164923800Y-80067649D01*
X164923800Y-86422439D01*
X164881400Y-86524801D01*
X164881400Y-86715199D01*
X164923800Y-86817561D01*
X164923800Y-89669780D01*
X160490772Y-94379873D01*
X144950445Y-109920201D01*
X144932352Y-109923800D01*
X141811900Y-109923800D01*
X141848600Y-109835199D01*
X141848600Y-109644801D01*
X141775737Y-109468895D01*
X141641105Y-109334263D01*
X141465199Y-109261400D01*
X141274801Y-109261400D01*
X141098895Y-109334263D01*
X140964263Y-109468895D01*
X140891400Y-109644801D01*
X140891400Y-109835199D01*
X140928100Y-109923800D01*
X135067649Y-109923800D01*
X135049556Y-109920201D01*
X134334156Y-109204801D01*
X134921400Y-109204801D01*
X134921400Y-109395199D01*
X134994263Y-109571105D01*
X135128895Y-109705737D01*
X135304801Y-109778600D01*
X135495199Y-109778600D01*
X135671105Y-109705737D01*
X135805737Y-109571105D01*
X135878600Y-109395199D01*
X135878600Y-109204801D01*
X135805737Y-109028895D01*
X135671105Y-108894263D01*
X135495199Y-108821400D01*
X135304801Y-108821400D01*
X135128895Y-108894263D01*
X134994263Y-109028895D01*
X134921400Y-109204801D01*
X134334156Y-109204801D01*
X132186053Y-107056698D01*
X144514179Y-107056698D01*
X144598947Y-107482852D01*
X144779412Y-107752937D01*
X145147063Y-108120588D01*
X145417148Y-108301053D01*
X145843302Y-108385821D01*
X146269457Y-108301053D01*
X146630734Y-108059656D01*
X146872131Y-107698379D01*
X146956899Y-107272224D01*
X146872131Y-106846070D01*
X146691666Y-106575985D01*
X146324015Y-106208334D01*
X146053930Y-106027869D01*
X145627776Y-105943101D01*
X145201622Y-106027869D01*
X144840345Y-106269267D01*
X144598947Y-106630544D01*
X144514179Y-107056698D01*
X132186053Y-107056698D01*
X130234156Y-105104801D01*
X133691400Y-105104801D01*
X133691400Y-105295199D01*
X133764263Y-105471105D01*
X133898895Y-105605737D01*
X134074801Y-105678600D01*
X134265199Y-105678600D01*
X134441105Y-105605737D01*
X134575737Y-105471105D01*
X134613340Y-105380322D01*
X139535879Y-105380322D01*
X139535879Y-105570720D01*
X139608742Y-105746626D01*
X139743374Y-105881258D01*
X139919280Y-105954121D01*
X140109678Y-105954121D01*
X140285584Y-105881258D01*
X140420216Y-105746626D01*
X140493079Y-105570720D01*
X140493079Y-105380322D01*
X140443508Y-105260647D01*
X146310230Y-105260647D01*
X146394998Y-105686801D01*
X146575463Y-105956886D01*
X146943114Y-106324537D01*
X147213199Y-106505002D01*
X147639353Y-106589770D01*
X148065508Y-106505002D01*
X148426785Y-106263605D01*
X148668182Y-105902328D01*
X148752950Y-105476173D01*
X148668182Y-105050019D01*
X148487717Y-104779934D01*
X148120066Y-104412283D01*
X147849981Y-104231818D01*
X147423827Y-104147050D01*
X146997673Y-104231818D01*
X146636396Y-104473216D01*
X146394998Y-104834493D01*
X146310230Y-105260647D01*
X140443508Y-105260647D01*
X140420216Y-105204416D01*
X140285584Y-105069784D01*
X140109678Y-104996921D01*
X139919280Y-104996921D01*
X139743374Y-105069784D01*
X139608742Y-105204416D01*
X139535879Y-105380322D01*
X134613340Y-105380322D01*
X134648600Y-105295199D01*
X134648600Y-105104801D01*
X134575737Y-104928895D01*
X134441105Y-104794263D01*
X134265199Y-104721400D01*
X134074801Y-104721400D01*
X133898895Y-104794263D01*
X133764263Y-104928895D01*
X133691400Y-105104801D01*
X130234156Y-105104801D01*
X124837118Y-99707763D01*
X126037844Y-99707763D01*
X126055586Y-99796958D01*
X126106111Y-99872574D01*
X127327426Y-101093889D01*
X127403042Y-101144414D01*
X127492237Y-101162156D01*
X127581432Y-101144414D01*
X127657048Y-101093889D01*
X129093889Y-99657048D01*
X129144414Y-99581432D01*
X129162156Y-99492237D01*
X129144414Y-99403042D01*
X129093889Y-99327426D01*
X127872574Y-98106111D01*
X127796958Y-98055586D01*
X127707763Y-98037844D01*
X127618568Y-98055586D01*
X127542952Y-98106111D01*
X126106111Y-99542952D01*
X126055586Y-99618568D01*
X126037844Y-99707763D01*
X124837118Y-99707763D01*
X123041067Y-97911712D01*
X124582589Y-97911712D01*
X124667357Y-98337866D01*
X124908755Y-98699143D01*
X125270032Y-98940541D01*
X125696186Y-99025309D01*
X126122340Y-98940541D01*
X126392425Y-98760076D01*
X126760076Y-98392425D01*
X126940541Y-98122340D01*
X127025309Y-97696186D01*
X126940541Y-97270031D01*
X126699144Y-96908754D01*
X126337867Y-96667357D01*
X125911712Y-96582589D01*
X125485558Y-96667357D01*
X125215473Y-96847822D01*
X124847822Y-97215473D01*
X124667357Y-97485558D01*
X124582589Y-97911712D01*
X123041067Y-97911712D01*
X121245016Y-96115661D01*
X122786538Y-96115661D01*
X122871306Y-96541815D01*
X123112704Y-96903092D01*
X123473981Y-97144490D01*
X123900135Y-97229258D01*
X124326289Y-97144490D01*
X124596374Y-96964025D01*
X124964025Y-96596374D01*
X125144490Y-96326289D01*
X125229258Y-95900135D01*
X125144490Y-95473980D01*
X124903093Y-95112703D01*
X124541816Y-94871306D01*
X124115661Y-94786538D01*
X123689507Y-94871306D01*
X123419422Y-95051771D01*
X123051771Y-95419422D01*
X122871306Y-95689507D01*
X122786538Y-96115661D01*
X121245016Y-96115661D01*
X119448964Y-94319609D01*
X120990486Y-94319609D01*
X121075254Y-94745763D01*
X121316652Y-95107040D01*
X121677929Y-95348438D01*
X122104083Y-95433206D01*
X122530237Y-95348438D01*
X122800322Y-95167973D01*
X123167973Y-94800322D01*
X123348438Y-94530237D01*
X123433206Y-94104083D01*
X123348438Y-93677928D01*
X123107041Y-93316651D01*
X122804951Y-93114801D01*
X127871400Y-93114801D01*
X127871400Y-93305199D01*
X127944263Y-93481105D01*
X128078895Y-93615737D01*
X128254801Y-93688600D01*
X128445199Y-93688600D01*
X128621105Y-93615737D01*
X128755737Y-93481105D01*
X128828600Y-93305199D01*
X128828600Y-93114801D01*
X128755737Y-92938895D01*
X128621105Y-92804263D01*
X128445199Y-92731400D01*
X128254801Y-92731400D01*
X128078895Y-92804263D01*
X127944263Y-92938895D01*
X127871400Y-93114801D01*
X122804951Y-93114801D01*
X122745764Y-93075254D01*
X122319609Y-92990486D01*
X121893455Y-93075254D01*
X121623370Y-93255719D01*
X121255719Y-93623370D01*
X121075254Y-93893455D01*
X120990486Y-94319609D01*
X119448964Y-94319609D01*
X117652913Y-92523558D01*
X119194435Y-92523558D01*
X119279203Y-92949712D01*
X119520601Y-93310989D01*
X119881878Y-93552387D01*
X120308032Y-93637155D01*
X120734186Y-93552387D01*
X121004271Y-93371922D01*
X121371922Y-93004271D01*
X121552387Y-92734186D01*
X121637155Y-92308032D01*
X121552387Y-91881877D01*
X121523019Y-91837925D01*
X122207345Y-91153600D01*
X129471206Y-91153600D01*
X129348895Y-91204263D01*
X129214263Y-91338895D01*
X129141400Y-91514801D01*
X129141400Y-91705199D01*
X129214263Y-91881105D01*
X129348895Y-92015737D01*
X129524801Y-92088600D01*
X129715199Y-92088600D01*
X129852411Y-92031765D01*
X130356401Y-92535756D01*
X130356400Y-96710103D01*
X130350453Y-96740000D01*
X130356400Y-96769897D01*
X130374016Y-96858458D01*
X130441117Y-96958883D01*
X130466468Y-96975822D01*
X136096401Y-102605756D01*
X136096400Y-104456758D01*
X135994263Y-104558895D01*
X135921400Y-104734801D01*
X135921400Y-104925199D01*
X135994263Y-105101105D01*
X136128895Y-105235737D01*
X136304801Y-105308600D01*
X136495199Y-105308600D01*
X136671105Y-105235737D01*
X136805737Y-105101105D01*
X136878600Y-104925199D01*
X136878600Y-104734801D01*
X136805737Y-104558895D01*
X136703600Y-104456758D01*
X136703600Y-102509897D01*
X136709547Y-102480000D01*
X136703600Y-102450102D01*
X136685984Y-102361541D01*
X136618883Y-102261117D01*
X136593535Y-102244180D01*
X135349355Y-101000000D01*
X137191017Y-101000000D01*
X137287613Y-101485619D01*
X137562694Y-101897306D01*
X137974381Y-102172387D01*
X138337419Y-102244600D01*
X138582581Y-102244600D01*
X138945619Y-102172387D01*
X139357306Y-101897306D01*
X139632387Y-101485619D01*
X139728983Y-101000000D01*
X139632387Y-100514381D01*
X139357306Y-100102694D01*
X139179669Y-99984000D01*
X139750922Y-99984000D01*
X139750922Y-102016000D01*
X139768664Y-102105195D01*
X139819189Y-102180811D01*
X139894805Y-102231336D01*
X139984000Y-102249078D01*
X142016000Y-102249078D01*
X142105195Y-102231336D01*
X142180811Y-102180811D01*
X142181485Y-102179801D01*
X144296400Y-102179801D01*
X144296400Y-102370199D01*
X144369263Y-102546105D01*
X144503895Y-102680737D01*
X144679801Y-102753600D01*
X144824246Y-102753600D01*
X145936539Y-103865894D01*
X145953476Y-103891242D01*
X146053900Y-103958343D01*
X146172358Y-103981906D01*
X146202256Y-103975959D01*
X148247984Y-103975959D01*
X148371514Y-104160835D01*
X148739165Y-104528486D01*
X149009250Y-104708951D01*
X149435404Y-104793719D01*
X149861559Y-104708951D01*
X150222836Y-104467554D01*
X150464233Y-104106277D01*
X150549001Y-103680122D01*
X150464233Y-103253968D01*
X150283768Y-102983883D01*
X149916117Y-102616232D01*
X149646032Y-102435767D01*
X149219878Y-102350999D01*
X148793724Y-102435767D01*
X148432447Y-102677165D01*
X148191049Y-103038442D01*
X148125344Y-103368759D01*
X146298114Y-103368759D01*
X145253600Y-102324246D01*
X145253600Y-102179801D01*
X145180737Y-102003895D01*
X145046105Y-101869263D01*
X144870199Y-101796400D01*
X144679801Y-101796400D01*
X144503895Y-101869263D01*
X144369263Y-102003895D01*
X144296400Y-102179801D01*
X142181485Y-102179801D01*
X142231336Y-102105195D01*
X142249078Y-102016000D01*
X142249078Y-100424801D01*
X143601400Y-100424801D01*
X143601400Y-100615199D01*
X143674263Y-100791105D01*
X143808895Y-100925737D01*
X143984801Y-100998600D01*
X144175199Y-100998600D01*
X144351105Y-100925737D01*
X144485737Y-100791105D01*
X144558600Y-100615199D01*
X144558600Y-100424801D01*
X144485737Y-100248895D01*
X144351105Y-100114263D01*
X144175199Y-100041400D01*
X143984801Y-100041400D01*
X143808895Y-100114263D01*
X143674263Y-100248895D01*
X143601400Y-100424801D01*
X142249078Y-100424801D01*
X142249078Y-99984000D01*
X142231336Y-99894805D01*
X142180811Y-99819189D01*
X142105195Y-99768664D01*
X142016000Y-99750922D01*
X139984000Y-99750922D01*
X139894805Y-99768664D01*
X139819189Y-99819189D01*
X139768664Y-99894805D01*
X139750922Y-99984000D01*
X139179669Y-99984000D01*
X138945619Y-99827613D01*
X138582581Y-99755400D01*
X138337419Y-99755400D01*
X137974381Y-99827613D01*
X137562694Y-100102694D01*
X137287613Y-100514381D01*
X137191017Y-101000000D01*
X135349355Y-101000000D01*
X133203635Y-98854280D01*
X142631921Y-98854280D01*
X142631921Y-99044678D01*
X142704784Y-99220584D01*
X142839416Y-99355216D01*
X143015322Y-99428079D01*
X143205720Y-99428079D01*
X143381626Y-99355216D01*
X143516258Y-99220584D01*
X143589121Y-99044678D01*
X143589121Y-98854280D01*
X143516258Y-98678374D01*
X143381626Y-98543742D01*
X143205720Y-98470879D01*
X143015322Y-98470879D01*
X142839416Y-98543742D01*
X142704784Y-98678374D01*
X142631921Y-98854280D01*
X133203635Y-98854280D01*
X131104156Y-96754801D01*
X133331400Y-96754801D01*
X133331400Y-96945199D01*
X133404263Y-97121105D01*
X133538895Y-97255737D01*
X133714801Y-97328600D01*
X133905199Y-97328600D01*
X134081105Y-97255737D01*
X134215737Y-97121105D01*
X134288600Y-96945199D01*
X134288600Y-96754801D01*
X134215737Y-96578895D01*
X134081105Y-96444263D01*
X133961694Y-96394801D01*
X134381400Y-96394801D01*
X134381400Y-96585199D01*
X134454263Y-96761105D01*
X134588895Y-96895737D01*
X134764801Y-96968600D01*
X134955199Y-96968600D01*
X135131105Y-96895737D01*
X135265737Y-96761105D01*
X135338600Y-96585199D01*
X135338600Y-96394801D01*
X135280610Y-96254801D01*
X140601400Y-96254801D01*
X140601400Y-96445199D01*
X140674263Y-96621105D01*
X140808895Y-96755737D01*
X140984801Y-96828600D01*
X141175199Y-96828600D01*
X141351105Y-96755737D01*
X141485737Y-96621105D01*
X141558600Y-96445199D01*
X141558600Y-96254801D01*
X141485737Y-96078895D01*
X141351105Y-95944263D01*
X141175199Y-95871400D01*
X140984801Y-95871400D01*
X140808895Y-95944263D01*
X140674263Y-96078895D01*
X140601400Y-96254801D01*
X135280610Y-96254801D01*
X135265737Y-96218895D01*
X135131105Y-96084263D01*
X134955199Y-96011400D01*
X134764801Y-96011400D01*
X134588895Y-96084263D01*
X134454263Y-96218895D01*
X134381400Y-96394801D01*
X133961694Y-96394801D01*
X133905199Y-96371400D01*
X133714801Y-96371400D01*
X133538895Y-96444263D01*
X133404263Y-96578895D01*
X133331400Y-96754801D01*
X131104156Y-96754801D01*
X130963600Y-96614246D01*
X130963600Y-95494801D01*
X141861400Y-95494801D01*
X141861400Y-95685199D01*
X141934263Y-95861105D01*
X142068895Y-95995737D01*
X142244801Y-96068600D01*
X142435199Y-96068600D01*
X142611105Y-95995737D01*
X142745737Y-95861105D01*
X142818600Y-95685199D01*
X142818600Y-95494801D01*
X142745737Y-95318895D01*
X142611105Y-95184263D01*
X142435199Y-95111400D01*
X142244801Y-95111400D01*
X142068895Y-95184263D01*
X141934263Y-95318895D01*
X141861400Y-95494801D01*
X130963600Y-95494801D01*
X130963600Y-94229801D01*
X135371400Y-94229801D01*
X135371400Y-94420199D01*
X135444263Y-94596105D01*
X135578895Y-94730737D01*
X135754801Y-94803600D01*
X135945199Y-94803600D01*
X136121105Y-94730737D01*
X136255737Y-94596105D01*
X136328600Y-94420199D01*
X136328600Y-94229801D01*
X136255737Y-94053895D01*
X136121105Y-93919263D01*
X136110333Y-93914801D01*
X140631400Y-93914801D01*
X140631400Y-94105199D01*
X140704263Y-94281105D01*
X140838895Y-94415737D01*
X141014801Y-94488600D01*
X141205199Y-94488600D01*
X141381105Y-94415737D01*
X141515737Y-94281105D01*
X141588600Y-94105199D01*
X141588600Y-93914801D01*
X141515737Y-93738895D01*
X141381105Y-93604263D01*
X141205199Y-93531400D01*
X141014801Y-93531400D01*
X140838895Y-93604263D01*
X140704263Y-93738895D01*
X140631400Y-93914801D01*
X136110333Y-93914801D01*
X135945199Y-93846400D01*
X135754801Y-93846400D01*
X135578895Y-93919263D01*
X135444263Y-94053895D01*
X135371400Y-94229801D01*
X130963600Y-94229801D01*
X130963600Y-92439897D01*
X130969547Y-92410000D01*
X130945984Y-92291542D01*
X130945984Y-92291541D01*
X130878883Y-92191117D01*
X130853535Y-92174180D01*
X130824156Y-92144801D01*
X132921400Y-92144801D01*
X132921400Y-92335199D01*
X132994263Y-92511105D01*
X133128895Y-92645737D01*
X133304801Y-92718600D01*
X133495199Y-92718600D01*
X133649222Y-92654801D01*
X134921400Y-92654801D01*
X134921400Y-92845199D01*
X134994263Y-93021105D01*
X135128895Y-93155737D01*
X135304801Y-93228600D01*
X135495199Y-93228600D01*
X135671105Y-93155737D01*
X135805737Y-93021105D01*
X135878600Y-92845199D01*
X135878600Y-92654801D01*
X135805737Y-92478895D01*
X135671105Y-92344263D01*
X135495199Y-92271400D01*
X135304801Y-92271400D01*
X135128895Y-92344263D01*
X134994263Y-92478895D01*
X134921400Y-92654801D01*
X133649222Y-92654801D01*
X133671105Y-92645737D01*
X133805737Y-92511105D01*
X133878600Y-92335199D01*
X133878600Y-92144801D01*
X133805737Y-91968895D01*
X133671105Y-91834263D01*
X133495199Y-91761400D01*
X133304801Y-91761400D01*
X133128895Y-91834263D01*
X132994263Y-91968895D01*
X132921400Y-92144801D01*
X130824156Y-92144801D01*
X130254156Y-91574801D01*
X134951400Y-91574801D01*
X134951400Y-91765199D01*
X135024263Y-91941105D01*
X135158895Y-92075737D01*
X135334801Y-92148600D01*
X135525199Y-92148600D01*
X135701105Y-92075737D01*
X135835737Y-91941105D01*
X135908600Y-91765199D01*
X135908600Y-91574801D01*
X135835737Y-91398895D01*
X135701105Y-91264263D01*
X135525199Y-91191400D01*
X135334801Y-91191400D01*
X135158895Y-91264263D01*
X135024263Y-91398895D01*
X134951400Y-91574801D01*
X130254156Y-91574801D01*
X130095822Y-91416468D01*
X130078883Y-91391117D01*
X130035308Y-91362001D01*
X130025737Y-91338895D01*
X129891105Y-91204263D01*
X129768794Y-91153600D01*
X136495348Y-91153600D01*
X136348895Y-91214263D01*
X136214263Y-91348895D01*
X136141400Y-91524801D01*
X136141400Y-91715199D01*
X136214263Y-91891105D01*
X136348895Y-92025737D01*
X136524801Y-92098600D01*
X136715199Y-92098600D01*
X136891105Y-92025737D01*
X137025737Y-91891105D01*
X137098600Y-91715199D01*
X137098600Y-91524801D01*
X137025737Y-91348895D01*
X136891105Y-91214263D01*
X136744652Y-91153600D01*
X139362419Y-91153600D01*
X139203895Y-91219263D01*
X139069263Y-91353895D01*
X138996400Y-91529801D01*
X138996400Y-91720199D01*
X139069263Y-91896105D01*
X139203895Y-92030737D01*
X139379801Y-92103600D01*
X139570199Y-92103600D01*
X139746105Y-92030737D01*
X139775000Y-92001842D01*
X139828895Y-92055737D01*
X140004801Y-92128600D01*
X140192608Y-92128600D01*
X140171400Y-92179801D01*
X140171400Y-92370199D01*
X140244263Y-92546105D01*
X140378895Y-92680737D01*
X140554801Y-92753600D01*
X140745199Y-92753600D01*
X140921105Y-92680737D01*
X141055737Y-92546105D01*
X141117542Y-92396896D01*
X144796400Y-96075755D01*
X144796401Y-96845098D01*
X144790453Y-96875000D01*
X144814016Y-96993458D01*
X144814017Y-96993459D01*
X144881118Y-97093883D01*
X144906466Y-97110820D01*
X145666891Y-97871245D01*
X145538895Y-97924263D01*
X145404263Y-98058895D01*
X145331400Y-98234801D01*
X145331400Y-98425199D01*
X145404263Y-98601105D01*
X145538895Y-98735737D01*
X145584542Y-98754645D01*
X145488895Y-98794263D01*
X145386758Y-98896400D01*
X145065755Y-98896400D01*
X144708600Y-98539246D01*
X144708600Y-98394801D01*
X144635737Y-98218895D01*
X144501105Y-98084263D01*
X144325199Y-98011400D01*
X144134801Y-98011400D01*
X143958895Y-98084263D01*
X143824263Y-98218895D01*
X143751400Y-98394801D01*
X143751400Y-98585199D01*
X143824263Y-98761105D01*
X143958895Y-98895737D01*
X144134801Y-98968600D01*
X144279246Y-98968600D01*
X144704180Y-99393535D01*
X144721117Y-99418883D01*
X144821541Y-99485984D01*
X144910102Y-99503600D01*
X144910103Y-99503600D01*
X144940000Y-99509547D01*
X144969897Y-99503600D01*
X145386758Y-99503600D01*
X145488895Y-99605737D01*
X145664801Y-99678600D01*
X145855199Y-99678600D01*
X146031105Y-99605737D01*
X146165737Y-99471105D01*
X146238600Y-99295199D01*
X146238600Y-99104801D01*
X146165737Y-98928895D01*
X146031105Y-98794263D01*
X145985458Y-98775355D01*
X146081105Y-98735737D01*
X146215737Y-98601105D01*
X146268755Y-98473109D01*
X148217045Y-100421400D01*
X148204801Y-100421400D01*
X148028895Y-100494263D01*
X147894263Y-100628895D01*
X147821400Y-100804801D01*
X147821400Y-100995199D01*
X147894263Y-101171105D01*
X148028895Y-101305737D01*
X148204801Y-101378600D01*
X148395199Y-101378600D01*
X148571105Y-101305737D01*
X148705737Y-101171105D01*
X148778600Y-100995199D01*
X148778600Y-100982955D01*
X149865487Y-102069842D01*
X149882424Y-102095190D01*
X149974244Y-102156542D01*
X149982848Y-102162291D01*
X150039840Y-102173628D01*
X150167566Y-102364783D01*
X150535217Y-102732434D01*
X150805302Y-102912899D01*
X151231456Y-102997667D01*
X151657611Y-102912899D01*
X152018888Y-102671502D01*
X152260285Y-102310225D01*
X152345053Y-101884070D01*
X152260285Y-101457916D01*
X152079820Y-101187831D01*
X151712169Y-100820180D01*
X151442084Y-100639715D01*
X151015930Y-100554947D01*
X150589776Y-100639715D01*
X150228499Y-100881113D01*
X149987101Y-101242390D01*
X149972110Y-101317755D01*
X148526848Y-99872493D01*
X151698384Y-99872493D01*
X151783152Y-100298647D01*
X151963617Y-100568732D01*
X152331268Y-100936383D01*
X152601353Y-101116848D01*
X153027507Y-101201616D01*
X153453662Y-101116848D01*
X153814939Y-100875451D01*
X154056336Y-100514174D01*
X154141104Y-100088019D01*
X154056336Y-99661865D01*
X153875871Y-99391780D01*
X153508220Y-99024129D01*
X153238135Y-98843664D01*
X152811981Y-98758896D01*
X152385827Y-98843664D01*
X152024550Y-99085062D01*
X151783152Y-99446339D01*
X151698384Y-99872493D01*
X148526848Y-99872493D01*
X146359156Y-97704801D01*
X150221400Y-97704801D01*
X150221400Y-97895199D01*
X150294263Y-98071105D01*
X150428895Y-98205737D01*
X150604801Y-98278600D01*
X150795199Y-98278600D01*
X150971105Y-98205737D01*
X151105737Y-98071105D01*
X151178600Y-97895199D01*
X151178600Y-97704801D01*
X151105737Y-97528895D01*
X150971105Y-97394263D01*
X150795199Y-97321400D01*
X150604801Y-97321400D01*
X150428895Y-97394263D01*
X150294263Y-97528895D01*
X150221400Y-97704801D01*
X146359156Y-97704801D01*
X145403600Y-96749246D01*
X145403600Y-96479801D01*
X146621400Y-96479801D01*
X146621400Y-96670199D01*
X146694263Y-96846105D01*
X146828895Y-96980737D01*
X147004801Y-97053600D01*
X147195199Y-97053600D01*
X147371105Y-96980737D01*
X147505737Y-96846105D01*
X147578600Y-96670199D01*
X147578600Y-96479801D01*
X147505737Y-96303895D01*
X147371105Y-96169263D01*
X147195199Y-96096400D01*
X147004801Y-96096400D01*
X146828895Y-96169263D01*
X146694263Y-96303895D01*
X146621400Y-96479801D01*
X145403600Y-96479801D01*
X145403600Y-96004801D01*
X151121400Y-96004801D01*
X151121400Y-96195199D01*
X151194263Y-96371105D01*
X151328895Y-96505737D01*
X151504801Y-96578600D01*
X151695199Y-96578600D01*
X151871105Y-96505737D01*
X152005737Y-96371105D01*
X152078600Y-96195199D01*
X152078600Y-96004801D01*
X152005737Y-95828895D01*
X151871105Y-95694263D01*
X151695199Y-95621400D01*
X151504801Y-95621400D01*
X151328895Y-95694263D01*
X151194263Y-95828895D01*
X151121400Y-96004801D01*
X145403600Y-96004801D01*
X145403600Y-95979896D01*
X145409547Y-95949999D01*
X145385984Y-95831541D01*
X145364694Y-95799678D01*
X145318883Y-95731117D01*
X145293536Y-95714181D01*
X141181815Y-91602461D01*
X141160632Y-91573166D01*
X141113983Y-91544435D01*
X141068458Y-91514016D01*
X141062749Y-91512880D01*
X141057793Y-91509828D01*
X141019035Y-91503600D01*
X147780836Y-91503600D01*
X153718721Y-97441485D01*
X153579203Y-97650288D01*
X153494435Y-98076442D01*
X153579203Y-98502596D01*
X153759668Y-98772681D01*
X154127319Y-99140332D01*
X154397404Y-99320797D01*
X154823558Y-99405565D01*
X155249713Y-99320797D01*
X155610990Y-99079400D01*
X155852387Y-98718123D01*
X155937155Y-98291968D01*
X155852387Y-97865814D01*
X155671922Y-97595729D01*
X155304271Y-97228078D01*
X155034186Y-97047613D01*
X154608032Y-96962845D01*
X154183279Y-97047334D01*
X153416336Y-96280391D01*
X155290486Y-96280391D01*
X155375254Y-96706545D01*
X155555719Y-96976630D01*
X155923370Y-97344281D01*
X156193455Y-97524746D01*
X156619609Y-97609514D01*
X157045764Y-97524746D01*
X157407041Y-97283349D01*
X157648438Y-96922072D01*
X157733206Y-96495917D01*
X157648438Y-96069763D01*
X157467973Y-95799678D01*
X157100322Y-95432027D01*
X156830237Y-95251562D01*
X156404083Y-95166794D01*
X155977929Y-95251562D01*
X155616652Y-95492960D01*
X155375254Y-95854237D01*
X155290486Y-96280391D01*
X153416336Y-96280391D01*
X152040746Y-94904801D01*
X152721400Y-94904801D01*
X152721400Y-95095199D01*
X152794263Y-95271105D01*
X152928895Y-95405737D01*
X153104801Y-95478600D01*
X153295199Y-95478600D01*
X153471105Y-95405737D01*
X153605737Y-95271105D01*
X153678600Y-95095199D01*
X153678600Y-94904801D01*
X153605737Y-94728895D01*
X153471105Y-94594263D01*
X153295199Y-94521400D01*
X153104801Y-94521400D01*
X152928895Y-94594263D01*
X152794263Y-94728895D01*
X152721400Y-94904801D01*
X152040746Y-94904801D01*
X151080746Y-93944801D01*
X152651400Y-93944801D01*
X152651400Y-94135199D01*
X152724263Y-94311105D01*
X152858895Y-94445737D01*
X153034801Y-94518600D01*
X153225199Y-94518600D01*
X153401105Y-94445737D01*
X153535737Y-94311105D01*
X153608600Y-94135199D01*
X153608600Y-93944801D01*
X153535737Y-93768895D01*
X153401105Y-93634263D01*
X153225199Y-93561400D01*
X153034801Y-93561400D01*
X152858895Y-93634263D01*
X152724263Y-93768895D01*
X152651400Y-93944801D01*
X151080746Y-93944801D01*
X150465746Y-93329801D01*
X154721400Y-93329801D01*
X154721400Y-93520199D01*
X154794263Y-93696105D01*
X154928895Y-93830737D01*
X155104801Y-93903600D01*
X155295199Y-93903600D01*
X155471105Y-93830737D01*
X155605737Y-93696105D01*
X155678600Y-93520199D01*
X155678600Y-93329801D01*
X155605737Y-93153895D01*
X155471105Y-93019263D01*
X155295199Y-92946400D01*
X155104801Y-92946400D01*
X154928895Y-93019263D01*
X154794263Y-93153895D01*
X154721400Y-93329801D01*
X150465746Y-93329801D01*
X148142412Y-91006468D01*
X148125473Y-90981117D01*
X148025049Y-90914016D01*
X147936488Y-90896400D01*
X147936487Y-90896400D01*
X147906590Y-90890453D01*
X147876693Y-90896400D01*
X142482954Y-90896400D01*
X143525755Y-89853600D01*
X143670199Y-89853600D01*
X143846105Y-89780737D01*
X143980737Y-89646105D01*
X144053600Y-89470199D01*
X144053600Y-89454801D01*
X150451400Y-89454801D01*
X150451400Y-89645199D01*
X150524263Y-89821105D01*
X150658895Y-89955737D01*
X150834801Y-90028600D01*
X151025199Y-90028600D01*
X151201105Y-89955737D01*
X151335737Y-89821105D01*
X151408600Y-89645199D01*
X151408600Y-89454801D01*
X151335737Y-89278895D01*
X151311643Y-89254801D01*
X152421400Y-89254801D01*
X152421400Y-89445199D01*
X152494263Y-89621105D01*
X152628895Y-89755737D01*
X152804801Y-89828600D01*
X152921400Y-89828600D01*
X152921400Y-89895199D01*
X152994263Y-90071105D01*
X153128895Y-90205737D01*
X153304801Y-90278600D01*
X153495199Y-90278600D01*
X153671105Y-90205737D01*
X153805737Y-90071105D01*
X153878600Y-89895199D01*
X153878600Y-89750754D01*
X155614553Y-88014801D01*
X155791400Y-88014801D01*
X155791400Y-88205199D01*
X155864263Y-88381105D01*
X155998895Y-88515737D01*
X156174801Y-88588600D01*
X156319246Y-88588600D01*
X158279298Y-90548653D01*
X158279299Y-93386489D01*
X158200135Y-93370742D01*
X157773981Y-93455510D01*
X157412704Y-93696908D01*
X157171306Y-94058185D01*
X157086538Y-94484339D01*
X157171306Y-94910493D01*
X157351771Y-95180578D01*
X157719422Y-95548229D01*
X157989507Y-95728694D01*
X158415661Y-95813462D01*
X158841816Y-95728694D01*
X159203093Y-95487297D01*
X159444490Y-95126020D01*
X159529258Y-94699865D01*
X159444490Y-94273711D01*
X159264025Y-94003626D01*
X158896374Y-93635975D01*
X158886498Y-93629376D01*
X158886498Y-92707940D01*
X158967357Y-93114442D01*
X159147822Y-93384527D01*
X159515473Y-93752178D01*
X159785558Y-93932643D01*
X160211712Y-94017411D01*
X160637867Y-93932643D01*
X160999144Y-93691246D01*
X161240541Y-93329969D01*
X161325309Y-92903814D01*
X161240541Y-92477660D01*
X161060076Y-92207575D01*
X160692425Y-91839924D01*
X160422340Y-91659459D01*
X159996186Y-91574691D01*
X159570032Y-91659459D01*
X159208755Y-91900857D01*
X158967357Y-92262134D01*
X158886498Y-92668636D01*
X158886498Y-90892237D01*
X160337844Y-90892237D01*
X160355586Y-90981432D01*
X160406111Y-91057048D01*
X161842952Y-92493889D01*
X161918568Y-92544414D01*
X162007763Y-92562156D01*
X162096958Y-92544414D01*
X162172574Y-92493889D01*
X163393889Y-91272574D01*
X163444414Y-91196958D01*
X163462156Y-91107763D01*
X163444414Y-91018568D01*
X163393889Y-90942952D01*
X161957048Y-89506111D01*
X161881432Y-89455586D01*
X161792237Y-89437844D01*
X161703042Y-89455586D01*
X161627426Y-89506111D01*
X160406111Y-90727426D01*
X160355586Y-90803042D01*
X160337844Y-90892237D01*
X158886498Y-90892237D01*
X158886498Y-90452795D01*
X158892445Y-90422898D01*
X158886498Y-90393000D01*
X158868882Y-90304439D01*
X158801781Y-90204015D01*
X158776434Y-90187079D01*
X156748600Y-88159246D01*
X156748600Y-88014801D01*
X156675737Y-87838895D01*
X156541105Y-87704263D01*
X156365199Y-87631400D01*
X156174801Y-87631400D01*
X155998895Y-87704263D01*
X155864263Y-87838895D01*
X155791400Y-88014801D01*
X155614553Y-88014801D01*
X156418537Y-87210818D01*
X156443884Y-87193882D01*
X156510985Y-87093458D01*
X156528601Y-87004897D01*
X156528601Y-87004896D01*
X156534548Y-86974999D01*
X156528601Y-86945102D01*
X156528601Y-86754801D01*
X158071400Y-86754801D01*
X158071400Y-86945199D01*
X158144263Y-87121105D01*
X158278895Y-87255737D01*
X158454801Y-87328600D01*
X158645199Y-87328600D01*
X158821105Y-87255737D01*
X158955737Y-87121105D01*
X159028600Y-86945199D01*
X159028600Y-86754801D01*
X158955737Y-86578895D01*
X158821105Y-86444263D01*
X158645199Y-86371400D01*
X158454801Y-86371400D01*
X158278895Y-86444263D01*
X158144263Y-86578895D01*
X158071400Y-86754801D01*
X156528601Y-86754801D01*
X156528601Y-85334801D01*
X158051400Y-85334801D01*
X158051400Y-85525199D01*
X158124263Y-85701105D01*
X158258895Y-85835737D01*
X158434801Y-85908600D01*
X158625199Y-85908600D01*
X158801105Y-85835737D01*
X158935737Y-85701105D01*
X158942490Y-85684801D01*
X160321400Y-85684801D01*
X160321400Y-85875199D01*
X160394263Y-86051105D01*
X160528895Y-86185737D01*
X160704801Y-86258600D01*
X160895199Y-86258600D01*
X161071105Y-86185737D01*
X161205737Y-86051105D01*
X161278600Y-85875199D01*
X161278600Y-85684801D01*
X161205737Y-85508895D01*
X161071105Y-85374263D01*
X160895199Y-85301400D01*
X160704801Y-85301400D01*
X160528895Y-85374263D01*
X160394263Y-85508895D01*
X160321400Y-85684801D01*
X158942490Y-85684801D01*
X159008600Y-85525199D01*
X159008600Y-85334801D01*
X158935737Y-85158895D01*
X158801105Y-85024263D01*
X158625199Y-84951400D01*
X158434801Y-84951400D01*
X158258895Y-85024263D01*
X158124263Y-85158895D01*
X158051400Y-85334801D01*
X156528601Y-85334801D01*
X156528601Y-81754894D01*
X156534547Y-81725000D01*
X156528601Y-81695106D01*
X156528601Y-81695103D01*
X156510985Y-81606542D01*
X156478600Y-81558074D01*
X156478600Y-81404801D01*
X156405737Y-81228895D01*
X156281643Y-81104801D01*
X163821400Y-81104801D01*
X163821400Y-81295199D01*
X163894263Y-81471105D01*
X164028895Y-81605737D01*
X164204801Y-81678600D01*
X164395199Y-81678600D01*
X164571105Y-81605737D01*
X164705737Y-81471105D01*
X164778600Y-81295199D01*
X164778600Y-81104801D01*
X164705737Y-80928895D01*
X164571105Y-80794263D01*
X164395199Y-80721400D01*
X164204801Y-80721400D01*
X164028895Y-80794263D01*
X163894263Y-80928895D01*
X163821400Y-81104801D01*
X156281643Y-81104801D01*
X156271105Y-81094263D01*
X156095199Y-81021400D01*
X155904801Y-81021400D01*
X155728895Y-81094263D01*
X155594263Y-81228895D01*
X155521400Y-81404801D01*
X155521400Y-81595199D01*
X155594263Y-81771105D01*
X155728895Y-81905737D01*
X155904801Y-81978600D01*
X155921402Y-81978600D01*
X155921402Y-82732254D01*
X155895199Y-82721400D01*
X155704801Y-82721400D01*
X155528895Y-82794263D01*
X155394263Y-82928895D01*
X155321400Y-83104801D01*
X155321400Y-83249245D01*
X152706466Y-85864180D01*
X152681118Y-85881117D01*
X152643339Y-85937657D01*
X152614016Y-85981542D01*
X152590453Y-86100000D01*
X152596401Y-86129902D01*
X152596400Y-88976758D01*
X152494263Y-89078895D01*
X152421400Y-89254801D01*
X151311643Y-89254801D01*
X151201105Y-89144263D01*
X151025199Y-89071400D01*
X150834801Y-89071400D01*
X150658895Y-89144263D01*
X150524263Y-89278895D01*
X150451400Y-89454801D01*
X144053600Y-89454801D01*
X144053600Y-89279801D01*
X143980737Y-89103895D01*
X143846105Y-88969263D01*
X143670199Y-88896400D01*
X143607955Y-88896400D01*
X143675755Y-88828600D01*
X143820199Y-88828600D01*
X143996105Y-88755737D01*
X144130737Y-88621105D01*
X144203600Y-88445199D01*
X144203600Y-88304801D01*
X150621400Y-88304801D01*
X150621400Y-88495199D01*
X150694263Y-88671105D01*
X150828895Y-88805737D01*
X151004801Y-88878600D01*
X151195199Y-88878600D01*
X151371105Y-88805737D01*
X151505737Y-88671105D01*
X151578600Y-88495199D01*
X151578600Y-88304801D01*
X151505737Y-88128895D01*
X151371105Y-87994263D01*
X151195199Y-87921400D01*
X151004801Y-87921400D01*
X150828895Y-87994263D01*
X150694263Y-88128895D01*
X150621400Y-88304801D01*
X144203600Y-88304801D01*
X144203600Y-88254801D01*
X144130737Y-88078895D01*
X143996105Y-87944263D01*
X143820199Y-87871400D01*
X143629801Y-87871400D01*
X143453895Y-87944263D01*
X143319263Y-88078895D01*
X143300888Y-88123255D01*
X143268705Y-88045556D01*
X144178947Y-86376780D01*
X146558379Y-86376780D01*
X146558379Y-86567178D01*
X146631242Y-86743084D01*
X146765874Y-86877716D01*
X146941780Y-86950579D01*
X147132178Y-86950579D01*
X147308084Y-86877716D01*
X147442716Y-86743084D01*
X147515579Y-86567178D01*
X147515579Y-86376780D01*
X147442716Y-86200874D01*
X147376643Y-86134801D01*
X148461400Y-86134801D01*
X148461400Y-86325199D01*
X148534263Y-86501105D01*
X148668895Y-86635737D01*
X148844801Y-86708600D01*
X149035199Y-86708600D01*
X149211105Y-86635737D01*
X149345737Y-86501105D01*
X149418600Y-86325199D01*
X149418600Y-86134801D01*
X149345737Y-85958895D01*
X149211105Y-85824263D01*
X149035199Y-85751400D01*
X148844801Y-85751400D01*
X148668895Y-85824263D01*
X148534263Y-85958895D01*
X148461400Y-86134801D01*
X147376643Y-86134801D01*
X147308084Y-86066242D01*
X147132178Y-85993379D01*
X146941780Y-85993379D01*
X146765874Y-86066242D01*
X146631242Y-86200874D01*
X146558379Y-86376780D01*
X144178947Y-86376780D01*
X144284389Y-86183470D01*
X144309964Y-86145890D01*
X144319216Y-86101362D01*
X144332788Y-86057950D01*
X144328716Y-86012670D01*
X144336660Y-85079801D01*
X146221400Y-85079801D01*
X146221400Y-85270199D01*
X146294263Y-85446105D01*
X146428895Y-85580737D01*
X146604801Y-85653600D01*
X146795199Y-85653600D01*
X146971105Y-85580737D01*
X146975000Y-85576842D01*
X147028895Y-85630737D01*
X147204801Y-85703600D01*
X147395199Y-85703600D01*
X147571105Y-85630737D01*
X147705737Y-85496105D01*
X147778600Y-85320199D01*
X147778600Y-85129801D01*
X147705737Y-84953895D01*
X147571105Y-84819263D01*
X147395199Y-84746400D01*
X147204801Y-84746400D01*
X147028895Y-84819263D01*
X147025000Y-84823158D01*
X146971105Y-84769263D01*
X146795199Y-84696400D01*
X146604801Y-84696400D01*
X146428895Y-84769263D01*
X146294263Y-84903895D01*
X146221400Y-85079801D01*
X144336660Y-85079801D01*
X144360120Y-82324801D01*
X146841400Y-82324801D01*
X146841400Y-82515199D01*
X146914263Y-82691105D01*
X147048895Y-82825737D01*
X147224801Y-82898600D01*
X147369246Y-82898600D01*
X150064180Y-85593535D01*
X150081117Y-85618883D01*
X150179771Y-85684801D01*
X150181541Y-85685984D01*
X150299999Y-85709547D01*
X150329896Y-85703600D01*
X150536758Y-85703600D01*
X150638895Y-85805737D01*
X150814801Y-85878600D01*
X151005199Y-85878600D01*
X151031402Y-85867746D01*
X151031402Y-86121400D01*
X151004801Y-86121400D01*
X150828895Y-86194263D01*
X150694263Y-86328895D01*
X150621400Y-86504801D01*
X150621400Y-86695199D01*
X150694263Y-86871105D01*
X150828895Y-87005737D01*
X151004801Y-87078600D01*
X151088111Y-87078600D01*
X151081400Y-87094801D01*
X151081400Y-87285199D01*
X151154263Y-87461105D01*
X151288895Y-87595737D01*
X151464801Y-87668600D01*
X151655199Y-87668600D01*
X151796400Y-87610112D01*
X151796400Y-88126758D01*
X151694263Y-88228895D01*
X151621400Y-88404801D01*
X151621400Y-88595199D01*
X151694263Y-88771105D01*
X151828895Y-88905737D01*
X152004801Y-88978600D01*
X152195199Y-88978600D01*
X152371105Y-88905737D01*
X152505737Y-88771105D01*
X152578600Y-88595199D01*
X152578600Y-88404801D01*
X152505737Y-88228895D01*
X152403600Y-88126758D01*
X152403600Y-84225754D01*
X154250755Y-82378600D01*
X154395199Y-82378600D01*
X154571105Y-82305737D01*
X154705737Y-82171105D01*
X154778600Y-81995199D01*
X154778600Y-81804801D01*
X154705737Y-81628895D01*
X154571105Y-81494263D01*
X154395199Y-81421400D01*
X154204801Y-81421400D01*
X154028895Y-81494263D01*
X153894263Y-81628895D01*
X153821400Y-81804801D01*
X153821400Y-81949245D01*
X151906466Y-83864180D01*
X151881118Y-83881117D01*
X151864182Y-83906464D01*
X151814016Y-83981542D01*
X151790453Y-84100000D01*
X151796401Y-84129902D01*
X151796400Y-86769888D01*
X151655199Y-86711400D01*
X151571889Y-86711400D01*
X151578600Y-86695199D01*
X151578600Y-86546892D01*
X151620985Y-86483458D01*
X151638601Y-86394897D01*
X151638601Y-86394896D01*
X151644548Y-86364999D01*
X151638601Y-86335102D01*
X151638601Y-84064894D01*
X151644547Y-84035000D01*
X151638601Y-84005104D01*
X151638601Y-84005103D01*
X151620985Y-83916542D01*
X151553884Y-83816118D01*
X151528537Y-83799182D01*
X150778600Y-83049246D01*
X150778600Y-82904801D01*
X150705737Y-82728895D01*
X150571105Y-82594263D01*
X150395199Y-82521400D01*
X150204801Y-82521400D01*
X150028895Y-82594263D01*
X149894263Y-82728895D01*
X149821400Y-82904801D01*
X149821400Y-83095199D01*
X149894263Y-83271105D01*
X150028895Y-83405737D01*
X150204801Y-83478600D01*
X150349246Y-83478600D01*
X151031401Y-84160756D01*
X151031401Y-84932253D01*
X151005199Y-84921400D01*
X150814801Y-84921400D01*
X150638895Y-84994263D01*
X150536758Y-85096400D01*
X150425755Y-85096400D01*
X147798600Y-82469246D01*
X147798600Y-82324801D01*
X147725737Y-82148895D01*
X147591105Y-82014263D01*
X147415199Y-81941400D01*
X147224801Y-81941400D01*
X147048895Y-82014263D01*
X146914263Y-82148895D01*
X146841400Y-82324801D01*
X144360120Y-82324801D01*
X144381580Y-79804801D01*
X146221400Y-79804801D01*
X146221400Y-79995199D01*
X146294263Y-80171105D01*
X146428895Y-80305737D01*
X146604801Y-80378600D01*
X146795199Y-80378600D01*
X146971105Y-80305737D01*
X147105737Y-80171105D01*
X147152950Y-80057123D01*
X147204801Y-80078600D01*
X147395199Y-80078600D01*
X147571105Y-80005737D01*
X147705737Y-79871105D01*
X147778600Y-79695199D01*
X147778600Y-79504801D01*
X147705737Y-79328895D01*
X147571105Y-79194263D01*
X147395199Y-79121400D01*
X147204801Y-79121400D01*
X147028895Y-79194263D01*
X146894263Y-79328895D01*
X146847050Y-79442877D01*
X146795199Y-79421400D01*
X146604801Y-79421400D01*
X146428895Y-79494263D01*
X146294263Y-79628895D01*
X146221400Y-79804801D01*
X144381580Y-79804801D01*
X144426884Y-74484801D01*
X144561400Y-74484801D01*
X144561400Y-74675199D01*
X144634263Y-74851105D01*
X144736401Y-74953243D01*
X144736400Y-78390103D01*
X144730453Y-78420000D01*
X144736400Y-78449897D01*
X144754016Y-78538458D01*
X144821117Y-78638883D01*
X144846467Y-78655822D01*
X145041400Y-78850755D01*
X145041400Y-78995199D01*
X145114263Y-79171105D01*
X145248895Y-79305737D01*
X145424801Y-79378600D01*
X145615199Y-79378600D01*
X145791105Y-79305737D01*
X145925737Y-79171105D01*
X145998600Y-78995199D01*
X145998600Y-78804801D01*
X145925737Y-78628895D01*
X145791105Y-78494263D01*
X145632581Y-78428600D01*
X145715199Y-78428600D01*
X145891105Y-78355737D01*
X146025737Y-78221105D01*
X146098600Y-78045199D01*
X146098600Y-77854801D01*
X146025737Y-77678895D01*
X145891105Y-77544263D01*
X145715199Y-77471400D01*
X145524801Y-77471400D01*
X145348895Y-77544263D01*
X145343600Y-77549558D01*
X145343600Y-74953242D01*
X145445737Y-74851105D01*
X145518600Y-74675199D01*
X145518600Y-74484801D01*
X145445737Y-74308895D01*
X145311105Y-74174263D01*
X145135199Y-74101400D01*
X144944801Y-74101400D01*
X144768895Y-74174263D01*
X144634263Y-74308895D01*
X144561400Y-74484801D01*
X144426884Y-74484801D01*
X144435485Y-73474801D01*
X144751400Y-73474801D01*
X144751400Y-73665199D01*
X144824263Y-73841105D01*
X144958895Y-73975737D01*
X145134801Y-74048600D01*
X145325199Y-74048600D01*
X145501105Y-73975737D01*
X145635737Y-73841105D01*
X145708600Y-73665199D01*
X145708600Y-73474801D01*
X145635737Y-73298895D01*
X145501105Y-73164263D01*
X145325199Y-73091400D01*
X145134801Y-73091400D01*
X144958895Y-73164263D01*
X144824263Y-73298895D01*
X144751400Y-73474801D01*
X144435485Y-73474801D01*
X144448854Y-71904801D01*
X146821400Y-71904801D01*
X146821400Y-72095199D01*
X146894263Y-72271105D01*
X147028895Y-72405737D01*
X147204801Y-72478600D01*
X147395199Y-72478600D01*
X147571105Y-72405737D01*
X147705737Y-72271105D01*
X147778600Y-72095199D01*
X147778600Y-71904801D01*
X147705737Y-71728895D01*
X147571105Y-71594263D01*
X147395199Y-71521400D01*
X147204801Y-71521400D01*
X147028895Y-71594263D01*
X146894263Y-71728895D01*
X146821400Y-71904801D01*
X144448854Y-71904801D01*
X144455240Y-71154801D01*
X148991400Y-71154801D01*
X148991400Y-71345199D01*
X149064263Y-71521105D01*
X149198895Y-71655737D01*
X149374801Y-71728600D01*
X149565199Y-71728600D01*
X149741105Y-71655737D01*
X149875737Y-71521105D01*
X149948600Y-71345199D01*
X149948600Y-71154801D01*
X149875737Y-70978895D01*
X149741105Y-70844263D01*
X149565199Y-70771400D01*
X149374801Y-70771400D01*
X149198895Y-70844263D01*
X149064263Y-70978895D01*
X148991400Y-71154801D01*
X144455240Y-71154801D01*
X144464971Y-70012160D01*
X148395523Y-70012160D01*
X148395523Y-70281956D01*
X148498770Y-70531216D01*
X148689545Y-70721991D01*
X148938805Y-70825238D01*
X149208601Y-70825238D01*
X149457861Y-70721991D01*
X149648636Y-70531216D01*
X149751883Y-70281956D01*
X149751883Y-70012160D01*
X149648636Y-69762900D01*
X149457861Y-69572125D01*
X149208601Y-69468878D01*
X148938805Y-69468878D01*
X148689545Y-69572125D01*
X148498770Y-69762900D01*
X148395523Y-70012160D01*
X144464971Y-70012160D01*
X144491463Y-66901399D01*
X145284762Y-66901399D01*
X145284762Y-67171195D01*
X145388009Y-67420455D01*
X145578784Y-67611230D01*
X145828044Y-67714477D01*
X146097840Y-67714477D01*
X146347100Y-67611230D01*
X146537875Y-67420455D01*
X146641122Y-67171195D01*
X146641122Y-66901399D01*
X146537875Y-66652139D01*
X146347100Y-66461364D01*
X146097840Y-66358117D01*
X145828044Y-66358117D01*
X145578784Y-66461364D01*
X145388009Y-66652139D01*
X145284762Y-66901399D01*
X144491463Y-66901399D01*
X144503345Y-65506180D01*
X144503600Y-65504898D01*
X144503600Y-65476224D01*
X144503843Y-65447689D01*
X144503600Y-65446411D01*
X144503600Y-64712988D01*
X144521105Y-64705737D01*
X144655737Y-64571105D01*
X144728600Y-64395199D01*
X144728600Y-64204801D01*
X144655737Y-64028895D01*
X144521105Y-63894263D01*
X144345199Y-63821400D01*
X144154801Y-63821400D01*
X143978895Y-63894263D01*
X143844263Y-64028895D01*
X143771400Y-64204801D01*
X143771400Y-64395199D01*
X143844263Y-64571105D01*
X143896401Y-64623243D01*
X143896400Y-65420102D01*
X143896400Y-65473754D01*
X143850723Y-70837501D01*
X143805737Y-70728895D01*
X143671105Y-70594263D01*
X143495199Y-70521400D01*
X143426326Y-70521400D01*
X143478600Y-70395199D01*
X143478600Y-70204801D01*
X143405737Y-70028895D01*
X143271105Y-69894263D01*
X143095199Y-69821400D01*
X142904801Y-69821400D01*
X142728895Y-69894263D01*
X142594263Y-70028895D01*
X142521400Y-70204801D01*
X142521400Y-70395199D01*
X142594263Y-70571105D01*
X142728895Y-70705737D01*
X142904801Y-70778600D01*
X142973674Y-70778600D01*
X142921400Y-70904801D01*
X142921400Y-71095199D01*
X142994263Y-71271105D01*
X143128895Y-71405737D01*
X143304801Y-71478600D01*
X143495199Y-71478600D01*
X143671105Y-71405737D01*
X143805737Y-71271105D01*
X143847898Y-71169321D01*
X143722059Y-85946375D01*
X142740228Y-87746400D01*
X142729801Y-87746400D01*
X142553895Y-87819263D01*
X142419263Y-87953895D01*
X142346400Y-88129801D01*
X142346400Y-88255348D01*
X142285737Y-88108895D01*
X142151105Y-87974263D01*
X141975199Y-87901400D01*
X141784801Y-87901400D01*
X141608895Y-87974263D01*
X141474263Y-88108895D01*
X141401400Y-88284801D01*
X141401400Y-88475199D01*
X141474263Y-88651105D01*
X141608895Y-88785737D01*
X141784801Y-88858600D01*
X141975199Y-88858600D01*
X142151105Y-88785737D01*
X142285737Y-88651105D01*
X142358600Y-88475199D01*
X142358600Y-88349652D01*
X142419263Y-88496105D01*
X142553895Y-88630737D01*
X142729801Y-88703600D01*
X142920199Y-88703600D01*
X142957493Y-88688152D01*
X142024246Y-89621400D01*
X140479893Y-89621400D01*
X140449999Y-89615454D01*
X140420105Y-89621400D01*
X140420102Y-89621400D01*
X140331541Y-89639016D01*
X140231117Y-89706117D01*
X140214181Y-89731464D01*
X139849246Y-90096400D01*
X130440442Y-90096400D01*
X130445737Y-90091105D01*
X130518600Y-89915199D01*
X130518600Y-89724801D01*
X130445737Y-89548895D01*
X130351643Y-89454801D01*
X132631400Y-89454801D01*
X132631400Y-89645199D01*
X132704263Y-89821105D01*
X132838895Y-89955737D01*
X133014801Y-90028600D01*
X133205199Y-90028600D01*
X133381105Y-89955737D01*
X133515737Y-89821105D01*
X133588600Y-89645199D01*
X133588600Y-89454801D01*
X133515737Y-89278895D01*
X133395076Y-89158234D01*
X133401105Y-89155737D01*
X133535737Y-89021105D01*
X133608600Y-88845199D01*
X133608600Y-88654801D01*
X133535737Y-88478895D01*
X133401105Y-88344263D01*
X133225199Y-88271400D01*
X133034801Y-88271400D01*
X132858895Y-88344263D01*
X132724263Y-88478895D01*
X132651400Y-88654801D01*
X132651400Y-88845199D01*
X132724263Y-89021105D01*
X132844924Y-89141766D01*
X132838895Y-89144263D01*
X132704263Y-89278895D01*
X132631400Y-89454801D01*
X130351643Y-89454801D01*
X130311105Y-89414263D01*
X130135199Y-89341400D01*
X129944801Y-89341400D01*
X129768895Y-89414263D01*
X129634263Y-89548895D01*
X129561400Y-89724801D01*
X129561400Y-89915199D01*
X129634263Y-90091105D01*
X129639558Y-90096400D01*
X128850442Y-90096400D01*
X128885737Y-90061105D01*
X128958600Y-89885199D01*
X128958600Y-89848600D01*
X129035199Y-89848600D01*
X129211105Y-89775737D01*
X129345737Y-89641105D01*
X129418600Y-89465199D01*
X129418600Y-89274801D01*
X129345737Y-89098895D01*
X129211105Y-88964263D01*
X129035199Y-88891400D01*
X128844801Y-88891400D01*
X128668895Y-88964263D01*
X128534263Y-89098895D01*
X128461400Y-89274801D01*
X128461400Y-89311400D01*
X128384801Y-89311400D01*
X128208895Y-89384263D01*
X128074263Y-89518895D01*
X128001400Y-89694801D01*
X128001400Y-89885199D01*
X128074263Y-90061105D01*
X128109558Y-90096400D01*
X126979510Y-90096400D01*
X126968459Y-90089016D01*
X126879898Y-90071400D01*
X126879897Y-90071400D01*
X126850000Y-90065453D01*
X126843573Y-90066731D01*
X126746105Y-89969263D01*
X126570199Y-89896400D01*
X126379801Y-89896400D01*
X126203895Y-89969263D01*
X126069263Y-90103895D01*
X125996400Y-90279801D01*
X125996400Y-90470199D01*
X126027964Y-90546400D01*
X122111487Y-90546400D01*
X122081590Y-90540453D01*
X122051693Y-90546400D01*
X122051692Y-90546400D01*
X121963131Y-90564016D01*
X121862707Y-90631117D01*
X121845771Y-90656464D01*
X121113556Y-91388679D01*
X120949713Y-91279203D01*
X120523558Y-91194435D01*
X120097404Y-91279203D01*
X119827319Y-91459668D01*
X119459668Y-91827319D01*
X119279203Y-92097404D01*
X119194435Y-92523558D01*
X117652913Y-92523558D01*
X115856862Y-90727507D01*
X117398384Y-90727507D01*
X117483152Y-91153661D01*
X117724550Y-91514938D01*
X118085827Y-91756336D01*
X118511981Y-91841104D01*
X118938135Y-91756336D01*
X119208220Y-91575871D01*
X119575871Y-91208220D01*
X119756336Y-90938135D01*
X119841104Y-90511981D01*
X119756336Y-90085826D01*
X119514939Y-89724549D01*
X119153662Y-89483152D01*
X118727507Y-89398384D01*
X118301353Y-89483152D01*
X118031268Y-89663617D01*
X117663617Y-90031268D01*
X117483152Y-90301353D01*
X117398384Y-90727507D01*
X115856862Y-90727507D01*
X115079799Y-89950445D01*
X115076200Y-89932352D01*
X115076200Y-88404801D01*
X129471400Y-88404801D01*
X129471400Y-88595199D01*
X129544263Y-88771105D01*
X129678895Y-88905737D01*
X129854801Y-88978600D01*
X130045199Y-88978600D01*
X130221105Y-88905737D01*
X130355737Y-88771105D01*
X130428600Y-88595199D01*
X130428600Y-88404801D01*
X130355737Y-88228895D01*
X130221105Y-88094263D01*
X130045199Y-88021400D01*
X129854801Y-88021400D01*
X129678895Y-88094263D01*
X129544263Y-88228895D01*
X129471400Y-88404801D01*
X115076200Y-88404801D01*
X115076200Y-87214801D01*
X121591400Y-87214801D01*
X121591400Y-87405199D01*
X121664263Y-87581105D01*
X121798895Y-87715737D01*
X121974801Y-87788600D01*
X122165199Y-87788600D01*
X122341105Y-87715737D01*
X122475737Y-87581105D01*
X122548600Y-87405199D01*
X122548600Y-87214801D01*
X122475737Y-87038895D01*
X122341105Y-86904263D01*
X122165199Y-86831400D01*
X121974801Y-86831400D01*
X121798895Y-86904263D01*
X121664263Y-87038895D01*
X121591400Y-87214801D01*
X115076200Y-87214801D01*
X115076200Y-86744801D01*
X126611400Y-86744801D01*
X126611400Y-86935199D01*
X126684263Y-87111105D01*
X126818895Y-87245737D01*
X126994801Y-87318600D01*
X127185199Y-87318600D01*
X127361105Y-87245737D01*
X127495737Y-87111105D01*
X127568600Y-86935199D01*
X127568600Y-86744801D01*
X127495737Y-86568895D01*
X127361105Y-86434263D01*
X127185199Y-86361400D01*
X126994801Y-86361400D01*
X126818895Y-86434263D01*
X126684263Y-86568895D01*
X126611400Y-86744801D01*
X115076200Y-86744801D01*
X115076200Y-84944801D01*
X117951400Y-84944801D01*
X117951400Y-85135199D01*
X118024263Y-85311105D01*
X118158895Y-85445737D01*
X118334801Y-85518600D01*
X118525199Y-85518600D01*
X118701105Y-85445737D01*
X118835737Y-85311105D01*
X118838348Y-85304801D01*
X121021400Y-85304801D01*
X121021400Y-85495199D01*
X121094263Y-85671105D01*
X121228895Y-85805737D01*
X121404801Y-85878600D01*
X121595199Y-85878600D01*
X121771105Y-85805737D01*
X121905737Y-85671105D01*
X121962196Y-85534801D01*
X128541400Y-85534801D01*
X128541400Y-85725199D01*
X128614263Y-85901105D01*
X128748895Y-86035737D01*
X128924801Y-86108600D01*
X129115199Y-86108600D01*
X129291105Y-86035737D01*
X129425737Y-85901105D01*
X129498600Y-85725199D01*
X129498600Y-85555442D01*
X129498895Y-85555737D01*
X129674801Y-85628600D01*
X129865199Y-85628600D01*
X130041105Y-85555737D01*
X130175737Y-85421105D01*
X130248600Y-85245199D01*
X130248600Y-85054801D01*
X130175737Y-84878895D01*
X130041105Y-84744263D01*
X129865199Y-84671400D01*
X129674801Y-84671400D01*
X129498895Y-84744263D01*
X129364263Y-84878895D01*
X129291400Y-85054801D01*
X129291400Y-85224558D01*
X129291105Y-85224263D01*
X129115199Y-85151400D01*
X128924801Y-85151400D01*
X128748895Y-85224263D01*
X128614263Y-85358895D01*
X128541400Y-85534801D01*
X121962196Y-85534801D01*
X121978600Y-85495199D01*
X121978600Y-85304801D01*
X121905737Y-85128895D01*
X121771105Y-84994263D01*
X121595199Y-84921400D01*
X121404801Y-84921400D01*
X121228895Y-84994263D01*
X121094263Y-85128895D01*
X121021400Y-85304801D01*
X118838348Y-85304801D01*
X118908600Y-85135199D01*
X118908600Y-84944801D01*
X118835737Y-84768895D01*
X118701105Y-84634263D01*
X118525199Y-84561400D01*
X118334801Y-84561400D01*
X118158895Y-84634263D01*
X118024263Y-84768895D01*
X117951400Y-84944801D01*
X115076200Y-84944801D01*
X115076200Y-84124801D01*
X125011400Y-84124801D01*
X125011400Y-84315199D01*
X125084263Y-84491105D01*
X125218895Y-84625737D01*
X125394801Y-84698600D01*
X125585199Y-84698600D01*
X125761105Y-84625737D01*
X125895737Y-84491105D01*
X125968600Y-84315199D01*
X125968600Y-84124801D01*
X125895737Y-83948895D01*
X125761105Y-83814263D01*
X125585199Y-83741400D01*
X125394801Y-83741400D01*
X125218895Y-83814263D01*
X125084263Y-83948895D01*
X125011400Y-84124801D01*
X115076200Y-84124801D01*
X115076200Y-82094801D01*
X122921400Y-82094801D01*
X122921400Y-82285199D01*
X122994263Y-82461105D01*
X123128895Y-82595737D01*
X123304801Y-82668600D01*
X123495199Y-82668600D01*
X123671105Y-82595737D01*
X123805737Y-82461105D01*
X123878600Y-82285199D01*
X123878600Y-82094801D01*
X123805737Y-81918895D01*
X123671105Y-81784263D01*
X123495199Y-81711400D01*
X123304801Y-81711400D01*
X123128895Y-81784263D01*
X122994263Y-81918895D01*
X122921400Y-82094801D01*
X115076200Y-82094801D01*
X115076200Y-80904801D01*
X115421400Y-80904801D01*
X115421400Y-81095199D01*
X115494263Y-81271105D01*
X115628895Y-81405737D01*
X115804801Y-81478600D01*
X115995199Y-81478600D01*
X116171105Y-81405737D01*
X116305737Y-81271105D01*
X116312490Y-81254801D01*
X126921400Y-81254801D01*
X126921400Y-81445199D01*
X126994263Y-81621105D01*
X127128895Y-81755737D01*
X127304801Y-81828600D01*
X127495199Y-81828600D01*
X127671105Y-81755737D01*
X127805737Y-81621105D01*
X127878600Y-81445199D01*
X127878600Y-81254801D01*
X127805737Y-81078895D01*
X127671105Y-80944263D01*
X127495199Y-80871400D01*
X127304801Y-80871400D01*
X127128895Y-80944263D01*
X126994263Y-81078895D01*
X126921400Y-81254801D01*
X116312490Y-81254801D01*
X116378600Y-81095199D01*
X116378600Y-80904801D01*
X116305737Y-80728895D01*
X116171105Y-80594263D01*
X115995199Y-80521400D01*
X115804801Y-80521400D01*
X115628895Y-80594263D01*
X115494263Y-80728895D01*
X115421400Y-80904801D01*
X115076200Y-80904801D01*
X115076200Y-80067648D01*
X115079799Y-80049555D01*
X115737117Y-79392237D01*
X116237844Y-79392237D01*
X116255586Y-79481432D01*
X116306111Y-79557048D01*
X117742952Y-80993889D01*
X117818568Y-81044414D01*
X117907763Y-81062156D01*
X117996958Y-81044414D01*
X118072574Y-80993889D01*
X119293889Y-79772574D01*
X119344414Y-79696958D01*
X119362156Y-79607763D01*
X119344414Y-79518568D01*
X119293889Y-79442952D01*
X118855738Y-79004801D01*
X128111400Y-79004801D01*
X128111400Y-79195199D01*
X128184263Y-79371105D01*
X128284968Y-79471810D01*
X128276494Y-81675186D01*
X128270674Y-81711579D01*
X128283221Y-81764186D01*
X128293563Y-81817243D01*
X128297177Y-81822697D01*
X128298695Y-81829062D01*
X128330407Y-81872845D01*
X128360277Y-81917924D01*
X128390842Y-81938517D01*
X132535706Y-85781400D01*
X132384801Y-85781400D01*
X132208895Y-85854263D01*
X132074263Y-85988895D01*
X132001400Y-86164801D01*
X132001400Y-86355199D01*
X132074263Y-86531105D01*
X132208895Y-86665737D01*
X132384801Y-86738600D01*
X132575199Y-86738600D01*
X132611400Y-86723605D01*
X132611400Y-86845199D01*
X132684263Y-87021105D01*
X132818895Y-87155737D01*
X132994801Y-87228600D01*
X133185199Y-87228600D01*
X133361105Y-87155737D01*
X133495737Y-87021105D01*
X133568600Y-86845199D01*
X133568600Y-86739040D01*
X133767404Y-86923360D01*
X133781117Y-86943883D01*
X133811272Y-86964032D01*
X133815510Y-86967961D01*
X133836087Y-86980613D01*
X133881541Y-87010984D01*
X133887369Y-87012143D01*
X133892430Y-87015255D01*
X133946394Y-87023884D01*
X133970102Y-87028600D01*
X133975885Y-87028600D01*
X134011694Y-87034326D01*
X134035701Y-87028600D01*
X136131589Y-87028600D01*
X136588428Y-87448893D01*
X136478895Y-87494263D01*
X136376758Y-87596400D01*
X132897887Y-87596400D01*
X132468600Y-87180785D01*
X132468600Y-87044801D01*
X132395737Y-86868895D01*
X132261105Y-86734263D01*
X132085199Y-86661400D01*
X131894801Y-86661400D01*
X131718895Y-86734263D01*
X131584263Y-86868895D01*
X131511400Y-87044801D01*
X131511400Y-87235199D01*
X131584263Y-87411105D01*
X131718895Y-87545737D01*
X131894801Y-87618600D01*
X132047870Y-87618600D01*
X132540559Y-88095599D01*
X132556117Y-88118883D01*
X132583524Y-88137196D01*
X132585304Y-88138919D01*
X132608359Y-88153790D01*
X132656541Y-88185984D01*
X132659042Y-88186482D01*
X132661184Y-88187863D01*
X132718156Y-88198240D01*
X132745102Y-88203600D01*
X132747583Y-88203600D01*
X132780008Y-88209506D01*
X132807378Y-88203600D01*
X135335348Y-88203600D01*
X135188895Y-88264263D01*
X135054263Y-88398895D01*
X134981400Y-88574801D01*
X134981400Y-88765199D01*
X135054263Y-88941105D01*
X135188895Y-89075737D01*
X135364801Y-89148600D01*
X135555199Y-89148600D01*
X135731105Y-89075737D01*
X135865737Y-88941105D01*
X135911840Y-88829801D01*
X136621400Y-88829801D01*
X136621400Y-89020199D01*
X136694263Y-89196105D01*
X136828895Y-89330737D01*
X137004801Y-89403600D01*
X137195199Y-89403600D01*
X137371105Y-89330737D01*
X137505737Y-89196105D01*
X137578600Y-89020199D01*
X137578600Y-88829801D01*
X137505737Y-88653895D01*
X137371105Y-88519263D01*
X137195199Y-88446400D01*
X137004801Y-88446400D01*
X136828895Y-88519263D01*
X136694263Y-88653895D01*
X136621400Y-88829801D01*
X135911840Y-88829801D01*
X135938600Y-88765199D01*
X135938600Y-88574801D01*
X135865737Y-88398895D01*
X135731105Y-88264263D01*
X135584652Y-88203600D01*
X136376758Y-88203600D01*
X136478895Y-88305737D01*
X136654801Y-88378600D01*
X136845199Y-88378600D01*
X137021105Y-88305737D01*
X137155737Y-88171105D01*
X137215808Y-88026082D01*
X138896400Y-89572227D01*
X138896400Y-89695199D01*
X138969263Y-89871105D01*
X139103895Y-90005737D01*
X139279801Y-90078600D01*
X139470199Y-90078600D01*
X139646105Y-90005737D01*
X139780737Y-89871105D01*
X139853600Y-89695199D01*
X139853600Y-89504801D01*
X139780737Y-89328895D01*
X139678600Y-89226758D01*
X139678600Y-88600754D01*
X140725755Y-87553600D01*
X141966758Y-87553600D01*
X142068895Y-87655737D01*
X142244801Y-87728600D01*
X142435199Y-87728600D01*
X142611105Y-87655737D01*
X142745737Y-87521105D01*
X142818600Y-87345199D01*
X142818600Y-87154801D01*
X142745737Y-86978895D01*
X142611105Y-86844263D01*
X142435199Y-86771400D01*
X142244801Y-86771400D01*
X142068895Y-86844263D01*
X141966758Y-86946400D01*
X140629897Y-86946400D01*
X140600000Y-86940453D01*
X140570103Y-86946400D01*
X140570102Y-86946400D01*
X140481541Y-86964016D01*
X140381117Y-87031117D01*
X140364180Y-87056465D01*
X139553600Y-87867046D01*
X139553600Y-87779801D01*
X139480737Y-87603895D01*
X139346105Y-87469263D01*
X139178600Y-87399880D01*
X139178600Y-85026326D01*
X139304801Y-85078600D01*
X139495199Y-85078600D01*
X139671105Y-85005737D01*
X139805737Y-84871105D01*
X139878600Y-84695199D01*
X139878600Y-84654801D01*
X139921400Y-84654801D01*
X139921400Y-84845199D01*
X139994263Y-85021105D01*
X140128895Y-85155737D01*
X140304801Y-85228600D01*
X140495199Y-85228600D01*
X140671105Y-85155737D01*
X140805737Y-85021105D01*
X140878600Y-84845199D01*
X140878600Y-84654801D01*
X140805737Y-84478895D01*
X140671105Y-84344263D01*
X140495199Y-84271400D01*
X140304801Y-84271400D01*
X140128895Y-84344263D01*
X139994263Y-84478895D01*
X139921400Y-84654801D01*
X139878600Y-84654801D01*
X139878600Y-84504801D01*
X139805737Y-84328895D01*
X139703600Y-84226758D01*
X139703600Y-80734801D01*
X141791400Y-80734801D01*
X141791400Y-80925199D01*
X141864263Y-81101105D01*
X141998895Y-81235737D01*
X142174801Y-81308600D01*
X142365199Y-81308600D01*
X142541105Y-81235737D01*
X142553690Y-81223152D01*
X142594263Y-81321105D01*
X142728895Y-81455737D01*
X142904801Y-81528600D01*
X143095199Y-81528600D01*
X143271105Y-81455737D01*
X143405737Y-81321105D01*
X143478600Y-81145199D01*
X143478600Y-80954801D01*
X143405737Y-80778895D01*
X143271105Y-80644263D01*
X143095199Y-80571400D01*
X142904801Y-80571400D01*
X142728895Y-80644263D01*
X142716310Y-80656848D01*
X142675737Y-80558895D01*
X142541105Y-80424263D01*
X142365199Y-80351400D01*
X142174801Y-80351400D01*
X141998895Y-80424263D01*
X141864263Y-80558895D01*
X141791400Y-80734801D01*
X139703600Y-80734801D01*
X139703600Y-79579897D01*
X139709547Y-79550000D01*
X139703295Y-79518568D01*
X139685984Y-79431541D01*
X139618883Y-79331117D01*
X139593536Y-79314181D01*
X137894156Y-77614801D01*
X138921400Y-77614801D01*
X138921400Y-77805199D01*
X138994263Y-77981105D01*
X139128895Y-78115737D01*
X139304801Y-78188600D01*
X139495199Y-78188600D01*
X139671105Y-78115737D01*
X139805737Y-77981105D01*
X139878600Y-77805199D01*
X139878600Y-77614801D01*
X139805737Y-77438895D01*
X139671105Y-77304263D01*
X139495199Y-77231400D01*
X139304801Y-77231400D01*
X139128895Y-77304263D01*
X138994263Y-77438895D01*
X138921400Y-77614801D01*
X137894156Y-77614801D01*
X135659156Y-75379801D01*
X137171400Y-75379801D01*
X137171400Y-75570199D01*
X137244263Y-75746105D01*
X137378895Y-75880737D01*
X137554801Y-75953600D01*
X137745199Y-75953600D01*
X137921105Y-75880737D01*
X138055737Y-75746105D01*
X138128600Y-75570199D01*
X138128600Y-75379801D01*
X138097534Y-75304801D01*
X142651400Y-75304801D01*
X142651400Y-75495199D01*
X142724263Y-75671105D01*
X142858895Y-75805737D01*
X143034801Y-75878600D01*
X143225199Y-75878600D01*
X143401105Y-75805737D01*
X143535737Y-75671105D01*
X143608600Y-75495199D01*
X143608600Y-75304801D01*
X143535737Y-75128895D01*
X143401105Y-74994263D01*
X143225199Y-74921400D01*
X143034801Y-74921400D01*
X142858895Y-74994263D01*
X142724263Y-75128895D01*
X142651400Y-75304801D01*
X138097534Y-75304801D01*
X138055737Y-75203895D01*
X137921105Y-75069263D01*
X137745199Y-74996400D01*
X137554801Y-74996400D01*
X137378895Y-75069263D01*
X137244263Y-75203895D01*
X137171400Y-75379801D01*
X135659156Y-75379801D01*
X134378600Y-74099246D01*
X134378600Y-73954801D01*
X134305737Y-73778895D01*
X134171105Y-73644263D01*
X133995199Y-73571400D01*
X133804801Y-73571400D01*
X133628895Y-73644263D01*
X133494263Y-73778895D01*
X133421400Y-73954801D01*
X133421400Y-74145199D01*
X133494263Y-74321105D01*
X133628895Y-74455737D01*
X133804801Y-74528600D01*
X133949246Y-74528600D01*
X137052242Y-77631597D01*
X136955199Y-77591400D01*
X136764801Y-77591400D01*
X136588895Y-77664263D01*
X136454263Y-77798895D01*
X136381400Y-77974801D01*
X136381400Y-78165199D01*
X136454263Y-78341105D01*
X136588895Y-78475737D01*
X136764801Y-78548600D01*
X136955199Y-78548600D01*
X137131105Y-78475737D01*
X137265737Y-78341105D01*
X137338600Y-78165199D01*
X137338600Y-77974801D01*
X137298403Y-77877758D01*
X139096400Y-79675755D01*
X139096400Y-81084884D01*
X139093883Y-81081117D01*
X139068538Y-81064182D01*
X138503600Y-80499245D01*
X138503600Y-80354801D01*
X138430737Y-80178895D01*
X138296105Y-80044263D01*
X138120199Y-79971400D01*
X137929801Y-79971400D01*
X137753895Y-80044263D01*
X137619263Y-80178895D01*
X137546400Y-80354801D01*
X137546400Y-80545199D01*
X137619263Y-80721105D01*
X137753895Y-80855737D01*
X137929801Y-80928600D01*
X138074245Y-80928600D01*
X138466634Y-81320989D01*
X138395199Y-81291400D01*
X138204801Y-81291400D01*
X138028895Y-81364263D01*
X137894263Y-81498895D01*
X137821400Y-81674801D01*
X137821400Y-81865199D01*
X137894263Y-82041105D01*
X138028895Y-82175737D01*
X138204801Y-82248600D01*
X138395199Y-82248600D01*
X138571105Y-82175737D01*
X138571401Y-82175441D01*
X138571400Y-86177964D01*
X138495199Y-86146400D01*
X138304801Y-86146400D01*
X138128895Y-86219263D01*
X137994263Y-86353895D01*
X137921400Y-86529801D01*
X137921400Y-86720199D01*
X137994263Y-86896105D01*
X138128895Y-87030737D01*
X138304801Y-87103600D01*
X138495199Y-87103600D01*
X138571400Y-87072036D01*
X138571400Y-87645103D01*
X138569745Y-87653423D01*
X138505737Y-87498895D01*
X138371105Y-87364263D01*
X138195199Y-87291400D01*
X138050755Y-87291400D01*
X137306498Y-86547143D01*
X137346105Y-86530737D01*
X137480737Y-86396105D01*
X137553600Y-86220199D01*
X137553600Y-86201326D01*
X137679801Y-86253600D01*
X137870199Y-86253600D01*
X138046105Y-86180737D01*
X138180737Y-86046105D01*
X138253600Y-85870199D01*
X138253600Y-85679801D01*
X138180737Y-85503895D01*
X138046105Y-85369263D01*
X137870199Y-85296400D01*
X137679801Y-85296400D01*
X137503895Y-85369263D01*
X137378600Y-85494558D01*
X137378600Y-85130442D01*
X137403895Y-85155737D01*
X137579801Y-85228600D01*
X137770199Y-85228600D01*
X137946105Y-85155737D01*
X138080737Y-85021105D01*
X138153600Y-84845199D01*
X138153600Y-84654801D01*
X138080737Y-84478895D01*
X137946105Y-84344263D01*
X137770199Y-84271400D01*
X137579801Y-84271400D01*
X137403895Y-84344263D01*
X137378600Y-84369558D01*
X137378600Y-83825442D01*
X137418895Y-83865737D01*
X137594801Y-83938600D01*
X137785199Y-83938600D01*
X137961105Y-83865737D01*
X138095737Y-83731105D01*
X138168600Y-83555199D01*
X138168600Y-83364801D01*
X138095737Y-83188895D01*
X137961105Y-83054263D01*
X137785199Y-82981400D01*
X137594801Y-82981400D01*
X137418895Y-83054263D01*
X137378600Y-83094558D01*
X137378600Y-79529897D01*
X137384547Y-79500000D01*
X137370930Y-79431541D01*
X137360984Y-79381541D01*
X137293883Y-79281117D01*
X137268536Y-79264181D01*
X135728600Y-77724246D01*
X135728600Y-77579801D01*
X135655737Y-77403895D01*
X135521105Y-77269263D01*
X135345199Y-77196400D01*
X135154801Y-77196400D01*
X134978895Y-77269263D01*
X134844263Y-77403895D01*
X134771400Y-77579801D01*
X134771400Y-77770199D01*
X134844263Y-77946105D01*
X134978895Y-78080737D01*
X135154801Y-78153600D01*
X135299246Y-78153600D01*
X136771400Y-79625755D01*
X136771401Y-85751757D01*
X136669263Y-85853895D01*
X136652857Y-85893503D01*
X136453600Y-85694246D01*
X136453600Y-85019897D01*
X136459547Y-84990000D01*
X136435984Y-84871541D01*
X136400799Y-84818883D01*
X136368883Y-84771117D01*
X136343535Y-84754180D01*
X135573600Y-83984246D01*
X135573600Y-83784610D01*
X135679801Y-83828600D01*
X135870199Y-83828600D01*
X136046105Y-83755737D01*
X136180737Y-83621105D01*
X136253600Y-83445199D01*
X136253600Y-83254801D01*
X136180737Y-83078895D01*
X136046105Y-82944263D01*
X135945554Y-82902613D01*
X135970605Y-82892237D01*
X136105237Y-82757605D01*
X136178100Y-82581699D01*
X136178100Y-82391301D01*
X136105237Y-82215395D01*
X135970605Y-82080763D01*
X135794699Y-82007900D01*
X135604301Y-82007900D01*
X135573600Y-82020617D01*
X135573600Y-81200442D01*
X135698895Y-81325737D01*
X135874801Y-81398600D01*
X136065199Y-81398600D01*
X136241105Y-81325737D01*
X136375737Y-81191105D01*
X136448600Y-81015199D01*
X136448600Y-80824801D01*
X136375737Y-80648895D01*
X136241105Y-80514263D01*
X136065199Y-80441400D01*
X135948600Y-80441400D01*
X135948600Y-80354801D01*
X135875737Y-80178895D01*
X135741105Y-80044263D01*
X135565199Y-79971400D01*
X135374801Y-79971400D01*
X135198895Y-80044263D01*
X135064263Y-80178895D01*
X134991400Y-80354801D01*
X134991400Y-80520491D01*
X134984016Y-80531542D01*
X134960453Y-80650000D01*
X134966401Y-80679902D01*
X134966400Y-84080103D01*
X134960453Y-84110000D01*
X134966400Y-84139897D01*
X134984016Y-84228458D01*
X135051117Y-84328883D01*
X135076468Y-84345822D01*
X135846401Y-85115756D01*
X135846400Y-85790102D01*
X135840453Y-85820000D01*
X135846400Y-85849897D01*
X135864016Y-85938458D01*
X135931117Y-86038883D01*
X135956468Y-86055822D01*
X136331012Y-86430366D01*
X136303047Y-86426005D01*
X136279898Y-86421400D01*
X136273522Y-86421400D01*
X136237114Y-86415722D01*
X136213708Y-86421400D01*
X134119086Y-86421400D01*
X132887778Y-85279801D01*
X134871400Y-85279801D01*
X134871400Y-85470199D01*
X134944263Y-85646105D01*
X135078895Y-85780737D01*
X135254801Y-85853600D01*
X135445199Y-85853600D01*
X135621105Y-85780737D01*
X135755737Y-85646105D01*
X135828600Y-85470199D01*
X135828600Y-85279801D01*
X135755737Y-85103895D01*
X135621105Y-84969263D01*
X135445199Y-84896400D01*
X135254801Y-84896400D01*
X135078895Y-84969263D01*
X134944263Y-85103895D01*
X134871400Y-85279801D01*
X132887778Y-85279801D01*
X129991784Y-82594801D01*
X131801400Y-82594801D01*
X131801400Y-82785199D01*
X131874263Y-82961105D01*
X132008895Y-83095737D01*
X132184801Y-83168600D01*
X132375199Y-83168600D01*
X132397908Y-83159194D01*
X132444263Y-83271105D01*
X132578895Y-83405737D01*
X132754801Y-83478600D01*
X132945199Y-83478600D01*
X133121105Y-83405737D01*
X133255737Y-83271105D01*
X133328600Y-83095199D01*
X133328600Y-82904801D01*
X133255737Y-82728895D01*
X133121105Y-82594263D01*
X132945199Y-82521400D01*
X132754801Y-82521400D01*
X132732092Y-82530806D01*
X132685737Y-82418895D01*
X132551105Y-82284263D01*
X132375199Y-82211400D01*
X132184801Y-82211400D01*
X132008895Y-82284263D01*
X131874263Y-82418895D01*
X131801400Y-82594801D01*
X129991784Y-82594801D01*
X128884109Y-81567829D01*
X128890005Y-80034801D01*
X133781400Y-80034801D01*
X133781400Y-80225199D01*
X133854263Y-80401105D01*
X133988895Y-80535737D01*
X134164801Y-80608600D01*
X134355199Y-80608600D01*
X134531105Y-80535737D01*
X134665737Y-80401105D01*
X134738600Y-80225199D01*
X134738600Y-80034801D01*
X134665737Y-79858895D01*
X134531105Y-79724263D01*
X134355199Y-79651400D01*
X134164801Y-79651400D01*
X133988895Y-79724263D01*
X133854263Y-79858895D01*
X133781400Y-80034801D01*
X128890005Y-80034801D01*
X128892160Y-79474682D01*
X128995737Y-79371105D01*
X129068600Y-79195199D01*
X129068600Y-79004801D01*
X128995737Y-78828895D01*
X128861105Y-78694263D01*
X128685199Y-78621400D01*
X128494801Y-78621400D01*
X128318895Y-78694263D01*
X128184263Y-78828895D01*
X128111400Y-79004801D01*
X118855738Y-79004801D01*
X117857048Y-78006111D01*
X117781432Y-77955586D01*
X117692237Y-77937844D01*
X117603042Y-77955586D01*
X117527426Y-78006111D01*
X116306111Y-79227426D01*
X116255586Y-79303042D01*
X116237844Y-79392237D01*
X115737117Y-79392237D01*
X117533168Y-77596186D01*
X118374691Y-77596186D01*
X118459459Y-78022340D01*
X118639924Y-78292425D01*
X119007575Y-78660076D01*
X119277660Y-78840541D01*
X119703814Y-78925309D01*
X120129969Y-78840541D01*
X120491246Y-78599144D01*
X120514193Y-78564801D01*
X134621400Y-78564801D01*
X134621400Y-78755199D01*
X134694263Y-78931105D01*
X134828895Y-79065737D01*
X135004801Y-79138600D01*
X135195199Y-79138600D01*
X135371105Y-79065737D01*
X135505737Y-78931105D01*
X135578600Y-78755199D01*
X135578600Y-78564801D01*
X135505737Y-78388895D01*
X135371105Y-78254263D01*
X135195199Y-78181400D01*
X135004801Y-78181400D01*
X134828895Y-78254263D01*
X134694263Y-78388895D01*
X134621400Y-78564801D01*
X120514193Y-78564801D01*
X120732643Y-78237867D01*
X120817411Y-77811712D01*
X120732643Y-77385558D01*
X120552178Y-77115473D01*
X120184527Y-76747822D01*
X119914442Y-76567357D01*
X119488288Y-76482589D01*
X119062134Y-76567357D01*
X118700857Y-76808755D01*
X118459459Y-77170032D01*
X118374691Y-77596186D01*
X117533168Y-77596186D01*
X119329219Y-75800135D01*
X120170742Y-75800135D01*
X120255510Y-76226289D01*
X120435975Y-76496374D01*
X120803626Y-76864025D01*
X121073711Y-77044490D01*
X121499865Y-77129258D01*
X121926020Y-77044490D01*
X122287297Y-76803093D01*
X122528694Y-76441816D01*
X122613462Y-76015661D01*
X122553617Y-75714801D01*
X133351400Y-75714801D01*
X133351400Y-75905199D01*
X133424263Y-76081105D01*
X133558895Y-76215737D01*
X133734801Y-76288600D01*
X133925199Y-76288600D01*
X134101105Y-76215737D01*
X134235737Y-76081105D01*
X134308600Y-75905199D01*
X134308600Y-75714801D01*
X134235737Y-75538895D01*
X134101105Y-75404263D01*
X133925199Y-75331400D01*
X133734801Y-75331400D01*
X133558895Y-75404263D01*
X133424263Y-75538895D01*
X133351400Y-75714801D01*
X122553617Y-75714801D01*
X122528694Y-75589507D01*
X122348229Y-75319422D01*
X121980578Y-74951771D01*
X121710493Y-74771306D01*
X121284339Y-74686538D01*
X120858185Y-74771306D01*
X120496908Y-75012704D01*
X120255510Y-75373981D01*
X120170742Y-75800135D01*
X119329219Y-75800135D01*
X121125271Y-74004083D01*
X121966794Y-74004083D01*
X122051562Y-74430237D01*
X122232027Y-74700322D01*
X122599678Y-75067973D01*
X122869763Y-75248438D01*
X123295917Y-75333206D01*
X123722072Y-75248438D01*
X124083349Y-75007041D01*
X124324746Y-74645764D01*
X124409514Y-74219609D01*
X124324746Y-73793455D01*
X124144281Y-73523370D01*
X123776630Y-73155719D01*
X123506545Y-72975254D01*
X123080391Y-72890486D01*
X122654237Y-72975254D01*
X122292960Y-73216652D01*
X122051562Y-73577929D01*
X121966794Y-74004083D01*
X121125271Y-74004083D01*
X122921322Y-72208032D01*
X123762845Y-72208032D01*
X123847613Y-72634186D01*
X124028078Y-72904271D01*
X124395729Y-73271922D01*
X124665814Y-73452387D01*
X125091968Y-73537155D01*
X125518123Y-73452387D01*
X125879400Y-73210990D01*
X126120797Y-72849713D01*
X126205565Y-72423558D01*
X126120797Y-71997404D01*
X125940332Y-71727319D01*
X125572681Y-71359668D01*
X125302596Y-71179203D01*
X124876442Y-71094435D01*
X124450288Y-71179203D01*
X124089011Y-71420601D01*
X123847613Y-71781878D01*
X123762845Y-72208032D01*
X122921322Y-72208032D01*
X124717373Y-70411981D01*
X125558896Y-70411981D01*
X125643664Y-70838135D01*
X125824129Y-71108220D01*
X126191780Y-71475871D01*
X126461865Y-71656336D01*
X126888019Y-71741104D01*
X127314174Y-71656336D01*
X127577494Y-71480391D01*
X128990486Y-71480391D01*
X129075254Y-71906545D01*
X129255719Y-72176630D01*
X129623370Y-72544281D01*
X129893455Y-72724746D01*
X130319609Y-72809514D01*
X130745764Y-72724746D01*
X131107041Y-72483349D01*
X131348438Y-72122072D01*
X131433206Y-71695917D01*
X131348438Y-71269763D01*
X131167973Y-70999678D01*
X130800322Y-70632027D01*
X130530237Y-70451562D01*
X130104083Y-70366794D01*
X129677929Y-70451562D01*
X129316652Y-70692960D01*
X129075254Y-71054237D01*
X128990486Y-71480391D01*
X127577494Y-71480391D01*
X127675451Y-71414939D01*
X127916848Y-71053662D01*
X128001616Y-70627507D01*
X127916848Y-70201353D01*
X127736383Y-69931268D01*
X127368732Y-69563617D01*
X127098647Y-69383152D01*
X126672493Y-69298384D01*
X126246339Y-69383152D01*
X125885062Y-69624550D01*
X125643664Y-69985827D01*
X125558896Y-70411981D01*
X124717373Y-70411981D01*
X126513424Y-68615930D01*
X127354947Y-68615930D01*
X127439715Y-69042084D01*
X127620180Y-69312169D01*
X127987831Y-69679820D01*
X128257916Y-69860285D01*
X128684070Y-69945053D01*
X129110225Y-69860285D01*
X129373547Y-69684339D01*
X130786538Y-69684339D01*
X130871306Y-70110493D01*
X131051771Y-70380578D01*
X131419422Y-70748229D01*
X131689507Y-70928694D01*
X132115661Y-71013462D01*
X132541816Y-70928694D01*
X132903093Y-70687297D01*
X133144490Y-70326020D01*
X133229258Y-69899865D01*
X133144490Y-69473711D01*
X132964025Y-69203626D01*
X132596374Y-68835975D01*
X132326289Y-68655510D01*
X131900135Y-68570742D01*
X131473981Y-68655510D01*
X131112704Y-68896908D01*
X130871306Y-69258185D01*
X130786538Y-69684339D01*
X129373547Y-69684339D01*
X129471502Y-69618888D01*
X129712899Y-69257611D01*
X129797667Y-68831456D01*
X129712899Y-68405302D01*
X129532434Y-68135217D01*
X129164783Y-67767566D01*
X128894698Y-67587101D01*
X128468544Y-67502333D01*
X128042390Y-67587101D01*
X127681113Y-67828499D01*
X127439715Y-68189776D01*
X127354947Y-68615930D01*
X126513424Y-68615930D01*
X128309476Y-66819878D01*
X129150999Y-66819878D01*
X129235767Y-67246032D01*
X129416232Y-67516117D01*
X129783883Y-67883768D01*
X130053968Y-68064233D01*
X130480122Y-68149001D01*
X130906277Y-68064233D01*
X131169597Y-67888288D01*
X132582589Y-67888288D01*
X132667357Y-68314442D01*
X132847822Y-68584527D01*
X133215473Y-68952178D01*
X133485558Y-69132643D01*
X133911712Y-69217411D01*
X134337867Y-69132643D01*
X134699144Y-68891246D01*
X134940541Y-68529969D01*
X135025309Y-68103814D01*
X134940541Y-67677660D01*
X134760076Y-67407575D01*
X134392425Y-67039924D01*
X134122340Y-66859459D01*
X133696186Y-66774691D01*
X133270032Y-66859459D01*
X132908755Y-67100857D01*
X132667357Y-67462134D01*
X132582589Y-67888288D01*
X131169597Y-67888288D01*
X131267554Y-67822836D01*
X131508951Y-67461559D01*
X131593719Y-67035404D01*
X131508951Y-66609250D01*
X131328486Y-66339165D01*
X130960835Y-65971514D01*
X130690750Y-65791049D01*
X130264596Y-65706281D01*
X129838442Y-65791049D01*
X129477165Y-66032447D01*
X129235767Y-66393724D01*
X129150999Y-66819878D01*
X128309476Y-66819878D01*
X130105527Y-65023827D01*
X130947050Y-65023827D01*
X131031818Y-65449981D01*
X131212283Y-65720066D01*
X131579934Y-66087717D01*
X131850019Y-66268182D01*
X132276173Y-66352950D01*
X132702328Y-66268182D01*
X132965648Y-66092237D01*
X134037844Y-66092237D01*
X134055586Y-66181432D01*
X134106111Y-66257048D01*
X135542952Y-67693889D01*
X135618568Y-67744414D01*
X135707763Y-67762156D01*
X135796958Y-67744414D01*
X135872574Y-67693889D01*
X137093889Y-66472574D01*
X137144414Y-66396958D01*
X137162156Y-66307763D01*
X137144414Y-66218568D01*
X137093889Y-66142952D01*
X136255738Y-65304801D01*
X138021400Y-65304801D01*
X138021400Y-65495199D01*
X138094263Y-65671105D01*
X138228895Y-65805737D01*
X138404801Y-65878600D01*
X138595199Y-65878600D01*
X138771105Y-65805737D01*
X138905737Y-65671105D01*
X138978600Y-65495199D01*
X138978600Y-65304801D01*
X138905737Y-65128895D01*
X138771105Y-64994263D01*
X138595199Y-64921400D01*
X138404801Y-64921400D01*
X138228895Y-64994263D01*
X138094263Y-65128895D01*
X138021400Y-65304801D01*
X136255738Y-65304801D01*
X135755738Y-64804801D01*
X139531400Y-64804801D01*
X139531400Y-64995199D01*
X139604263Y-65171105D01*
X139738895Y-65305737D01*
X139914801Y-65378600D01*
X140105199Y-65378600D01*
X140281105Y-65305737D01*
X140415737Y-65171105D01*
X140488600Y-64995199D01*
X140488600Y-64804801D01*
X140415737Y-64628895D01*
X140281105Y-64494263D01*
X140105199Y-64421400D01*
X139914801Y-64421400D01*
X139738895Y-64494263D01*
X139604263Y-64628895D01*
X139531400Y-64804801D01*
X135755738Y-64804801D01*
X135657048Y-64706111D01*
X135581432Y-64655586D01*
X135492237Y-64637844D01*
X135403042Y-64655586D01*
X135327426Y-64706111D01*
X134106111Y-65927426D01*
X134055586Y-66003042D01*
X134037844Y-66092237D01*
X132965648Y-66092237D01*
X133063605Y-66026785D01*
X133305002Y-65665508D01*
X133389770Y-65239353D01*
X133305002Y-64813199D01*
X133124537Y-64543114D01*
X132756886Y-64175463D01*
X132486801Y-63994998D01*
X132060647Y-63910230D01*
X131634493Y-63994998D01*
X131273216Y-64236396D01*
X131031818Y-64597673D01*
X130947050Y-65023827D01*
X130105527Y-65023827D01*
X131901578Y-63227776D01*
X132743101Y-63227776D01*
X132827869Y-63653930D01*
X133008334Y-63924015D01*
X133375985Y-64291666D01*
X133646070Y-64472131D01*
X134072224Y-64556899D01*
X134498379Y-64472131D01*
X134859656Y-64230734D01*
X135101053Y-63869457D01*
X135185821Y-63443302D01*
X135101053Y-63017148D01*
X134920588Y-62747063D01*
X134552937Y-62379412D01*
X134282852Y-62198947D01*
X133856698Y-62114179D01*
X133430544Y-62198947D01*
X133069267Y-62440345D01*
X132827869Y-62801622D01*
X132743101Y-63227776D01*
X131901578Y-63227776D01*
X134624553Y-60504801D01*
X135521400Y-60504801D01*
X135521400Y-60695199D01*
X135594263Y-60871105D01*
X135728895Y-61005737D01*
X135904801Y-61078600D01*
X136095199Y-61078600D01*
X136271105Y-61005737D01*
X136405737Y-60871105D01*
X136478600Y-60695199D01*
X136478600Y-60504801D01*
X136405737Y-60328895D01*
X136271105Y-60194263D01*
X136095199Y-60121400D01*
X135904801Y-60121400D01*
X135728895Y-60194263D01*
X135594263Y-60328895D01*
X135521400Y-60504801D01*
X134624553Y-60504801D01*
X135049556Y-60079799D01*
X135067649Y-60076200D01*
X142171958Y-60076200D01*
X142119263Y-60128895D01*
X142119263Y-60128895D01*
G37*
X142119263Y-60128895D02*
X142046400Y-60304801D01*
X142046400Y-60495199D01*
X142119263Y-60671105D01*
X142253895Y-60805737D01*
X142429801Y-60878600D01*
X142620199Y-60878600D01*
X142796105Y-60805737D01*
X142930737Y-60671105D01*
X143003600Y-60495199D01*
X143003600Y-60304801D01*
X142930737Y-60128895D01*
X142878042Y-60076200D01*
X144932352Y-60076200D01*
X144950445Y-60079799D01*
X150666650Y-65796005D01*
X150717225Y-65876180D01*
X150863279Y-66030125D01*
X150890920Y-66049665D01*
X150914856Y-66073600D01*
X151068493Y-66176257D01*
X158028435Y-73136199D01*
X158131092Y-73289836D01*
X158214855Y-73373599D01*
X158265028Y-73394382D01*
X164920201Y-80049556D01*
X164923800Y-80067649D01*
X164923800Y-86422439D01*
X164881400Y-86524801D01*
X164881400Y-86715199D01*
X164923800Y-86817561D01*
X164923800Y-89669780D01*
X160490772Y-94379873D01*
X144950445Y-109920201D01*
X144932352Y-109923800D01*
X141811900Y-109923800D01*
X141848600Y-109835199D01*
X141848600Y-109644801D01*
X141775737Y-109468895D01*
X141641105Y-109334263D01*
X141465199Y-109261400D01*
X141274801Y-109261400D01*
X141098895Y-109334263D01*
X140964263Y-109468895D01*
X140891400Y-109644801D01*
X140891400Y-109835199D01*
X140928100Y-109923800D01*
X135067649Y-109923800D01*
X135049556Y-109920201D01*
X134334156Y-109204801D01*
X134921400Y-109204801D01*
X134921400Y-109395199D01*
X134994263Y-109571105D01*
X135128895Y-109705737D01*
X135304801Y-109778600D01*
X135495199Y-109778600D01*
X135671105Y-109705737D01*
X135805737Y-109571105D01*
X135878600Y-109395199D01*
X135878600Y-109204801D01*
X135805737Y-109028895D01*
X135671105Y-108894263D01*
X135495199Y-108821400D01*
X135304801Y-108821400D01*
X135128895Y-108894263D01*
X134994263Y-109028895D01*
X134921400Y-109204801D01*
X134334156Y-109204801D01*
X132186053Y-107056698D01*
X144514179Y-107056698D01*
X144598947Y-107482852D01*
X144779412Y-107752937D01*
X145147063Y-108120588D01*
X145417148Y-108301053D01*
X145843302Y-108385821D01*
X146269457Y-108301053D01*
X146630734Y-108059656D01*
X146872131Y-107698379D01*
X146956899Y-107272224D01*
X146872131Y-106846070D01*
X146691666Y-106575985D01*
X146324015Y-106208334D01*
X146053930Y-106027869D01*
X145627776Y-105943101D01*
X145201622Y-106027869D01*
X144840345Y-106269267D01*
X144598947Y-106630544D01*
X144514179Y-107056698D01*
X132186053Y-107056698D01*
X130234156Y-105104801D01*
X133691400Y-105104801D01*
X133691400Y-105295199D01*
X133764263Y-105471105D01*
X133898895Y-105605737D01*
X134074801Y-105678600D01*
X134265199Y-105678600D01*
X134441105Y-105605737D01*
X134575737Y-105471105D01*
X134613340Y-105380322D01*
X139535879Y-105380322D01*
X139535879Y-105570720D01*
X139608742Y-105746626D01*
X139743374Y-105881258D01*
X139919280Y-105954121D01*
X140109678Y-105954121D01*
X140285584Y-105881258D01*
X140420216Y-105746626D01*
X140493079Y-105570720D01*
X140493079Y-105380322D01*
X140443508Y-105260647D01*
X146310230Y-105260647D01*
X146394998Y-105686801D01*
X146575463Y-105956886D01*
X146943114Y-106324537D01*
X147213199Y-106505002D01*
X147639353Y-106589770D01*
X148065508Y-106505002D01*
X148426785Y-106263605D01*
X148668182Y-105902328D01*
X148752950Y-105476173D01*
X148668182Y-105050019D01*
X148487717Y-104779934D01*
X148120066Y-104412283D01*
X147849981Y-104231818D01*
X147423827Y-104147050D01*
X146997673Y-104231818D01*
X146636396Y-104473216D01*
X146394998Y-104834493D01*
X146310230Y-105260647D01*
X140443508Y-105260647D01*
X140420216Y-105204416D01*
X140285584Y-105069784D01*
X140109678Y-104996921D01*
X139919280Y-104996921D01*
X139743374Y-105069784D01*
X139608742Y-105204416D01*
X139535879Y-105380322D01*
X134613340Y-105380322D01*
X134648600Y-105295199D01*
X134648600Y-105104801D01*
X134575737Y-104928895D01*
X134441105Y-104794263D01*
X134265199Y-104721400D01*
X134074801Y-104721400D01*
X133898895Y-104794263D01*
X133764263Y-104928895D01*
X133691400Y-105104801D01*
X130234156Y-105104801D01*
X124837118Y-99707763D01*
X126037844Y-99707763D01*
X126055586Y-99796958D01*
X126106111Y-99872574D01*
X127327426Y-101093889D01*
X127403042Y-101144414D01*
X127492237Y-101162156D01*
X127581432Y-101144414D01*
X127657048Y-101093889D01*
X129093889Y-99657048D01*
X129144414Y-99581432D01*
X129162156Y-99492237D01*
X129144414Y-99403042D01*
X129093889Y-99327426D01*
X127872574Y-98106111D01*
X127796958Y-98055586D01*
X127707763Y-98037844D01*
X127618568Y-98055586D01*
X127542952Y-98106111D01*
X126106111Y-99542952D01*
X126055586Y-99618568D01*
X126037844Y-99707763D01*
X124837118Y-99707763D01*
X123041067Y-97911712D01*
X124582589Y-97911712D01*
X124667357Y-98337866D01*
X124908755Y-98699143D01*
X125270032Y-98940541D01*
X125696186Y-99025309D01*
X126122340Y-98940541D01*
X126392425Y-98760076D01*
X126760076Y-98392425D01*
X126940541Y-98122340D01*
X127025309Y-97696186D01*
X126940541Y-97270031D01*
X126699144Y-96908754D01*
X126337867Y-96667357D01*
X125911712Y-96582589D01*
X125485558Y-96667357D01*
X125215473Y-96847822D01*
X124847822Y-97215473D01*
X124667357Y-97485558D01*
X124582589Y-97911712D01*
X123041067Y-97911712D01*
X121245016Y-96115661D01*
X122786538Y-96115661D01*
X122871306Y-96541815D01*
X123112704Y-96903092D01*
X123473981Y-97144490D01*
X123900135Y-97229258D01*
X124326289Y-97144490D01*
X124596374Y-96964025D01*
X124964025Y-96596374D01*
X125144490Y-96326289D01*
X125229258Y-95900135D01*
X125144490Y-95473980D01*
X124903093Y-95112703D01*
X124541816Y-94871306D01*
X124115661Y-94786538D01*
X123689507Y-94871306D01*
X123419422Y-95051771D01*
X123051771Y-95419422D01*
X122871306Y-95689507D01*
X122786538Y-96115661D01*
X121245016Y-96115661D01*
X119448964Y-94319609D01*
X120990486Y-94319609D01*
X121075254Y-94745763D01*
X121316652Y-95107040D01*
X121677929Y-95348438D01*
X122104083Y-95433206D01*
X122530237Y-95348438D01*
X122800322Y-95167973D01*
X123167973Y-94800322D01*
X123348438Y-94530237D01*
X123433206Y-94104083D01*
X123348438Y-93677928D01*
X123107041Y-93316651D01*
X122804951Y-93114801D01*
X127871400Y-93114801D01*
X127871400Y-93305199D01*
X127944263Y-93481105D01*
X128078895Y-93615737D01*
X128254801Y-93688600D01*
X128445199Y-93688600D01*
X128621105Y-93615737D01*
X128755737Y-93481105D01*
X128828600Y-93305199D01*
X128828600Y-93114801D01*
X128755737Y-92938895D01*
X128621105Y-92804263D01*
X128445199Y-92731400D01*
X128254801Y-92731400D01*
X128078895Y-92804263D01*
X127944263Y-92938895D01*
X127871400Y-93114801D01*
X122804951Y-93114801D01*
X122745764Y-93075254D01*
X122319609Y-92990486D01*
X121893455Y-93075254D01*
X121623370Y-93255719D01*
X121255719Y-93623370D01*
X121075254Y-93893455D01*
X120990486Y-94319609D01*
X119448964Y-94319609D01*
X117652913Y-92523558D01*
X119194435Y-92523558D01*
X119279203Y-92949712D01*
X119520601Y-93310989D01*
X119881878Y-93552387D01*
X120308032Y-93637155D01*
X120734186Y-93552387D01*
X121004271Y-93371922D01*
X121371922Y-93004271D01*
X121552387Y-92734186D01*
X121637155Y-92308032D01*
X121552387Y-91881877D01*
X121523019Y-91837925D01*
X122207345Y-91153600D01*
X129471206Y-91153600D01*
X129348895Y-91204263D01*
X129214263Y-91338895D01*
X129141400Y-91514801D01*
X129141400Y-91705199D01*
X129214263Y-91881105D01*
X129348895Y-92015737D01*
X129524801Y-92088600D01*
X129715199Y-92088600D01*
X129852411Y-92031765D01*
X130356401Y-92535756D01*
X130356400Y-96710103D01*
X130350453Y-96740000D01*
X130356400Y-96769897D01*
X130374016Y-96858458D01*
X130441117Y-96958883D01*
X130466468Y-96975822D01*
X136096401Y-102605756D01*
X136096400Y-104456758D01*
X135994263Y-104558895D01*
X135921400Y-104734801D01*
X135921400Y-104925199D01*
X135994263Y-105101105D01*
X136128895Y-105235737D01*
X136304801Y-105308600D01*
X136495199Y-105308600D01*
X136671105Y-105235737D01*
X136805737Y-105101105D01*
X136878600Y-104925199D01*
X136878600Y-104734801D01*
X136805737Y-104558895D01*
X136703600Y-104456758D01*
X136703600Y-102509897D01*
X136709547Y-102480000D01*
X136703600Y-102450102D01*
X136685984Y-102361541D01*
X136618883Y-102261117D01*
X136593535Y-102244180D01*
X135349355Y-101000000D01*
X137191017Y-101000000D01*
X137287613Y-101485619D01*
X137562694Y-101897306D01*
X137974381Y-102172387D01*
X138337419Y-102244600D01*
X138582581Y-102244600D01*
X138945619Y-102172387D01*
X139357306Y-101897306D01*
X139632387Y-101485619D01*
X139728983Y-101000000D01*
X139632387Y-100514381D01*
X139357306Y-100102694D01*
X139179669Y-99984000D01*
X139750922Y-99984000D01*
X139750922Y-102016000D01*
X139768664Y-102105195D01*
X139819189Y-102180811D01*
X139894805Y-102231336D01*
X139984000Y-102249078D01*
X142016000Y-102249078D01*
X142105195Y-102231336D01*
X142180811Y-102180811D01*
X142181485Y-102179801D01*
X144296400Y-102179801D01*
X144296400Y-102370199D01*
X144369263Y-102546105D01*
X144503895Y-102680737D01*
X144679801Y-102753600D01*
X144824246Y-102753600D01*
X145936539Y-103865894D01*
X145953476Y-103891242D01*
X146053900Y-103958343D01*
X146172358Y-103981906D01*
X146202256Y-103975959D01*
X148247984Y-103975959D01*
X148371514Y-104160835D01*
X148739165Y-104528486D01*
X149009250Y-104708951D01*
X149435404Y-104793719D01*
X149861559Y-104708951D01*
X150222836Y-104467554D01*
X150464233Y-104106277D01*
X150549001Y-103680122D01*
X150464233Y-103253968D01*
X150283768Y-102983883D01*
X149916117Y-102616232D01*
X149646032Y-102435767D01*
X149219878Y-102350999D01*
X148793724Y-102435767D01*
X148432447Y-102677165D01*
X148191049Y-103038442D01*
X148125344Y-103368759D01*
X146298114Y-103368759D01*
X145253600Y-102324246D01*
X145253600Y-102179801D01*
X145180737Y-102003895D01*
X145046105Y-101869263D01*
X144870199Y-101796400D01*
X144679801Y-101796400D01*
X144503895Y-101869263D01*
X144369263Y-102003895D01*
X144296400Y-102179801D01*
X142181485Y-102179801D01*
X142231336Y-102105195D01*
X142249078Y-102016000D01*
X142249078Y-100424801D01*
X143601400Y-100424801D01*
X143601400Y-100615199D01*
X143674263Y-100791105D01*
X143808895Y-100925737D01*
X143984801Y-100998600D01*
X144175199Y-100998600D01*
X144351105Y-100925737D01*
X144485737Y-100791105D01*
X144558600Y-100615199D01*
X144558600Y-100424801D01*
X144485737Y-100248895D01*
X144351105Y-100114263D01*
X144175199Y-100041400D01*
X143984801Y-100041400D01*
X143808895Y-100114263D01*
X143674263Y-100248895D01*
X143601400Y-100424801D01*
X142249078Y-100424801D01*
X142249078Y-99984000D01*
X142231336Y-99894805D01*
X142180811Y-99819189D01*
X142105195Y-99768664D01*
X142016000Y-99750922D01*
X139984000Y-99750922D01*
X139894805Y-99768664D01*
X139819189Y-99819189D01*
X139768664Y-99894805D01*
X139750922Y-99984000D01*
X139179669Y-99984000D01*
X138945619Y-99827613D01*
X138582581Y-99755400D01*
X138337419Y-99755400D01*
X137974381Y-99827613D01*
X137562694Y-100102694D01*
X137287613Y-100514381D01*
X137191017Y-101000000D01*
X135349355Y-101000000D01*
X133203635Y-98854280D01*
X142631921Y-98854280D01*
X142631921Y-99044678D01*
X142704784Y-99220584D01*
X142839416Y-99355216D01*
X143015322Y-99428079D01*
X143205720Y-99428079D01*
X143381626Y-99355216D01*
X143516258Y-99220584D01*
X143589121Y-99044678D01*
X143589121Y-98854280D01*
X143516258Y-98678374D01*
X143381626Y-98543742D01*
X143205720Y-98470879D01*
X143015322Y-98470879D01*
X142839416Y-98543742D01*
X142704784Y-98678374D01*
X142631921Y-98854280D01*
X133203635Y-98854280D01*
X131104156Y-96754801D01*
X133331400Y-96754801D01*
X133331400Y-96945199D01*
X133404263Y-97121105D01*
X133538895Y-97255737D01*
X133714801Y-97328600D01*
X133905199Y-97328600D01*
X134081105Y-97255737D01*
X134215737Y-97121105D01*
X134288600Y-96945199D01*
X134288600Y-96754801D01*
X134215737Y-96578895D01*
X134081105Y-96444263D01*
X133961694Y-96394801D01*
X134381400Y-96394801D01*
X134381400Y-96585199D01*
X134454263Y-96761105D01*
X134588895Y-96895737D01*
X134764801Y-96968600D01*
X134955199Y-96968600D01*
X135131105Y-96895737D01*
X135265737Y-96761105D01*
X135338600Y-96585199D01*
X135338600Y-96394801D01*
X135280610Y-96254801D01*
X140601400Y-96254801D01*
X140601400Y-96445199D01*
X140674263Y-96621105D01*
X140808895Y-96755737D01*
X140984801Y-96828600D01*
X141175199Y-96828600D01*
X141351105Y-96755737D01*
X141485737Y-96621105D01*
X141558600Y-96445199D01*
X141558600Y-96254801D01*
X141485737Y-96078895D01*
X141351105Y-95944263D01*
X141175199Y-95871400D01*
X140984801Y-95871400D01*
X140808895Y-95944263D01*
X140674263Y-96078895D01*
X140601400Y-96254801D01*
X135280610Y-96254801D01*
X135265737Y-96218895D01*
X135131105Y-96084263D01*
X134955199Y-96011400D01*
X134764801Y-96011400D01*
X134588895Y-96084263D01*
X134454263Y-96218895D01*
X134381400Y-96394801D01*
X133961694Y-96394801D01*
X133905199Y-96371400D01*
X133714801Y-96371400D01*
X133538895Y-96444263D01*
X133404263Y-96578895D01*
X133331400Y-96754801D01*
X131104156Y-96754801D01*
X130963600Y-96614246D01*
X130963600Y-95494801D01*
X141861400Y-95494801D01*
X141861400Y-95685199D01*
X141934263Y-95861105D01*
X142068895Y-95995737D01*
X142244801Y-96068600D01*
X142435199Y-96068600D01*
X142611105Y-95995737D01*
X142745737Y-95861105D01*
X142818600Y-95685199D01*
X142818600Y-95494801D01*
X142745737Y-95318895D01*
X142611105Y-95184263D01*
X142435199Y-95111400D01*
X142244801Y-95111400D01*
X142068895Y-95184263D01*
X141934263Y-95318895D01*
X141861400Y-95494801D01*
X130963600Y-95494801D01*
X130963600Y-94229801D01*
X135371400Y-94229801D01*
X135371400Y-94420199D01*
X135444263Y-94596105D01*
X135578895Y-94730737D01*
X135754801Y-94803600D01*
X135945199Y-94803600D01*
X136121105Y-94730737D01*
X136255737Y-94596105D01*
X136328600Y-94420199D01*
X136328600Y-94229801D01*
X136255737Y-94053895D01*
X136121105Y-93919263D01*
X136110333Y-93914801D01*
X140631400Y-93914801D01*
X140631400Y-94105199D01*
X140704263Y-94281105D01*
X140838895Y-94415737D01*
X141014801Y-94488600D01*
X141205199Y-94488600D01*
X141381105Y-94415737D01*
X141515737Y-94281105D01*
X141588600Y-94105199D01*
X141588600Y-93914801D01*
X141515737Y-93738895D01*
X141381105Y-93604263D01*
X141205199Y-93531400D01*
X141014801Y-93531400D01*
X140838895Y-93604263D01*
X140704263Y-93738895D01*
X140631400Y-93914801D01*
X136110333Y-93914801D01*
X135945199Y-93846400D01*
X135754801Y-93846400D01*
X135578895Y-93919263D01*
X135444263Y-94053895D01*
X135371400Y-94229801D01*
X130963600Y-94229801D01*
X130963600Y-92439897D01*
X130969547Y-92410000D01*
X130945984Y-92291542D01*
X130945984Y-92291541D01*
X130878883Y-92191117D01*
X130853535Y-92174180D01*
X130824156Y-92144801D01*
X132921400Y-92144801D01*
X132921400Y-92335199D01*
X132994263Y-92511105D01*
X133128895Y-92645737D01*
X133304801Y-92718600D01*
X133495199Y-92718600D01*
X133649222Y-92654801D01*
X134921400Y-92654801D01*
X134921400Y-92845199D01*
X134994263Y-93021105D01*
X135128895Y-93155737D01*
X135304801Y-93228600D01*
X135495199Y-93228600D01*
X135671105Y-93155737D01*
X135805737Y-93021105D01*
X135878600Y-92845199D01*
X135878600Y-92654801D01*
X135805737Y-92478895D01*
X135671105Y-92344263D01*
X135495199Y-92271400D01*
X135304801Y-92271400D01*
X135128895Y-92344263D01*
X134994263Y-92478895D01*
X134921400Y-92654801D01*
X133649222Y-92654801D01*
X133671105Y-92645737D01*
X133805737Y-92511105D01*
X133878600Y-92335199D01*
X133878600Y-92144801D01*
X133805737Y-91968895D01*
X133671105Y-91834263D01*
X133495199Y-91761400D01*
X133304801Y-91761400D01*
X133128895Y-91834263D01*
X132994263Y-91968895D01*
X132921400Y-92144801D01*
X130824156Y-92144801D01*
X130254156Y-91574801D01*
X134951400Y-91574801D01*
X134951400Y-91765199D01*
X135024263Y-91941105D01*
X135158895Y-92075737D01*
X135334801Y-92148600D01*
X135525199Y-92148600D01*
X135701105Y-92075737D01*
X135835737Y-91941105D01*
X135908600Y-91765199D01*
X135908600Y-91574801D01*
X135835737Y-91398895D01*
X135701105Y-91264263D01*
X135525199Y-91191400D01*
X135334801Y-91191400D01*
X135158895Y-91264263D01*
X135024263Y-91398895D01*
X134951400Y-91574801D01*
X130254156Y-91574801D01*
X130095822Y-91416468D01*
X130078883Y-91391117D01*
X130035308Y-91362001D01*
X130025737Y-91338895D01*
X129891105Y-91204263D01*
X129768794Y-91153600D01*
X136495348Y-91153600D01*
X136348895Y-91214263D01*
X136214263Y-91348895D01*
X136141400Y-91524801D01*
X136141400Y-91715199D01*
X136214263Y-91891105D01*
X136348895Y-92025737D01*
X136524801Y-92098600D01*
X136715199Y-92098600D01*
X136891105Y-92025737D01*
X137025737Y-91891105D01*
X137098600Y-91715199D01*
X137098600Y-91524801D01*
X137025737Y-91348895D01*
X136891105Y-91214263D01*
X136744652Y-91153600D01*
X139362419Y-91153600D01*
X139203895Y-91219263D01*
X139069263Y-91353895D01*
X138996400Y-91529801D01*
X138996400Y-91720199D01*
X139069263Y-91896105D01*
X139203895Y-92030737D01*
X139379801Y-92103600D01*
X139570199Y-92103600D01*
X139746105Y-92030737D01*
X139775000Y-92001842D01*
X139828895Y-92055737D01*
X140004801Y-92128600D01*
X140192608Y-92128600D01*
X140171400Y-92179801D01*
X140171400Y-92370199D01*
X140244263Y-92546105D01*
X140378895Y-92680737D01*
X140554801Y-92753600D01*
X140745199Y-92753600D01*
X140921105Y-92680737D01*
X141055737Y-92546105D01*
X141117542Y-92396896D01*
X144796400Y-96075755D01*
X144796401Y-96845098D01*
X144790453Y-96875000D01*
X144814016Y-96993458D01*
X144814017Y-96993459D01*
X144881118Y-97093883D01*
X144906466Y-97110820D01*
X145666891Y-97871245D01*
X145538895Y-97924263D01*
X145404263Y-98058895D01*
X145331400Y-98234801D01*
X145331400Y-98425199D01*
X145404263Y-98601105D01*
X145538895Y-98735737D01*
X145584542Y-98754645D01*
X145488895Y-98794263D01*
X145386758Y-98896400D01*
X145065755Y-98896400D01*
X144708600Y-98539246D01*
X144708600Y-98394801D01*
X144635737Y-98218895D01*
X144501105Y-98084263D01*
X144325199Y-98011400D01*
X144134801Y-98011400D01*
X143958895Y-98084263D01*
X143824263Y-98218895D01*
X143751400Y-98394801D01*
X143751400Y-98585199D01*
X143824263Y-98761105D01*
X143958895Y-98895737D01*
X144134801Y-98968600D01*
X144279246Y-98968600D01*
X144704180Y-99393535D01*
X144721117Y-99418883D01*
X144821541Y-99485984D01*
X144910102Y-99503600D01*
X144910103Y-99503600D01*
X144940000Y-99509547D01*
X144969897Y-99503600D01*
X145386758Y-99503600D01*
X145488895Y-99605737D01*
X145664801Y-99678600D01*
X145855199Y-99678600D01*
X146031105Y-99605737D01*
X146165737Y-99471105D01*
X146238600Y-99295199D01*
X146238600Y-99104801D01*
X146165737Y-98928895D01*
X146031105Y-98794263D01*
X145985458Y-98775355D01*
X146081105Y-98735737D01*
X146215737Y-98601105D01*
X146268755Y-98473109D01*
X148217045Y-100421400D01*
X148204801Y-100421400D01*
X148028895Y-100494263D01*
X147894263Y-100628895D01*
X147821400Y-100804801D01*
X147821400Y-100995199D01*
X147894263Y-101171105D01*
X148028895Y-101305737D01*
X148204801Y-101378600D01*
X148395199Y-101378600D01*
X148571105Y-101305737D01*
X148705737Y-101171105D01*
X148778600Y-100995199D01*
X148778600Y-100982955D01*
X149865487Y-102069842D01*
X149882424Y-102095190D01*
X149974244Y-102156542D01*
X149982848Y-102162291D01*
X150039840Y-102173628D01*
X150167566Y-102364783D01*
X150535217Y-102732434D01*
X150805302Y-102912899D01*
X151231456Y-102997667D01*
X151657611Y-102912899D01*
X152018888Y-102671502D01*
X152260285Y-102310225D01*
X152345053Y-101884070D01*
X152260285Y-101457916D01*
X152079820Y-101187831D01*
X151712169Y-100820180D01*
X151442084Y-100639715D01*
X151015930Y-100554947D01*
X150589776Y-100639715D01*
X150228499Y-100881113D01*
X149987101Y-101242390D01*
X149972110Y-101317755D01*
X148526848Y-99872493D01*
X151698384Y-99872493D01*
X151783152Y-100298647D01*
X151963617Y-100568732D01*
X152331268Y-100936383D01*
X152601353Y-101116848D01*
X153027507Y-101201616D01*
X153453662Y-101116848D01*
X153814939Y-100875451D01*
X154056336Y-100514174D01*
X154141104Y-100088019D01*
X154056336Y-99661865D01*
X153875871Y-99391780D01*
X153508220Y-99024129D01*
X153238135Y-98843664D01*
X152811981Y-98758896D01*
X152385827Y-98843664D01*
X152024550Y-99085062D01*
X151783152Y-99446339D01*
X151698384Y-99872493D01*
X148526848Y-99872493D01*
X146359156Y-97704801D01*
X150221400Y-97704801D01*
X150221400Y-97895199D01*
X150294263Y-98071105D01*
X150428895Y-98205737D01*
X150604801Y-98278600D01*
X150795199Y-98278600D01*
X150971105Y-98205737D01*
X151105737Y-98071105D01*
X151178600Y-97895199D01*
X151178600Y-97704801D01*
X151105737Y-97528895D01*
X150971105Y-97394263D01*
X150795199Y-97321400D01*
X150604801Y-97321400D01*
X150428895Y-97394263D01*
X150294263Y-97528895D01*
X150221400Y-97704801D01*
X146359156Y-97704801D01*
X145403600Y-96749246D01*
X145403600Y-96479801D01*
X146621400Y-96479801D01*
X146621400Y-96670199D01*
X146694263Y-96846105D01*
X146828895Y-96980737D01*
X147004801Y-97053600D01*
X147195199Y-97053600D01*
X147371105Y-96980737D01*
X147505737Y-96846105D01*
X147578600Y-96670199D01*
X147578600Y-96479801D01*
X147505737Y-96303895D01*
X147371105Y-96169263D01*
X147195199Y-96096400D01*
X147004801Y-96096400D01*
X146828895Y-96169263D01*
X146694263Y-96303895D01*
X146621400Y-96479801D01*
X145403600Y-96479801D01*
X145403600Y-96004801D01*
X151121400Y-96004801D01*
X151121400Y-96195199D01*
X151194263Y-96371105D01*
X151328895Y-96505737D01*
X151504801Y-96578600D01*
X151695199Y-96578600D01*
X151871105Y-96505737D01*
X152005737Y-96371105D01*
X152078600Y-96195199D01*
X152078600Y-96004801D01*
X152005737Y-95828895D01*
X151871105Y-95694263D01*
X151695199Y-95621400D01*
X151504801Y-95621400D01*
X151328895Y-95694263D01*
X151194263Y-95828895D01*
X151121400Y-96004801D01*
X145403600Y-96004801D01*
X145403600Y-95979896D01*
X145409547Y-95949999D01*
X145385984Y-95831541D01*
X145364694Y-95799678D01*
X145318883Y-95731117D01*
X145293536Y-95714181D01*
X141181815Y-91602461D01*
X141160632Y-91573166D01*
X141113983Y-91544435D01*
X141068458Y-91514016D01*
X141062749Y-91512880D01*
X141057793Y-91509828D01*
X141019035Y-91503600D01*
X147780836Y-91503600D01*
X153718721Y-97441485D01*
X153579203Y-97650288D01*
X153494435Y-98076442D01*
X153579203Y-98502596D01*
X153759668Y-98772681D01*
X154127319Y-99140332D01*
X154397404Y-99320797D01*
X154823558Y-99405565D01*
X155249713Y-99320797D01*
X155610990Y-99079400D01*
X155852387Y-98718123D01*
X155937155Y-98291968D01*
X155852387Y-97865814D01*
X155671922Y-97595729D01*
X155304271Y-97228078D01*
X155034186Y-97047613D01*
X154608032Y-96962845D01*
X154183279Y-97047334D01*
X153416336Y-96280391D01*
X155290486Y-96280391D01*
X155375254Y-96706545D01*
X155555719Y-96976630D01*
X155923370Y-97344281D01*
X156193455Y-97524746D01*
X156619609Y-97609514D01*
X157045764Y-97524746D01*
X157407041Y-97283349D01*
X157648438Y-96922072D01*
X157733206Y-96495917D01*
X157648438Y-96069763D01*
X157467973Y-95799678D01*
X157100322Y-95432027D01*
X156830237Y-95251562D01*
X156404083Y-95166794D01*
X155977929Y-95251562D01*
X155616652Y-95492960D01*
X155375254Y-95854237D01*
X155290486Y-96280391D01*
X153416336Y-96280391D01*
X152040746Y-94904801D01*
X152721400Y-94904801D01*
X152721400Y-95095199D01*
X152794263Y-95271105D01*
X152928895Y-95405737D01*
X153104801Y-95478600D01*
X153295199Y-95478600D01*
X153471105Y-95405737D01*
X153605737Y-95271105D01*
X153678600Y-95095199D01*
X153678600Y-94904801D01*
X153605737Y-94728895D01*
X153471105Y-94594263D01*
X153295199Y-94521400D01*
X153104801Y-94521400D01*
X152928895Y-94594263D01*
X152794263Y-94728895D01*
X152721400Y-94904801D01*
X152040746Y-94904801D01*
X151080746Y-93944801D01*
X152651400Y-93944801D01*
X152651400Y-94135199D01*
X152724263Y-94311105D01*
X152858895Y-94445737D01*
X153034801Y-94518600D01*
X153225199Y-94518600D01*
X153401105Y-94445737D01*
X153535737Y-94311105D01*
X153608600Y-94135199D01*
X153608600Y-93944801D01*
X153535737Y-93768895D01*
X153401105Y-93634263D01*
X153225199Y-93561400D01*
X153034801Y-93561400D01*
X152858895Y-93634263D01*
X152724263Y-93768895D01*
X152651400Y-93944801D01*
X151080746Y-93944801D01*
X150465746Y-93329801D01*
X154721400Y-93329801D01*
X154721400Y-93520199D01*
X154794263Y-93696105D01*
X154928895Y-93830737D01*
X155104801Y-93903600D01*
X155295199Y-93903600D01*
X155471105Y-93830737D01*
X155605737Y-93696105D01*
X155678600Y-93520199D01*
X155678600Y-93329801D01*
X155605737Y-93153895D01*
X155471105Y-93019263D01*
X155295199Y-92946400D01*
X155104801Y-92946400D01*
X154928895Y-93019263D01*
X154794263Y-93153895D01*
X154721400Y-93329801D01*
X150465746Y-93329801D01*
X148142412Y-91006468D01*
X148125473Y-90981117D01*
X148025049Y-90914016D01*
X147936488Y-90896400D01*
X147936487Y-90896400D01*
X147906590Y-90890453D01*
X147876693Y-90896400D01*
X142482954Y-90896400D01*
X143525755Y-89853600D01*
X143670199Y-89853600D01*
X143846105Y-89780737D01*
X143980737Y-89646105D01*
X144053600Y-89470199D01*
X144053600Y-89454801D01*
X150451400Y-89454801D01*
X150451400Y-89645199D01*
X150524263Y-89821105D01*
X150658895Y-89955737D01*
X150834801Y-90028600D01*
X151025199Y-90028600D01*
X151201105Y-89955737D01*
X151335737Y-89821105D01*
X151408600Y-89645199D01*
X151408600Y-89454801D01*
X151335737Y-89278895D01*
X151311643Y-89254801D01*
X152421400Y-89254801D01*
X152421400Y-89445199D01*
X152494263Y-89621105D01*
X152628895Y-89755737D01*
X152804801Y-89828600D01*
X152921400Y-89828600D01*
X152921400Y-89895199D01*
X152994263Y-90071105D01*
X153128895Y-90205737D01*
X153304801Y-90278600D01*
X153495199Y-90278600D01*
X153671105Y-90205737D01*
X153805737Y-90071105D01*
X153878600Y-89895199D01*
X153878600Y-89750754D01*
X155614553Y-88014801D01*
X155791400Y-88014801D01*
X155791400Y-88205199D01*
X155864263Y-88381105D01*
X155998895Y-88515737D01*
X156174801Y-88588600D01*
X156319246Y-88588600D01*
X158279298Y-90548653D01*
X158279299Y-93386489D01*
X158200135Y-93370742D01*
X157773981Y-93455510D01*
X157412704Y-93696908D01*
X157171306Y-94058185D01*
X157086538Y-94484339D01*
X157171306Y-94910493D01*
X157351771Y-95180578D01*
X157719422Y-95548229D01*
X157989507Y-95728694D01*
X158415661Y-95813462D01*
X158841816Y-95728694D01*
X159203093Y-95487297D01*
X159444490Y-95126020D01*
X159529258Y-94699865D01*
X159444490Y-94273711D01*
X159264025Y-94003626D01*
X158896374Y-93635975D01*
X158886498Y-93629376D01*
X158886498Y-92707940D01*
X158967357Y-93114442D01*
X159147822Y-93384527D01*
X159515473Y-93752178D01*
X159785558Y-93932643D01*
X160211712Y-94017411D01*
X160637867Y-93932643D01*
X160999144Y-93691246D01*
X161240541Y-93329969D01*
X161325309Y-92903814D01*
X161240541Y-92477660D01*
X161060076Y-92207575D01*
X160692425Y-91839924D01*
X160422340Y-91659459D01*
X159996186Y-91574691D01*
X159570032Y-91659459D01*
X159208755Y-91900857D01*
X158967357Y-92262134D01*
X158886498Y-92668636D01*
X158886498Y-90892237D01*
X160337844Y-90892237D01*
X160355586Y-90981432D01*
X160406111Y-91057048D01*
X161842952Y-92493889D01*
X161918568Y-92544414D01*
X162007763Y-92562156D01*
X162096958Y-92544414D01*
X162172574Y-92493889D01*
X163393889Y-91272574D01*
X163444414Y-91196958D01*
X163462156Y-91107763D01*
X163444414Y-91018568D01*
X163393889Y-90942952D01*
X161957048Y-89506111D01*
X161881432Y-89455586D01*
X161792237Y-89437844D01*
X161703042Y-89455586D01*
X161627426Y-89506111D01*
X160406111Y-90727426D01*
X160355586Y-90803042D01*
X160337844Y-90892237D01*
X158886498Y-90892237D01*
X158886498Y-90452795D01*
X158892445Y-90422898D01*
X158886498Y-90393000D01*
X158868882Y-90304439D01*
X158801781Y-90204015D01*
X158776434Y-90187079D01*
X156748600Y-88159246D01*
X156748600Y-88014801D01*
X156675737Y-87838895D01*
X156541105Y-87704263D01*
X156365199Y-87631400D01*
X156174801Y-87631400D01*
X155998895Y-87704263D01*
X155864263Y-87838895D01*
X155791400Y-88014801D01*
X155614553Y-88014801D01*
X156418537Y-87210818D01*
X156443884Y-87193882D01*
X156510985Y-87093458D01*
X156528601Y-87004897D01*
X156528601Y-87004896D01*
X156534548Y-86974999D01*
X156528601Y-86945102D01*
X156528601Y-86754801D01*
X158071400Y-86754801D01*
X158071400Y-86945199D01*
X158144263Y-87121105D01*
X158278895Y-87255737D01*
X158454801Y-87328600D01*
X158645199Y-87328600D01*
X158821105Y-87255737D01*
X158955737Y-87121105D01*
X159028600Y-86945199D01*
X159028600Y-86754801D01*
X158955737Y-86578895D01*
X158821105Y-86444263D01*
X158645199Y-86371400D01*
X158454801Y-86371400D01*
X158278895Y-86444263D01*
X158144263Y-86578895D01*
X158071400Y-86754801D01*
X156528601Y-86754801D01*
X156528601Y-85334801D01*
X158051400Y-85334801D01*
X158051400Y-85525199D01*
X158124263Y-85701105D01*
X158258895Y-85835737D01*
X158434801Y-85908600D01*
X158625199Y-85908600D01*
X158801105Y-85835737D01*
X158935737Y-85701105D01*
X158942490Y-85684801D01*
X160321400Y-85684801D01*
X160321400Y-85875199D01*
X160394263Y-86051105D01*
X160528895Y-86185737D01*
X160704801Y-86258600D01*
X160895199Y-86258600D01*
X161071105Y-86185737D01*
X161205737Y-86051105D01*
X161278600Y-85875199D01*
X161278600Y-85684801D01*
X161205737Y-85508895D01*
X161071105Y-85374263D01*
X160895199Y-85301400D01*
X160704801Y-85301400D01*
X160528895Y-85374263D01*
X160394263Y-85508895D01*
X160321400Y-85684801D01*
X158942490Y-85684801D01*
X159008600Y-85525199D01*
X159008600Y-85334801D01*
X158935737Y-85158895D01*
X158801105Y-85024263D01*
X158625199Y-84951400D01*
X158434801Y-84951400D01*
X158258895Y-85024263D01*
X158124263Y-85158895D01*
X158051400Y-85334801D01*
X156528601Y-85334801D01*
X156528601Y-81754894D01*
X156534547Y-81725000D01*
X156528601Y-81695106D01*
X156528601Y-81695103D01*
X156510985Y-81606542D01*
X156478600Y-81558074D01*
X156478600Y-81404801D01*
X156405737Y-81228895D01*
X156281643Y-81104801D01*
X163821400Y-81104801D01*
X163821400Y-81295199D01*
X163894263Y-81471105D01*
X164028895Y-81605737D01*
X164204801Y-81678600D01*
X164395199Y-81678600D01*
X164571105Y-81605737D01*
X164705737Y-81471105D01*
X164778600Y-81295199D01*
X164778600Y-81104801D01*
X164705737Y-80928895D01*
X164571105Y-80794263D01*
X164395199Y-80721400D01*
X164204801Y-80721400D01*
X164028895Y-80794263D01*
X163894263Y-80928895D01*
X163821400Y-81104801D01*
X156281643Y-81104801D01*
X156271105Y-81094263D01*
X156095199Y-81021400D01*
X155904801Y-81021400D01*
X155728895Y-81094263D01*
X155594263Y-81228895D01*
X155521400Y-81404801D01*
X155521400Y-81595199D01*
X155594263Y-81771105D01*
X155728895Y-81905737D01*
X155904801Y-81978600D01*
X155921402Y-81978600D01*
X155921402Y-82732254D01*
X155895199Y-82721400D01*
X155704801Y-82721400D01*
X155528895Y-82794263D01*
X155394263Y-82928895D01*
X155321400Y-83104801D01*
X155321400Y-83249245D01*
X152706466Y-85864180D01*
X152681118Y-85881117D01*
X152643339Y-85937657D01*
X152614016Y-85981542D01*
X152590453Y-86100000D01*
X152596401Y-86129902D01*
X152596400Y-88976758D01*
X152494263Y-89078895D01*
X152421400Y-89254801D01*
X151311643Y-89254801D01*
X151201105Y-89144263D01*
X151025199Y-89071400D01*
X150834801Y-89071400D01*
X150658895Y-89144263D01*
X150524263Y-89278895D01*
X150451400Y-89454801D01*
X144053600Y-89454801D01*
X144053600Y-89279801D01*
X143980737Y-89103895D01*
X143846105Y-88969263D01*
X143670199Y-88896400D01*
X143607955Y-88896400D01*
X143675755Y-88828600D01*
X143820199Y-88828600D01*
X143996105Y-88755737D01*
X144130737Y-88621105D01*
X144203600Y-88445199D01*
X144203600Y-88304801D01*
X150621400Y-88304801D01*
X150621400Y-88495199D01*
X150694263Y-88671105D01*
X150828895Y-88805737D01*
X151004801Y-88878600D01*
X151195199Y-88878600D01*
X151371105Y-88805737D01*
X151505737Y-88671105D01*
X151578600Y-88495199D01*
X151578600Y-88304801D01*
X151505737Y-88128895D01*
X151371105Y-87994263D01*
X151195199Y-87921400D01*
X151004801Y-87921400D01*
X150828895Y-87994263D01*
X150694263Y-88128895D01*
X150621400Y-88304801D01*
X144203600Y-88304801D01*
X144203600Y-88254801D01*
X144130737Y-88078895D01*
X143996105Y-87944263D01*
X143820199Y-87871400D01*
X143629801Y-87871400D01*
X143453895Y-87944263D01*
X143319263Y-88078895D01*
X143300888Y-88123255D01*
X143268705Y-88045556D01*
X144178947Y-86376780D01*
X146558379Y-86376780D01*
X146558379Y-86567178D01*
X146631242Y-86743084D01*
X146765874Y-86877716D01*
X146941780Y-86950579D01*
X147132178Y-86950579D01*
X147308084Y-86877716D01*
X147442716Y-86743084D01*
X147515579Y-86567178D01*
X147515579Y-86376780D01*
X147442716Y-86200874D01*
X147376643Y-86134801D01*
X148461400Y-86134801D01*
X148461400Y-86325199D01*
X148534263Y-86501105D01*
X148668895Y-86635737D01*
X148844801Y-86708600D01*
X149035199Y-86708600D01*
X149211105Y-86635737D01*
X149345737Y-86501105D01*
X149418600Y-86325199D01*
X149418600Y-86134801D01*
X149345737Y-85958895D01*
X149211105Y-85824263D01*
X149035199Y-85751400D01*
X148844801Y-85751400D01*
X148668895Y-85824263D01*
X148534263Y-85958895D01*
X148461400Y-86134801D01*
X147376643Y-86134801D01*
X147308084Y-86066242D01*
X147132178Y-85993379D01*
X146941780Y-85993379D01*
X146765874Y-86066242D01*
X146631242Y-86200874D01*
X146558379Y-86376780D01*
X144178947Y-86376780D01*
X144284389Y-86183470D01*
X144309964Y-86145890D01*
X144319216Y-86101362D01*
X144332788Y-86057950D01*
X144328716Y-86012670D01*
X144336660Y-85079801D01*
X146221400Y-85079801D01*
X146221400Y-85270199D01*
X146294263Y-85446105D01*
X146428895Y-85580737D01*
X146604801Y-85653600D01*
X146795199Y-85653600D01*
X146971105Y-85580737D01*
X146975000Y-85576842D01*
X147028895Y-85630737D01*
X147204801Y-85703600D01*
X147395199Y-85703600D01*
X147571105Y-85630737D01*
X147705737Y-85496105D01*
X147778600Y-85320199D01*
X147778600Y-85129801D01*
X147705737Y-84953895D01*
X147571105Y-84819263D01*
X147395199Y-84746400D01*
X147204801Y-84746400D01*
X147028895Y-84819263D01*
X147025000Y-84823158D01*
X146971105Y-84769263D01*
X146795199Y-84696400D01*
X146604801Y-84696400D01*
X146428895Y-84769263D01*
X146294263Y-84903895D01*
X146221400Y-85079801D01*
X144336660Y-85079801D01*
X144360120Y-82324801D01*
X146841400Y-82324801D01*
X146841400Y-82515199D01*
X146914263Y-82691105D01*
X147048895Y-82825737D01*
X147224801Y-82898600D01*
X147369246Y-82898600D01*
X150064180Y-85593535D01*
X150081117Y-85618883D01*
X150179771Y-85684801D01*
X150181541Y-85685984D01*
X150299999Y-85709547D01*
X150329896Y-85703600D01*
X150536758Y-85703600D01*
X150638895Y-85805737D01*
X150814801Y-85878600D01*
X151005199Y-85878600D01*
X151031402Y-85867746D01*
X151031402Y-86121400D01*
X151004801Y-86121400D01*
X150828895Y-86194263D01*
X150694263Y-86328895D01*
X150621400Y-86504801D01*
X150621400Y-86695199D01*
X150694263Y-86871105D01*
X150828895Y-87005737D01*
X151004801Y-87078600D01*
X151088111Y-87078600D01*
X151081400Y-87094801D01*
X151081400Y-87285199D01*
X151154263Y-87461105D01*
X151288895Y-87595737D01*
X151464801Y-87668600D01*
X151655199Y-87668600D01*
X151796400Y-87610112D01*
X151796400Y-88126758D01*
X151694263Y-88228895D01*
X151621400Y-88404801D01*
X151621400Y-88595199D01*
X151694263Y-88771105D01*
X151828895Y-88905737D01*
X152004801Y-88978600D01*
X152195199Y-88978600D01*
X152371105Y-88905737D01*
X152505737Y-88771105D01*
X152578600Y-88595199D01*
X152578600Y-88404801D01*
X152505737Y-88228895D01*
X152403600Y-88126758D01*
X152403600Y-84225754D01*
X154250755Y-82378600D01*
X154395199Y-82378600D01*
X154571105Y-82305737D01*
X154705737Y-82171105D01*
X154778600Y-81995199D01*
X154778600Y-81804801D01*
X154705737Y-81628895D01*
X154571105Y-81494263D01*
X154395199Y-81421400D01*
X154204801Y-81421400D01*
X154028895Y-81494263D01*
X153894263Y-81628895D01*
X153821400Y-81804801D01*
X153821400Y-81949245D01*
X151906466Y-83864180D01*
X151881118Y-83881117D01*
X151864182Y-83906464D01*
X151814016Y-83981542D01*
X151790453Y-84100000D01*
X151796401Y-84129902D01*
X151796400Y-86769888D01*
X151655199Y-86711400D01*
X151571889Y-86711400D01*
X151578600Y-86695199D01*
X151578600Y-86546892D01*
X151620985Y-86483458D01*
X151638601Y-86394897D01*
X151638601Y-86394896D01*
X151644548Y-86364999D01*
X151638601Y-86335102D01*
X151638601Y-84064894D01*
X151644547Y-84035000D01*
X151638601Y-84005104D01*
X151638601Y-84005103D01*
X151620985Y-83916542D01*
X151553884Y-83816118D01*
X151528537Y-83799182D01*
X150778600Y-83049246D01*
X150778600Y-82904801D01*
X150705737Y-82728895D01*
X150571105Y-82594263D01*
X150395199Y-82521400D01*
X150204801Y-82521400D01*
X150028895Y-82594263D01*
X149894263Y-82728895D01*
X149821400Y-82904801D01*
X149821400Y-83095199D01*
X149894263Y-83271105D01*
X150028895Y-83405737D01*
X150204801Y-83478600D01*
X150349246Y-83478600D01*
X151031401Y-84160756D01*
X151031401Y-84932253D01*
X151005199Y-84921400D01*
X150814801Y-84921400D01*
X150638895Y-84994263D01*
X150536758Y-85096400D01*
X150425755Y-85096400D01*
X147798600Y-82469246D01*
X147798600Y-82324801D01*
X147725737Y-82148895D01*
X147591105Y-82014263D01*
X147415199Y-81941400D01*
X147224801Y-81941400D01*
X147048895Y-82014263D01*
X146914263Y-82148895D01*
X146841400Y-82324801D01*
X144360120Y-82324801D01*
X144381580Y-79804801D01*
X146221400Y-79804801D01*
X146221400Y-79995199D01*
X146294263Y-80171105D01*
X146428895Y-80305737D01*
X146604801Y-80378600D01*
X146795199Y-80378600D01*
X146971105Y-80305737D01*
X147105737Y-80171105D01*
X147152950Y-80057123D01*
X147204801Y-80078600D01*
X147395199Y-80078600D01*
X147571105Y-80005737D01*
X147705737Y-79871105D01*
X147778600Y-79695199D01*
X147778600Y-79504801D01*
X147705737Y-79328895D01*
X147571105Y-79194263D01*
X147395199Y-79121400D01*
X147204801Y-79121400D01*
X147028895Y-79194263D01*
X146894263Y-79328895D01*
X146847050Y-79442877D01*
X146795199Y-79421400D01*
X146604801Y-79421400D01*
X146428895Y-79494263D01*
X146294263Y-79628895D01*
X146221400Y-79804801D01*
X144381580Y-79804801D01*
X144426884Y-74484801D01*
X144561400Y-74484801D01*
X144561400Y-74675199D01*
X144634263Y-74851105D01*
X144736401Y-74953243D01*
X144736400Y-78390103D01*
X144730453Y-78420000D01*
X144736400Y-78449897D01*
X144754016Y-78538458D01*
X144821117Y-78638883D01*
X144846467Y-78655822D01*
X145041400Y-78850755D01*
X145041400Y-78995199D01*
X145114263Y-79171105D01*
X145248895Y-79305737D01*
X145424801Y-79378600D01*
X145615199Y-79378600D01*
X145791105Y-79305737D01*
X145925737Y-79171105D01*
X145998600Y-78995199D01*
X145998600Y-78804801D01*
X145925737Y-78628895D01*
X145791105Y-78494263D01*
X145632581Y-78428600D01*
X145715199Y-78428600D01*
X145891105Y-78355737D01*
X146025737Y-78221105D01*
X146098600Y-78045199D01*
X146098600Y-77854801D01*
X146025737Y-77678895D01*
X145891105Y-77544263D01*
X145715199Y-77471400D01*
X145524801Y-77471400D01*
X145348895Y-77544263D01*
X145343600Y-77549558D01*
X145343600Y-74953242D01*
X145445737Y-74851105D01*
X145518600Y-74675199D01*
X145518600Y-74484801D01*
X145445737Y-74308895D01*
X145311105Y-74174263D01*
X145135199Y-74101400D01*
X144944801Y-74101400D01*
X144768895Y-74174263D01*
X144634263Y-74308895D01*
X144561400Y-74484801D01*
X144426884Y-74484801D01*
X144435485Y-73474801D01*
X144751400Y-73474801D01*
X144751400Y-73665199D01*
X144824263Y-73841105D01*
X144958895Y-73975737D01*
X145134801Y-74048600D01*
X145325199Y-74048600D01*
X145501105Y-73975737D01*
X145635737Y-73841105D01*
X145708600Y-73665199D01*
X145708600Y-73474801D01*
X145635737Y-73298895D01*
X145501105Y-73164263D01*
X145325199Y-73091400D01*
X145134801Y-73091400D01*
X144958895Y-73164263D01*
X144824263Y-73298895D01*
X144751400Y-73474801D01*
X144435485Y-73474801D01*
X144448854Y-71904801D01*
X146821400Y-71904801D01*
X146821400Y-72095199D01*
X146894263Y-72271105D01*
X147028895Y-72405737D01*
X147204801Y-72478600D01*
X147395199Y-72478600D01*
X147571105Y-72405737D01*
X147705737Y-72271105D01*
X147778600Y-72095199D01*
X147778600Y-71904801D01*
X147705737Y-71728895D01*
X147571105Y-71594263D01*
X147395199Y-71521400D01*
X147204801Y-71521400D01*
X147028895Y-71594263D01*
X146894263Y-71728895D01*
X146821400Y-71904801D01*
X144448854Y-71904801D01*
X144455240Y-71154801D01*
X148991400Y-71154801D01*
X148991400Y-71345199D01*
X149064263Y-71521105D01*
X149198895Y-71655737D01*
X149374801Y-71728600D01*
X149565199Y-71728600D01*
X149741105Y-71655737D01*
X149875737Y-71521105D01*
X149948600Y-71345199D01*
X149948600Y-71154801D01*
X149875737Y-70978895D01*
X149741105Y-70844263D01*
X149565199Y-70771400D01*
X149374801Y-70771400D01*
X149198895Y-70844263D01*
X149064263Y-70978895D01*
X148991400Y-71154801D01*
X144455240Y-71154801D01*
X144464971Y-70012160D01*
X148395523Y-70012160D01*
X148395523Y-70281956D01*
X148498770Y-70531216D01*
X148689545Y-70721991D01*
X148938805Y-70825238D01*
X149208601Y-70825238D01*
X149457861Y-70721991D01*
X149648636Y-70531216D01*
X149751883Y-70281956D01*
X149751883Y-70012160D01*
X149648636Y-69762900D01*
X149457861Y-69572125D01*
X149208601Y-69468878D01*
X148938805Y-69468878D01*
X148689545Y-69572125D01*
X148498770Y-69762900D01*
X148395523Y-70012160D01*
X144464971Y-70012160D01*
X144491463Y-66901399D01*
X145284762Y-66901399D01*
X145284762Y-67171195D01*
X145388009Y-67420455D01*
X145578784Y-67611230D01*
X145828044Y-67714477D01*
X146097840Y-67714477D01*
X146347100Y-67611230D01*
X146537875Y-67420455D01*
X146641122Y-67171195D01*
X146641122Y-66901399D01*
X146537875Y-66652139D01*
X146347100Y-66461364D01*
X146097840Y-66358117D01*
X145828044Y-66358117D01*
X145578784Y-66461364D01*
X145388009Y-66652139D01*
X145284762Y-66901399D01*
X144491463Y-66901399D01*
X144503345Y-65506180D01*
X144503600Y-65504898D01*
X144503600Y-65476224D01*
X144503843Y-65447689D01*
X144503600Y-65446411D01*
X144503600Y-64712988D01*
X144521105Y-64705737D01*
X144655737Y-64571105D01*
X144728600Y-64395199D01*
X144728600Y-64204801D01*
X144655737Y-64028895D01*
X144521105Y-63894263D01*
X144345199Y-63821400D01*
X144154801Y-63821400D01*
X143978895Y-63894263D01*
X143844263Y-64028895D01*
X143771400Y-64204801D01*
X143771400Y-64395199D01*
X143844263Y-64571105D01*
X143896401Y-64623243D01*
X143896400Y-65420102D01*
X143896400Y-65473754D01*
X143850723Y-70837501D01*
X143805737Y-70728895D01*
X143671105Y-70594263D01*
X143495199Y-70521400D01*
X143426326Y-70521400D01*
X143478600Y-70395199D01*
X143478600Y-70204801D01*
X143405737Y-70028895D01*
X143271105Y-69894263D01*
X143095199Y-69821400D01*
X142904801Y-69821400D01*
X142728895Y-69894263D01*
X142594263Y-70028895D01*
X142521400Y-70204801D01*
X142521400Y-70395199D01*
X142594263Y-70571105D01*
X142728895Y-70705737D01*
X142904801Y-70778600D01*
X142973674Y-70778600D01*
X142921400Y-70904801D01*
X142921400Y-71095199D01*
X142994263Y-71271105D01*
X143128895Y-71405737D01*
X143304801Y-71478600D01*
X143495199Y-71478600D01*
X143671105Y-71405737D01*
X143805737Y-71271105D01*
X143847898Y-71169321D01*
X143722059Y-85946375D01*
X142740228Y-87746400D01*
X142729801Y-87746400D01*
X142553895Y-87819263D01*
X142419263Y-87953895D01*
X142346400Y-88129801D01*
X142346400Y-88255348D01*
X142285737Y-88108895D01*
X142151105Y-87974263D01*
X141975199Y-87901400D01*
X141784801Y-87901400D01*
X141608895Y-87974263D01*
X141474263Y-88108895D01*
X141401400Y-88284801D01*
X141401400Y-88475199D01*
X141474263Y-88651105D01*
X141608895Y-88785737D01*
X141784801Y-88858600D01*
X141975199Y-88858600D01*
X142151105Y-88785737D01*
X142285737Y-88651105D01*
X142358600Y-88475199D01*
X142358600Y-88349652D01*
X142419263Y-88496105D01*
X142553895Y-88630737D01*
X142729801Y-88703600D01*
X142920199Y-88703600D01*
X142957493Y-88688152D01*
X142024246Y-89621400D01*
X140479893Y-89621400D01*
X140449999Y-89615454D01*
X140420105Y-89621400D01*
X140420102Y-89621400D01*
X140331541Y-89639016D01*
X140231117Y-89706117D01*
X140214181Y-89731464D01*
X139849246Y-90096400D01*
X130440442Y-90096400D01*
X130445737Y-90091105D01*
X130518600Y-89915199D01*
X130518600Y-89724801D01*
X130445737Y-89548895D01*
X130351643Y-89454801D01*
X132631400Y-89454801D01*
X132631400Y-89645199D01*
X132704263Y-89821105D01*
X132838895Y-89955737D01*
X133014801Y-90028600D01*
X133205199Y-90028600D01*
X133381105Y-89955737D01*
X133515737Y-89821105D01*
X133588600Y-89645199D01*
X133588600Y-89454801D01*
X133515737Y-89278895D01*
X133395076Y-89158234D01*
X133401105Y-89155737D01*
X133535737Y-89021105D01*
X133608600Y-88845199D01*
X133608600Y-88654801D01*
X133535737Y-88478895D01*
X133401105Y-88344263D01*
X133225199Y-88271400D01*
X133034801Y-88271400D01*
X132858895Y-88344263D01*
X132724263Y-88478895D01*
X132651400Y-88654801D01*
X132651400Y-88845199D01*
X132724263Y-89021105D01*
X132844924Y-89141766D01*
X132838895Y-89144263D01*
X132704263Y-89278895D01*
X132631400Y-89454801D01*
X130351643Y-89454801D01*
X130311105Y-89414263D01*
X130135199Y-89341400D01*
X129944801Y-89341400D01*
X129768895Y-89414263D01*
X129634263Y-89548895D01*
X129561400Y-89724801D01*
X129561400Y-89915199D01*
X129634263Y-90091105D01*
X129639558Y-90096400D01*
X128850442Y-90096400D01*
X128885737Y-90061105D01*
X128958600Y-89885199D01*
X128958600Y-89848600D01*
X129035199Y-89848600D01*
X129211105Y-89775737D01*
X129345737Y-89641105D01*
X129418600Y-89465199D01*
X129418600Y-89274801D01*
X129345737Y-89098895D01*
X129211105Y-88964263D01*
X129035199Y-88891400D01*
X128844801Y-88891400D01*
X128668895Y-88964263D01*
X128534263Y-89098895D01*
X128461400Y-89274801D01*
X128461400Y-89311400D01*
X128384801Y-89311400D01*
X128208895Y-89384263D01*
X128074263Y-89518895D01*
X128001400Y-89694801D01*
X128001400Y-89885199D01*
X128074263Y-90061105D01*
X128109558Y-90096400D01*
X126979510Y-90096400D01*
X126968459Y-90089016D01*
X126879898Y-90071400D01*
X126879897Y-90071400D01*
X126850000Y-90065453D01*
X126843573Y-90066731D01*
X126746105Y-89969263D01*
X126570199Y-89896400D01*
X126379801Y-89896400D01*
X126203895Y-89969263D01*
X126069263Y-90103895D01*
X125996400Y-90279801D01*
X125996400Y-90470199D01*
X126027964Y-90546400D01*
X122111487Y-90546400D01*
X122081590Y-90540453D01*
X122051693Y-90546400D01*
X122051692Y-90546400D01*
X121963131Y-90564016D01*
X121862707Y-90631117D01*
X121845771Y-90656464D01*
X121113556Y-91388679D01*
X120949713Y-91279203D01*
X120523558Y-91194435D01*
X120097404Y-91279203D01*
X119827319Y-91459668D01*
X119459668Y-91827319D01*
X119279203Y-92097404D01*
X119194435Y-92523558D01*
X117652913Y-92523558D01*
X115856862Y-90727507D01*
X117398384Y-90727507D01*
X117483152Y-91153661D01*
X117724550Y-91514938D01*
X118085827Y-91756336D01*
X118511981Y-91841104D01*
X118938135Y-91756336D01*
X119208220Y-91575871D01*
X119575871Y-91208220D01*
X119756336Y-90938135D01*
X119841104Y-90511981D01*
X119756336Y-90085826D01*
X119514939Y-89724549D01*
X119153662Y-89483152D01*
X118727507Y-89398384D01*
X118301353Y-89483152D01*
X118031268Y-89663617D01*
X117663617Y-90031268D01*
X117483152Y-90301353D01*
X117398384Y-90727507D01*
X115856862Y-90727507D01*
X115079799Y-89950445D01*
X115076200Y-89932352D01*
X115076200Y-88404801D01*
X129471400Y-88404801D01*
X129471400Y-88595199D01*
X129544263Y-88771105D01*
X129678895Y-88905737D01*
X129854801Y-88978600D01*
X130045199Y-88978600D01*
X130221105Y-88905737D01*
X130355737Y-88771105D01*
X130428600Y-88595199D01*
X130428600Y-88404801D01*
X130355737Y-88228895D01*
X130221105Y-88094263D01*
X130045199Y-88021400D01*
X129854801Y-88021400D01*
X129678895Y-88094263D01*
X129544263Y-88228895D01*
X129471400Y-88404801D01*
X115076200Y-88404801D01*
X115076200Y-87214801D01*
X121591400Y-87214801D01*
X121591400Y-87405199D01*
X121664263Y-87581105D01*
X121798895Y-87715737D01*
X121974801Y-87788600D01*
X122165199Y-87788600D01*
X122341105Y-87715737D01*
X122475737Y-87581105D01*
X122548600Y-87405199D01*
X122548600Y-87214801D01*
X122475737Y-87038895D01*
X122341105Y-86904263D01*
X122165199Y-86831400D01*
X121974801Y-86831400D01*
X121798895Y-86904263D01*
X121664263Y-87038895D01*
X121591400Y-87214801D01*
X115076200Y-87214801D01*
X115076200Y-86744801D01*
X126611400Y-86744801D01*
X126611400Y-86935199D01*
X126684263Y-87111105D01*
X126818895Y-87245737D01*
X126994801Y-87318600D01*
X127185199Y-87318600D01*
X127361105Y-87245737D01*
X127495737Y-87111105D01*
X127568600Y-86935199D01*
X127568600Y-86744801D01*
X127495737Y-86568895D01*
X127361105Y-86434263D01*
X127185199Y-86361400D01*
X126994801Y-86361400D01*
X126818895Y-86434263D01*
X126684263Y-86568895D01*
X126611400Y-86744801D01*
X115076200Y-86744801D01*
X115076200Y-84944801D01*
X117951400Y-84944801D01*
X117951400Y-85135199D01*
X118024263Y-85311105D01*
X118158895Y-85445737D01*
X118334801Y-85518600D01*
X118525199Y-85518600D01*
X118701105Y-85445737D01*
X118835737Y-85311105D01*
X118838348Y-85304801D01*
X121021400Y-85304801D01*
X121021400Y-85495199D01*
X121094263Y-85671105D01*
X121228895Y-85805737D01*
X121404801Y-85878600D01*
X121595199Y-85878600D01*
X121771105Y-85805737D01*
X121905737Y-85671105D01*
X121962196Y-85534801D01*
X128541400Y-85534801D01*
X128541400Y-85725199D01*
X128614263Y-85901105D01*
X128748895Y-86035737D01*
X128924801Y-86108600D01*
X129115199Y-86108600D01*
X129291105Y-86035737D01*
X129425737Y-85901105D01*
X129498600Y-85725199D01*
X129498600Y-85555442D01*
X129498895Y-85555737D01*
X129674801Y-85628600D01*
X129865199Y-85628600D01*
X130041105Y-85555737D01*
X130175737Y-85421105D01*
X130248600Y-85245199D01*
X130248600Y-85054801D01*
X130175737Y-84878895D01*
X130041105Y-84744263D01*
X129865199Y-84671400D01*
X129674801Y-84671400D01*
X129498895Y-84744263D01*
X129364263Y-84878895D01*
X129291400Y-85054801D01*
X129291400Y-85224558D01*
X129291105Y-85224263D01*
X129115199Y-85151400D01*
X128924801Y-85151400D01*
X128748895Y-85224263D01*
X128614263Y-85358895D01*
X128541400Y-85534801D01*
X121962196Y-85534801D01*
X121978600Y-85495199D01*
X121978600Y-85304801D01*
X121905737Y-85128895D01*
X121771105Y-84994263D01*
X121595199Y-84921400D01*
X121404801Y-84921400D01*
X121228895Y-84994263D01*
X121094263Y-85128895D01*
X121021400Y-85304801D01*
X118838348Y-85304801D01*
X118908600Y-85135199D01*
X118908600Y-84944801D01*
X118835737Y-84768895D01*
X118701105Y-84634263D01*
X118525199Y-84561400D01*
X118334801Y-84561400D01*
X118158895Y-84634263D01*
X118024263Y-84768895D01*
X117951400Y-84944801D01*
X115076200Y-84944801D01*
X115076200Y-84124801D01*
X125011400Y-84124801D01*
X125011400Y-84315199D01*
X125084263Y-84491105D01*
X125218895Y-84625737D01*
X125394801Y-84698600D01*
X125585199Y-84698600D01*
X125761105Y-84625737D01*
X125895737Y-84491105D01*
X125968600Y-84315199D01*
X125968600Y-84124801D01*
X125895737Y-83948895D01*
X125761105Y-83814263D01*
X125585199Y-83741400D01*
X125394801Y-83741400D01*
X125218895Y-83814263D01*
X125084263Y-83948895D01*
X125011400Y-84124801D01*
X115076200Y-84124801D01*
X115076200Y-82094801D01*
X122921400Y-82094801D01*
X122921400Y-82285199D01*
X122994263Y-82461105D01*
X123128895Y-82595737D01*
X123304801Y-82668600D01*
X123495199Y-82668600D01*
X123671105Y-82595737D01*
X123805737Y-82461105D01*
X123878600Y-82285199D01*
X123878600Y-82094801D01*
X123805737Y-81918895D01*
X123671105Y-81784263D01*
X123495199Y-81711400D01*
X123304801Y-81711400D01*
X123128895Y-81784263D01*
X122994263Y-81918895D01*
X122921400Y-82094801D01*
X115076200Y-82094801D01*
X115076200Y-80904801D01*
X115421400Y-80904801D01*
X115421400Y-81095199D01*
X115494263Y-81271105D01*
X115628895Y-81405737D01*
X115804801Y-81478600D01*
X115995199Y-81478600D01*
X116171105Y-81405737D01*
X116305737Y-81271105D01*
X116312490Y-81254801D01*
X126921400Y-81254801D01*
X126921400Y-81445199D01*
X126994263Y-81621105D01*
X127128895Y-81755737D01*
X127304801Y-81828600D01*
X127495199Y-81828600D01*
X127671105Y-81755737D01*
X127805737Y-81621105D01*
X127878600Y-81445199D01*
X127878600Y-81254801D01*
X127805737Y-81078895D01*
X127671105Y-80944263D01*
X127495199Y-80871400D01*
X127304801Y-80871400D01*
X127128895Y-80944263D01*
X126994263Y-81078895D01*
X126921400Y-81254801D01*
X116312490Y-81254801D01*
X116378600Y-81095199D01*
X116378600Y-80904801D01*
X116305737Y-80728895D01*
X116171105Y-80594263D01*
X115995199Y-80521400D01*
X115804801Y-80521400D01*
X115628895Y-80594263D01*
X115494263Y-80728895D01*
X115421400Y-80904801D01*
X115076200Y-80904801D01*
X115076200Y-80067648D01*
X115079799Y-80049555D01*
X115737117Y-79392237D01*
X116237844Y-79392237D01*
X116255586Y-79481432D01*
X116306111Y-79557048D01*
X117742952Y-80993889D01*
X117818568Y-81044414D01*
X117907763Y-81062156D01*
X117996958Y-81044414D01*
X118072574Y-80993889D01*
X119293889Y-79772574D01*
X119344414Y-79696958D01*
X119362156Y-79607763D01*
X119344414Y-79518568D01*
X119293889Y-79442952D01*
X118855738Y-79004801D01*
X128111400Y-79004801D01*
X128111400Y-79195199D01*
X128184263Y-79371105D01*
X128284968Y-79471810D01*
X128276494Y-81675186D01*
X128270674Y-81711579D01*
X128283221Y-81764186D01*
X128293563Y-81817243D01*
X128297177Y-81822697D01*
X128298695Y-81829062D01*
X128330407Y-81872845D01*
X128360277Y-81917924D01*
X128390842Y-81938517D01*
X132535706Y-85781400D01*
X132384801Y-85781400D01*
X132208895Y-85854263D01*
X132074263Y-85988895D01*
X132001400Y-86164801D01*
X132001400Y-86355199D01*
X132074263Y-86531105D01*
X132208895Y-86665737D01*
X132384801Y-86738600D01*
X132575199Y-86738600D01*
X132611400Y-86723605D01*
X132611400Y-86845199D01*
X132684263Y-87021105D01*
X132818895Y-87155737D01*
X132994801Y-87228600D01*
X133185199Y-87228600D01*
X133361105Y-87155737D01*
X133495737Y-87021105D01*
X133568600Y-86845199D01*
X133568600Y-86739040D01*
X133767404Y-86923360D01*
X133781117Y-86943883D01*
X133811272Y-86964032D01*
X133815510Y-86967961D01*
X133836087Y-86980613D01*
X133881541Y-87010984D01*
X133887369Y-87012143D01*
X133892430Y-87015255D01*
X133946394Y-87023884D01*
X133970102Y-87028600D01*
X133975885Y-87028600D01*
X134011694Y-87034326D01*
X134035701Y-87028600D01*
X136131589Y-87028600D01*
X136588428Y-87448893D01*
X136478895Y-87494263D01*
X136376758Y-87596400D01*
X132897887Y-87596400D01*
X132468600Y-87180785D01*
X132468600Y-87044801D01*
X132395737Y-86868895D01*
X132261105Y-86734263D01*
X132085199Y-86661400D01*
X131894801Y-86661400D01*
X131718895Y-86734263D01*
X131584263Y-86868895D01*
X131511400Y-87044801D01*
X131511400Y-87235199D01*
X131584263Y-87411105D01*
X131718895Y-87545737D01*
X131894801Y-87618600D01*
X132047870Y-87618600D01*
X132540559Y-88095599D01*
X132556117Y-88118883D01*
X132583524Y-88137196D01*
X132585304Y-88138919D01*
X132608359Y-88153790D01*
X132656541Y-88185984D01*
X132659042Y-88186482D01*
X132661184Y-88187863D01*
X132718156Y-88198240D01*
X132745102Y-88203600D01*
X132747583Y-88203600D01*
X132780008Y-88209506D01*
X132807378Y-88203600D01*
X135335348Y-88203600D01*
X135188895Y-88264263D01*
X135054263Y-88398895D01*
X134981400Y-88574801D01*
X134981400Y-88765199D01*
X135054263Y-88941105D01*
X135188895Y-89075737D01*
X135364801Y-89148600D01*
X135555199Y-89148600D01*
X135731105Y-89075737D01*
X135865737Y-88941105D01*
X135911840Y-88829801D01*
X136621400Y-88829801D01*
X136621400Y-89020199D01*
X136694263Y-89196105D01*
X136828895Y-89330737D01*
X137004801Y-89403600D01*
X137195199Y-89403600D01*
X137371105Y-89330737D01*
X137505737Y-89196105D01*
X137578600Y-89020199D01*
X137578600Y-88829801D01*
X137505737Y-88653895D01*
X137371105Y-88519263D01*
X137195199Y-88446400D01*
X137004801Y-88446400D01*
X136828895Y-88519263D01*
X136694263Y-88653895D01*
X136621400Y-88829801D01*
X135911840Y-88829801D01*
X135938600Y-88765199D01*
X135938600Y-88574801D01*
X135865737Y-88398895D01*
X135731105Y-88264263D01*
X135584652Y-88203600D01*
X136376758Y-88203600D01*
X136478895Y-88305737D01*
X136654801Y-88378600D01*
X136845199Y-88378600D01*
X137021105Y-88305737D01*
X137155737Y-88171105D01*
X137215808Y-88026082D01*
X138896400Y-89572227D01*
X138896400Y-89695199D01*
X138969263Y-89871105D01*
X139103895Y-90005737D01*
X139279801Y-90078600D01*
X139470199Y-90078600D01*
X139646105Y-90005737D01*
X139780737Y-89871105D01*
X139853600Y-89695199D01*
X139853600Y-89504801D01*
X139780737Y-89328895D01*
X139678600Y-89226758D01*
X139678600Y-88600754D01*
X140725755Y-87553600D01*
X141966758Y-87553600D01*
X142068895Y-87655737D01*
X142244801Y-87728600D01*
X142435199Y-87728600D01*
X142611105Y-87655737D01*
X142745737Y-87521105D01*
X142818600Y-87345199D01*
X142818600Y-87154801D01*
X142745737Y-86978895D01*
X142611105Y-86844263D01*
X142435199Y-86771400D01*
X142244801Y-86771400D01*
X142068895Y-86844263D01*
X141966758Y-86946400D01*
X140629897Y-86946400D01*
X140600000Y-86940453D01*
X140570103Y-86946400D01*
X140570102Y-86946400D01*
X140481541Y-86964016D01*
X140381117Y-87031117D01*
X140364180Y-87056465D01*
X139553600Y-87867046D01*
X139553600Y-87779801D01*
X139480737Y-87603895D01*
X139346105Y-87469263D01*
X139178600Y-87399880D01*
X139178600Y-85026326D01*
X139304801Y-85078600D01*
X139495199Y-85078600D01*
X139671105Y-85005737D01*
X139805737Y-84871105D01*
X139878600Y-84695199D01*
X139878600Y-84654801D01*
X139921400Y-84654801D01*
X139921400Y-84845199D01*
X139994263Y-85021105D01*
X140128895Y-85155737D01*
X140304801Y-85228600D01*
X140495199Y-85228600D01*
X140671105Y-85155737D01*
X140805737Y-85021105D01*
X140878600Y-84845199D01*
X140878600Y-84654801D01*
X140805737Y-84478895D01*
X140671105Y-84344263D01*
X140495199Y-84271400D01*
X140304801Y-84271400D01*
X140128895Y-84344263D01*
X139994263Y-84478895D01*
X139921400Y-84654801D01*
X139878600Y-84654801D01*
X139878600Y-84504801D01*
X139805737Y-84328895D01*
X139703600Y-84226758D01*
X139703600Y-80734801D01*
X141791400Y-80734801D01*
X141791400Y-80925199D01*
X141864263Y-81101105D01*
X141998895Y-81235737D01*
X142174801Y-81308600D01*
X142365199Y-81308600D01*
X142541105Y-81235737D01*
X142553690Y-81223152D01*
X142594263Y-81321105D01*
X142728895Y-81455737D01*
X142904801Y-81528600D01*
X143095199Y-81528600D01*
X143271105Y-81455737D01*
X143405737Y-81321105D01*
X143478600Y-81145199D01*
X143478600Y-80954801D01*
X143405737Y-80778895D01*
X143271105Y-80644263D01*
X143095199Y-80571400D01*
X142904801Y-80571400D01*
X142728895Y-80644263D01*
X142716310Y-80656848D01*
X142675737Y-80558895D01*
X142541105Y-80424263D01*
X142365199Y-80351400D01*
X142174801Y-80351400D01*
X141998895Y-80424263D01*
X141864263Y-80558895D01*
X141791400Y-80734801D01*
X139703600Y-80734801D01*
X139703600Y-79579897D01*
X139709547Y-79550000D01*
X139703295Y-79518568D01*
X139685984Y-79431541D01*
X139618883Y-79331117D01*
X139593536Y-79314181D01*
X137894156Y-77614801D01*
X138921400Y-77614801D01*
X138921400Y-77805199D01*
X138994263Y-77981105D01*
X139128895Y-78115737D01*
X139304801Y-78188600D01*
X139495199Y-78188600D01*
X139671105Y-78115737D01*
X139805737Y-77981105D01*
X139878600Y-77805199D01*
X139878600Y-77614801D01*
X139805737Y-77438895D01*
X139671105Y-77304263D01*
X139495199Y-77231400D01*
X139304801Y-77231400D01*
X139128895Y-77304263D01*
X138994263Y-77438895D01*
X138921400Y-77614801D01*
X137894156Y-77614801D01*
X135659156Y-75379801D01*
X137171400Y-75379801D01*
X137171400Y-75570199D01*
X137244263Y-75746105D01*
X137378895Y-75880737D01*
X137554801Y-75953600D01*
X137745199Y-75953600D01*
X137921105Y-75880737D01*
X138055737Y-75746105D01*
X138128600Y-75570199D01*
X138128600Y-75379801D01*
X138097534Y-75304801D01*
X142651400Y-75304801D01*
X142651400Y-75495199D01*
X142724263Y-75671105D01*
X142858895Y-75805737D01*
X143034801Y-75878600D01*
X143225199Y-75878600D01*
X143401105Y-75805737D01*
X143535737Y-75671105D01*
X143608600Y-75495199D01*
X143608600Y-75304801D01*
X143535737Y-75128895D01*
X143401105Y-74994263D01*
X143225199Y-74921400D01*
X143034801Y-74921400D01*
X142858895Y-74994263D01*
X142724263Y-75128895D01*
X142651400Y-75304801D01*
X138097534Y-75304801D01*
X138055737Y-75203895D01*
X137921105Y-75069263D01*
X137745199Y-74996400D01*
X137554801Y-74996400D01*
X137378895Y-75069263D01*
X137244263Y-75203895D01*
X137171400Y-75379801D01*
X135659156Y-75379801D01*
X134378600Y-74099246D01*
X134378600Y-73954801D01*
X134305737Y-73778895D01*
X134171105Y-73644263D01*
X133995199Y-73571400D01*
X133804801Y-73571400D01*
X133628895Y-73644263D01*
X133494263Y-73778895D01*
X133421400Y-73954801D01*
X133421400Y-74145199D01*
X133494263Y-74321105D01*
X133628895Y-74455737D01*
X133804801Y-74528600D01*
X133949246Y-74528600D01*
X137052242Y-77631597D01*
X136955199Y-77591400D01*
X136764801Y-77591400D01*
X136588895Y-77664263D01*
X136454263Y-77798895D01*
X136381400Y-77974801D01*
X136381400Y-78165199D01*
X136454263Y-78341105D01*
X136588895Y-78475737D01*
X136764801Y-78548600D01*
X136955199Y-78548600D01*
X137131105Y-78475737D01*
X137265737Y-78341105D01*
X137338600Y-78165199D01*
X137338600Y-77974801D01*
X137298403Y-77877758D01*
X139096400Y-79675755D01*
X139096400Y-81084884D01*
X139093883Y-81081117D01*
X139068538Y-81064182D01*
X138503600Y-80499245D01*
X138503600Y-80354801D01*
X138430737Y-80178895D01*
X138296105Y-80044263D01*
X138120199Y-79971400D01*
X137929801Y-79971400D01*
X137753895Y-80044263D01*
X137619263Y-80178895D01*
X137546400Y-80354801D01*
X137546400Y-80545199D01*
X137619263Y-80721105D01*
X137753895Y-80855737D01*
X137929801Y-80928600D01*
X138074245Y-80928600D01*
X138466634Y-81320989D01*
X138395199Y-81291400D01*
X138204801Y-81291400D01*
X138028895Y-81364263D01*
X137894263Y-81498895D01*
X137821400Y-81674801D01*
X137821400Y-81865199D01*
X137894263Y-82041105D01*
X138028895Y-82175737D01*
X138204801Y-82248600D01*
X138395199Y-82248600D01*
X138571105Y-82175737D01*
X138571401Y-82175441D01*
X138571400Y-86177964D01*
X138495199Y-86146400D01*
X138304801Y-86146400D01*
X138128895Y-86219263D01*
X137994263Y-86353895D01*
X137921400Y-86529801D01*
X137921400Y-86720199D01*
X137994263Y-86896105D01*
X138128895Y-87030737D01*
X138304801Y-87103600D01*
X138495199Y-87103600D01*
X138571400Y-87072036D01*
X138571400Y-87645103D01*
X138569745Y-87653423D01*
X138505737Y-87498895D01*
X138371105Y-87364263D01*
X138195199Y-87291400D01*
X138050755Y-87291400D01*
X137306498Y-86547143D01*
X137346105Y-86530737D01*
X137480737Y-86396105D01*
X137553600Y-86220199D01*
X137553600Y-86201326D01*
X137679801Y-86253600D01*
X137870199Y-86253600D01*
X138046105Y-86180737D01*
X138180737Y-86046105D01*
X138253600Y-85870199D01*
X138253600Y-85679801D01*
X138180737Y-85503895D01*
X138046105Y-85369263D01*
X137870199Y-85296400D01*
X137679801Y-85296400D01*
X137503895Y-85369263D01*
X137378600Y-85494558D01*
X137378600Y-85130442D01*
X137403895Y-85155737D01*
X137579801Y-85228600D01*
X137770199Y-85228600D01*
X137946105Y-85155737D01*
X138080737Y-85021105D01*
X138153600Y-84845199D01*
X138153600Y-84654801D01*
X138080737Y-84478895D01*
X137946105Y-84344263D01*
X137770199Y-84271400D01*
X137579801Y-84271400D01*
X137403895Y-84344263D01*
X137378600Y-84369558D01*
X137378600Y-83825442D01*
X137418895Y-83865737D01*
X137594801Y-83938600D01*
X137785199Y-83938600D01*
X137961105Y-83865737D01*
X138095737Y-83731105D01*
X138168600Y-83555199D01*
X138168600Y-83364801D01*
X138095737Y-83188895D01*
X137961105Y-83054263D01*
X137785199Y-82981400D01*
X137594801Y-82981400D01*
X137418895Y-83054263D01*
X137378600Y-83094558D01*
X137378600Y-79529897D01*
X137384547Y-79500000D01*
X137370930Y-79431541D01*
X137360984Y-79381541D01*
X137293883Y-79281117D01*
X137268536Y-79264181D01*
X135728600Y-77724246D01*
X135728600Y-77579801D01*
X135655737Y-77403895D01*
X135521105Y-77269263D01*
X135345199Y-77196400D01*
X135154801Y-77196400D01*
X134978895Y-77269263D01*
X134844263Y-77403895D01*
X134771400Y-77579801D01*
X134771400Y-77770199D01*
X134844263Y-77946105D01*
X134978895Y-78080737D01*
X135154801Y-78153600D01*
X135299246Y-78153600D01*
X136771400Y-79625755D01*
X136771401Y-85751757D01*
X136669263Y-85853895D01*
X136652857Y-85893503D01*
X136453600Y-85694246D01*
X136453600Y-85019897D01*
X136459547Y-84990000D01*
X136435984Y-84871541D01*
X136400799Y-84818883D01*
X136368883Y-84771117D01*
X136343535Y-84754180D01*
X135573600Y-83984246D01*
X135573600Y-83784610D01*
X135679801Y-83828600D01*
X135870199Y-83828600D01*
X136046105Y-83755737D01*
X136180737Y-83621105D01*
X136253600Y-83445199D01*
X136253600Y-83254801D01*
X136180737Y-83078895D01*
X136046105Y-82944263D01*
X135945554Y-82902613D01*
X135970605Y-82892237D01*
X136105237Y-82757605D01*
X136178100Y-82581699D01*
X136178100Y-82391301D01*
X136105237Y-82215395D01*
X135970605Y-82080763D01*
X135794699Y-82007900D01*
X135604301Y-82007900D01*
X135573600Y-82020617D01*
X135573600Y-81200442D01*
X135698895Y-81325737D01*
X135874801Y-81398600D01*
X136065199Y-81398600D01*
X136241105Y-81325737D01*
X136375737Y-81191105D01*
X136448600Y-81015199D01*
X136448600Y-80824801D01*
X136375737Y-80648895D01*
X136241105Y-80514263D01*
X136065199Y-80441400D01*
X135948600Y-80441400D01*
X135948600Y-80354801D01*
X135875737Y-80178895D01*
X135741105Y-80044263D01*
X135565199Y-79971400D01*
X135374801Y-79971400D01*
X135198895Y-80044263D01*
X135064263Y-80178895D01*
X134991400Y-80354801D01*
X134991400Y-80520491D01*
X134984016Y-80531542D01*
X134960453Y-80650000D01*
X134966401Y-80679902D01*
X134966400Y-84080103D01*
X134960453Y-84110000D01*
X134966400Y-84139897D01*
X134984016Y-84228458D01*
X135051117Y-84328883D01*
X135076468Y-84345822D01*
X135846401Y-85115756D01*
X135846400Y-85790102D01*
X135840453Y-85820000D01*
X135846400Y-85849897D01*
X135864016Y-85938458D01*
X135931117Y-86038883D01*
X135956468Y-86055822D01*
X136331012Y-86430366D01*
X136303047Y-86426005D01*
X136279898Y-86421400D01*
X136273522Y-86421400D01*
X136237114Y-86415722D01*
X136213708Y-86421400D01*
X134119086Y-86421400D01*
X132887778Y-85279801D01*
X134871400Y-85279801D01*
X134871400Y-85470199D01*
X134944263Y-85646105D01*
X135078895Y-85780737D01*
X135254801Y-85853600D01*
X135445199Y-85853600D01*
X135621105Y-85780737D01*
X135755737Y-85646105D01*
X135828600Y-85470199D01*
X135828600Y-85279801D01*
X135755737Y-85103895D01*
X135621105Y-84969263D01*
X135445199Y-84896400D01*
X135254801Y-84896400D01*
X135078895Y-84969263D01*
X134944263Y-85103895D01*
X134871400Y-85279801D01*
X132887778Y-85279801D01*
X129991784Y-82594801D01*
X131801400Y-82594801D01*
X131801400Y-82785199D01*
X131874263Y-82961105D01*
X132008895Y-83095737D01*
X132184801Y-83168600D01*
X132375199Y-83168600D01*
X132397908Y-83159194D01*
X132444263Y-83271105D01*
X132578895Y-83405737D01*
X132754801Y-83478600D01*
X132945199Y-83478600D01*
X133121105Y-83405737D01*
X133255737Y-83271105D01*
X133328600Y-83095199D01*
X133328600Y-82904801D01*
X133255737Y-82728895D01*
X133121105Y-82594263D01*
X132945199Y-82521400D01*
X132754801Y-82521400D01*
X132732092Y-82530806D01*
X132685737Y-82418895D01*
X132551105Y-82284263D01*
X132375199Y-82211400D01*
X132184801Y-82211400D01*
X132008895Y-82284263D01*
X131874263Y-82418895D01*
X131801400Y-82594801D01*
X129991784Y-82594801D01*
X128884109Y-81567829D01*
X128890005Y-80034801D01*
X133781400Y-80034801D01*
X133781400Y-80225199D01*
X133854263Y-80401105D01*
X133988895Y-80535737D01*
X134164801Y-80608600D01*
X134355199Y-80608600D01*
X134531105Y-80535737D01*
X134665737Y-80401105D01*
X134738600Y-80225199D01*
X134738600Y-80034801D01*
X134665737Y-79858895D01*
X134531105Y-79724263D01*
X134355199Y-79651400D01*
X134164801Y-79651400D01*
X133988895Y-79724263D01*
X133854263Y-79858895D01*
X133781400Y-80034801D01*
X128890005Y-80034801D01*
X128892160Y-79474682D01*
X128995737Y-79371105D01*
X129068600Y-79195199D01*
X129068600Y-79004801D01*
X128995737Y-78828895D01*
X128861105Y-78694263D01*
X128685199Y-78621400D01*
X128494801Y-78621400D01*
X128318895Y-78694263D01*
X128184263Y-78828895D01*
X128111400Y-79004801D01*
X118855738Y-79004801D01*
X117857048Y-78006111D01*
X117781432Y-77955586D01*
X117692237Y-77937844D01*
X117603042Y-77955586D01*
X117527426Y-78006111D01*
X116306111Y-79227426D01*
X116255586Y-79303042D01*
X116237844Y-79392237D01*
X115737117Y-79392237D01*
X117533168Y-77596186D01*
X118374691Y-77596186D01*
X118459459Y-78022340D01*
X118639924Y-78292425D01*
X119007575Y-78660076D01*
X119277660Y-78840541D01*
X119703814Y-78925309D01*
X120129969Y-78840541D01*
X120491246Y-78599144D01*
X120514193Y-78564801D01*
X134621400Y-78564801D01*
X134621400Y-78755199D01*
X134694263Y-78931105D01*
X134828895Y-79065737D01*
X135004801Y-79138600D01*
X135195199Y-79138600D01*
X135371105Y-79065737D01*
X135505737Y-78931105D01*
X135578600Y-78755199D01*
X135578600Y-78564801D01*
X135505737Y-78388895D01*
X135371105Y-78254263D01*
X135195199Y-78181400D01*
X135004801Y-78181400D01*
X134828895Y-78254263D01*
X134694263Y-78388895D01*
X134621400Y-78564801D01*
X120514193Y-78564801D01*
X120732643Y-78237867D01*
X120817411Y-77811712D01*
X120732643Y-77385558D01*
X120552178Y-77115473D01*
X120184527Y-76747822D01*
X119914442Y-76567357D01*
X119488288Y-76482589D01*
X119062134Y-76567357D01*
X118700857Y-76808755D01*
X118459459Y-77170032D01*
X118374691Y-77596186D01*
X117533168Y-77596186D01*
X119329219Y-75800135D01*
X120170742Y-75800135D01*
X120255510Y-76226289D01*
X120435975Y-76496374D01*
X120803626Y-76864025D01*
X121073711Y-77044490D01*
X121499865Y-77129258D01*
X121926020Y-77044490D01*
X122287297Y-76803093D01*
X122528694Y-76441816D01*
X122613462Y-76015661D01*
X122553617Y-75714801D01*
X133351400Y-75714801D01*
X133351400Y-75905199D01*
X133424263Y-76081105D01*
X133558895Y-76215737D01*
X133734801Y-76288600D01*
X133925199Y-76288600D01*
X134101105Y-76215737D01*
X134235737Y-76081105D01*
X134308600Y-75905199D01*
X134308600Y-75714801D01*
X134235737Y-75538895D01*
X134101105Y-75404263D01*
X133925199Y-75331400D01*
X133734801Y-75331400D01*
X133558895Y-75404263D01*
X133424263Y-75538895D01*
X133351400Y-75714801D01*
X122553617Y-75714801D01*
X122528694Y-75589507D01*
X122348229Y-75319422D01*
X121980578Y-74951771D01*
X121710493Y-74771306D01*
X121284339Y-74686538D01*
X120858185Y-74771306D01*
X120496908Y-75012704D01*
X120255510Y-75373981D01*
X120170742Y-75800135D01*
X119329219Y-75800135D01*
X121125271Y-74004083D01*
X121966794Y-74004083D01*
X122051562Y-74430237D01*
X122232027Y-74700322D01*
X122599678Y-75067973D01*
X122869763Y-75248438D01*
X123295917Y-75333206D01*
X123722072Y-75248438D01*
X124083349Y-75007041D01*
X124324746Y-74645764D01*
X124409514Y-74219609D01*
X124324746Y-73793455D01*
X124144281Y-73523370D01*
X123776630Y-73155719D01*
X123506545Y-72975254D01*
X123080391Y-72890486D01*
X122654237Y-72975254D01*
X122292960Y-73216652D01*
X122051562Y-73577929D01*
X121966794Y-74004083D01*
X121125271Y-74004083D01*
X122921322Y-72208032D01*
X123762845Y-72208032D01*
X123847613Y-72634186D01*
X124028078Y-72904271D01*
X124395729Y-73271922D01*
X124665814Y-73452387D01*
X125091968Y-73537155D01*
X125518123Y-73452387D01*
X125879400Y-73210990D01*
X126120797Y-72849713D01*
X126205565Y-72423558D01*
X126120797Y-71997404D01*
X125940332Y-71727319D01*
X125572681Y-71359668D01*
X125302596Y-71179203D01*
X124876442Y-71094435D01*
X124450288Y-71179203D01*
X124089011Y-71420601D01*
X123847613Y-71781878D01*
X123762845Y-72208032D01*
X122921322Y-72208032D01*
X124717373Y-70411981D01*
X125558896Y-70411981D01*
X125643664Y-70838135D01*
X125824129Y-71108220D01*
X126191780Y-71475871D01*
X126461865Y-71656336D01*
X126888019Y-71741104D01*
X127314174Y-71656336D01*
X127577494Y-71480391D01*
X128990486Y-71480391D01*
X129075254Y-71906545D01*
X129255719Y-72176630D01*
X129623370Y-72544281D01*
X129893455Y-72724746D01*
X130319609Y-72809514D01*
X130745764Y-72724746D01*
X131107041Y-72483349D01*
X131348438Y-72122072D01*
X131433206Y-71695917D01*
X131348438Y-71269763D01*
X131167973Y-70999678D01*
X130800322Y-70632027D01*
X130530237Y-70451562D01*
X130104083Y-70366794D01*
X129677929Y-70451562D01*
X129316652Y-70692960D01*
X129075254Y-71054237D01*
X128990486Y-71480391D01*
X127577494Y-71480391D01*
X127675451Y-71414939D01*
X127916848Y-71053662D01*
X128001616Y-70627507D01*
X127916848Y-70201353D01*
X127736383Y-69931268D01*
X127368732Y-69563617D01*
X127098647Y-69383152D01*
X126672493Y-69298384D01*
X126246339Y-69383152D01*
X125885062Y-69624550D01*
X125643664Y-69985827D01*
X125558896Y-70411981D01*
X124717373Y-70411981D01*
X126513424Y-68615930D01*
X127354947Y-68615930D01*
X127439715Y-69042084D01*
X127620180Y-69312169D01*
X127987831Y-69679820D01*
X128257916Y-69860285D01*
X128684070Y-69945053D01*
X129110225Y-69860285D01*
X129373547Y-69684339D01*
X130786538Y-69684339D01*
X130871306Y-70110493D01*
X131051771Y-70380578D01*
X131419422Y-70748229D01*
X131689507Y-70928694D01*
X132115661Y-71013462D01*
X132541816Y-70928694D01*
X132903093Y-70687297D01*
X133144490Y-70326020D01*
X133229258Y-69899865D01*
X133144490Y-69473711D01*
X132964025Y-69203626D01*
X132596374Y-68835975D01*
X132326289Y-68655510D01*
X131900135Y-68570742D01*
X131473981Y-68655510D01*
X131112704Y-68896908D01*
X130871306Y-69258185D01*
X130786538Y-69684339D01*
X129373547Y-69684339D01*
X129471502Y-69618888D01*
X129712899Y-69257611D01*
X129797667Y-68831456D01*
X129712899Y-68405302D01*
X129532434Y-68135217D01*
X129164783Y-67767566D01*
X128894698Y-67587101D01*
X128468544Y-67502333D01*
X128042390Y-67587101D01*
X127681113Y-67828499D01*
X127439715Y-68189776D01*
X127354947Y-68615930D01*
X126513424Y-68615930D01*
X128309476Y-66819878D01*
X129150999Y-66819878D01*
X129235767Y-67246032D01*
X129416232Y-67516117D01*
X129783883Y-67883768D01*
X130053968Y-68064233D01*
X130480122Y-68149001D01*
X130906277Y-68064233D01*
X131169597Y-67888288D01*
X132582589Y-67888288D01*
X132667357Y-68314442D01*
X132847822Y-68584527D01*
X133215473Y-68952178D01*
X133485558Y-69132643D01*
X133911712Y-69217411D01*
X134337867Y-69132643D01*
X134699144Y-68891246D01*
X134940541Y-68529969D01*
X135025309Y-68103814D01*
X134940541Y-67677660D01*
X134760076Y-67407575D01*
X134392425Y-67039924D01*
X134122340Y-66859459D01*
X133696186Y-66774691D01*
X133270032Y-66859459D01*
X132908755Y-67100857D01*
X132667357Y-67462134D01*
X132582589Y-67888288D01*
X131169597Y-67888288D01*
X131267554Y-67822836D01*
X131508951Y-67461559D01*
X131593719Y-67035404D01*
X131508951Y-66609250D01*
X131328486Y-66339165D01*
X130960835Y-65971514D01*
X130690750Y-65791049D01*
X130264596Y-65706281D01*
X129838442Y-65791049D01*
X129477165Y-66032447D01*
X129235767Y-66393724D01*
X129150999Y-66819878D01*
X128309476Y-66819878D01*
X130105527Y-65023827D01*
X130947050Y-65023827D01*
X131031818Y-65449981D01*
X131212283Y-65720066D01*
X131579934Y-66087717D01*
X131850019Y-66268182D01*
X132276173Y-66352950D01*
X132702328Y-66268182D01*
X132965648Y-66092237D01*
X134037844Y-66092237D01*
X134055586Y-66181432D01*
X134106111Y-66257048D01*
X135542952Y-67693889D01*
X135618568Y-67744414D01*
X135707763Y-67762156D01*
X135796958Y-67744414D01*
X135872574Y-67693889D01*
X137093889Y-66472574D01*
X137144414Y-66396958D01*
X137162156Y-66307763D01*
X137144414Y-66218568D01*
X137093889Y-66142952D01*
X136255738Y-65304801D01*
X138021400Y-65304801D01*
X138021400Y-65495199D01*
X138094263Y-65671105D01*
X138228895Y-65805737D01*
X138404801Y-65878600D01*
X138595199Y-65878600D01*
X138771105Y-65805737D01*
X138905737Y-65671105D01*
X138978600Y-65495199D01*
X138978600Y-65304801D01*
X138905737Y-65128895D01*
X138771105Y-64994263D01*
X138595199Y-64921400D01*
X138404801Y-64921400D01*
X138228895Y-64994263D01*
X138094263Y-65128895D01*
X138021400Y-65304801D01*
X136255738Y-65304801D01*
X135755738Y-64804801D01*
X139531400Y-64804801D01*
X139531400Y-64995199D01*
X139604263Y-65171105D01*
X139738895Y-65305737D01*
X139914801Y-65378600D01*
X140105199Y-65378600D01*
X140281105Y-65305737D01*
X140415737Y-65171105D01*
X140488600Y-64995199D01*
X140488600Y-64804801D01*
X140415737Y-64628895D01*
X140281105Y-64494263D01*
X140105199Y-64421400D01*
X139914801Y-64421400D01*
X139738895Y-64494263D01*
X139604263Y-64628895D01*
X139531400Y-64804801D01*
X135755738Y-64804801D01*
X135657048Y-64706111D01*
X135581432Y-64655586D01*
X135492237Y-64637844D01*
X135403042Y-64655586D01*
X135327426Y-64706111D01*
X134106111Y-65927426D01*
X134055586Y-66003042D01*
X134037844Y-66092237D01*
X132965648Y-66092237D01*
X133063605Y-66026785D01*
X133305002Y-65665508D01*
X133389770Y-65239353D01*
X133305002Y-64813199D01*
X133124537Y-64543114D01*
X132756886Y-64175463D01*
X132486801Y-63994998D01*
X132060647Y-63910230D01*
X131634493Y-63994998D01*
X131273216Y-64236396D01*
X131031818Y-64597673D01*
X130947050Y-65023827D01*
X130105527Y-65023827D01*
X131901578Y-63227776D01*
X132743101Y-63227776D01*
X132827869Y-63653930D01*
X133008334Y-63924015D01*
X133375985Y-64291666D01*
X133646070Y-64472131D01*
X134072224Y-64556899D01*
X134498379Y-64472131D01*
X134859656Y-64230734D01*
X135101053Y-63869457D01*
X135185821Y-63443302D01*
X135101053Y-63017148D01*
X134920588Y-62747063D01*
X134552937Y-62379412D01*
X134282852Y-62198947D01*
X133856698Y-62114179D01*
X133430544Y-62198947D01*
X133069267Y-62440345D01*
X132827869Y-62801622D01*
X132743101Y-63227776D01*
X131901578Y-63227776D01*
X134624553Y-60504801D01*
X135521400Y-60504801D01*
X135521400Y-60695199D01*
X135594263Y-60871105D01*
X135728895Y-61005737D01*
X135904801Y-61078600D01*
X136095199Y-61078600D01*
X136271105Y-61005737D01*
X136405737Y-60871105D01*
X136478600Y-60695199D01*
X136478600Y-60504801D01*
X136405737Y-60328895D01*
X136271105Y-60194263D01*
X136095199Y-60121400D01*
X135904801Y-60121400D01*
X135728895Y-60194263D01*
X135594263Y-60328895D01*
X135521400Y-60504801D01*
X134624553Y-60504801D01*
X135049556Y-60079799D01*
X135067649Y-60076200D01*
X142171958Y-60076200D01*
X142119263Y-60128895D01*
M02*
