G04 #@! TF.GenerationSoftware,KiCad,Pcbnew,5.0-dev-unknown-28f1209~61~ubuntu16.04.1*
G04 #@! TF.CreationDate,2018-02-18T12:37:57+01:00*
G04 #@! TF.ProjectId,roboy_crazyfly,726F626F795F6372617A79666C792E6B,rev?*
G04 #@! TF.SameCoordinates,Original*
G04 #@! TF.FileFunction,Paste,Bot*
G04 #@! TF.FilePolarity,Positive*
%FSLAX46Y46*%
G04 Gerber Fmt 4.6, Leading zero omitted, Abs format (unit mm)*
G04 Created by KiCad (PCBNEW 5.0-dev-unknown-28f1209~61~ubuntu16.04.1) date Sun Feb 18 12:37:57 2018*
%MOMM*%
%LPD*%
G01*
G04 APERTURE LIST*
%ADD10R,0.600000X0.500000*%
%ADD11R,0.500000X0.600000*%
%ADD12C,0.500000*%
%ADD13C,0.100000*%
%ADD14R,0.400000X0.600000*%
%ADD15R,1.000000X0.250000*%
%ADD16R,0.250000X1.000000*%
%ADD17R,1.800000X2.000000*%
%ADD18C,0.500380*%
%ADD19C,1.998980*%
%ADD20R,0.600000X1.800000*%
%ADD21R,1.000000X2.800000*%
%ADD22R,1.800000X0.600000*%
%ADD23R,2.800000X1.000000*%
G04 APERTURE END LIST*
D10*
X132075000Y-90075000D03*
X130975000Y-90075000D03*
D11*
X143325000Y-77700000D03*
X143325000Y-76600000D03*
D10*
X147325000Y-88450000D03*
X148425000Y-88450000D03*
D12*
X149963909Y-96238909D03*
D13*
G36*
X150352818Y-96274264D02*
X149999264Y-96627818D01*
X149575000Y-96203554D01*
X149928554Y-95850000D01*
X150352818Y-96274264D01*
X150352818Y-96274264D01*
G37*
D12*
X149186091Y-95461091D03*
D13*
G36*
X149575000Y-95496446D02*
X149221446Y-95850000D01*
X148797182Y-95425736D01*
X149150736Y-95072182D01*
X149575000Y-95496446D01*
X149575000Y-95496446D01*
G37*
D12*
X150963909Y-95263909D03*
D13*
G36*
X151352818Y-95299264D02*
X150999264Y-95652818D01*
X150575000Y-95228554D01*
X150928554Y-94875000D01*
X151352818Y-95299264D01*
X151352818Y-95299264D01*
G37*
D12*
X150186091Y-94486091D03*
D13*
G36*
X150575000Y-94521446D02*
X150221446Y-94875000D01*
X149797182Y-94450736D01*
X150150736Y-94097182D01*
X150575000Y-94521446D01*
X150575000Y-94521446D01*
G37*
D12*
X147963909Y-98213909D03*
D13*
G36*
X148352818Y-98249264D02*
X147999264Y-98602818D01*
X147575000Y-98178554D01*
X147928554Y-97825000D01*
X148352818Y-98249264D01*
X148352818Y-98249264D01*
G37*
D12*
X147186091Y-97436091D03*
D13*
G36*
X147575000Y-97471446D02*
X147221446Y-97825000D01*
X146797182Y-97400736D01*
X147150736Y-97047182D01*
X147575000Y-97471446D01*
X147575000Y-97471446D01*
G37*
D12*
X151913909Y-94288909D03*
D13*
G36*
X152302818Y-94324264D02*
X151949264Y-94677818D01*
X151525000Y-94253554D01*
X151878554Y-93900000D01*
X152302818Y-94324264D01*
X152302818Y-94324264D01*
G37*
D12*
X151136091Y-93511091D03*
D13*
G36*
X151525000Y-93546446D02*
X151171446Y-93900000D01*
X150747182Y-93475736D01*
X151100736Y-93122182D01*
X151525000Y-93546446D01*
X151525000Y-93546446D01*
G37*
D12*
X148988909Y-97188909D03*
D13*
G36*
X149377818Y-97224264D02*
X149024264Y-97577818D01*
X148600000Y-97153554D01*
X148953554Y-96800000D01*
X149377818Y-97224264D01*
X149377818Y-97224264D01*
G37*
D12*
X148211091Y-96411091D03*
D13*
G36*
X148600000Y-96446446D02*
X148246446Y-96800000D01*
X147822182Y-96375736D01*
X148175736Y-96022182D01*
X148600000Y-96446446D01*
X148600000Y-96446446D01*
G37*
D10*
X132075000Y-88525000D03*
X130975000Y-88525000D03*
D14*
X131200000Y-87025000D03*
X130300000Y-87025000D03*
D15*
X134300000Y-88750000D03*
X134300000Y-88250000D03*
X134300000Y-87750000D03*
X134300000Y-87250000D03*
X134300000Y-86750000D03*
X134300000Y-86250000D03*
X134300000Y-85750000D03*
X134300000Y-85250000D03*
X134300000Y-84750000D03*
X134300000Y-84250000D03*
X134300000Y-83750000D03*
X134300000Y-83250000D03*
X134300000Y-82750000D03*
X134300000Y-82250000D03*
X134300000Y-81750000D03*
X134300000Y-81250000D03*
D16*
X136250000Y-79300000D03*
X136750000Y-79300000D03*
X137250000Y-79300000D03*
X137750000Y-79300000D03*
X138250000Y-79300000D03*
X138750000Y-79300000D03*
X139250000Y-79300000D03*
X139750000Y-79300000D03*
X140250000Y-79300000D03*
X140750000Y-79300000D03*
X141250000Y-79300000D03*
X141750000Y-79300000D03*
X142250000Y-79300000D03*
X142750000Y-79300000D03*
X143250000Y-79300000D03*
X143750000Y-79300000D03*
D15*
X145700000Y-81250000D03*
X145700000Y-81750000D03*
X145700000Y-82250000D03*
X145700000Y-82750000D03*
X145700000Y-83250000D03*
X145700000Y-83750000D03*
X145700000Y-84250000D03*
X145700000Y-84750000D03*
X145700000Y-85250000D03*
X145700000Y-85750000D03*
X145700000Y-86250000D03*
X145700000Y-86750000D03*
X145700000Y-87250000D03*
X145700000Y-87750000D03*
X145700000Y-88250000D03*
X145700000Y-88750000D03*
D16*
X143750000Y-90700000D03*
X143250000Y-90700000D03*
X142750000Y-90700000D03*
X142250000Y-90700000D03*
X141750000Y-90700000D03*
X141250000Y-90700000D03*
X140750000Y-90700000D03*
X140250000Y-90700000D03*
X139750000Y-90700000D03*
X139250000Y-90700000D03*
X138750000Y-90700000D03*
X138250000Y-90700000D03*
X137750000Y-90700000D03*
X137250000Y-90700000D03*
X136750000Y-90700000D03*
X136250000Y-90700000D03*
D17*
X123546000Y-87700000D03*
X128554000Y-87700000D03*
X123546000Y-83700000D03*
X128554000Y-83700000D03*
D18*
X147029450Y-76457525D03*
D13*
G36*
X147666150Y-75467003D02*
X148019972Y-75820825D01*
X146392750Y-77448047D01*
X146038928Y-77094225D01*
X147666150Y-75467003D01*
X147666150Y-75467003D01*
G37*
D18*
X147595206Y-77023281D03*
D13*
G36*
X148231906Y-76032759D02*
X148585728Y-76386581D01*
X146958506Y-78013803D01*
X146604684Y-77659981D01*
X148231906Y-76032759D01*
X148231906Y-76032759D01*
G37*
D18*
X148160962Y-77589038D03*
D13*
G36*
X148797662Y-76598516D02*
X149151484Y-76952338D01*
X147524262Y-78579560D01*
X147170440Y-78225738D01*
X148797662Y-76598516D01*
X148797662Y-76598516D01*
G37*
D18*
X148726719Y-78154794D03*
D13*
G36*
X149363419Y-77164272D02*
X149717241Y-77518094D01*
X148090019Y-79145316D01*
X147736197Y-78791494D01*
X149363419Y-77164272D01*
X149363419Y-77164272D01*
G37*
D18*
X149292475Y-78720550D03*
D13*
G36*
X149929175Y-77730028D02*
X150282997Y-78083850D01*
X148655775Y-79711072D01*
X148301953Y-79357250D01*
X149929175Y-77730028D01*
X149929175Y-77730028D01*
G37*
D19*
X145084327Y-74372310D03*
D13*
G36*
X145261238Y-72781907D02*
X146674730Y-74195399D01*
X144907416Y-75962713D01*
X143493924Y-74549221D01*
X145261238Y-72781907D01*
X145261238Y-72781907D01*
G37*
D19*
X148972778Y-70483859D03*
D13*
G36*
X149149689Y-68893456D02*
X150563181Y-70306948D01*
X148795867Y-72074262D01*
X147382375Y-70660770D01*
X149149689Y-68893456D01*
X149149689Y-68893456D01*
G37*
D19*
X151377690Y-80665673D03*
D13*
G36*
X151554601Y-79075270D02*
X152968093Y-80488762D01*
X151200779Y-82256076D01*
X149787287Y-80842584D01*
X151554601Y-79075270D01*
X151554601Y-79075270D01*
G37*
D19*
X155266141Y-76777222D03*
D13*
G36*
X155443052Y-75186819D02*
X156856544Y-76600311D01*
X155089230Y-78367625D01*
X153675738Y-76954133D01*
X155443052Y-75186819D01*
X155443052Y-75186819D01*
G37*
D20*
X140625000Y-65675000D03*
X139375000Y-65675000D03*
D21*
X137650000Y-62325000D03*
X142350000Y-62325000D03*
D20*
X139375000Y-104325000D03*
X140625000Y-104325000D03*
D21*
X142350000Y-107675000D03*
X137650000Y-107675000D03*
D22*
X120675000Y-84375000D03*
X120675000Y-85625000D03*
D23*
X117325000Y-87350000D03*
X117325000Y-82650000D03*
D22*
X159325000Y-85625000D03*
X159325000Y-84375000D03*
D23*
X162675000Y-82650000D03*
X162675000Y-87350000D03*
M02*
